<?xml version="1.0" encoding="UTF-8" standalone="no"?>
<svg
   xmlns:dc="http://purl.org/dc/elements/1.1/"
   xmlns:cc="http://creativecommons.org/ns#"
   xmlns:rdf="http://www.w3.org/1999/02/22-rdf-syntax-ns#"
   xmlns:svg="http://www.w3.org/2000/svg"
   xmlns="http://www.w3.org/2000/svg"
   xmlns:xlink="http://www.w3.org/1999/xlink"
   xmlns:sodipodi="http://sodipodi.sourceforge.net/DTD/sodipodi-0.dtd"
   xmlns:inkscape="http://www.inkscape.org/namespaces/inkscape"
   height="266.91199pt"
   version="1.1"
   viewBox="0 0 357.91999 266.91198"
   width="357.91998pt"
   id="svg314"
   sodipodi:docname="ReLU.svg"
   inkscape:version="1.0.1 (3bc2e813f5, 2020-09-07)">
  <sodipodi:namedview
     pagecolor="#ffffff"
     bordercolor="#666666"
     borderopacity="1"
     objecttolerance="10"
     gridtolerance="10"
     guidetolerance="10"
     inkscape:pageopacity="0"
     inkscape:pageshadow="2"
     inkscape:window-width="3840"
     inkscape:window-height="2106"
     id="namedview316"
     showgrid="false"
     inkscape:zoom="3.0935921"
     inkscape:cx="242.69989"
     inkscape:cy="161.53821"
     inkscape:window-x="0"
     inkscape:window-y="54"
     inkscape:window-maximized="0"
     inkscape:current-layer="svg314" />
  <metadata
     id="metadata2">
    <rdf:RDF>
      <cc:Work>
        <dc:type
           rdf:resource="http://purl.org/dc/dcmitype/StillImage" />
        <dc:date>2020-09-21T21:02:54.236341</dc:date>
        <dc:format>image/svg+xml</dc:format>
        <dc:creator>
          <cc:Agent>
            <dc:title>Matplotlib v3.3.2, https://matplotlib.org/</dc:title>
          </cc:Agent>
        </dc:creator>
        <dc:title></dc:title>
      </cc:Work>
    </rdf:RDF>
  </metadata>
  <defs
     id="defs6">
    <style
       type="text/css"
       id="style4">*{stroke-linecap:butt;stroke-linejoin:round;}</style>
  </defs>
  <path
     d="m -57.2,304.528 h 460.8 v -345.6 H -57.2 Z"
     style="fill:none"
     id="path8" />
  <g
     id="line2d_18"
     transform="translate(-57.2,-41.072)" />
  <g
     id="line2d_20"
     transform="translate(-57.2,-41.072)" />
  <g
     id="line2d_22"
     transform="translate(-57.2,-41.072)" />
  <g
     id="line2d_24"
     transform="translate(-57.2,-41.072)" />
  <g
     id="g1056"
     transform="translate(-57.2,-41.072)">
    <path
       d="M 57.6,307.584 H 414.72 V 41.472 H 57.6 Z"
       style="fill:none"
       id="path11" />
    <g
       id="xtick_1">
      <g
         id="line2d_1">
        <defs
           id="defs15">
          <path
             d="M 0,0 V -3.5"
             id="m9859cbec41"
             style="stroke:#586e75;stroke-width:0.8" />
        </defs>
        <g
           id="g19">
          <use
             style="fill:#586e75;stroke:#586e75;stroke-width:0.8"
             x="96.112938"
             xlink:href="#m9859cbec41"
             y="260.37057"
             id="use17"
             width="100%"
             height="100%" />
        </g>
      </g>
      <g
         id="text_1">
        <!-- −4 -->
        <g
           style="fill:#586e75"
           transform="matrix(0.1,0,0,-0.1,88.741847,251.29089)"
           id="g30">
          <defs
             id="defs24">
            <path
               d="M 10.59375,35.5 H 73.1875 V 27.203125 H 10.59375 Z"
               id="DejaVuSans-8722" />
            <path
               d="M 37.796875,64.3125 12.890625,25.390625 h 24.90625 z m -2.59375,8.59375 h 12.40625 V 25.390625 h 10.40625 V 17.1875 H 47.609375 V 0 h -9.8125 V 17.1875 H 4.890625 v 9.515625 z"
               id="DejaVuSans-52" />
          </defs>
          <use
             xlink:href="#DejaVuSans-8722"
             id="use26"
             x="0"
             y="0"
             width="100%"
             height="100%" />
          <use
             x="83.789062"
             xlink:href="#DejaVuSans-52"
             id="use28"
             y="0"
             width="100%"
             height="100%" />
        </g>
      </g>
    </g>
    <g
       id="xtick_2">
      <g
         id="line2d_2">
        <g
           id="g36">
          <use
             style="fill:#586e75;stroke:#586e75;stroke-width:0.8"
             x="166.13647"
             xlink:href="#m9859cbec41"
             y="260.37057"
             id="use34"
             width="100%"
             height="100%" />
        </g>
      </g>
      <g
         id="text_2">
        <!-- −2 -->
        <g
           style="fill:#586e75"
           transform="matrix(0.1,0,0,-0.1,158.76538,251.29089)"
           id="g46">
          <defs
             id="defs40">
            <path
               d="M 19.1875,8.296875 H 53.609375 V 0 H 7.328125 v 8.296875 q 5.609375,5.8125 15.296875,15.59375 9.703125,9.796875 12.1875,12.640625 4.734375,5.3125 6.609375,9 1.890625,3.6875 1.890625,7.25 0,5.8125 -4.078125,9.46875 -4.078125,3.671875 -10.625,3.671875 -4.640625,0 -9.796875,-1.609375 -5.140625,-1.609375 -11,-4.890625 v 9.96875 Q 13.765625,71.78125 18.9375,73 q 5.1875,1.21875 9.484375,1.21875 11.328125,0 18.0625,-5.671875 6.734375,-5.65625 6.734375,-15.125 0,-4.5 -1.6875,-8.53125 Q 49.859375,40.875 45.40625,35.40625 44.1875,33.984375 37.640625,27.21875 31.109375,20.453125 19.1875,8.296875 Z"
               id="DejaVuSans-50" />
          </defs>
          <use
             xlink:href="#DejaVuSans-8722"
             id="use42"
             x="0"
             y="0"
             width="100%"
             height="100%" />
          <use
             x="83.789062"
             xlink:href="#DejaVuSans-50"
             id="use44"
             y="0"
             width="100%"
             height="100%" />
        </g>
      </g>
    </g>
    <g
       id="xtick_3">
      <g
         id="line2d_3">
        <g
           id="g52">
          <use
             style="fill:#586e75;stroke:#586e75;stroke-width:0.8"
             x="236.16"
             xlink:href="#m9859cbec41"
             y="260.37057"
             id="use50"
             width="100%"
             height="100%" />
        </g>
      </g>
      <g
         id="text_3">
        <!-- 0 -->
        <g
           style="fill:#586e75"
           transform="matrix(0.1,0,0,-0.1,232.97875,251.29089)"
           id="g60">
          <defs
             id="defs56">
            <path
               d="m 31.78125,66.40625 q -7.609375,0 -11.453125,-7.5 Q 16.5,51.421875 16.5,36.375 q 0,-14.984375 3.828125,-22.484375 3.84375,-7.5 11.453125,-7.5 7.671875,0 11.5,7.5 3.84375,7.5 3.84375,22.484375 0,15.046875 -3.84375,22.53125 -3.828125,7.5 -11.5,7.5 z m 0,7.8125 q 12.265625,0 18.734375,-9.703125 6.46875,-9.6875 6.46875,-28.140625 0,-18.40625 -6.46875,-28.109375 -6.46875,-9.6875 -18.734375,-9.6875 -12.25,0 -18.71875,9.6875 Q 6.59375,17.96875 6.59375,36.375 q 0,18.453125 6.46875,28.140625 6.46875,9.703125 18.71875,9.703125 z"
               id="DejaVuSans-48" />
          </defs>
          <use
             xlink:href="#DejaVuSans-48"
             id="use58"
             x="0"
             y="0"
             width="100%"
             height="100%" />
        </g>
      </g>
    </g>
    <g
       id="xtick_4">
      <g
         id="line2d_4">
        <g
           id="g66">
          <use
             style="fill:#586e75;stroke:#586e75;stroke-width:0.8"
             x="306.18353"
             xlink:href="#m9859cbec41"
             y="260.37057"
             id="use64"
             width="100%"
             height="100%" />
        </g>
      </g>
      <g
         id="text_4">
        <!-- 2 -->
        <g
           style="fill:#586e75"
           transform="matrix(0.1,0,0,-0.1,303.00228,251.29089)"
           id="g71">
          <use
             xlink:href="#DejaVuSans-50"
             id="use69"
             x="0"
             y="0"
             width="100%"
             height="100%" />
        </g>
      </g>
    </g>
    <g
       id="xtick_5">
      <g
         id="line2d_5">
        <g
           id="g77">
          <use
             style="fill:#586e75;stroke:#586e75;stroke-width:0.8"
             x="376.20706"
             xlink:href="#m9859cbec41"
             y="260.37057"
             id="use75"
             width="100%"
             height="100%" />
        </g>
      </g>
      <g
         id="text_5">
        <!-- 4 -->
        <g
           style="fill:#586e75"
           transform="matrix(0.1,0,0,-0.1,373.02581,251.29089)"
           id="g82">
          <use
             xlink:href="#DejaVuSans-52"
             id="use80"
             x="0"
             y="0"
             width="100%"
             height="100%" />
        </g>
      </g>
    </g>
    <g
       id="ytick_1">
      <g
         id="line2d_6">
        <defs
           id="defs88">
          <path
             d="M 0,0 H 3.5"
             id="m74a47aac1e"
             style="stroke:#586e75;stroke-width:0.8" />
        </defs>
        <g
           id="g92">
          <use
             style="fill:#586e75;stroke:#586e75;stroke-width:0.8"
             x="236.16"
             xlink:href="#m74a47aac1e"
             y="303.29187"
             id="use90"
             width="100%"
             height="100%" />
        </g>
      </g>
      <g
         id="text_6">
        <!-- −1 -->
        <g
           style="fill:#586e75"
           transform="matrix(0.1,0,0,-0.1,243.16,307.09109)"
           id="g102">
          <defs
             id="defs96">
            <path
               d="m 12.40625,8.296875 h 16.109375 v 55.625 L 10.984375,60.40625 v 8.984375 l 17.4375,3.515625 H 38.28125 V 8.296875 H 54.390625 V 0 H 12.40625 Z"
               id="DejaVuSans-49" />
          </defs>
          <use
             xlink:href="#DejaVuSans-8722"
             id="use98"
             x="0"
             y="0"
             width="100%"
             height="100%" />
          <use
             x="83.789062"
             xlink:href="#DejaVuSans-49"
             id="use100"
             y="0"
             width="100%"
             height="100%" />
        </g>
      </g>
    </g>
    <g
       id="ytick_2">
      <g
         id="line2d_7">
        <g
           id="g108">
          <use
             style="fill:#586e75;stroke:#586e75;stroke-width:0.8"
             x="236.16"
             xlink:href="#m74a47aac1e"
             y="260.37057"
             id="use106"
             width="100%"
             height="100%" />
        </g>
      </g>
      <g
         id="text_7">
        <!-- 0 -->
        <g
           style="fill:#586e75"
           transform="matrix(0.1,0,0,-0.1,243.16,264.1698)"
           id="g113">
          <use
             xlink:href="#DejaVuSans-48"
             id="use111"
             x="0"
             y="0"
             width="100%"
             height="100%" />
        </g>
      </g>
    </g>
    <g
       id="ytick_3">
      <g
         id="line2d_8">
        <g
           id="g119">
          <use
             style="fill:#586e75;stroke:#586e75;stroke-width:0.8"
             x="236.16"
             xlink:href="#m74a47aac1e"
             y="217.4493"
             id="use117"
             width="100%"
             height="100%" />
        </g>
      </g>
      <g
         id="text_8">
        <!-- 1 -->
        <g
           style="fill:#586e75"
           transform="matrix(0.1,0,0,-0.1,243.16,221.24851)"
           id="g124">
          <use
             xlink:href="#DejaVuSans-49"
             id="use122"
             x="0"
             y="0"
             width="100%"
             height="100%" />
        </g>
      </g>
    </g>
    <g
       id="ytick_4">
      <g
         id="line2d_9">
        <g
           id="g130">
          <use
             style="fill:#586e75;stroke:#586e75;stroke-width:0.8"
             x="236.16"
             xlink:href="#m74a47aac1e"
             y="174.528"
             id="use128"
             width="100%"
             height="100%" />
        </g>
      </g>
      <g
         id="text_9">
        <!-- 2 -->
        <g
           style="fill:#586e75"
           transform="matrix(0.1,0,0,-0.1,243.16,178.32722)"
           id="g135">
          <use
             xlink:href="#DejaVuSans-50"
             id="use133"
             x="0"
             y="0"
             width="100%"
             height="100%" />
        </g>
      </g>
    </g>
    <g
       id="ytick_5">
      <g
         id="line2d_10">
        <g
           id="g141">
          <use
             style="fill:#586e75;stroke:#586e75;stroke-width:0.8"
             x="236.16"
             xlink:href="#m74a47aac1e"
             y="131.6067"
             id="use139"
             width="100%"
             height="100%" />
        </g>
      </g>
      <g
         id="text_10">
        <!-- 3 -->
        <g
           style="fill:#586e75"
           transform="matrix(0.1,0,0,-0.1,243.16,135.40593)"
           id="g149">
          <defs
             id="defs145">
            <path
               d="M 40.578125,39.3125 Q 47.65625,37.796875 51.625,33 q 3.984375,-4.78125 3.984375,-11.8125 0,-10.78125 -7.421875,-16.703125 -7.421875,-5.90625 -21.09375,-5.90625 -4.578125,0 -9.4375,0.90625 -4.859375,0.90625 -10.03125,2.71875 v 9.515625 q 4.09375,-2.390625 8.96875,-3.609375 4.890625,-1.21875 10.21875,-1.21875 9.265625,0 14.125,3.65625 4.859375,3.65625 4.859375,10.640625 0,6.453125 -4.515625,10.078125 -4.515625,3.640625 -12.5625,3.640625 h -8.5 v 8.109375 h 8.890625 q 7.265625,0 11.125,2.90625 3.859375,2.90625 3.859375,8.375 0,5.609375 -3.984375,8.609375 -3.96875,3.015625 -11.390625,3.015625 -4.0625,0 -8.703125,-0.890625 Q 15.375,64.15625 9.8125,62.3125 v 8.78125 q 5.625,1.5625 10.53125,2.34375 4.90625,0.78125 9.25,0.78125 11.234375,0 17.765625,-5.109375 6.546875,-5.09375 6.546875,-13.78125 0,-6.0625 -3.46875,-10.234375 -3.46875,-4.171875 -9.859375,-5.78125 z"
               id="DejaVuSans-51" />
          </defs>
          <use
             xlink:href="#DejaVuSans-51"
             id="use147"
             x="0"
             y="0"
             width="100%"
             height="100%" />
        </g>
      </g>
    </g>
    <g
       id="ytick_6">
      <g
         id="line2d_11">
        <g
           id="g155">
          <use
             style="fill:#586e75;stroke:#586e75;stroke-width:0.8"
             x="236.16"
             xlink:href="#m74a47aac1e"
             y="88.685417"
             id="use153"
             width="100%"
             height="100%" />
        </g>
      </g>
      <g
         id="text_11">
        <!-- 4 -->
        <g
           style="fill:#586e75"
           transform="matrix(0.1,0,0,-0.1,243.16,92.484638)"
           id="g160">
          <use
             xlink:href="#DejaVuSans-52"
             id="use158"
             x="0"
             y="0"
             width="100%"
             height="100%" />
        </g>
      </g>
    </g>
    <g
       id="ytick_7">
      <g
         id="line2d_12">
        <g
           id="g166">
          <use
             style="fill:#586e75;stroke:#586e75;stroke-width:0.8"
             x="236.16"
             xlink:href="#m74a47aac1e"
             y="45.76413"
             id="use164"
             width="100%"
             height="100%" />
        </g>
      </g>
      <g
         id="text_12">
        <!-- 5 -->
        <g
           style="fill:#586e75"
           transform="matrix(0.1,0,0,-0.1,243.16,49.563348)"
           id="g174">
          <defs
             id="defs170">
            <path
               d="m 10.796875,72.90625 h 38.71875 v -8.3125 h -29.6875 V 46.734375 q 2.140625,0.734375 4.28125,1.09375 2.15625,0.359375 4.3125,0.359375 Q 40.625,48.1875 47.75,41.5 54.890625,34.8125 54.890625,23.390625 54.890625,11.625 47.5625,5.09375 40.234375,-1.421875 26.90625,-1.421875 q -4.59375,0 -9.359375,0.78125 -4.75,0.78125 -9.828125,2.34375 V 11.625 q 4.390625,-2.390625 9.078125,-3.5625 4.6875,-1.171875 9.90625,-1.171875 8.453125,0 13.375,4.4375 4.9375,4.4375 4.9375,12.0625 0,7.609375 -4.9375,12.046875 -4.921875,4.453125 -13.375,4.453125 -3.953125,0 -7.890625,-0.875 -3.921875,-0.875 -8.015625,-2.734375 z"
               id="DejaVuSans-53" />
          </defs>
          <use
             xlink:href="#DejaVuSans-53"
             id="use172"
             x="0"
             y="0"
             width="100%"
             height="100%" />
        </g>
      </g>
    </g>
    <path
       clip-path="url(#p9f58402432)"
       d="M 61.101176,260.37058 H 236.16 L 410.51859,46.622555 v 0"
       style="fill:none;stroke:#b58900;stroke-width:2;stroke-linecap:square"
       id="path179" />
    <path
       clip-path="url(#p9f58402432)"
       d="M 61.101176,303.29187 236.16,260.37058 410.51859,46.622555 v 0"
       style="fill:none;stroke:#268bd2;stroke-width:2;stroke-dasharray:7.4, 3.2;stroke-dashoffset:0"
       id="path182" />
    <path
       clip-path="url(#p9f58402432)"
       d="m 61.101176,281.68662 35.712,-0.2564 23.107764,-0.37486 16.80565,-0.47799 14.0047,-0.61667 11.20377,-0.70543 9.80329,-0.83237 8.40283,-0.9245 7.70258,-1.06621 7.00236,-1.19536 6.30211,-1.30053 5.60189,-1.36986 5.60188,-1.60754 4.90165,-1.63383 4.90164,-1.87935 4.20142,-1.8341 4.20141,-2.06795 4.20141,-2.33161 1.40047,-0.84148 174.35859,-213.748025 v 0"
       style="fill:none;stroke:#dc322f;stroke-width:2;stroke-dasharray:2, 3.3;stroke-dashoffset:0"
       id="path185" />
    <path
       clip-path="url(#p9f58402432)"
       d="m 61.101176,260.08235 26.608942,-0.32575 19.606592,-0.45519 15.40517,-0.57971 12.60424,-0.6953 10.50353,-0.79081 9.80329,-0.96594 8.40282,-1.04799 7.70259,-1.17768 7.00236,-1.28301 7.00235,-1.51677 6.30212,-1.59153 6.30211,-1.83089 5.60189,-1.8476 5.60188,-2.07137 5.60188,-2.30978 5.60188,-2.56096 5.60189,-2.82254 5.60188,-3.09166 5.60188,-3.36507 5.60188,-3.63937 5.60189,-3.91106 5.60188,-4.17678 5.60188,-4.4335 6.30212,-5.27994 6.30211,-5.57028 7.00236,-6.50277 7.00235,-6.80156 7.70259,-7.78761 8.40282,-8.81246 9.10306,-9.86156 10.50353,-11.71043 11.904,-13.60828 14.00471,-16.3496 17.50588,-20.79405 22.40753,-26.977298 22.40753,-27.207731 v 0"
       style="fill:none;stroke:#d33682;stroke-width:2;stroke-dasharray:12.8, 3.2, 2, 3.2;stroke-dashoffset:0"
       id="path188" />
    <path
       d="M 236.16,307.584 V 41.472"
       style="fill:none;stroke:#586e75;stroke-width:0.8;stroke-linecap:square;stroke-linejoin:miter"
       id="path191" />
    <path
       d="M 236.16,307.584 V 41.472"
       style="fill:none;stroke:#586e75;stroke-width:0.8;stroke-linecap:square;stroke-linejoin:miter"
       id="path194" />
    <path
       d="M 57.6,260.37058 H 414.72"
       style="fill:none;stroke:#586e75;stroke-width:0.8;stroke-linecap:square;stroke-linejoin:miter"
       id="path197" />
    <path
       d="M 57.6,260.37058 H 414.72"
       style="fill:none;stroke:#586e75;stroke-width:0.8;stroke-linecap:square;stroke-linejoin:miter"
       id="path200" />
    <g
       id="line2d_17">
      <path
         d="m 71.1,60.222 h 30"
         style="fill:none;stroke:#b58900;stroke-width:2;stroke-linecap:square"
         id="path206" />
    </g>
    <g
       id="text_13">
      <!-- ReLU -->
      <g
         style="fill:#586e75"
         transform="matrix(0.15,0,0,-0.15,113.1,65.472)"
         id="g224">
        <defs
           id="defs214">
          <path
             d="m 41.90625,24.59375 c -1.3125,1.90625 -2.5,4.109375 -2.5,5 0,0.90625 0.390625,0.8125 1.6875,1.8125 C 45.796875,34.796875 49,39 49,45.40625 49,55.5 37.796875,59.703125 27.703125,59.703125 c -8.90625,0 -13,-0.296875 -21.796875,-1 -2.109375,-0.109375 -3.5,-0.609375 -3.5,-1.796875 C 2.40625,56 3.09375,55.5 4,55.203125 9.703125,53.59375 12.203125,53.5 12.203125,47.796875 V 11.703125 C 12.203125,8 10.90625,6 7.5,4.5 5.296875,3.5 2,3 2,1.5 c 0,-1 2.203125,-1.59375 3.296875,-1.703125 0.703125,0 6.703125,0.609375 11,0.609375 4.796875,0 11.40625,-0.609375 12.109375,-0.609375 C 29.5,-0.09375 31.59375,0.5 31.59375,1.5 c 0,1.5 -3.296875,2 -5.5,3 -3.390625,1.5 -4.6875,3.5 -4.6875,7.203125 v 12 c 0,2 0.6875,2.703125 2.796875,2.703125 4.203125,0 7.09375,-1.3125 8.296875,-3.3125 C 37.703125,14.40625 42.40625,8.5 48.296875,2.296875 51.09375,-0.703125 56.09375,-2.40625 61,-2.40625 c 3.5,0 7,1.203125 7,3 0,0.8125 -0.59375,1.609375 -1.703125,1.703125 C 64.09375,2.5 61.796875,3 60.59375,3.90625 c -7.5,5.390625 -13.796875,13.390625 -18.6875,20.6875 z M 25.5,30 c -2.90625,0 -4.09375,0.796875 -4.09375,2.59375 v 19.3125 c 0,1.890625 2.1875,3.390625 5,3.390625 C 33.09375,55.296875 39,50.59375 39,43.90625 39,38.703125 36.796875,35.296875 32.90625,32 32,31 28.5,30 25.5,30 Z"
             id="EBGaramond08-Regular-82" />
          <path
             d="m 12.40625,31.5 c 0,2 4.09375,6.90625 10.09375,6.90625 2.90625,0 5.90625,-2 5.90625,-4.90625 0,-1.40625 -0.5,-3.09375 -1.5,-3.09375 H 13.703125 C 12.5,30.40625 12.40625,30.796875 12.40625,31.5 Z m 24.6875,1.09375 C 37.09375,37.703125 30.703125,43 23.90625,43 11.703125,43 2.296875,33.59375 2.296875,21.296875 2.296875,10 8.5,-0.796875 19.59375,-0.796875 c 9.8125,0 15.609375,4.796875 15.609375,7.703125 0,1 -0.5,1.390625 -1.5,1.390625 -1,0 -5.40625,-2.296875 -10.40625,-2.296875 -7.890625,0 -12.59375,8.203125 -12.59375,15.796875 0,1.703125 0,1.90625 0.390625,3 0.3125,0.796875 0.5,1 1.90625,1 h 21.09375 c 2.609375,0 3,4.109375 3,6.796875 z"
             id="EBGaramond08-Regular-101" />
          <path
             d="m 21.703125,8.5 v 39.703125 c 0,5.703125 2.703125,5.796875 8.390625,7.390625 0.90625,0.3125 1.5,0.8125 1.5,1.703125 0,1.203125 -2,1.796875 -3.5,1.796875 -3.390625,0 -7.5,-0.5 -11,-0.5 -3.59375,0 -7.1875,0.5 -11.09375,0.5 C 3.796875,59.09375 2.40625,58.5 2.40625,57.296875 2.40625,56.40625 3.09375,55.90625 4,55.59375 9.703125,54 12.203125,53.90625 12.203125,48.203125 v -36.5 C 12.203125,8 10.90625,6 7.5,4.5 5.296875,3.5 2,3 2,1.5 c 0,-1 2.203125,-1.59375 3.296875,-1.703125 0.703125,0 6.609375,0.5 11.296875,0.5 10.609375,0 29.5,-0.5 33.203125,-0.5 1.703125,0 2,0.40625 2.796875,1.90625 0.8125,1.296875 3.3125,9.390625 3.3125,12.09375 0,2.796875 -0.8125,4.703125 -1.8125,4.703125 -0.890625,0 -2.1875,-0.796875 -2.6875,-1.90625 C 48.5,10.5 47.203125,4.5 39.5,4.5 H 26.09375 C 23,4.5 21.703125,5.59375 21.703125,8.5 Z"
             id="EBGaramond08-Regular-76" />
          <path
             d="m 56,49.203125 c 0,3.890625 0.90625,4.890625 5.5,6.390625 0.90625,0.3125 1.703125,0.8125 1.703125,1.703125 0,1.203125 -2,1.796875 -3.5,1.796875 -1.5,0 -4.90625,-0.5 -6.40625,-0.5 -1.5,0 -5,0.5 -6.5,0.5 -1.5,0 -3.5,-0.59375 -3.5,-1.796875 0,-0.890625 0.796875,-1.5 1.703125,-1.796875 4.203125,-1.40625 5.296875,-1.296875 5.296875,-6.5 V 30.40625 c 0,-15.609375 -3.390625,-26 -17.09375,-26 -12.203125,0 -15.109375,8 -15.109375,24 v 20 c 0,4 2.40625,5.796875 6.703125,7.1875 0.90625,0.3125 1.5,0.8125 1.5,1.703125 0,1.203125 -2,1.796875 -3.5,1.796875 -3.390625,0 -7.890625,-0.5 -11.390625,-0.5 -3.609375,0 -4,0.5 -7.90625,0.5 C 2,59.09375 0,58.5 0,57.296875 0,56.40625 0.703125,55.90625 1.59375,55.59375 c 6.3125,-2.09375 7,-2.59375 7,-7.390625 V 24.796875 C 8.59375,9.5 13.203125,-0.59375 31.09375,-0.59375 45.796875,-0.59375 56,9.5 56,25 Z"
             id="EBGaramond08-Regular-85" />
        </defs>
        <use
           xlink:href="#EBGaramond08-Regular-82"
           id="use216"
           x="0"
           y="0"
           width="100%"
           height="100%" />
        <use
           x="65.099991"
           xlink:href="#EBGaramond08-Regular-101"
           id="use218"
           y="0"
           width="100%"
           height="100%" />
        <use
           x="104.19998"
           xlink:href="#EBGaramond08-Regular-76"
           id="use220"
           y="0"
           width="100%"
           height="100%" />
        <use
           x="163.29997"
           xlink:href="#EBGaramond08-Regular-85"
           id="use222"
           y="0"
           width="100%"
           height="100%" />
      </g>
    </g>
    <g
       id="line2d_19">
      <path
         d="m 71.1,82.316531 h 30"
         style="fill:none;stroke:#268bd2;stroke-width:2;stroke-dasharray:7.4, 3.2;stroke-dashoffset:0"
         id="path227" />
    </g>
    <g
       id="text_14">
      <!-- LeakyReLU -->
      <g
         style="fill:#586e75"
         transform="matrix(0.15,0,0,-0.15,113.1,87.566531)"
         id="g254">
        <defs
           id="defs234">
          <path
             d="m 11.09375,13.09375 c 0,1.703125 1.5,3.703125 5,4.8125 l 4.8125,1.890625 C 22,20.203125 23.203125,20.203125 23.203125,19.09375 V 9.703125 c 0,-2.40625 -3.40625,-3.796875 -6.203125,-3.796875 -3.59375,0 -5.90625,2.296875 -5.90625,7.1875 z M 18.5,43 c -3.703125,0 -7.5,-2.296875 -11,-4.703125 -2.09375,-1.5 -3.796875,-4.5 -3.796875,-6.796875 0,-0.796875 0.203125,-3.40625 0.796875,-3.40625 1,0 5,1.703125 5.59375,2.109375 0.90625,0.59375 1,1.390625 1,3.890625 0,2.109375 2.5,2.90625 4.609375,2.90625 C 19.203125,37 23,34.40625 23,30.90625 V 26 c 0,-1 -0.5,-1.5 -2.296875,-2.296875 l -13.109375,-5.5 c -3,-1.296875 -5.390625,-4.40625 -5.390625,-9.40625 0,-5 5,-9.59375 9.890625,-9.59375 3.90625,0 7.90625,2 10.203125,4.296875 0.703125,0.703125 0.796875,0.796875 1.5,-0.203125 1.296875,-1.796875 3.609375,-4.09375 6.90625,-4.09375 4,0 9,2.59375 9,6.203125 0,1.09375 -0.296875,2.1875 -0.90625,2.1875 -0.703125,0 -2.203125,-1.296875 -3.59375,-1.296875 C 33.5,6.296875 31.59375,7.5 31.59375,9.09375 V 32.796875 C 31.59375,38.09375 27,43 18.5,43 Z"
             id="EBGaramond08-Regular-97" />
          <path
             d="M 31.5,8.203125 C 33,6.59375 34.09375,5 34.09375,4.5 c 0,-0.5 -3.6875,-1.703125 -3.6875,-2.703125 0,-1 0.890625,-2 3.5,-2 2.1875,0 5.6875,0.609375 7.6875,0.609375 1.609375,0 6.609375,-0.609375 8.8125,-0.609375 2.59375,0 3.390625,1 3.390625,2 0,1 -1.59375,1.796875 -4.296875,2.609375 -2.90625,0.890625 -8.09375,4.890625 -12.09375,8.890625 -4,4 -7.90625,7.203125 -7.90625,8.703125 0,1 1,2.203125 1.703125,2.90625 l 6.703125,7.390625 c 2.5,2.796875 6.296875,5.296875 7.390625,5.703125 1.5,0.5 3.40625,1.296875 3.40625,2.296875 0,1 -0.796875,2 -2.40625,2 -1.5,0 -4.5,-0.59375 -6,-0.59375 H 32.40625 c -1.609375,0 -2.5,-1 -2.5,-2 0,-1 0.890625,-1.40625 2.390625,-1.703125 C 32.90625,37.90625 34,37.203125 34,36.203125 34,35.5 33.5,34.5 32.40625,33.203125 L 26.703125,26.40625 c -3.109375,-3.703125 -4.796875,-4.203125 -6.5,-4.203125 -2,0 -2.203125,0.5 -2.203125,1.796875 v 41.40625 c 0,2 0,2.6875 -1.203125,2.6875 -1,0 -6.390625,-1.6875 -10.390625,-2.390625 C 5,65.5 3.5,64.703125 3.5,63.59375 3.5,62.5 4.703125,61.703125 5.796875,61.296875 c 2.40625,-0.890625 3.90625,-2.890625 3.90625,-4.59375 v -45.90625 c 0,-2.5 -1.109375,-5.59375 -3.796875,-6.390625 C 3.203125,3.59375 1.5,2.796875 1.5,1.796875 c 0,-1 0.90625,-2 3.5,-2 2.203125,0 6.90625,0.609375 8.90625,0.609375 1.59375,0 5.59375,-0.609375 7.796875,-0.609375 2.59375,0 3.390625,1 3.390625,2 0,1 -0.59375,1.796875 -3.296875,2.609375 C 19.09375,5.203125 18,8.296875 18,10.796875 v 6.5 c 0,1.109375 0.59375,1.90625 2.09375,1.90625 1,0 2.8125,-2 5.109375,-4.40625 z"
             id="EBGaramond08-Regular-107" />
          <path
             d="m 18.703125,3.5 c 0.296875,-0.703125 0.5,-1.59375 0.5,-2.5 0,-2.203125 -1.796875,-6.59375 -4.109375,-11.5 C 14,-12.796875 11.796875,-14.796875 8,-14.796875 c -3,0 -6,-2.609375 -6,-5.609375 0,-2.796875 1.90625,-5.6875 5.09375,-5.6875 4.609375,0 7.90625,5 8.90625,7.5 L 35.296875,32.296875 C 36.5,35.59375 38.5,37.59375 39.59375,38 41.09375,38.5 43,39.296875 43,40.296875 c 0,1 -0.796875,2 -2.40625,2 -1.5,0 -3.296875,-0.59375 -4.796875,-0.59375 -1.5,0 -4,0.59375 -5.5,0.59375 -1.59375,0 -2.5,-1 -2.5,-2 0,-1 1.296875,-2 2.796875,-2.296875 0.609375,-0.09375 1.703125,-0.796875 1.703125,-1.796875 0,-0.703125 -0.203125,-2.109375 -1,-4.109375 L 24.703125,14.703125 C 24.09375,13.203125 23.703125,13.09375 23,15 l -8.09375,20.40625 c -0.40625,1 0,2.296875 0.5,2.390625 2.1875,0.703125 3.390625,1.5 3.390625,2.5 0,1 -0.890625,2 -2.5,2 -1.5,0 -5.703125,-0.59375 -7.203125,-0.59375 -1.5,0 -4.890625,0.59375 -6.390625,0.59375 -1.609375,0 -2.40625,-1 -2.40625,-2 C 0.296875,39.296875 2.09375,38.5 3.59375,38 5.09375,37.5 6.5,34.296875 7.5,31.703125 Z"
             id="EBGaramond08-Regular-121" />
        </defs>
        <use
           xlink:href="#EBGaramond08-Regular-76"
           id="use236"
           x="0"
           y="0"
           width="100%"
           height="100%" />
        <use
           x="59.099991"
           xlink:href="#EBGaramond08-Regular-101"
           id="use238"
           y="0"
           width="100%"
           height="100%" />
        <use
           x="98.199982"
           xlink:href="#EBGaramond08-Regular-97"
           id="use240"
           y="0"
           width="100%"
           height="100%" />
        <use
           x="139.09998"
           xlink:href="#EBGaramond08-Regular-107"
           id="use242"
           y="0"
           width="100%"
           height="100%" />
        <use
           x="191.99997"
           xlink:href="#EBGaramond08-Regular-121"
           id="use244"
           y="0"
           width="100%"
           height="100%" />
        <use
           x="233.89996"
           xlink:href="#EBGaramond08-Regular-82"
           id="use246"
           y="0"
           width="100%"
           height="100%" />
        <use
           x="298.99994"
           xlink:href="#EBGaramond08-Regular-101"
           id="use248"
           y="0"
           width="100%"
           height="100%" />
        <use
           x="338.09995"
           xlink:href="#EBGaramond08-Regular-76"
           id="use250"
           y="0"
           width="100%"
           height="100%" />
        <use
           x="397.19995"
           xlink:href="#EBGaramond08-Regular-85"
           id="use252"
           y="0"
           width="100%"
           height="100%" />
      </g>
    </g>
    <g
       id="line2d_21">
      <path
         d="m 71.1,104.41106 h 30"
         style="fill:none;stroke:#dc322f;stroke-width:2;stroke-dasharray:2, 3.3;stroke-dashoffset:0"
         id="path257" />
    </g>
    <g
       id="text_15">
      <!-- ELU -->
      <g
         style="fill:#586e75"
         transform="matrix(0.15,0,0,-0.15,113.1,109.66106)"
         id="g270">
        <defs
           id="defs262">
          <path
             d="m 21.703125,35.59375 v 16.8125 c 0,1.296875 0.390625,2.09375 3.09375,2.09375 h 11.90625 C 41.5,54.5 44,52.90625 44.796875,51.203125 c 0.90625,-2 2.40625,-3.796875 3.609375,-3.796875 C 49.59375,47.40625 50,48.796875 50,50 c 0,1.09375 -0.5,6.59375 -0.90625,8.203125 -0.1875,0.890625 -1,1.390625 -2.59375,1.390625 -1.796875,0 -7.703125,-0.5 -11.90625,-0.5 H 5.90625 c -2.109375,0 -3.5,-0.59375 -3.5,-1.796875 C 2.40625,56.40625 3.09375,55.90625 4,55.59375 9.703125,54 12.203125,53.90625 12.203125,48.203125 v -36.5 C 12.203125,8 10.90625,6 7.5,4.5 5.296875,3.5 2,3 2,1.5 c 0,-1 2.203125,-1.59375 3.296875,-1.703125 0.703125,0 6.609375,0.5 11.296875,0.5 10.609375,0 28.703125,-0.5 32.40625,-0.5 1.703125,0 1.90625,0.40625 2.703125,1.90625 C 52.5,3 55.5,10.40625 55.5,13.203125 c 0,1.5 -0.40625,2.5 -1.40625,2.5 -0.890625,0 -2.1875,-0.796875 -2.6875,-1.90625 C 48.5,7.703125 47.203125,4.5 39.5,4.5 h -14 c -2.90625,0 -3.796875,1.296875 -3.796875,3.90625 v 16.796875 c 0,1.890625 0.5,2.390625 2.390625,2.390625 h 10.5 c 2.109375,0 2.8125,-1 3.5,-2.09375 0.609375,-1 1.90625,-3.796875 3.203125,-3.796875 1,0 1.296875,1.59375 1.296875,2.59375 C 42.59375,25.40625 42.5,28.5 42.5,30 c 0,1.5 0.40625,5 0.40625,5.796875 0,1.203125 -0.203125,2 -1.109375,2 -1.09375,0 -2,-1.5 -3.09375,-2.5 C 36.90625,33.59375 35.796875,32.5 32.59375,32.5 H 24 c -1.40625,0 -2.296875,0.703125 -2.296875,3.09375 z"
             id="EBGaramond08-Regular-69" />
        </defs>
        <use
           xlink:href="#EBGaramond08-Regular-69"
           id="use264"
           x="0"
           y="0"
           width="100%"
           height="100%" />
        <use
           x="56.899994"
           xlink:href="#EBGaramond08-Regular-76"
           id="use266"
           y="0"
           width="100%"
           height="100%" />
        <use
           x="115.99998"
           xlink:href="#EBGaramond08-Regular-85"
           id="use268"
           y="0"
           width="100%"
           height="100%" />
      </g>
    </g>
    <g
       id="line2d_23">
      <path
         d="m 71.1,126.50559 h 30"
         style="fill:none;stroke:#d33682;stroke-width:2;stroke-dasharray:12.8, 3.2, 2, 3.2;stroke-dashoffset:0"
         id="path273" />
    </g>
    <g
       id="text_16">
      <!-- Softplus -->
      <g
         style="fill:#586e75"
         transform="matrix(0.15,0,0,-0.15,113.1,131.75559)"
         id="g303">
        <defs
           id="defs285">
          <path
             d="m 23.203125,60.09375 c -9.796875,0 -17.796875,-7.390625 -17.796875,-16.796875 0,-4.890625 2.296875,-8.5 5.890625,-11.5 l 13.5,-11.390625 c 2.5,-2.109375 4,-4.609375 4,-8 0,-5 -3.703125,-9.609375 -8.703125,-9.609375 -5.796875,0 -9.6875,2.90625 -10.796875,6.5 C 8.40625,12.296875 7.5,14 5.90625,14 4.90625,14 4.203125,12.796875 4,11.59375 3.703125,10.296875 3.40625,6.09375 3.40625,4.703125 3.40625,3.296875 4.296875,2.796875 8,1.09375 10.40625,0 15,-1.09375 18.5,-1.09375 c 10,0 20.09375,7.296875 20.09375,17.09375 0,4.203125 -1.6875,7.59375 -4.796875,10.203125 L 19.703125,38.09375 c -3,2.5 -5.109375,5.109375 -5.109375,8.40625 0,4.40625 3.90625,7.90625 8.203125,7.90625 2.90625,0 6.90625,-1.203125 7.90625,-3.609375 1.5,-3.59375 2.796875,-4.59375 4,-4.59375 1.5,0 2,1.390625 2,2.703125 0,1.890625 -0.203125,4.09375 -0.40625,5.6875 C 36,55.703125 35.09375,56.5 33.296875,57.5 31,58.59375 26.40625,60.09375 23.203125,60.09375 Z"
             id="EBGaramond08-Regular-83" />
          <path
             d="m 12.203125,23.703125 c 0,7.203125 3.796875,15.09375 11,15.09375 8.703125,0 13.296875,-9.59375 13.296875,-18.5 C 36.5,12.90625 33.40625,3.90625 26,3.90625 c -9.296875,0 -13.796875,10.390625 -13.796875,19.796875 z M 23.90625,43 C 13.09375,43 2.203125,33.5 2.203125,21.5 c 0,-11.90625 9,-22.296875 21.203125,-22.296875 12.796875,0 23,10.890625 23,23.796875 0,11.59375 -10.90625,20 -22.5,20 z"
             id="EBGaramond08-Regular-111" />
          <path
             d="M 32.5,69 C 18.703125,69 10,57.296875 10,43.5 10,42.40625 9.796875,41 8.703125,40.59375 c -2.796875,-1 -6.109375,-2.59375 -6.109375,-4 0,-1 2.3125,-1.390625 3.203125,-1.390625 C 9.5,35.203125 10,34.59375 10,33.796875 v -23 C 10,8.296875 8.90625,5.203125 6.203125,4.40625 3.5,3.59375 1.796875,2.796875 1.796875,1.796875 c 0,-1 0.90625,-2 3.5,-2 2.203125,0 6.796875,0.609375 8.796875,0.609375 1.609375,0 7.3125,-0.609375 9.5,-0.609375 2.609375,0 3.5,1 3.5,2 0,1 -1.6875,1.796875 -4.390625,2.609375 -3.609375,1.09375 -4.40625,3.890625 -4.40625,6.390625 v 22.40625 c 0,1.390625 0.40625,2.296875 1.609375,2.296875 H 27 c 1.40625,0 2.296875,2.40625 2.296875,3.40625 0,1 -0.703125,2.296875 -2.296875,2.296875 L 20.5,41 c -1.296875,0 -2.203125,-0.5 -2.203125,1 v 10.5 c 0,5.90625 4,10.90625 10.796875,10.90625 2.90625,0 5,-1.109375 6.109375,-2.703125 1.5,-2.109375 2.796875,-4.796875 5.203125,-4.796875 2.5,0 3.6875,2.1875 3.6875,4.59375 0,3.703125 -6.5,8.5 -11.59375,8.5 z"
             id="EBGaramond08-Regular-102" />
          <path
             d="m 18.59375,-0.796875 c 6,0 11.40625,4.890625 11.40625,7.203125 0,1 -0.5,1.390625 -1.5,1.390625 C 27.5,7.796875 25,6 21.296875,6 c -3.5,0 -5.203125,2.203125 -5.203125,9.203125 V 33.90625 c 0,1.390625 0.40625,1.890625 1.609375,1.890625 H 27.59375 C 29,35.796875 30,38.40625 30,39.40625 c 0,1 -0.40625,2.296875 -2,2.296875 h -9.703125 c -1.296875,0 -2.203125,0.5 -2.203125,1.5 V 46 c 0,1.703125 -0.1875,2.5 -1.390625,2.5 -1.296875,0 -5.109375,-3.796875 -6.5,-5 C 5.703125,41.40625 1.5,38.59375 1.5,37.203125 c 0,-1 2.296875,-1.40625 3.203125,-1.40625 3.703125,0 3.09375,-0.5 3.09375,-1.390625 v -23.8125 c 0,-8.5 4.90625,-11.390625 10.796875,-11.390625 z"
             id="EBGaramond08-Regular-116" />
          <path
             d="m 14.796875,30.703125 c 0,3.59375 3,7.09375 7.5,7.09375 8.703125,0 11,-8.390625 11,-16.703125 C 33.296875,12.90625 29.796875,4.5 22,4.5 18.296875,4.5 14.796875,6.09375 14.796875,9.796875 Z M 6.5,-16.09375 C 6.5,-18.59375 6,-21 4.703125,-21.40625 2,-22.203125 0.296875,-23 0.296875,-24 c 0,-1 0.90625,-2 3.5,-2 9.296875,0 15.296875,-1.296875 18.703125,-1.296875 2.59375,0 3.40625,1 3.40625,2 0,1 -1.609375,1.796875 -4.3125,2.59375 -5.390625,1.5 -6.796875,2.296875 -6.796875,5.796875 v 16.109375 c 0,0.890625 0.109375,1.390625 1,1.390625 0.40625,0 1.90625,-1.1875 3.90625,-1.1875 C 33,-0.59375 42.5,12.09375 42.5,25.703125 42.5,34.09375 35.796875,43 27.5,43 23,43 17.796875,40.59375 16.203125,39 15.40625,38.203125 14.90625,38.703125 14.796875,39.203125 V 41 c 0,1.90625 0,2.796875 -1.203125,2.796875 -1,0 -9.296875,-3.296875 -10.390625,-3.890625 -1.296875,-0.609375 -2.90625,-1.40625 -2.90625,-2.5 0,-1.109375 1,-1.703125 2.109375,-2.109375 C 4.796875,34.40625 6.5,31.90625 6.5,30.203125 Z"
             id="EBGaramond08-Regular-112" />
          <path
             d="m 9.703125,56.703125 v -45.90625 c 0,-2.5 -1.109375,-5.59375 -3.796875,-6.390625 C 3.203125,3.59375 1.5,2.796875 1.5,1.796875 c 0,-1 0.90625,-2 3.5,-2 2.203125,0 6.90625,0.609375 8.90625,0.609375 1.59375,0 6.59375,-0.609375 8.796875,-0.609375 2.59375,0 3.390625,1 3.390625,2 0,1 -1.59375,1.796875 -4.296875,2.609375 C 19.09375,5.203125 18,8.296875 18,10.796875 V 65.40625 c 0,1.890625 0,2.6875 -1.203125,2.6875 -1,0 -6.390625,-1.6875 -10.390625,-2.390625 C 5,65.5 3.5,64.703125 3.5,63.59375 3.5,62.5 4.703125,61.703125 5.796875,61.296875 c 2.40625,-0.890625 3.90625,-2.890625 3.90625,-4.59375 z"
             id="EBGaramond08-Regular-108" />
          <path
             d="M 31.09375,32.40625 V 13.5 c 0,-4.40625 -4.5,-7.703125 -10,-7.703125 -4.59375,0 -7,4.5 -7,9.296875 v 25.203125 c 0,1.90625 0,2.703125 -1.1875,2.703125 -1,0 -5.203125,-1.296875 -9.203125,-2 C 2.296875,40.796875 1,40 1,38.90625 1,37.796875 2,37 3.09375,36.59375 5.5,35.703125 5.796875,33.296875 5.796875,31.59375 V 11.796875 C 5.796875,6 9.90625,-0.40625 15.703125,-0.40625 c 5.796875,0 9,0.90625 13.5,4.5 C 30.5,5.203125 30.796875,5.796875 31.203125,4 31.5,2.59375 31.5,1.203125 31.796875,0.203125 c 0.109375,-0.5 0.609375,-1.40625 1.40625,-1.40625 1.5,0 9.703125,2.40625 11.5,3.296875 C 45.5,2.5 46.5,3.296875 46.5,4.59375 46.5,5.296875 45.703125,6.203125 45.203125,6.203125 44.40625,6.203125 42.296875,5.59375 41,5.59375 c -1,0 -1.59375,0.3125 -1.59375,1.3125 v 33.390625 c 0,1.90625 0,2.703125 -1.203125,2.703125 -1,0 -7.609375,-1.09375 -11.203125,-1.59375 -1.40625,-0.203125 -2.90625,-1.40625 -2.90625,-2.5 0,-1.109375 1.109375,-1.703125 2.3125,-1.90625 2.796875,-0.40625 4.6875,-1.796875 4.6875,-4.59375 z"
             id="EBGaramond08-Regular-117" />
          <path
             d="M 16.296875,43 C 9.296875,43 3.5,37.296875 3.5,30.5 c 0,-5 3.90625,-8.09375 8.40625,-11.203125 l 4.796875,-3.390625 c 2.390625,-1.8125 4.5,-2.8125 4.5,-7.203125 0,-3 -2.90625,-5 -5.90625,-5 C 12,3.703125 8.90625,4.796875 7.59375,7.5 c -1.390625,3.09375 -3.390625,4 -4.390625,4 -1,0 -1.109375,-1.5 -1.109375,-3.203125 0,-1.5 1.203125,-5 1.703125,-6.296875 0.5,-1.296875 1,-1.40625 2.5,-2 1,-0.40625 3.796875,-0.796875 6.609375,-0.796875 8.1875,0 15.09375,6.09375 15.09375,14.59375 0,3.5 -2.09375,5.796875 -4.796875,8 L 15,28 c -2.296875,1.59375 -4.296875,3.296875 -4.296875,6.09375 0,2.5 2.09375,4.3125 4.59375,4.3125 3.109375,0 6,-1.703125 6.796875,-4 0.5,-2 2,-2.5 3,-2.5 1.203125,0 1.203125,1 1.203125,2.1875 0,0.90625 -0.203125,3.8125 -0.5,4.90625 -0.296875,1 -0.5,1.296875 -1.09375,1.59375 C 21.5,41.90625 19.40625,43 16.296875,43 Z"
             id="EBGaramond08-Regular-115" />
        </defs>
        <use
           xlink:href="#EBGaramond08-Regular-83"
           id="use287"
           x="0"
           y="0"
           width="100%"
           height="100%" />
        <use
           x="40.899994"
           xlink:href="#EBGaramond08-Regular-111"
           id="use289"
           y="0"
           width="100%"
           height="100%" />
        <use
           x="89.599991"
           xlink:href="#EBGaramond08-Regular-102"
           id="use291"
           y="0"
           width="100%"
           height="100%" />
        <use
           x="120.89998"
           xlink:href="#EBGaramond08-Regular-116"
           id="use293"
           y="0"
           width="100%"
           height="100%" />
        <use
           x="153.39996"
           xlink:href="#EBGaramond08-Regular-112"
           id="use295"
           y="0"
           width="100%"
           height="100%" />
        <use
           x="198.19995"
           xlink:href="#EBGaramond08-Regular-108"
           id="use297"
           y="0"
           width="100%"
           height="100%" />
        <use
           x="225.79994"
           xlink:href="#EBGaramond08-Regular-117"
           id="use299"
           y="0"
           width="100%"
           height="100%" />
        <use
           x="273.19995"
           xlink:href="#EBGaramond08-Regular-115"
           id="use301"
           y="0"
           width="100%"
           height="100%" />
      </g>
    </g>
  </g>
  <defs
     id="defs312">
    <clipPath
       id="p9f58402432">
      <rect
         height="266.112"
         width="357.12"
         x="57.599998"
         y="41.472"
         id="rect309" />
    </clipPath>
  </defs>
</svg>
