<?xml version="1.0" encoding="UTF-8" standalone="no"?>
<svg
   xmlns:dc="http://purl.org/dc/elements/1.1/"
   xmlns:cc="http://creativecommons.org/ns#"
   xmlns:rdf="http://www.w3.org/1999/02/22-rdf-syntax-ns#"
   xmlns:svg="http://www.w3.org/2000/svg"
   xmlns="http://www.w3.org/2000/svg"
   xmlns:xlink="http://www.w3.org/1999/xlink"
   xmlns:sodipodi="http://sodipodi.sourceforge.net/DTD/sodipodi-0.dtd"
   xmlns:inkscape="http://www.inkscape.org/namespaces/inkscape"
   height="266.91199pt"
   version="1.1"
   viewBox="0 0 357.91999 266.91198"
   width="357.91998pt"
   id="svg342"
   sodipodi:docname="Sigmoid.svg"
   inkscape:version="1.0.1 (3bc2e813f5, 2020-09-07)">
  <g
     id="g1280"
     transform="translate(-57.2,-41.072)">
    <path
       d="M 57.6,307.584 H 414.72 V 41.472 H 57.6 Z"
       style="fill:none"
       id="path11" />
    <g
       id="line2d_1">
      <defs
         id="defs15">
        <path
           d="M 0,0 V -3.5"
           id="mc7b6966942"
           style="stroke:#586e75;stroke-width:0.8" />
      </defs>
      <g
         id="g19">
        <use
           style="fill:#586e75;stroke:#586e75;stroke-width:0.8"
           x="96.112938"
           xlink:href="#mc7b6966942"
           y="174.528"
           id="use17"
           width="100%"
           height="100%" />
      </g>
    </g>
    <g
       id="text_1">
      <!-- −4 -->
      <g
         style="fill:#586e75"
         transform="matrix(0.1,0,0,-0.1,88.741847,165.44831)"
         id="g30">
        <defs
           id="defs24">
          <path
             d="M 10.59375,35.5 H 73.1875 V 27.203125 H 10.59375 Z"
             id="DejaVuSans-8722" />
          <path
             d="M 37.796875,64.3125 12.890625,25.390625 h 24.90625 z m -2.59375,8.59375 h 12.40625 V 25.390625 h 10.40625 V 17.1875 H 47.609375 V 0 h -9.8125 V 17.1875 H 4.890625 v 9.515625 z"
             id="DejaVuSans-52" />
        </defs>
        <use
           xlink:href="#DejaVuSans-8722"
           id="use26"
           x="0"
           y="0"
           width="100%"
           height="100%" />
        <use
           x="83.789062"
           xlink:href="#DejaVuSans-52"
           id="use28"
           y="0"
           width="100%"
           height="100%" />
      </g>
    </g>
    <g
       id="line2d_2">
      <g
         id="g36">
        <use
           style="fill:#586e75;stroke:#586e75;stroke-width:0.8"
           x="166.13647"
           xlink:href="#mc7b6966942"
           y="174.528"
           id="use34"
           width="100%"
           height="100%" />
      </g>
    </g>
    <g
       id="text_2">
      <!-- −2 -->
      <g
         style="fill:#586e75"
         transform="matrix(0.1,0,0,-0.1,158.76538,165.44831)"
         id="g46">
        <defs
           id="defs40">
          <path
             d="M 19.1875,8.296875 H 53.609375 V 0 H 7.328125 v 8.296875 q 5.609375,5.8125 15.296875,15.59375 9.703125,9.796875 12.1875,12.640625 4.734375,5.3125 6.609375,9 1.890625,3.6875 1.890625,7.25 0,5.8125 -4.078125,9.46875 -4.078125,3.671875 -10.625,3.671875 -4.640625,0 -9.796875,-1.609375 -5.140625,-1.609375 -11,-4.890625 v 9.96875 Q 13.765625,71.78125 18.9375,73 q 5.1875,1.21875 9.484375,1.21875 11.328125,0 18.0625,-5.671875 6.734375,-5.65625 6.734375,-15.125 0,-4.5 -1.6875,-8.53125 Q 49.859375,40.875 45.40625,35.40625 44.1875,33.984375 37.640625,27.21875 31.109375,20.453125 19.1875,8.296875 Z"
             id="DejaVuSans-50" />
        </defs>
        <use
           xlink:href="#DejaVuSans-8722"
           id="use42"
           x="0"
           y="0"
           width="100%"
           height="100%" />
        <use
           x="83.789062"
           xlink:href="#DejaVuSans-50"
           id="use44"
           y="0"
           width="100%"
           height="100%" />
      </g>
    </g>
    <g
       id="line2d_3">
      <g
         id="g52">
        <use
           style="fill:#586e75;stroke:#586e75;stroke-width:0.8"
           x="236.16"
           xlink:href="#mc7b6966942"
           y="174.528"
           id="use50"
           width="100%"
           height="100%" />
      </g>
    </g>
    <g
       id="text_3">
      <!-- 0 -->
      <g
         style="fill:#586e75"
         transform="matrix(0.1,0,0,-0.1,232.97875,165.44831)"
         id="g60">
        <defs
           id="defs56">
          <path
             d="m 31.78125,66.40625 q -7.609375,0 -11.453125,-7.5 Q 16.5,51.421875 16.5,36.375 q 0,-14.984375 3.828125,-22.484375 3.84375,-7.5 11.453125,-7.5 7.671875,0 11.5,7.5 3.84375,7.5 3.84375,22.484375 0,15.046875 -3.84375,22.53125 -3.828125,7.5 -11.5,7.5 z m 0,7.8125 q 12.265625,0 18.734375,-9.703125 6.46875,-9.6875 6.46875,-28.140625 0,-18.40625 -6.46875,-28.109375 -6.46875,-9.6875 -18.734375,-9.6875 -12.25,0 -18.71875,9.6875 Q 6.59375,17.96875 6.59375,36.375 q 0,18.453125 6.46875,28.140625 6.46875,9.703125 18.71875,9.703125 z"
             id="DejaVuSans-48" />
        </defs>
        <use
           xlink:href="#DejaVuSans-48"
           id="use58"
           x="0"
           y="0"
           width="100%"
           height="100%" />
      </g>
    </g>
    <g
       id="line2d_4">
      <g
         id="g66">
        <use
           style="fill:#586e75;stroke:#586e75;stroke-width:0.8"
           x="306.18353"
           xlink:href="#mc7b6966942"
           y="174.528"
           id="use64"
           width="100%"
           height="100%" />
      </g>
    </g>
    <g
       id="text_4">
      <!-- 2 -->
      <g
         style="fill:#586e75"
         transform="matrix(0.1,0,0,-0.1,303.00228,165.44831)"
         id="g71">
        <use
           xlink:href="#DejaVuSans-50"
           id="use69"
           x="0"
           y="0"
           width="100%"
           height="100%" />
      </g>
    </g>
    <g
       id="line2d_5">
      <g
         id="g77">
        <use
           style="fill:#586e75;stroke:#586e75;stroke-width:0.8"
           x="376.20706"
           xlink:href="#mc7b6966942"
           y="174.528"
           id="use75"
           width="100%"
           height="100%" />
      </g>
    </g>
    <g
       id="text_5">
      <!-- 4 -->
      <g
         style="fill:#586e75"
         transform="matrix(0.1,0,0,-0.1,373.02581,165.44831)"
         id="g82">
        <use
           xlink:href="#DejaVuSans-52"
           id="use80"
           x="0"
           y="0"
           width="100%"
           height="100%" />
      </g>
    </g>
    <g
       id="line2d_6">
      <defs
         id="defs88">
        <path
           d="M 0,0 H 3.5"
           id="m8ab841ef88"
           style="stroke:#586e75;stroke-width:0.8" />
      </defs>
      <g
         id="g92">
        <use
           style="fill:#586e75;stroke:#586e75;stroke-width:0.8"
           x="236.16"
           xlink:href="#m8ab841ef88"
           y="295.48801"
           id="use90"
           width="100%"
           height="100%" />
      </g>
    </g>
    <g
       id="text_6">
      <!-- −1.00 -->
      <g
         style="fill:#586e75"
         transform="matrix(0.1,0,0,-0.1,243.16,299.28722)"
         id="g109">
        <defs
           id="defs97">
          <path
             d="m 12.40625,8.296875 h 16.109375 v 55.625 L 10.984375,60.40625 v 8.984375 l 17.4375,3.515625 H 38.28125 V 8.296875 H 54.390625 V 0 H 12.40625 Z"
             id="DejaVuSans-49" />
          <path
             d="M 10.6875,12.40625 H 21 V 0 H 10.6875 Z"
             id="DejaVuSans-46" />
        </defs>
        <use
           xlink:href="#DejaVuSans-8722"
           id="use99"
           x="0"
           y="0"
           width="100%"
           height="100%" />
        <use
           x="83.789062"
           xlink:href="#DejaVuSans-49"
           id="use101"
           y="0"
           width="100%"
           height="100%" />
        <use
           x="147.41211"
           xlink:href="#DejaVuSans-46"
           id="use103"
           y="0"
           width="100%"
           height="100%" />
        <use
           x="179.19922"
           xlink:href="#DejaVuSans-48"
           id="use105"
           y="0"
           width="100%"
           height="100%" />
        <use
           x="242.82227"
           xlink:href="#DejaVuSans-48"
           id="use107"
           y="0"
           width="100%"
           height="100%" />
      </g>
    </g>
    <g
       id="line2d_7">
      <g
         id="g115">
        <use
           style="fill:#586e75;stroke:#586e75;stroke-width:0.8"
           x="236.16"
           xlink:href="#m8ab841ef88"
           y="265.24799"
           id="use113"
           width="100%"
           height="100%" />
      </g>
    </g>
    <g
       id="text_7">
      <!-- −0.75 -->
      <g
         style="fill:#586e75"
         transform="matrix(0.1,0,0,-0.1,243.16,269.04722)"
         id="g132">
        <defs
           id="defs120">
          <path
             d="m 8.203125,72.90625 h 46.875 V 68.703125 L 28.609375,0 H 18.3125 L 43.21875,64.59375 H 8.203125 Z"
             id="DejaVuSans-55" />
          <path
             d="m 10.796875,72.90625 h 38.71875 v -8.3125 h -29.6875 V 46.734375 q 2.140625,0.734375 4.28125,1.09375 2.15625,0.359375 4.3125,0.359375 Q 40.625,48.1875 47.75,41.5 54.890625,34.8125 54.890625,23.390625 54.890625,11.625 47.5625,5.09375 40.234375,-1.421875 26.90625,-1.421875 q -4.59375,0 -9.359375,0.78125 -4.75,0.78125 -9.828125,2.34375 V 11.625 q 4.390625,-2.390625 9.078125,-3.5625 4.6875,-1.171875 9.90625,-1.171875 8.453125,0 13.375,4.4375 4.9375,4.4375 4.9375,12.0625 0,7.609375 -4.9375,12.046875 -4.921875,4.453125 -13.375,4.453125 -3.953125,0 -7.890625,-0.875 -3.921875,-0.875 -8.015625,-2.734375 z"
             id="DejaVuSans-53" />
        </defs>
        <use
           xlink:href="#DejaVuSans-8722"
           id="use122"
           x="0"
           y="0"
           width="100%"
           height="100%" />
        <use
           x="83.789062"
           xlink:href="#DejaVuSans-48"
           id="use124"
           y="0"
           width="100%"
           height="100%" />
        <use
           x="147.41211"
           xlink:href="#DejaVuSans-46"
           id="use126"
           y="0"
           width="100%"
           height="100%" />
        <use
           x="179.19922"
           xlink:href="#DejaVuSans-55"
           id="use128"
           y="0"
           width="100%"
           height="100%" />
        <use
           x="242.82227"
           xlink:href="#DejaVuSans-53"
           id="use130"
           y="0"
           width="100%"
           height="100%" />
      </g>
    </g>
    <g
       id="line2d_8">
      <g
         id="g138">
        <use
           style="fill:#586e75;stroke:#586e75;stroke-width:0.8"
           x="236.16"
           xlink:href="#m8ab841ef88"
           y="235.008"
           id="use136"
           width="100%"
           height="100%" />
      </g>
    </g>
    <g
       id="text_8">
      <!-- −0.50 -->
      <g
         style="fill:#586e75"
         transform="matrix(0.1,0,0,-0.1,243.16,238.80722)"
         id="g151">
        <use
           xlink:href="#DejaVuSans-8722"
           id="use141"
           x="0"
           y="0"
           width="100%"
           height="100%" />
        <use
           x="83.789062"
           xlink:href="#DejaVuSans-48"
           id="use143"
           y="0"
           width="100%"
           height="100%" />
        <use
           x="147.41211"
           xlink:href="#DejaVuSans-46"
           id="use145"
           y="0"
           width="100%"
           height="100%" />
        <use
           x="179.19922"
           xlink:href="#DejaVuSans-53"
           id="use147"
           y="0"
           width="100%"
           height="100%" />
        <use
           x="242.82227"
           xlink:href="#DejaVuSans-48"
           id="use149"
           y="0"
           width="100%"
           height="100%" />
      </g>
    </g>
    <g
       id="line2d_9">
      <g
         id="g157">
        <use
           style="fill:#586e75;stroke:#586e75;stroke-width:0.8"
           x="236.16"
           xlink:href="#m8ab841ef88"
           y="204.76801"
           id="use155"
           width="100%"
           height="100%" />
      </g>
    </g>
    <g
       id="text_9">
      <!-- −0.25 -->
      <g
         style="fill:#586e75"
         transform="matrix(0.1,0,0,-0.1,243.16,208.56722)"
         id="g170">
        <use
           xlink:href="#DejaVuSans-8722"
           id="use160"
           x="0"
           y="0"
           width="100%"
           height="100%" />
        <use
           x="83.789062"
           xlink:href="#DejaVuSans-48"
           id="use162"
           y="0"
           width="100%"
           height="100%" />
        <use
           x="147.41211"
           xlink:href="#DejaVuSans-46"
           id="use164"
           y="0"
           width="100%"
           height="100%" />
        <use
           x="179.19922"
           xlink:href="#DejaVuSans-50"
           id="use166"
           y="0"
           width="100%"
           height="100%" />
        <use
           x="242.82227"
           xlink:href="#DejaVuSans-53"
           id="use168"
           y="0"
           width="100%"
           height="100%" />
      </g>
    </g>
    <g
       id="line2d_10">
      <g
         id="g176">
        <use
           style="fill:#586e75;stroke:#586e75;stroke-width:0.8"
           x="236.16"
           xlink:href="#m8ab841ef88"
           y="174.528"
           id="use174"
           width="100%"
           height="100%" />
      </g>
    </g>
    <g
       id="text_10">
      <!-- 0.00 -->
      <g
         style="fill:#586e75"
         transform="matrix(0.1,0,0,-0.1,243.16,178.32722)"
         id="g187">
        <use
           xlink:href="#DejaVuSans-48"
           id="use179"
           x="0"
           y="0"
           width="100%"
           height="100%" />
        <use
           x="63.623047"
           xlink:href="#DejaVuSans-46"
           id="use181"
           y="0"
           width="100%"
           height="100%" />
        <use
           x="95.410156"
           xlink:href="#DejaVuSans-48"
           id="use183"
           y="0"
           width="100%"
           height="100%" />
        <use
           x="159.0332"
           xlink:href="#DejaVuSans-48"
           id="use185"
           y="0"
           width="100%"
           height="100%" />
      </g>
    </g>
    <g
       id="line2d_11">
      <g
         id="g193">
        <use
           style="fill:#586e75;stroke:#586e75;stroke-width:0.8"
           x="236.16"
           xlink:href="#m8ab841ef88"
           y="144.28799"
           id="use191"
           width="100%"
           height="100%" />
      </g>
    </g>
    <g
       id="text_11">
      <!-- 0.25 -->
      <g
         style="fill:#586e75"
         transform="matrix(0.1,0,0,-0.1,243.16,148.08722)"
         id="g204">
        <use
           xlink:href="#DejaVuSans-48"
           id="use196"
           x="0"
           y="0"
           width="100%"
           height="100%" />
        <use
           x="63.623047"
           xlink:href="#DejaVuSans-46"
           id="use198"
           y="0"
           width="100%"
           height="100%" />
        <use
           x="95.410156"
           xlink:href="#DejaVuSans-50"
           id="use200"
           y="0"
           width="100%"
           height="100%" />
        <use
           x="159.0332"
           xlink:href="#DejaVuSans-53"
           id="use202"
           y="0"
           width="100%"
           height="100%" />
      </g>
    </g>
    <g
       id="line2d_12">
      <g
         id="g210">
        <use
           style="fill:#586e75;stroke:#586e75;stroke-width:0.8"
           x="236.16"
           xlink:href="#m8ab841ef88"
           y="114.048"
           id="use208"
           width="100%"
           height="100%" />
      </g>
    </g>
    <g
       id="text_12">
      <!-- 0.50 -->
      <g
         style="fill:#586e75"
         transform="matrix(0.1,0,0,-0.1,243.16,117.84722)"
         id="g221">
        <use
           xlink:href="#DejaVuSans-48"
           id="use213"
           x="0"
           y="0"
           width="100%"
           height="100%" />
        <use
           x="63.623047"
           xlink:href="#DejaVuSans-46"
           id="use215"
           y="0"
           width="100%"
           height="100%" />
        <use
           x="95.410156"
           xlink:href="#DejaVuSans-53"
           id="use217"
           y="0"
           width="100%"
           height="100%" />
        <use
           x="159.0332"
           xlink:href="#DejaVuSans-48"
           id="use219"
           y="0"
           width="100%"
           height="100%" />
      </g>
    </g>
    <g
       id="line2d_13">
      <g
         id="g227">
        <use
           style="fill:#586e75;stroke:#586e75;stroke-width:0.8"
           x="236.16"
           xlink:href="#m8ab841ef88"
           y="83.807999"
           id="use225"
           width="100%"
           height="100%" />
      </g>
    </g>
    <g
       id="text_13">
      <!-- 0.75 -->
      <g
         style="fill:#586e75"
         transform="matrix(0.1,0,0,-0.1,243.16,87.607219)"
         id="g238">
        <use
           xlink:href="#DejaVuSans-48"
           id="use230"
           x="0"
           y="0"
           width="100%"
           height="100%" />
        <use
           x="63.623047"
           xlink:href="#DejaVuSans-46"
           id="use232"
           y="0"
           width="100%"
           height="100%" />
        <use
           x="95.410156"
           xlink:href="#DejaVuSans-55"
           id="use234"
           y="0"
           width="100%"
           height="100%" />
        <use
           x="159.0332"
           xlink:href="#DejaVuSans-53"
           id="use236"
           y="0"
           width="100%"
           height="100%" />
      </g>
    </g>
    <g
       id="line2d_14">
      <g
         id="g244">
        <use
           style="fill:#586e75;stroke:#586e75;stroke-width:0.8"
           x="236.16"
           xlink:href="#m8ab841ef88"
           y="53.568001"
           id="use242"
           width="100%"
           height="100%" />
      </g>
    </g>
    <g
       id="text_14">
      <!-- 1.00 -->
      <g
         style="fill:#586e75"
         transform="matrix(0.1,0,0,-0.1,243.16,57.367219)"
         id="g255">
        <use
           xlink:href="#DejaVuSans-49"
           id="use247"
           x="0"
           y="0"
           width="100%"
           height="100%" />
        <use
           x="63.623047"
           xlink:href="#DejaVuSans-46"
           id="use249"
           y="0"
           width="100%"
           height="100%" />
        <use
           x="95.410156"
           xlink:href="#DejaVuSans-48"
           id="use251"
           y="0"
           width="100%"
           height="100%" />
        <use
           x="159.0332"
           xlink:href="#DejaVuSans-48"
           id="use253"
           y="0"
           width="100%"
           height="100%" />
      </g>
    </g>
    <path
       clip-path="url(#p668aaa2334)"
       d="m 61.101176,173.71843 16.805648,-0.49338 14.004705,-0.63058 11.203761,-0.71323 9.8033,-0.83066 9.10306,-0.99438 7.70258,-1.05017 7.00236,-1.15509 7.00235,-1.37985 6.30212,-1.46389 6.30212,-1.70344 5.60188,-1.73881 5.60188,-1.97152 5.60188,-2.22374 5.60189,-2.49346 4.90164,-2.41442 4.90165,-2.63872 4.90165,-2.86628 5.60188,-3.55296 5.60188,-3.8394 5.60188,-4.10703 6.30212,-4.90412 7.00235,-5.73497 9.8033,-8.35242 16.80565,-14.35517 7.00235,-5.681327 6.30212,-4.84128 5.60188,-4.042428 5.60188,-3.769167 5.60188,-3.479536 4.90165,-2.801165 4.90165,-2.57413 4.90164,-2.351439 5.60189,-2.424544 5.60188,-2.158939 5.60188,-1.911466 5.60188,-1.683811 6.30212,-1.647703 6.30212,-1.414543 7.00235,-1.332101 7.70259,-1.214907 8.40282,-1.0745 9.10306,-0.922582 9.8033,-0.769789 11.20376,-0.660316 13.30447,-0.559226 14.00471,-0.402031 v 0"
       style="fill:none;stroke:#b58900;stroke-width:2;stroke-linecap:square"
       id="path260" />
    <path
       clip-path="url(#p668aaa2334)"
       d="m 61.101176,295.47702 45.515294,-0.1368 17.50588,-0.25352 11.20377,-0.35862 8.40282,-0.4658 7.00235,-0.59829 5.60189,-0.68077 4.90164,-0.79831 4.20141,-0.88047 4.20142,-1.10996 3.50117,-1.14083 3.50118,-1.37857 3.50118,-1.66205 2.80094,-1.56896 2.80094,-1.81439 2.80094,-2.09318 2.80094,-2.40808 2.80094,-2.76156 2.80094,-3.15532 2.80094,-3.5902 2.80095,-4.06561 2.80094,-4.57925 2.80094,-5.12659 2.80094,-5.70054 2.80094,-6.2911 2.80094,-6.8853 2.80094,-7.46732 2.80094,-8.019 3.50118,-10.72146 4.20141,-13.69651 6.30212,-21.54066 7.00235,-23.87452 4.20141,-13.56344 3.50118,-10.57475 3.50118,-9.76988 2.80094,-7.17893 2.80094,-6.58867 2.80094,-5.994479 2.80094,-5.410795 2.80094,-4.849087 2.80094,-4.317878 2.80095,-3.822934 2.80094,-3.367621 2.80094,-2.953325 2.80094,-2.579875 2.80094,-2.245951 2.80094,-1.949433 2.80094,-1.68769 2.80094,-1.457824 3.50118,-1.542732 3.50118,-1.278367 3.50117,-1.057052 4.20142,-1.027712 4.90164,-0.932944 4.90165,-0.70997 6.30212,-0.668085 7.00235,-0.510784 9.10306,-0.422746 11.904,-0.306743 17.50588,-0.199517 31.51059,-0.09704 9.10306,-0.0078 v 0"
       style="fill:none;stroke:#268bd2;stroke-width:2;stroke-dasharray:7.4, 3.2;stroke-dashoffset:0"
       id="path263" />
    <path
       d="M 236.16,307.584 V 41.472"
       style="fill:none;stroke:#586e75;stroke-width:0.8;stroke-linecap:square;stroke-linejoin:miter"
       id="path266" />
    <path
       d="M 236.16,307.584 V 41.472"
       style="fill:none;stroke:#586e75;stroke-width:0.8;stroke-linecap:square;stroke-linejoin:miter"
       id="path269" />
    <path
       d="M 57.6,174.528 H 414.72"
       style="fill:none;stroke:#586e75;stroke-width:0.8;stroke-linecap:square;stroke-linejoin:miter"
       id="path272" />
    <path
       d="M 57.6,174.528 H 414.72"
       style="fill:none;stroke:#586e75;stroke-width:0.8;stroke-linecap:square;stroke-linejoin:miter"
       id="path275" />
    <path
       d="m 71.1,60.222 h 30"
       style="fill:none;stroke:#b58900;stroke-width:2;stroke-linecap:square"
       id="path281" />
    <path
       d="m 71.1,82.316531 h 30"
       style="fill:none;stroke:#268bd2;stroke-width:2;stroke-dasharray:7.4, 3.2;stroke-dashoffset:0"
       id="path313" />
    <g
       style="fill:#586e75"
       transform="matrix(0.15,0,0,-0.15,113.1,65.472)"
       id="g310">
      <defs
         id="defs292">
        <path
           d="m 21.703125,8.5 v 39.703125 c 0,5.703125 2.703125,5.796875 8.390625,7.390625 0.90625,0.3125 1.5,0.8125 1.5,1.703125 0,1.203125 -2,1.796875 -3.5,1.796875 -3.390625,0 -7.5,-0.5 -11,-0.5 -3.59375,0 -7.1875,0.5 -11.09375,0.5 C 3.796875,59.09375 2.40625,58.5 2.40625,57.296875 2.40625,56.40625 3.09375,55.90625 4,55.59375 9.703125,54 12.203125,53.90625 12.203125,48.203125 v -36.5 C 12.203125,8 10.90625,6 7.5,4.5 5.296875,3.5 2,3 2,1.5 c 0,-1 2.203125,-1.59375 3.296875,-1.703125 0.703125,0 6.609375,0.5 11.296875,0.5 10.609375,0 29.5,-0.5 33.203125,-0.5 1.703125,0 2,0.40625 2.796875,1.90625 0.8125,1.296875 3.3125,9.390625 3.3125,12.09375 0,2.796875 -0.8125,4.703125 -1.8125,4.703125 -0.890625,0 -2.1875,-0.796875 -2.6875,-1.90625 C 48.5,10.5 47.203125,4.5 39.5,4.5 H 26.09375 C 23,4.5 21.703125,5.59375 21.703125,8.5 Z"
           id="EBGaramond08-Regular-76" />
        <path
           d="m 12.203125,23.703125 c 0,7.203125 3.796875,15.09375 11,15.09375 8.703125,0 13.296875,-9.59375 13.296875,-18.5 C 36.5,12.90625 33.40625,3.90625 26,3.90625 c -9.296875,0 -13.796875,10.390625 -13.796875,19.796875 z M 23.90625,43 C 13.09375,43 2.203125,33.5 2.203125,21.5 c 0,-11.90625 9,-22.296875 21.203125,-22.296875 12.796875,0 23,10.890625 23,23.796875 0,11.59375 -10.90625,20 -22.5,20 z"
           id="EBGaramond08-Regular-111" />
        <path
           d="m 8.09375,-13.09375 c 0,2.1875 1.203125,4.59375 3.703125,6.890625 2.203125,2 4.109375,2.90625 6.703125,2.90625 10.09375,0 15.296875,-1.796875 15.296875,-8.296875 0,-6.3125 -5.890625,-10 -13.203125,-10 -5.890625,0 -12.5,2.296875 -12.5,8.5 z m 3.8125,42 c 0,4.59375 2.09375,9.890625 6.6875,9.890625 5.5,0 9.5,-4.890625 9.5,-10.203125 0,-5.890625 -2.390625,-12.296875 -8,-12.296875 -5.796875,0 -8.1875,6.796875 -8.1875,12.609375 z M 20.09375,43 c -9,0 -17,-6.703125 -17,-15.703125 0,-5.890625 3.609375,-10.59375 8.109375,-13.203125 0.703125,-0.390625 0.296875,-0.890625 0,-1.296875 C 9.59375,10.40625 6,7.40625 4.5,6.09375 3.703125,5.40625 3.09375,4.703125 3.09375,3.796875 3.09375,0.5 5.5,-0.796875 8.796875,-2.296875 c 1,-0.5 1.109375,-1 0.609375,-1.296875 -4.8125,-3 -9.609375,-7.609375 -9.609375,-12.40625 0,-7.796875 7.109375,-11.203125 16.296875,-11.203125 13,0 25.40625,8.296875 25.40625,21.296875 0,5.5 -5.703125,9.203125 -10.09375,9.40625 l -12,0.40625 c -4.8125,0.09375 -7.5,1.1875 -7.5,2.59375 0,1.59375 1.890625,4.09375 3.390625,5.40625 0.5,0.390625 1.203125,0.5 1.296875,0.5 0.5,0 1.40625,-0.3125 2.5,-0.3125 9,0 16.8125,8.8125 16.8125,16.109375 0,0.703125 -0.5,3.59375 -0.8125,4.390625 -0.1875,0.609375 0.203125,1.109375 0.90625,1.109375 0.90625,0 5.5,-0.5 6.796875,-0.5 2.609375,0 3.609375,1.296875 3.609375,3.09375 0,1.40625 -0.8125,3.5 -2.8125,3.5 L 33.203125,39.59375 c -1,0 -2.5,0.90625 -4.109375,1.703125 -1.5,0.796875 -3.6875,1.703125 -9,1.703125 z"
           id="EBGaramond08-Regular-103" />
        <path
           d="m 13.296875,64.5 c -3,0 -5.5,-2.40625 -5.5,-5.40625 0,-3.09375 2.40625,-5.59375 5.5,-5.59375 3.109375,0 5.5,2.5 5.5,5.59375 0,3 -2.5,5.40625 -5.5,5.40625 z M 9.703125,30.203125 v -19.40625 c 0,-2.5 -1.109375,-5.59375 -3.796875,-6.390625 C 3.203125,3.59375 1.5,2.796875 1.5,1.796875 c 0,-1 0.90625,-2 3.5,-2 2.203125,0 6.90625,0.609375 8.90625,0.609375 1.59375,0 6.59375,-0.609375 8.796875,-0.609375 2.59375,0 3.390625,1 3.390625,2 0,1 -1.59375,1.796875 -4.296875,2.609375 C 19.09375,5.203125 18,8.296875 18,10.796875 V 40.90625 c 0,2 0,2.890625 -1.203125,2.890625 C 15.796875,43.796875 7.5,40.5 6.40625,39.90625 5.09375,39.296875 3.5,38.5 3.5,37.40625 3.5,36.296875 4.5,35.703125 5.59375,35.296875 8,34.40625 9.703125,31.90625 9.703125,30.203125 Z"
           id="EBGaramond08-Regular-105" />
        <path
           d="M 16.296875,43 C 9.296875,43 3.5,37.296875 3.5,30.5 c 0,-5 3.90625,-8.09375 8.40625,-11.203125 l 4.796875,-3.390625 c 2.390625,-1.8125 4.5,-2.8125 4.5,-7.203125 0,-3 -2.90625,-5 -5.90625,-5 C 12,3.703125 8.90625,4.796875 7.59375,7.5 c -1.390625,3.09375 -3.390625,4 -4.390625,4 -1,0 -1.109375,-1.5 -1.109375,-3.203125 0,-1.5 1.203125,-5 1.703125,-6.296875 0.5,-1.296875 1,-1.40625 2.5,-2 1,-0.40625 3.796875,-0.796875 6.609375,-0.796875 8.1875,0 15.09375,6.09375 15.09375,14.59375 0,3.5 -2.09375,5.796875 -4.796875,8 L 15,28 c -2.296875,1.59375 -4.296875,3.296875 -4.296875,6.09375 0,2.5 2.09375,4.3125 4.59375,4.3125 3.109375,0 6,-1.703125 6.796875,-4 0.5,-2 2,-2.5 3,-2.5 1.203125,0 1.203125,1 1.203125,2.1875 0,0.90625 -0.203125,3.8125 -0.5,4.90625 -0.296875,1 -0.5,1.296875 -1.09375,1.59375 C 21.5,41.90625 19.40625,43 16.296875,43 Z"
           id="EBGaramond08-Regular-115" />
        <path
           d="m 18.59375,-0.796875 c 6,0 11.40625,4.890625 11.40625,7.203125 0,1 -0.5,1.390625 -1.5,1.390625 C 27.5,7.796875 25,6 21.296875,6 c -3.5,0 -5.203125,2.203125 -5.203125,9.203125 V 33.90625 c 0,1.390625 0.40625,1.890625 1.609375,1.890625 H 27.59375 C 29,35.796875 30,38.40625 30,39.40625 c 0,1 -0.40625,2.296875 -2,2.296875 h -9.703125 c -1.296875,0 -2.203125,0.5 -2.203125,1.5 V 46 c 0,1.703125 -0.1875,2.5 -1.390625,2.5 -1.296875,0 -5.109375,-3.796875 -6.5,-5 C 5.703125,41.40625 1.5,38.59375 1.5,37.203125 c 0,-1 2.296875,-1.40625 3.203125,-1.40625 3.703125,0 3.09375,-0.5 3.09375,-1.390625 v -23.8125 c 0,-8.5 4.90625,-11.390625 10.796875,-11.390625 z"
           id="EBGaramond08-Regular-116" />
        <path
           d="m 20.296875,-0.796875 c 9.796875,0 15.609375,4.796875 15.609375,7.703125 0,1 -0.5,1.390625 -1.5,1.390625 C 33.40625,8.296875 28.5,6 23.90625,6 15.40625,6 11.5,15.40625 11.5,24.203125 c 0,6.59375 4.203125,14.09375 10.203125,14.09375 2.09375,0 3.390625,-1.796875 5.09375,-3.5 2.203125,-2.203125 4.703125,-3.59375 6.5,-3.59375 2.296875,0 4.203125,1.5 4.203125,3.890625 0,1.3125 -1.40625,3 -3.296875,4.609375 C 32.59375,41 29.5,43 22.5,43 11,43 2.296875,31.59375 2.296875,19.5 c 0,-10.59375 7.296875,-20.296875 18,-20.296875 z"
           id="EBGaramond08-Regular-99" />
      </defs>
      <use
         xlink:href="#EBGaramond08-Regular-76"
         id="use294"
         x="0"
         y="0"
         width="100%"
         height="100%" />
      <use
         x="59.099991"
         xlink:href="#EBGaramond08-Regular-111"
         id="use296"
         y="0"
         width="100%"
         height="100%" />
      <use
         x="107.79999"
         xlink:href="#EBGaramond08-Regular-103"
         id="use298"
         y="0"
         width="100%"
         height="100%" />
      <use
         x="155.69998"
         xlink:href="#EBGaramond08-Regular-105"
         id="use300"
         y="0"
         width="100%"
         height="100%" />
      <use
         x="183.29997"
         xlink:href="#EBGaramond08-Regular-115"
         id="use302"
         y="0"
         width="100%"
         height="100%" />
      <use
         x="213.39996"
         xlink:href="#EBGaramond08-Regular-116"
         id="use304"
         y="0"
         width="100%"
         height="100%" />
      <use
         x="245.89995"
         xlink:href="#EBGaramond08-Regular-105"
         id="use306"
         y="0"
         width="100%"
         height="100%" />
      <use
         x="273.49994"
         xlink:href="#EBGaramond08-Regular-99"
         id="use308"
         y="0"
         width="100%"
         height="100%" />
    </g>
    <g
       style="fill:#586e75"
       transform="matrix(0.15,0,0,-0.15,113.1,87.566531)"
       id="g331">
      <defs
         id="defs321">
        <path
           d="M 26.59375,50.5 V 11.703125 C 26.59375,8 25.296875,6 21.90625,4.5 c -2.203125,-1 -5.5,-1.5 -5.5,-3 0,-1 2.1875,-1.59375 3.296875,-1.703125 0.703125,0 6.59375,0.609375 11.296875,0.609375 4.796875,0 11.40625,-0.609375 12.09375,-0.609375 C 44.203125,-0.09375 46.296875,0.5 46.296875,1.5 c 0,1.5 -3.296875,2 -5.5,3 C 37.40625,6 36.09375,8 36.09375,11.703125 V 50.5 c 0,1 0.203125,3.09375 1.203125,3.09375 h 15.5 c 1.40625,0 2.703125,-1.296875 3.609375,-2.796875 1.09375,-1.890625 2.59375,-4.5 3.59375,-4.5 1.203125,0 1.40625,0.796875 1.40625,2.296875 0,1.109375 -0.203125,4.5 -0.203125,6.90625 0,2.203125 0.390625,3.40625 0.390625,4.296875 0,0.796875 -0.59375,1.796875 -1.796875,1.796875 -1.203125,0 -1.703125,-0.796875 -2.890625,-1.5 -1.8125,-1 -3.40625,-1.6875 -7,-1.6875 H 15 c -5.5,0 -8,3 -9.5,3 -1,0 -1.703125,-1.203125 -1.703125,-2.5 0,-1 0.203125,-2.90625 0.203125,-4.5 0,-3.203125 -0.5,-4 -0.5,-6.3125 0,-0.890625 0.5,-2.296875 1.796875,-2.296875 1.40625,0 2.109375,2.796875 3.203125,4.796875 1,1.8125 1.703125,3 4.296875,3 H 25 c 1,0 1.59375,-1.09375 1.59375,-3.09375 z"
           id="EBGaramond08-Regular-84" />
        <path
           d="m 11.09375,13.09375 c 0,1.703125 1.5,3.703125 5,4.8125 l 4.8125,1.890625 C 22,20.203125 23.203125,20.203125 23.203125,19.09375 V 9.703125 c 0,-2.40625 -3.40625,-3.796875 -6.203125,-3.796875 -3.59375,0 -5.90625,2.296875 -5.90625,7.1875 z M 18.5,43 c -3.703125,0 -7.5,-2.296875 -11,-4.703125 -2.09375,-1.5 -3.796875,-4.5 -3.796875,-6.796875 0,-0.796875 0.203125,-3.40625 0.796875,-3.40625 1,0 5,1.703125 5.59375,2.109375 0.90625,0.59375 1,1.390625 1,3.890625 0,2.109375 2.5,2.90625 4.609375,2.90625 C 19.203125,37 23,34.40625 23,30.90625 V 26 c 0,-1 -0.5,-1.5 -2.296875,-2.296875 l -13.109375,-5.5 c -3,-1.296875 -5.390625,-4.40625 -5.390625,-9.40625 0,-5 5,-9.59375 9.890625,-9.59375 3.90625,0 7.90625,2 10.203125,4.296875 0.703125,0.703125 0.796875,0.796875 1.5,-0.203125 1.296875,-1.796875 3.609375,-4.09375 6.90625,-4.09375 4,0 9,2.59375 9,6.203125 0,1.09375 -0.296875,2.1875 -0.90625,2.1875 -0.703125,0 -2.203125,-1.296875 -3.59375,-1.296875 C 33.5,6.296875 31.59375,7.5 31.59375,9.09375 V 32.796875 C 31.59375,38.09375 27,43 18.5,43 Z"
           id="EBGaramond08-Regular-97" />
        <path
           d="m 44.90625,11 v 18.09375 c 0,7.3125 -5.5,13.90625 -12.5,13.90625 C 27.203125,43 23.296875,41.796875 20,39.09375 19.203125,38.40625 18,37 18,38.5 V 41 c 0,1.90625 0,2.796875 -1.203125,2.796875 -1,0 -9.203125,-3.296875 -10.390625,-3.890625 C 5.09375,39.296875 3.5,38.5 3.5,37.40625 3.5,36.296875 4.5,35.703125 5.59375,35.296875 8,34.40625 9.703125,31.90625 9.703125,30.203125 v -19.40625 c 0,-2.5 -1.109375,-5.59375 -3.796875,-6.390625 C 3.203125,3.59375 2,2.796875 2,1.796875 c 0,-1 0.40625,-2 3,-2 2.203125,0 6.90625,0.609375 8.90625,0.609375 1.59375,0 5.09375,-0.609375 7.296875,-0.609375 2.59375,0 2.890625,1 2.890625,2 0,1 -1.09375,1.796875 -3.796875,2.609375 C 18.40625,5 18,8.296875 18,10.796875 l 0.09375,16 c 0,7.609375 4,11 9.8125,11 5.1875,0 8.6875,-5.796875 8.6875,-11.703125 V 10.796875 c 0,-2.5 -0.5,-5.890625 -2.296875,-6.390625 C 31.59375,3.59375 30.40625,2.796875 30.40625,1.796875 c 0,-1 0.390625,-2 3,-2 2.1875,0 5.390625,0.609375 7.390625,0.609375 1.609375,0 6.609375,-0.609375 8.796875,-0.609375 2.609375,0 2.703125,1 2.703125,2 0,1 -0.890625,1.796875 -3.59375,2.609375 C 46,5.203125 44.90625,8.40625 44.90625,11 Z"
           id="EBGaramond08-Regular-110" />
        <path
           d="m 44.90625,11 v 18.09375 c 0,7.3125 -5.5,13.90625 -12.5,13.90625 C 27.203125,43 23.296875,41.796875 20,39.09375 19.203125,38.40625 18,36.90625 18,39.5 v 25.90625 c 0,1.890625 0,2.6875 -1.203125,2.6875 -1,0 -6.390625,-1.6875 -10.390625,-2.390625 C 5,65.5 3.5,64.703125 3.5,63.59375 3.5,62.5 4.703125,61.703125 5.796875,61.296875 c 2.40625,-0.890625 3.90625,-2.890625 3.90625,-4.59375 v -45.90625 c 0,-2.5 -1.109375,-5.59375 -3.796875,-6.390625 C 3.203125,3.59375 2,2.796875 2,1.796875 c 0,-1 0.40625,-2 3,-2 2.203125,0 6.90625,0.609375 8.90625,0.609375 1.59375,0 5.09375,-0.609375 7.296875,-0.609375 2.59375,0 2.890625,1 2.890625,2 0,1 -1.09375,1.796875 -3.796875,2.609375 C 18.40625,5 18,8.296875 18,10.796875 l 0.09375,16 c 0,7.609375 4,11 9.8125,11 5.1875,0 8.6875,-5.796875 8.6875,-11.703125 V 10.796875 c 0,-2.5 -0.5,-5.890625 -2.296875,-6.390625 C 31.59375,3.59375 30.40625,2.796875 30.40625,1.796875 c 0,-1 0.390625,-2 3,-2 2.1875,0 5.390625,0.609375 7.390625,0.609375 1.609375,0 6.609375,-0.609375 8.796875,-0.609375 2.609375,0 2.703125,1 2.703125,2 0,1 -0.890625,1.796875 -3.59375,2.609375 C 46,5.203125 45,8.40625 44.90625,11 Z"
           id="EBGaramond08-Regular-104" />
      </defs>
      <use
         xlink:href="#EBGaramond08-Regular-84"
         id="use323"
         x="0"
         y="0"
         width="100%"
         height="100%" />
      <use
         x="59.199997"
         xlink:href="#EBGaramond08-Regular-97"
         id="use325"
         y="0"
         width="100%"
         height="100%" />
      <use
         x="100.09999"
         xlink:href="#EBGaramond08-Regular-110"
         id="use327"
         y="0"
         width="100%"
         height="100%" />
      <use
         x="154.39998"
         xlink:href="#EBGaramond08-Regular-104"
         id="use329"
         y="0"
         width="100%"
         height="100%" />
    </g>
  </g>
  <sodipodi:namedview
     pagecolor="#ffffff"
     bordercolor="#666666"
     borderopacity="1"
     objecttolerance="10"
     gridtolerance="10"
     guidetolerance="10"
     inkscape:pageopacity="0"
     inkscape:pageshadow="2"
     inkscape:window-width="3840"
     inkscape:window-height="2106"
     id="namedview344"
     showgrid="false"
     inkscape:zoom="2.1875"
     inkscape:cx="58.819037"
     inkscape:cy="175.63734"
     inkscape:window-x="0"
     inkscape:window-y="54"
     inkscape:window-maximized="0"
     inkscape:current-layer="svg342" />
  <metadata
     id="metadata2">
    <rdf:RDF>
      <cc:Work>
        <dc:type
           rdf:resource="http://purl.org/dc/dcmitype/StillImage" />
        <dc:date>2020-09-21T21:03:10.347260</dc:date>
        <dc:format>image/svg+xml</dc:format>
        <dc:creator>
          <cc:Agent>
            <dc:title>Matplotlib v3.3.2, https://matplotlib.org/</dc:title>
          </cc:Agent>
        </dc:creator>
        <dc:title></dc:title>
      </cc:Work>
    </rdf:RDF>
  </metadata>
  <defs
     id="defs6">
    <style
       type="text/css"
       id="style4">*{stroke-linecap:butt;stroke-linejoin:round;}</style>
  </defs>
  <path
     d="m -57.2,304.528 h 460.8 v -345.6 H -57.2 Z"
     style="fill:none"
     id="path8" />
  <defs
     id="defs340">
    <clipPath
       id="p668aaa2334">
      <rect
         height="266.112"
         width="357.12"
         x="57.599998"
         y="41.472"
         id="rect337" />
    </clipPath>
  </defs>
</svg>
