<?xml version="1.0" encoding="UTF-8" standalone="no"?>
<svg
   xmlns:dc="http://purl.org/dc/elements/1.1/"
   xmlns:cc="http://creativecommons.org/ns#"
   xmlns:rdf="http://www.w3.org/1999/02/22-rdf-syntax-ns#"
   xmlns:svg="http://www.w3.org/2000/svg"
   xmlns="http://www.w3.org/2000/svg"
   xmlns:sodipodi="http://sodipodi.sourceforge.net/DTD/sodipodi-0.dtd"
   xmlns:inkscape="http://www.inkscape.org/namespaces/inkscape"
   width="288.68359pt"
   height="205.72266pt"
   viewBox="0 0 288.68359 205.72266"
   version="1.1"
   id="svg165"
   sodipodi:docname="momentum-1.svg"
   inkscape:version="1.0.1 (3bc2e813f5, 2020-09-07)">
  <metadata
     id="metadata169">
    <rdf:RDF>
      <cc:Work
         rdf:about="">
        <dc:format>image/svg+xml</dc:format>
        <dc:type
           rdf:resource="http://purl.org/dc/dcmitype/StillImage" />
        <dc:title></dc:title>
      </cc:Work>
    </rdf:RDF>
  </metadata>
  <sodipodi:namedview
     pagecolor="#ffffff"
     bordercolor="#666666"
     borderopacity="1"
     objecttolerance="10"
     gridtolerance="10"
     guidetolerance="10"
     inkscape:pageopacity="0"
     inkscape:pageshadow="2"
     inkscape:window-width="3840"
     inkscape:window-height="2106"
     id="namedview167"
     showgrid="false"
     inkscape:zoom="3.3451327"
     inkscape:cx="79.156746"
     inkscape:cy="139.33333"
     inkscape:window-x="0"
     inkscape:window-y="54"
     inkscape:window-maximized="0"
     inkscape:current-layer="svg165" />
  <defs
     id="defs26">
    <clipPath
       id="clip1">
      <path
         d="M 53.273438,27 H 297.39844 v 85 H 53.273438 Z m 0,0"
         id="path2" />
    </clipPath>
    <clipPath
       id="clip2">
      <path
         d="M 53.273438,109 H 297.39844 v 22 H 53.273438 Z m 0,0"
         id="path5" />
    </clipPath>
    <clipPath
       id="clip3">
      <path
         d="M 53.273438,128 H 297.39844 v 18 H 53.273438 Z m 0,0"
         id="path8" />
    </clipPath>
    <clipPath
       id="clip4">
      <path
         d="M 53.273438,143 H 297.39844 v 16 H 53.273438 Z m 0,0"
         id="path11" />
    </clipPath>
    <clipPath
       id="clip5">
      <path
         d="M 53.273438,156 H 297.39844 v 14 H 53.273438 Z m 0,0"
         id="path14" />
    </clipPath>
    <clipPath
       id="clip6">
      <path
         d="M 53.273438,167 H 265 v 11.875 H 53.273438 Z m 0,0"
         id="path17" />
    </clipPath>
    <clipPath
       id="clip7">
      <path
         d="m 262,177 h 35.39844 v 1.875 H 262 Z m 0,0"
         id="path20" />
    </clipPath>
    <clipPath
       id="clip8">
      <path
         d="M 53.273438,177 H 56 v 1.875 h -2.726562 z m 0,0"
         id="path23" />
    </clipPath>
  </defs>
  <g
     id="g306"
     transform="translate(-9.21875,-8.5)">
    <path
       style="fill:none;stroke:#000000;stroke-width:1;stroke-linecap:butt;stroke-linejoin:round;stroke-miterlimit:4;stroke-opacity:1"
       d="m 110.49219,178.875 v 4.375"
       id="path30" />
    <path
       style="fill:#000000;fill-opacity:1;fill-rule:nonzero;stroke:none"
       d="m 102.60156,192.6875 h 7.82422 v 1.03516 h -7.82422 z m 0,0"
       id="path32" />
    <path
       style="fill:#000000;fill-opacity:1;fill-rule:nonzero;stroke:none"
       d="m 116.47656,189.08594 -3.11328,4.86328 h 3.11328 z m -0.32422,-1.07422 h 1.55079 v 5.9375 h 1.30078 v 1.02734 h -1.30078 v 2.14844 h -1.22657 v -2.14844 h -4.11328 v -1.1914 z m 0,0"
       id="path34" />
    <path
       style="fill:none;stroke:#000000;stroke-width:1;stroke-linecap:butt;stroke-linejoin:round;stroke-miterlimit:4;stroke-opacity:1"
       d="m 186.78125,178.875 v 4.375"
       id="path36" />
    <path
       style="fill:#000000;fill-opacity:1;fill-rule:nonzero;stroke:none"
       d="m 178.89062,192.6875 h 7.82422 v 1.03516 h -7.82422 z m 0,0"
       id="path38" />
    <path
       style="fill:#000000;fill-opacity:1;fill-rule:nonzero;stroke:none"
       d="m 190.4375,196.08594 h 4.30469 v 1.03906 h -5.78516 v -1.03906 c 0.46875,-0.48438 1.10547,-1.13282 1.91016,-1.94922 0.80859,-0.81641 1.3164,-1.34375 1.52343,-1.57813 0.39454,-0.44531 0.67188,-0.82031 0.82813,-1.125 0.15625,-0.30859 0.23437,-0.60937 0.23437,-0.90625 0,-0.48437 -0.16796,-0.8789 -0.50781,-1.18359 -0.33984,-0.30859 -0.78125,-0.46094 -1.32812,-0.46094 -0.38672,0 -0.79688,0.0664 -1.22657,0.20313 -0.42578,0.13281 -0.88671,0.33593 -1.375,0.60937 v -1.24609 c 0.4961,-0.19922 0.96094,-0.34766 1.39063,-0.44922 0.43359,-0.10156 0.82812,-0.15234 1.1875,-0.15234 0.94531,0 1.69531,0.23437 2.25781,0.70703 0.5625,0.47265 0.83985,1.10156 0.83985,1.89062 0,0.375 -0.0703,0.73047 -0.21094,1.06641 -0.13672,0.33594 -0.39453,0.73047 -0.76563,1.1875 -0.10156,0.11719 -0.42187,0.45703 -0.96875,1.02344 -0.54297,0.5625 -1.3125,1.35156 -2.30859,2.36328 z m 0,0"
       id="path40" />
    <path
       style="fill:none;stroke:#000000;stroke-width:1;stroke-linecap:butt;stroke-linejoin:round;stroke-miterlimit:4;stroke-opacity:1"
       d="m 263.07031,178.875 v 4.375"
       id="path42" />
    <path
       style="fill:#000000;fill-opacity:1;fill-rule:nonzero;stroke:none"
       d="m 263.06641,188.82422 c -0.63282,0 -1.11329,0.3125 -1.4336,0.9375 -0.3164,0.62109 -0.47656,1.5625 -0.47656,2.8164 0,1.2461 0.16016,2.1836 0.47656,2.8086 0.32031,0.625 0.80078,0.9375 1.4336,0.9375 0.64062,0 1.11718,-0.3125 1.4375,-0.9375 0.32031,-0.625 0.48046,-1.5625 0.48046,-2.8086 0,-1.2539 -0.16015,-2.19531 -0.48046,-2.8164 -0.32032,-0.625 -0.79688,-0.9375 -1.4375,-0.9375 z m 0,-0.97656 c 1.02343,0 1.80078,0.40234 2.33984,1.21093 0.53906,0.8086 0.80859,1.98047 0.80859,3.51953 0,1.53125 -0.26953,2.70313 -0.80859,3.51172 -0.53906,0.8086 -1.31641,1.21094 -2.33984,1.21094 -1.01954,0 -1.80079,-0.40234 -2.33985,-1.21094 -0.53906,-0.80859 -0.80859,-1.98047 -0.80859,-3.51172 0,-1.53906 0.26953,-2.71093 0.80859,-3.51953 0.53906,-0.80859 1.32031,-1.21093 2.33985,-1.21093 z m 0,0"
       id="path44" />
    <path
       style="fill:#000000;fill-opacity:1;fill-rule:nonzero;stroke:none"
       d="m 174.52344,207.38672 -2.47266,3.32422 2.59766,3.51172 h -1.32422 l -1.98828,-2.6875 -1.98828,2.6875 h -1.32813 l 2.65625,-3.57813 -2.42969,-3.25781 h 1.32422 l 1.8125,2.43359 1.8125,-2.43359 z m 0,0"
       id="path46" />
    <path
       style="fill:#000000;fill-opacity:1;fill-rule:nonzero;stroke:none"
       d="m 176.60937,213.18359 h 2.01563 v -6.95312 l -2.19141,0.4414 v -1.125 l 2.17969,-0.4375 h 1.23047 v 8.07422 h 2.01562 v 1.03907 h -5.25 z m 0,0"
       id="path48" />
    <path
       style="fill:none;stroke:#000000;stroke-width:1;stroke-linecap:butt;stroke-linejoin:round;stroke-miterlimit:4;stroke-opacity:1"
       d="m 53.273437,178.875 h -4.375"
       id="path50" />
    <path
       style="fill:#000000;fill-opacity:1;fill-rule:nonzero;stroke:none"
       d="m 27.421875,179.1875 h 7.824219 v 1.03516 h -7.824219 z m 0,0"
       id="path52" />
    <path
       style="fill:#000000;fill-opacity:1;fill-rule:nonzero;stroke:none"
       d="m 41.644531,178.71094 c 0.589844,0.125 1.050781,0.38672 1.378907,0.78906 0.332031,0.39844 0.5,0.89062 0.5,1.47656 0,0.89844 -0.308594,1.59375 -0.929688,2.08594 -0.617188,0.49219 -1.496094,0.73828 -2.636719,0.73828 -0.378906,0 -0.773437,-0.0352 -1.179687,-0.11328 C 38.375,183.6133 37.957031,183.5 37.523438,183.34766 v -1.1875 c 0.34375,0.19921 0.714843,0.34765 1.121093,0.44921 0.410157,0.10157 0.835938,0.15235 1.277344,0.15235 0.773437,0 1.363281,-0.15235 1.765625,-0.45703 0.40625,-0.30469 0.609375,-0.7461 0.609375,-1.32813 0,-0.53906 -0.1875,-0.95703 -0.566406,-1.26172 -0.375,-0.30078 -0.898438,-0.45312 -1.570313,-0.45312 h -1.0625 v -1.01563 h 1.113282 c 0.605468,0 1.066406,-0.12109 1.390624,-0.36328 0.320313,-0.24219 0.480469,-0.58984 0.480469,-1.04687 0,-0.46485 -0.164062,-0.82422 -0.496093,-1.07422 -0.332032,-0.25391 -0.804688,-0.37891 -1.425782,-0.37891 -0.335937,0 -0.699218,0.0391 -1.085937,0.11328 -0.386719,0.0703 -0.8125,0.1836 -1.277344,0.33985 v -1.09766 c 0.46875,-0.13281 0.910156,-0.23047 1.316406,-0.29297 0.410157,-0.0664 0.796875,-0.0977 1.15625,-0.0977 0.9375,0 1.675781,0.21093 2.222657,0.63671 0.542968,0.42579 0.816406,1 0.816406,1.72266 0,0.50781 -0.144532,0.93359 -0.433594,1.28125 -0.289062,0.34766 -0.699219,0.58594 -1.230469,0.72266 z m 0,0"
       id="path54" />
    <path
       style="fill:none;stroke:#000000;stroke-width:1;stroke-linecap:butt;stroke-linejoin:round;stroke-miterlimit:4;stroke-opacity:1"
       d="m 53.273437,140.35547 h -4.375"
       id="path56" />
    <path
       style="fill:#000000;fill-opacity:1;fill-rule:nonzero;stroke:none"
       d="m 27.421875,140.66797 h 7.824219 v 1.03515 h -7.824219 z m 0,0"
       id="path58" />
    <path
       style="fill:#000000;fill-opacity:1;fill-rule:nonzero;stroke:none"
       d="m 38.96875,144.06641 h 4.304688 v 1.03906 h -5.785157 v -1.03906 c 0.464844,-0.48438 1.105469,-1.13282 1.910157,-1.94922 0.808593,-0.81641 1.316406,-1.34375 1.523437,-1.57813 0.394531,-0.44531 0.671875,-0.82031 0.828125,-1.125 0.15625,-0.30859 0.234375,-0.60937 0.234375,-0.90625 0,-0.48437 -0.167969,-0.8789 -0.507813,-1.18359 -0.339843,-0.3086 -0.785156,-0.46094 -1.328124,-0.46094 -0.386719,0 -0.796876,0.0664 -1.226563,0.20313 -0.425781,0.13281 -0.886719,0.33593 -1.375,0.60937 v -1.24609 c 0.496094,-0.19922 0.960937,-0.34766 1.390625,-0.44922 0.433594,-0.10156 0.828125,-0.15235 1.1875,-0.15235 0.941406,0 1.695312,0.23438 2.257812,0.70704 0.558594,0.47265 0.839844,1.10156 0.839844,1.89062 0,0.375 -0.07031,0.73047 -0.210937,1.06641 -0.136719,0.33593 -0.394531,0.73047 -0.765625,1.1875 -0.101563,0.11718 -0.425782,0.45703 -0.96875,1.02343 -0.546875,0.5625 -1.3125,1.35157 -2.308594,2.36329 z m 0,0"
       id="path60" />
    <path
       style="fill:none;stroke:#000000;stroke-width:1;stroke-linecap:butt;stroke-linejoin:round;stroke-miterlimit:4;stroke-opacity:1"
       d="m 53.273437,101.83593 h -4.375"
       id="path62" />
    <path
       style="fill:#000000;fill-opacity:1;fill-rule:nonzero;stroke:none"
       d="m 27.421875,102.14453 h 7.824219 v 1.03906 h -7.824219 z m 0,0"
       id="path64" />
    <path
       style="fill:#000000;fill-opacity:1;fill-rule:nonzero;stroke:none"
       d="m 38.121094,105.54688 h 2.015625 v -6.95313 l -2.191407,0.4375 V 97.910156 L 40.125,97.46875 h 1.230469 v 8.07813 h 2.015625 v 1.03515 h -5.25 z m 0,0"
       id="path66" />
    <path
       style="fill:none;stroke:#000000;stroke-width:1;stroke-linecap:butt;stroke-linejoin:round;stroke-miterlimit:4;stroke-opacity:1"
       d="m 53.273437,63.3125 h -4.375"
       id="path68" />
    <path
       style="fill:#000000;fill-opacity:1;fill-rule:nonzero;stroke:none"
       d="m 40.542969,59.761719 c -0.632813,0 -1.109375,0.3125 -1.429688,0.9375 -0.320312,0.625 -0.480469,1.5625 -0.480469,2.816406 0,1.25 0.160157,2.1875 0.480469,2.8125 0.320313,0.625 0.796875,0.9375 1.429688,0.9375 0.640625,0 1.121093,-0.3125 1.4375,-0.9375 0.320312,-0.625 0.480469,-1.5625 0.480469,-2.8125 0,-1.253906 -0.160157,-2.191406 -0.480469,-2.816406 -0.316407,-0.625 -0.796875,-0.9375 -1.4375,-0.9375 z m 0,-0.976563 c 1.023437,0 1.804687,0.40625 2.34375,1.214844 0.539062,0.804688 0.808593,1.976562 0.808593,3.515625 0,1.535156 -0.269531,2.707031 -0.808593,3.515625 -0.539063,0.804688 -1.320313,1.210938 -2.34375,1.210938 -1.019531,0 -1.800781,-0.40625 -2.339844,-1.210938 -0.539063,-0.808594 -0.808594,-1.980469 -0.808594,-3.515625 0,-1.539063 0.269531,-2.710937 0.808594,-3.515625 0.539063,-0.808594 1.320313,-1.214844 2.339844,-1.214844 z m 0,0"
       id="path70" />
    <path
       style="fill:none;stroke:#000000;stroke-width:1;stroke-linecap:butt;stroke-linejoin:round;stroke-miterlimit:4;stroke-opacity:1"
       d="m 53.273437,24.792969 h -4.375"
       id="path72" />
    <path
       style="fill:#000000;fill-opacity:1;fill-rule:nonzero;stroke:none"
       d="m 38.121094,28.503906 h 2.015625 v -6.953125 l -2.191407,0.441407 v -1.125 l 2.179688,-0.4375 h 1.230469 v 8.074218 h 2.015625 v 1.039063 h -5.25 z m 0,0"
       id="path74" />
    <path
       style="fill:#000000;fill-opacity:1;fill-rule:nonzero;stroke:none"
       d="m 11.660156,94.75 3.328125,2.476562 3.507813,-2.601562 v 1.324219 L 15.8125,97.9375 l 2.683594,1.992188 v 1.324222 l -3.574219,-2.656254 -3.261719,2.429684 v -1.324215 l 2.4375,-1.8125 -2.4375,-1.8125 z m 0,0"
       id="path76" />
    <path
       style="fill:#000000;fill-opacity:1;fill-rule:nonzero;stroke:none"
       d="m 17.460938,91.816406 v -4.300781 h 1.035156 v 5.785156 h -1.035156 c -0.484376,-0.46875 -1.132813,-1.105469 -1.949219,-1.914062 -0.816407,-0.808594 -1.34375,-1.316407 -1.582031,-1.523438 -0.441407,-0.394531 -0.816407,-0.667969 -1.125,-0.824219 -0.304688,-0.160156 -0.609376,-0.238281 -0.90625,-0.238281 -0.484376,0 -0.878907,0.171875 -1.183594,0.511719 -0.304688,0.339844 -0.457032,0.78125 -0.457032,1.328125 0,0.386719 0.06641,0.792969 0.199219,1.222656 0.136719,0.429688 0.339844,0.886719 0.613281,1.375 H 9.824219 C 9.625,92.742188 9.472656,92.28125 9.371094,91.847656 9.269531,91.417969 9.21875,91.019531 9.21875,90.664062 c 0,-0.945312 0.238281,-1.699218 0.710938,-2.257812 0.472656,-0.5625 1.101562,-0.84375 1.890624,-0.84375 0.375,0 0.730469,0.07031 1.066407,0.210938 0.335937,0.140624 0.730469,0.394531 1.183593,0.765624 0.121094,0.101563 0.460938,0.425782 1.023438,0.972657 0.566406,0.542969 1.355469,1.3125 2.367188,2.304687 z m 0,0"
       id="path78" />
    <path
       style="clip-rule:nonzero;fill:none;stroke:#1e75b3;stroke-width:1.875;stroke-linecap:butt;stroke-linejoin:round;stroke-miterlimit:4;stroke-opacity:1"
       d="m 297.40234,109.83984 -3.8164,0.12891 -3.8125,0.11719 -3.81642,0.0977 -3.8125,0.0859 -3.8164,0.0703 -3.8125,0.0547 -3.81641,0.0391 -3.8125,0.0195 -3.8164,0.008 -3.8125,-0.008 -3.81641,-0.0195 -3.8125,-0.0391 -3.8164,-0.0547 -3.8125,-0.0703 -3.81641,-0.0859 -3.8125,-0.0977 -3.8164,-0.11719 -3.8125,-0.12891 -3.81642,-0.14843 -3.63281,-0.15235 -0.17969,-0.008 -3.8164,-0.19531 -3.8125,-0.20703 -3.81641,-0.22656 -3.8125,-0.24219 -3.8164,-0.26172 -3.8125,-0.27344 -3.81641,-0.29687 -3.8125,-0.3086 -3.8164,-0.32422 -3.8125,-0.34375 -3.81641,-0.36328 -3.8125,-0.375 -3.8164,-0.39453 -0.3125,-0.0312 -3.5,-0.41406 -3.81642,-0.46875 -3.8125,-0.48438 -3.8164,-0.5039 -3.8125,-0.52344 -3.81641,-0.54297 -3.81249,-0.55859 -2.36328,-0.35547 -1.45313,-0.24609 -3.8125,-0.65625 -3.8164,-0.67969 -3.8125,-0.69922 -3.81641,-0.722719 -3.8125,-0.738281 -0.5625,-0.113281 -3.25391,-0.722657 -3.8125,-0.875 -3.8164,-0.894531 -3.8125,-0.917969 -1.79297,-0.441406 -2.02344,-0.5625 -3.812499,-1.09375 -3.816406,-1.117187 -3.601562,-1.078125 -0.210938,-0.07422 -3.816406,-1.347657 -3.8125,-1.378906 -2.851563,-1.050781 -0.964843,-0.421875 -3.8125,-1.695313 -3.816407,-1.734375 -3.8125,-2.160156 -2.925781,-1.6914 -0.890625,-0.660156 -3.8125,-2.890625 -0.394531,-0.300781 -3.421875,-3.699219 -0.140625,-0.152344 -2.097657,-3.855469 -0.703125,-3.851562 0.703125,-3.851563 2.097657,-3.851562 0.140625,-0.152344 3.421875,-3.699219 0.394531,-0.304687 3.8125,-2.886719 0.890625,-0.660156 2.925781,-1.691406 3.8125,-2.160157 3.816406,-1.734375 3.8125,-1.699218 0.964844,-0.417969 2.851563,-1.054688 3.8125,-1.375 3.816406,-1.351562 0.210937,-0.07421 3.601563,-1.078125 3.816406,-1.117187 3.812499,-1.089844 2.02344,-0.566406 1.79297,-0.441406 3.8125,-0.917969 3.8164,-0.894531 3.8125,-0.871094 3.25391,-0.726569"
       id="path80" />
    <path
       style="clip-rule:nonzero;fill:none;stroke:#1e75b3;stroke-width:1.875;stroke-linecap:butt;stroke-linejoin:round;stroke-miterlimit:4;stroke-opacity:1"
       d="m 297.40234,129.5625 -3.8164,0.0937 -3.8125,0.082 -3.81642,0.0743 -3.8125,0.0586 -3.8164,0.0508 -3.8125,0.039 -3.81641,0.0274 -3.8125,0.0156 -3.8164,0.004 -3.8125,-0.004 -3.81641,-0.0156 -3.8125,-0.0274 -3.8164,-0.039 -3.8125,-0.0508 -3.81641,-0.0586 -3.8125,-0.0743 -3.8164,-0.082 -3.8125,-0.0937 -3.81642,-0.1055 -3.8125,-0.11325 -3.8164,-0.1289 -3.8125,-0.13673 -3.81641,-0.14843 -3.15625,-0.13282 -0.65625,-0.0274 -3.8164,-0.17969 -3.8125,-0.19531 -3.81641,-0.20314 -3.8125,-0.21484 -3.8164,-0.23046 -3.8125,-0.23829 -3.81641,-0.25 -3.8125,-0.26172 -3.8164,-0.27734 -3.8125,-0.28516 -3.81642,-0.29687 -3.8125,-0.30859 -3.8164,-0.32031 -3.8125,-0.33203 -2.52343,-0.23047 -1.29298,-0.125 -3.81249,-0.37891 -3.81641,-0.39063 -3.8125,-0.40234 -3.8164,-0.41797 -3.8125,-0.42578 -3.81641,-0.44141 -3.8125,-0.45312 -3.81641,-0.46875 -2.77343,-0.34766 -1.03907,-0.14062 -3.8164,-0.52344 -3.8125,-0.53906 -3.81641,-0.55078 -3.812499,-0.5625 -3.816406,-0.57813 -3.8125,-0.58984 -2.308594,-0.36719 -1.507812,-0.25781 -3.8125,-0.66406 -3.816407,-0.67579 -3.8125,-0.6914 -3.816406,-0.70703 -3.8125,-0.71875 -0.707031,-0.13668 -3.109375,-0.64844 -3.8125,-0.8086 -3.816406,-0.82421 -3.8125,-0.83985"
       id="path84" />
    <path
       style="clip-rule:nonzero;fill:none;stroke:#1e75b3;stroke-width:1.875;stroke-linecap:butt;stroke-linejoin:round;stroke-miterlimit:4;stroke-opacity:1"
       d="m 297.40234,144.64844 -3.8164,0.0781 -3.8125,0.0664 -3.81642,0.0586 -3.8125,0.0507 -3.8164,0.039 -3.8125,0.0312 -3.81641,0.0235 -3.8125,0.0112 -3.8164,0.004 -3.8125,-0.004 -3.81641,-0.0112 -3.8125,-0.0235 -3.8164,-0.0312 -3.8125,-0.039 -3.81641,-0.0507 -3.8125,-0.0586 -3.8164,-0.0664 -3.8125,-0.0781 -3.81642,-0.082 -3.8125,-0.0937 -3.8164,-0.1055 -3.8125,-0.10938 -1.55468,-0.0507 -2.26173,-0.0743 -3.8125,-0.13671 -3.8164,-0.14454 -3.8125,-0.15625 -3.81641,-0.16406 -3.8125,-0.17577 -3.8164,-0.18361 -3.8125,-0.19139 -3.81641,-0.20314 -3.8125,-0.21094 -3.8164,-0.21875 -3.8125,-0.23046 -3.81642,-0.24219 -3.8125,-0.2461 -3.8164,-0.25781 -3.8125,-0.26953 -3.81641,-0.27735 -3.81249,-0.28515 -2.36328,-0.1836 -1.45313,-0.12112 -3.8125,-0.32031 -3.8164,-0.32813 -3.8125,-0.34375 -3.81641,-0.34766 -3.8125,-0.36328 -3.81641,-0.37108 -3.8125,-0.37892 -3.8164,-0.39062 -3.8125,-0.39844 -3.81641,-0.41015 -0.71875,-0.0781 -3.093749,-0.35938 -3.816406,-0.45314 -3.8125,-0.46483 -3.816406,-0.47267 -3.8125,-0.48436 -3.816407,-0.4961 -3.8125,-0.50391 -3.816406,-0.51561 -0.753906,-0.1015 -3.058594,-0.44923 -3.816406,-0.5664 -3.8125,-0.57814 -3.816406,-0.58593 -3.8125,-0.60157"
       id="path88" />
    <path
       style="clip-rule:nonzero;fill:none;stroke:#1e75b3;stroke-width:1.875;stroke-linecap:butt;stroke-linejoin:round;stroke-miterlimit:4;stroke-opacity:1"
       d="m 297.40234,157.33203 -3.8164,0.0664 -3.8125,0.0586 -3.81642,0.0507 -3.8125,0.043 -3.8164,0.0351 -3.8125,0.0274 -3.81641,0.0195 -3.8125,0.0113 -3.8164,0.004 -3.8125,-0.004 -3.81641,-0.0113 -3.8125,-0.0195 -3.8164,-0.0274 -3.8125,-0.0351 -3.81641,-0.043 -3.8125,-0.0507 -3.8164,-0.0586 -3.8125,-0.0664 -3.81642,-0.0743 -3.8125,-0.082 -3.8164,-0.0937 -3.8125,-0.0976 -3.81641,-0.1055 -3.8125,-0.11325 -3.8164,-0.12113 -3.8125,-0.13281 -3.81641,-0.13671 -3.8125,-0.14453 -3.8164,-0.15235 -3.8125,-0.16015 -3.46094,-0.15625 -0.35547,-0.0156 -3.8125,-0.18359 -3.8164,-0.1914 -3.8125,-0.20312 -3.81642,-0.20704 -3.8125,-0.21875 -3.8164,-0.22656 -3.8125,-0.23048 -3.81641,-0.24217 -3.81249,-0.25002 -3.81641,-0.2578 -3.8125,-0.26953 -3.8164,-0.27344 -3.8125,-0.28125 -3.81641,-0.29296 -3.8125,-0.29688 -2.59766,-0.21094 -1.21875,-0.10162 -3.8125,-0.33204 -3.8164,-0.33594 -3.8125,-0.34765 -3.81641,-0.35547 -3.812499,-0.36328 -3.816406,-0.3711 -3.8125,-0.38281 -3.816406,-0.38672 -3.8125,-0.39843 -3.816407,-0.40626 -0.628906,-0.0702 -3.183594,-0.36329 -3.816406,-0.44141 -3.8125,-0.45313 -3.816406,-0.46092 -3.8125,-0.47266 -3.816406,-0.47657 -3.8125,-0.48827"
       id="path92" />
    <path
       style="clip-rule:nonzero;fill:none;stroke:#1e75b3;stroke-width:1.875;stroke-linecap:butt;stroke-linejoin:round;stroke-miterlimit:4;stroke-opacity:1"
       d="m 297.40234,168.50781 -3.8164,0.0586 -3.8125,0.0507 -3.81642,0.0469 -3.8125,0.039 -3.8164,0.0312 -3.8125,0.0234 -3.81641,0.0195 -3.8125,0.008 -3.8164,0.004 -3.8125,-0.004 -3.81641,-0.008 -3.8125,-0.0195 -3.8164,-0.0234 -3.8125,-0.0312 -3.81641,-0.039 -3.8125,-0.0469 -3.8164,-0.0507 -3.8125,-0.0586 -3.81642,-0.0664 -3.8125,-0.0743 -3.8164,-0.082 -3.8125,-0.0859 -3.81641,-0.0976 -3.8125,-0.1015 -3.8164,-0.1055 -3.8125,-0.11713 -3.81641,-0.12112 -3.8125,-0.12892 -3.8164,-0.13671 -1.85938,-0.0704 -1.95312,-0.0781 -3.81641,-0.15625 -3.8125,-0.16406 -3.8164,-0.16797 -3.8125,-0.17969 -3.81642,-0.1875 -3.8125,-0.1914 -3.8164,-0.19923 -3.8125,-0.20702 -3.81641,-0.21485 -3.81249,-0.22265 -3.81641,-0.22657 -3.8125,-0.23828 -3.8164,-0.24219 -3.8125,-0.25 -3.81641,-0.25781 -3.8125,-0.26563 -3.81641,-0.27343 -1.78515,-0.1289 -2.02735,-0.15625 -3.8164,-0.30079 -3.8125,-0.30469 -3.81641,-0.3125 -3.812499,-0.32031 -3.816406,-0.32813 -3.8125,-0.33593 -3.816406,-0.34376 -3.8125,-0.35156 -3.816407,-0.35937 -3.8125,-0.36719 -3.816406,-0.375 -3.8125,-0.39453 -3.816406,-0.40625 -3.8125,-0.41406 -3.816406,-0.41796 -3.8125,-0.42969"
       id="path96" />
    <path
       style="clip-rule:nonzero;fill:none;stroke:#1e75b3;stroke-width:1.875;stroke-linecap:butt;stroke-linejoin:round;stroke-miterlimit:4;stroke-opacity:1"
       d="m 263.07031,178.875 -3.8125,-0.004 -3.81641,-0.007 -3.8125,-0.0195 -3.8164,-0.0195 -3.8125,-0.0312 -3.81641,-0.0351 -3.8125,-0.043 -3.8164,-0.0469 -3.8125,-0.0586 -3.81642,-0.0625 -3.8125,-0.0664 -3.8164,-0.0743 -3.8125,-0.082 -3.81641,-0.0899 -3.8125,-0.0937 -3.8164,-0.1015 -3.8125,-0.10937 -3.81641,-0.11325 -3.8125,-0.12113 -3.8164,-0.125 -3.8125,-0.13672 -3.81641,-0.13671 -3.8125,-0.14844 -3.8164,-0.15235 -3.8125,-0.16015 -3.81642,-0.16797 -3.8125,-0.17188 -3.8164,-0.17969 -3.8125,-0.1875 -3.81641,-0.1914 -3.81249,-0.19922 -3.81641,-0.20703 -3.8125,-0.21093 -3.8164,-0.21876 -1.32812,-0.0781 -2.48438,-0.15235 -3.81641,-0.23828 -3.8125,-0.24999 -3.81641,-0.25 -3.8125,-0.26173 -3.8164,-0.26562 -3.8125,-0.27344 -3.81641,-0.28125 -3.812499,-0.28906 -3.816406,-0.29297 -3.8125,-0.30078 -3.816406,-0.30859 -3.8125,-0.3125 -3.816407,-0.32031 -0.628906,-0.0546 -3.183594,-0.28516 -3.816406,-0.34765 -3.8125,-0.35156 -3.816406,-0.35938 -3.8125,-0.3711 -3.816406,-0.375 -3.8125,-0.3789"
       id="path100" />
    <path
       style="clip-rule:nonzero;fill:none;stroke:#1e75b3;stroke-width:1.875;stroke-linecap:butt;stroke-linejoin:round;stroke-miterlimit:4;stroke-opacity:1"
       d="m 297.40234,178.60937 -3.8164,0.0586 -3.8125,0.0469 -3.81642,0.043 -3.8125,0.0351 -3.8164,0.0312 -3.8125,0.0195 -3.81641,0.0195 -3.8125,0.007 -3.8164,0.004"
       id="path104" />
    <path
       style="clip-rule:nonzero;fill:none;stroke:#1e75b3;stroke-width:1.875;stroke-linecap:butt;stroke-linejoin:round;stroke-miterlimit:4;stroke-opacity:1"
       d="m 54.148437,178.875 -0.871093,-0.082"
       id="path108" />
    <path
       style="fill:none;stroke:#ff7d0c;stroke-width:1.875;stroke-linecap:square;stroke-linejoin:round;stroke-miterlimit:4;stroke-opacity:1"
       d="m 72.347656,140.35546 15.257813,-123.265616 14.039061,73.957031 12.91406,-44.375 11.87891,26.625 10.92969,-15.972656 10.05858,9.582031 9.25002,-5.75 8.51171,3.453125 7.83202,-2.070313 7.20313,1.242188 6.62891,-0.746094 6.09765,0.445313 5.60938,-0.265625 5.16016,0.160156 4.75,-0.09766 4.36719,0.05859 4.01952,-0.03516 3.69532,0.01954 3.40235,-0.01175 3.1289,0.0079"
       id="path112" />
    <path
       style="fill:#ff7d0c;fill-opacity:1;fill-rule:nonzero;stroke:#ff7d0c;stroke-width:1.25;stroke-linecap:butt;stroke-linejoin:round;stroke-miterlimit:4;stroke-opacity:1"
       d="m 72.347656,144.10547 c 0.996094,0 1.949219,-0.39453 2.652344,-1.09766 0.703125,-0.70312 1.097656,-1.66016 1.097656,-2.65234 0,-0.9961 -0.394531,-1.94922 -1.097656,-2.65235 -0.703125,-0.70312 -1.65625,-1.09765 -2.652344,-1.09765 -0.996094,0 -1.949219,0.39453 -2.652344,1.09765 -0.703125,0.70313 -1.097656,1.65625 -1.097656,2.65235 0,0.99218 0.394531,1.94922 1.097656,2.65234 0.703125,0.70313 1.65625,1.09766 2.652344,1.09766 z m 0,0"
       id="path114" />
    <path
       style="fill:#ff7d0c;fill-opacity:1;fill-rule:nonzero;stroke:#ff7d0c;stroke-width:1.25;stroke-linecap:butt;stroke-linejoin:round;stroke-miterlimit:4;stroke-opacity:1"
       d="m 87.605469,20.839843 c 0.996094,0 1.949219,-0.394531 2.652344,-1.097656 0.703125,-0.703125 1.097656,-1.660156 1.097656,-2.652344 0,-0.996093 -0.394531,-1.949218 -1.097656,-2.652343 -0.703125,-0.703125 -1.65625,-1.097656 -2.652344,-1.097656 -0.996094,0 -1.949219,0.394531 -2.652344,1.097656 -0.703125,0.703125 -1.097656,1.65625 -1.097656,2.652343 0,0.992188 0.394531,1.949219 1.097656,2.652344 0.703125,0.703125 1.65625,1.097656 2.652344,1.097656 z m 0,0"
       id="path116" />
    <path
       style="fill:#ff7d0c;fill-opacity:1;fill-rule:nonzero;stroke:#ff7d0c;stroke-width:1.25;stroke-linecap:butt;stroke-linejoin:round;stroke-miterlimit:4;stroke-opacity:1"
       d="m 101.64454,94.796875 c 0.99218,0 1.94531,-0.394531 2.64843,-1.097656 0.70313,-0.703125 1.10157,-1.65625 1.10157,-2.652344 0,-0.992188 -0.39844,-1.945313 -1.10157,-2.648438 -0.70312,-0.703125 -1.65625,-1.101562 -2.64843,-1.101562 -0.9961,0 -1.949224,0.398437 -2.652349,1.101562 -0.703125,0.703125 -1.097656,1.65625 -1.097656,2.648438 0,0.996094 0.394531,1.949219 1.097656,2.652344 0.703125,0.703125 1.656249,1.097656 2.652349,1.097656 z m 0,0"
       id="path118" />
    <path
       style="fill:#ff7d0c;fill-opacity:1;fill-rule:nonzero;stroke:#ff7d0c;stroke-width:1.25;stroke-linecap:butt;stroke-linejoin:round;stroke-miterlimit:4;stroke-opacity:1"
       d="m 114.55859,50.421875 c 0.99219,0 1.94532,-0.394531 2.64844,-1.097656 0.70313,-0.703125 1.10156,-1.65625 1.10156,-2.652344 0,-0.992187 -0.39843,-1.949219 -1.10156,-2.652344 -0.70312,-0.703125 -1.65625,-1.097656 -2.64844,-1.097656 -0.99609,0 -1.94921,0.394531 -2.65234,1.097656 -0.70312,0.703125 -1.09766,1.660157 -1.09766,2.652344 0,0.996094 0.39454,1.949219 1.09766,2.652344 0.70313,0.703125 1.65625,1.097656 2.65234,1.097656 z m 0,0"
       id="path120" />
    <path
       style="fill:#ff7d0c;fill-opacity:1;fill-rule:nonzero;stroke:#ff7d0c;stroke-width:1.25;stroke-linecap:butt;stroke-linejoin:round;stroke-miterlimit:4;stroke-opacity:1"
       d="m 126.4375,77.046875 c 0.99609,0 1.94921,-0.394531 2.65234,-1.097656 0.70312,-0.703125 1.09766,-1.65625 1.09766,-2.652344 0,-0.992188 -0.39454,-1.945313 -1.09766,-2.648438 -0.70313,-0.703125 -1.65625,-1.101562 -2.65234,-1.101562 -0.99219,0 -1.94922,0.398437 -2.65235,1.101562 -0.70312,0.703125 -1.09765,1.65625 -1.09765,2.648438 0,0.996094 0.39453,1.949219 1.09765,2.652344 0.70313,0.703125 1.66016,1.097656 2.65235,1.097656 z m 0,0"
       id="path122" />
    <path
       style="fill:#ff7d0c;fill-opacity:1;fill-rule:nonzero;stroke:#ff7d0c;stroke-width:1.25;stroke-linecap:butt;stroke-linejoin:round;stroke-miterlimit:4;stroke-opacity:1"
       d="m 137.36718,61.074218 c 0.9961,0 1.94922,-0.394531 2.65235,-1.097656 0.70312,-0.703125 1.09765,-1.660156 1.09765,-2.652344 0,-0.996093 -0.39453,-1.949218 -1.09765,-2.652343 -0.70313,-0.703125 -1.65625,-1.097657 -2.65235,-1.097657 -0.99218,0 -1.94531,0.394532 -2.64843,1.097657 -0.70704,0.703125 -1.10157,1.65625 -1.10157,2.652343 0,0.992188 0.39453,1.949219 1.10157,2.652344 0.70312,0.703125 1.65625,1.097656 2.64843,1.097656 z m 0,0"
       id="path124" />
    <path
       style="fill:#ff7d0c;fill-opacity:1;fill-rule:nonzero;stroke:#ff7d0c;stroke-width:1.25;stroke-linecap:butt;stroke-linejoin:round;stroke-miterlimit:4;stroke-opacity:1"
       d="m 147.42578,70.65625 c 0.99219,0 1.94922,-0.394532 2.65235,-1.097657 0.70312,-0.703125 1.09765,-1.65625 1.09765,-2.652343 0,-0.992188 -0.39453,-1.945313 -1.09765,-2.648438 -0.70313,-0.703125 -1.66016,-1.101562 -2.65235,-1.101562 -0.99609,0 -1.94921,0.398437 -2.65234,1.101562 -0.70312,0.703125 -1.09766,1.65625 -1.09766,2.648438 0,0.996093 0.39454,1.949218 1.09766,2.652343 0.70313,0.703125 1.65625,1.097657 2.65234,1.097657 z m 0,0"
       id="path126" />
    <path
       style="fill:#ff7d0c;fill-opacity:1;fill-rule:nonzero;stroke:#ff7d0c;stroke-width:1.25;stroke-linecap:butt;stroke-linejoin:round;stroke-miterlimit:4;stroke-opacity:1"
       d="m 156.67578,64.90625 c 0.9961,0 1.94922,-0.394532 2.65235,-1.097657 0.70312,-0.703125 1.09765,-1.65625 1.09765,-2.652343 0,-0.992188 -0.39453,-1.949219 -1.09765,-2.652344 -0.70313,-0.703125 -1.65625,-1.097656 -2.65235,-1.097656 -0.99218,0 -1.94922,0.394531 -2.65234,1.097656 -0.70313,0.703125 -1.09766,1.660156 -1.09766,2.652344 0,0.996093 0.39453,1.949218 1.09766,2.652343 0.70312,0.703125 1.66016,1.097657 2.65234,1.097657 z m 0,0"
       id="path128" />
    <path
       style="fill:#ff7d0c;fill-opacity:1;fill-rule:nonzero;stroke:#ff7d0c;stroke-width:1.25;stroke-linecap:butt;stroke-linejoin:round;stroke-miterlimit:4;stroke-opacity:1"
       d="m 165.1875,68.359375 c 0.9961,0 1.94922,-0.398438 2.65235,-1.101563 0.70312,-0.703125 1.09765,-1.65625 1.09765,-2.648437 0,-0.996094 -0.39453,-1.949219 -1.09765,-2.652344 -0.70313,-0.703125 -1.65625,-1.097656 -2.65235,-1.097656 -0.99609,0 -1.94922,0.394531 -2.65234,1.097656 -0.70313,0.703125 -1.09766,1.65625 -1.09766,2.652344 0,0.992187 0.39453,1.945312 1.09766,2.648437 0.70312,0.703125 1.65625,1.101563 2.65234,1.101563 z m 0,0"
       id="path130" />
    <path
       style="fill:#ff7d0c;fill-opacity:1;fill-rule:nonzero;stroke:#ff7d0c;stroke-width:1.25;stroke-linecap:butt;stroke-linejoin:round;stroke-miterlimit:4;stroke-opacity:1"
       d="m 173.01953,66.289062 c 0.99219,0 1.94922,-0.398437 2.65234,-1.101562 0.70313,-0.703125 1.09766,-1.65625 1.09766,-2.648438 0,-0.996094 -0.39453,-1.949219 -1.09766,-2.652344 -0.70312,-0.703125 -1.66015,-1.097656 -2.65234,-1.097656 -0.9961,0 -1.94922,0.394531 -2.65235,1.097656 -0.70312,0.703125 -1.09765,1.65625 -1.09765,2.652344 0,0.992188 0.39453,1.945313 1.09765,2.648438 0.70313,0.703125 1.65625,1.101562 2.65235,1.101562 z m 0,0"
       id="path132" />
    <path
       style="fill:#ff7d0c;fill-opacity:1;fill-rule:nonzero;stroke:#ff7d0c;stroke-width:1.25;stroke-linecap:butt;stroke-linejoin:round;stroke-miterlimit:4;stroke-opacity:1"
       d="m 180.22265,67.53125 c 0.9961,0 1.94922,-0.398438 2.65235,-1.101563 0.70312,-0.703125 1.09765,-1.65625 1.09765,-2.648437 0,-0.996094 -0.39453,-1.949219 -1.09765,-2.652344 -0.70313,-0.703125 -1.65625,-1.097656 -2.65235,-1.097656 -0.99609,0 -1.94922,0.394531 -2.65234,1.097656 -0.70313,0.703125 -1.09766,1.65625 -1.09766,2.652344 0,0.992187 0.39453,1.945312 1.09766,2.648437 0.70312,0.703125 1.65625,1.101563 2.65234,1.101563 z m 0,0"
       id="path134" />
    <path
       style="fill:#ff7d0c;fill-opacity:1;fill-rule:nonzero;stroke:#ff7d0c;stroke-width:1.25;stroke-linecap:butt;stroke-linejoin:round;stroke-miterlimit:4;stroke-opacity:1"
       d="m 186.85156,66.785156 c 0.99219,0 1.94922,-0.394531 2.65235,-1.097656 0.70312,-0.703125 1.09765,-1.660156 1.09765,-2.652343 0,-0.996094 -0.39453,-1.949219 -1.09765,-2.652344 -0.70313,-0.703125 -1.66016,-1.097656 -2.65235,-1.097656 -0.99609,0 -1.94922,0.394531 -2.65234,1.097656 -0.70313,0.703125 -1.09766,1.65625 -1.09766,2.652344 0,0.992187 0.39453,1.949218 1.09766,2.652343 0.70312,0.703125 1.65625,1.097656 2.65234,1.097656 z m 0,0"
       id="path136" />
    <path
       style="fill:#ff7d0c;fill-opacity:1;fill-rule:nonzero;stroke:#ff7d0c;stroke-width:1.25;stroke-linecap:butt;stroke-linejoin:round;stroke-miterlimit:4;stroke-opacity:1"
       d="m 192.94922,67.230468 c 0.99218,0 1.94531,-0.394531 2.65234,-1.097656 0.70312,-0.703125 1.09766,-1.65625 1.09766,-2.652344 0,-0.992187 -0.39454,-1.949218 -1.09766,-2.652343 -0.70703,-0.703125 -1.66016,-1.097657 -2.65234,-1.097657 -0.9961,0 -1.94922,0.394532 -2.65235,1.097657 -0.70312,0.703125 -1.09765,1.660156 -1.09765,2.652343 0,0.996094 0.39453,1.949219 1.09765,2.652344 0.70313,0.703125 1.65625,1.097656 2.65235,1.097656 z m 0,0"
       id="path138" />
    <path
       style="fill:#ff7d0c;fill-opacity:1;fill-rule:nonzero;stroke:#ff7d0c;stroke-width:1.25;stroke-linecap:butt;stroke-linejoin:round;stroke-miterlimit:4;stroke-opacity:1"
       d="m 198.5586,66.964844 c 0.99218,0 1.94922,-0.398438 2.65234,-1.101563 0.70313,-0.703125 1.09766,-1.65625 1.09766,-2.648437 0,-0.996094 -0.39453,-1.949219 -1.09766,-2.652344 -0.70312,-0.703125 -1.66016,-1.097656 -2.65234,-1.097656 -0.9961,0 -1.94922,0.394531 -2.65235,1.097656 -0.70312,0.703125 -1.09765,1.65625 -1.09765,2.652344 0,0.992187 0.39453,1.945312 1.09765,2.648437 0.70313,0.703125 1.65625,1.101563 2.65235,1.101563 z m 0,0"
       id="path140" />
    <path
       style="fill:#ff7d0c;fill-opacity:1;fill-rule:nonzero;stroke:#ff7d0c;stroke-width:1.25;stroke-linecap:butt;stroke-linejoin:round;stroke-miterlimit:4;stroke-opacity:1"
       d="m 203.71875,67.125 c 0.9961,0 1.94922,-0.394532 2.65235,-1.097657 0.70312,-0.703125 1.09765,-1.660156 1.09765,-2.652343 0,-0.996094 -0.39453,-1.949219 -1.09765,-2.652344 -0.70313,-0.703125 -1.65625,-1.097656 -2.65235,-1.097656 -0.99609,0 -1.94922,0.394531 -2.65234,1.097656 -0.70313,0.703125 -1.09766,1.65625 -1.09766,2.652344 0,0.992187 0.39453,1.949218 1.09766,2.652343 0.70312,0.703125 1.65625,1.097657 2.65234,1.097657 z m 0,0"
       id="path142" />
    <path
       style="fill:#ff7d0c;fill-opacity:1;fill-rule:nonzero;stroke:#ff7d0c;stroke-width:1.25;stroke-linecap:butt;stroke-linejoin:round;stroke-miterlimit:4;stroke-opacity:1"
       d="m 208.46875,67.027344 c 0.99219,0 1.94531,-0.394531 2.64844,-1.097656 0.70312,-0.703125 1.10156,-1.65625 1.10156,-2.652344 0,-0.996094 -0.39844,-1.949219 -1.10156,-2.652344 -0.70313,-0.703125 -1.65625,-1.097656 -2.64844,-1.097656 -0.9961,0 -1.94922,0.394531 -2.65235,1.097656 -0.70312,0.703125 -1.09765,1.65625 -1.09765,2.652344 0,0.996094 0.39453,1.949219 1.09765,2.652344 0.70313,0.703125 1.65625,1.097656 2.65235,1.097656 z m 0,0"
       id="path144" />
    <path
       style="fill:#ff7d0c;fill-opacity:1;fill-rule:nonzero;stroke:#ff7d0c;stroke-width:1.25;stroke-linecap:butt;stroke-linejoin:round;stroke-miterlimit:4;stroke-opacity:1"
       d="m 212.83593,67.085937 c 0.99219,0 1.94922,-0.394531 2.65235,-1.097656 0.70312,-0.703125 1.09765,-1.660156 1.09765,-2.652344 0,-0.996093 -0.39453,-1.949218 -1.09765,-2.652343 -0.70313,-0.703125 -1.66016,-1.097657 -2.65235,-1.097657 -0.99609,0 -1.94922,0.394532 -2.65234,1.097657 -0.70313,0.703125 -1.09766,1.65625 -1.09766,2.652343 0,0.992188 0.39453,1.949219 1.09766,2.652344 0.70312,0.703125 1.65625,1.097656 2.65234,1.097656 z m 0,0"
       id="path146" />
    <path
       style="fill:#ff7d0c;fill-opacity:1;fill-rule:nonzero;stroke:#ff7d0c;stroke-width:1.25;stroke-linecap:butt;stroke-linejoin:round;stroke-miterlimit:4;stroke-opacity:1"
       d="m 216.85546,67.050781 c 0.99219,0 1.94532,-0.394531 2.64844,-1.097656 0.70313,-0.703125 1.10156,-1.65625 1.10156,-2.652344 0,-0.996094 -0.39843,-1.949219 -1.10156,-2.652344 -0.70312,-0.703125 -1.65625,-1.097656 -2.64844,-1.097656 -0.99609,0 -1.94921,0.394531 -2.65234,1.097656 -0.70312,0.703125 -1.09766,1.65625 -1.09766,2.652344 0,0.996094 0.39454,1.949219 1.09766,2.652344 0.70313,0.703125 1.65625,1.097656 2.65234,1.097656 z m 0,0"
       id="path148" />
    <path
       style="fill:#ff7d0c;fill-opacity:1;fill-rule:nonzero;stroke:#ff7d0c;stroke-width:1.25;stroke-linecap:butt;stroke-linejoin:round;stroke-miterlimit:4;stroke-opacity:1"
       d="m 220.55078,67.070312 c 0.9961,0 1.94922,-0.394531 2.65235,-1.097656 0.70312,-0.703125 1.09765,-1.65625 1.09765,-2.652344 0,-0.992187 -0.39453,-1.945312 -1.09765,-2.648437 -0.70313,-0.707031 -1.65625,-1.101563 -2.65235,-1.101563 -0.99219,0 -1.94922,0.394532 -2.65234,1.101563 -0.70313,0.703125 -1.09766,1.65625 -1.09766,2.648437 0,0.996094 0.39453,1.949219 1.09766,2.652344 0.70312,0.703125 1.66015,1.097656 2.65234,1.097656 z m 0,0"
       id="path150" />
    <path
       style="fill:#ff7d0c;fill-opacity:1;fill-rule:nonzero;stroke:#ff7d0c;stroke-width:1.25;stroke-linecap:butt;stroke-linejoin:round;stroke-miterlimit:4;stroke-opacity:1"
       d="m 223.95312,67.058593 c 0.9961,0 1.94922,-0.394531 2.65235,-1.097656 0.70312,-0.703125 1.09765,-1.65625 1.09765,-2.652344 0,-0.992187 -0.39453,-1.949218 -1.09765,-2.652343 -0.70313,-0.703125 -1.65625,-1.097657 -2.65235,-1.097657 -0.99609,0 -1.94921,0.394532 -2.65234,1.097657 -0.70312,0.703125 -1.09766,1.660156 -1.09766,2.652343 0,0.996094 0.39454,1.949219 1.09766,2.652344 0.70313,0.703125 1.65625,1.097656 2.65234,1.097656 z m 0,0"
       id="path152" />
    <path
       style="fill:#ff7d0c;fill-opacity:1;fill-rule:nonzero;stroke:#ff7d0c;stroke-width:1.25;stroke-linecap:butt;stroke-linejoin:round;stroke-miterlimit:4;stroke-opacity:1"
       d="m 227.08203,67.066407 c 0.99609,0 1.94922,-0.394532 2.65234,-1.097657 0.70313,-0.703125 1.09766,-1.65625 1.09766,-2.652343 0,-0.996094 -0.39453,-1.949219 -1.09766,-2.652344 -0.70312,-0.703125 -1.65625,-1.097656 -2.65234,-1.097656 -0.99609,0 -1.94922,0.394531 -2.65234,1.097656 -0.70313,0.703125 -1.09766,1.65625 -1.09766,2.652344 0,0.996093 0.39453,1.949218 1.09766,2.652343 0.70312,0.703125 1.65625,1.097657 2.65234,1.097657 z m 0,0"
       id="path154" />
    <path
       style="fill:none;stroke:#000000;stroke-width:1;stroke-linecap:square;stroke-linejoin:miter;stroke-miterlimit:4;stroke-opacity:1"
       d="M 53.273437,178.875 V 9"
       id="path156" />
    <path
       style="fill:none;stroke:#000000;stroke-width:1;stroke-linecap:square;stroke-linejoin:miter;stroke-miterlimit:4;stroke-opacity:1"
       d="M 297.40234,178.875 V 9"
       id="path158" />
    <path
       style="fill:none;stroke:#000000;stroke-width:1;stroke-linecap:square;stroke-linejoin:miter;stroke-miterlimit:4;stroke-opacity:1"
       d="M 53.277344,178.875 H 297.40234"
       id="path160" />
    <path
       style="fill:none;stroke:#000000;stroke-width:1;stroke-linecap:square;stroke-linejoin:miter;stroke-miterlimit:4;stroke-opacity:1"
       d="M 53.277344,9 H 297.40234"
       id="path162" />
  </g>
</svg>
