<?xml version="1.0" encoding="UTF-8" standalone="no"?>
<svg
   xmlns:dc="http://purl.org/dc/elements/1.1/"
   xmlns:cc="http://creativecommons.org/ns#"
   xmlns:rdf="http://www.w3.org/1999/02/22-rdf-syntax-ns#"
   xmlns:svg="http://www.w3.org/2000/svg"
   xmlns="http://www.w3.org/2000/svg"
   xmlns:xlink="http://www.w3.org/1999/xlink"
   xmlns:sodipodi="http://sodipodi.sourceforge.net/DTD/sodipodi-0.dtd"
   xmlns:inkscape="http://www.inkscape.org/namespaces/inkscape"
   height="266.91199pt"
   version="1.1"
   viewBox="0 0 357.91999 266.91198"
   width="357.91998pt"
   id="svg300"
   sodipodi:docname="sinc.svg"
   inkscape:version="1.0.1 (3bc2e813f5, 2020-09-07)">
  <sodipodi:namedview
     pagecolor="#ffffff"
     bordercolor="#666666"
     borderopacity="1"
     objecttolerance="10"
     gridtolerance="10"
     guidetolerance="10"
     inkscape:pageopacity="0"
     inkscape:pageshadow="2"
     inkscape:window-width="3840"
     inkscape:window-height="2106"
     id="namedview302"
     showgrid="false"
     inkscape:zoom="2.1875"
     inkscape:cx="58.819037"
     inkscape:cy="175.63734"
     inkscape:window-x="0"
     inkscape:window-y="54"
     inkscape:window-maximized="0"
     inkscape:current-layer="svg300" />
  <metadata
     id="metadata2">
    <rdf:RDF>
      <cc:Work>
        <dc:type
           rdf:resource="http://purl.org/dc/dcmitype/StillImage" />
        <dc:date>2020-10-23T05:02:23.568370</dc:date>
        <dc:format>image/svg+xml</dc:format>
        <dc:creator>
          <cc:Agent>
            <dc:title>Matplotlib v3.3.2, https://matplotlib.org/</dc:title>
          </cc:Agent>
        </dc:creator>
        <dc:title></dc:title>
      </cc:Work>
    </rdf:RDF>
  </metadata>
  <defs
     id="defs6">
    <style
       type="text/css"
       id="style4">*{stroke-linecap:butt;stroke-linejoin:round;}</style>
    <defs
       id="defs15">
      <path
         d="M 0,0 V -3.5"
         id="mcd9366992f"
         style="stroke:#586e75;stroke-width:0.8" />
    </defs>
    <defs
       id="defs88">
      <path
         d="M 0,0 H 3.5"
         id="mcd10a0a236"
         style="stroke:#586e75;stroke-width:0.8" />
    </defs>
    <defs
       id="defs216">
      <path
         d="m 44.28125,53.078125 v -8.5 Q 40.484375,46.53125 36.375,47.5 q -4.09375,0.984375 -8.5,0.984375 -6.6875,0 -10.03125,-2.046875 Q 14.5,44.390625 14.5,40.28125 q 0,-3.125 2.390625,-4.90625 2.390625,-1.78125 9.625,-3.390625 l 3.078125,-0.6875 Q 39.15625,29.25 43.1875,25.515625 47.21875,21.78125 47.21875,15.09375 q 0,-7.625 -6.03125,-12.078125 -6.03125,-4.4375 -16.578125,-4.4375 -4.390625,0 -9.15625,0.859375 Q 10.6875,0.296875 5.421875,2 v 9.28125 q 4.984375,-2.59375 9.8125,-3.890625 4.828125,-1.28125 9.578125,-1.28125 6.34375,0 9.75,2.171875 3.421875,2.171875 3.421875,6.125 0,3.65625 -2.46875,5.609375 -2.453125,1.953125 -10.8125,3.765625 l -3.125,0.734375 q -8.34375,1.75 -12.0625,5.390625 -3.703125,3.640625 -3.703125,9.984375 0,7.71875 5.46875,11.90625 Q 16.75,56 26.8125,56 q 4.96875,0 9.359375,-0.734375 4.40625,-0.71875 8.109375,-2.1875 z"
         id="DejaVuSans-115" />
      <path
         d="M 9.421875,54.6875 H 18.40625 V 0 H 9.421875 Z m 0,21.296875 H 18.40625 V 64.59375 H 9.421875 Z"
         id="DejaVuSans-105" />
      <path
         d="M 54.890625,33.015625 V 0 H 45.90625 v 32.71875 q 0,7.765625 -3.03125,11.609375 -3.03125,3.859375 -9.078125,3.859375 -7.28125,0 -11.484375,-4.640625 -4.203125,-4.625 -4.203125,-12.640625 V 0 h -9.03125 v 54.6875 h 9.03125 v -8.5 q 3.234375,4.9375 7.59375,7.375 4.375,2.4375 10.09375,2.4375 9.421875,0 14.25,-5.828125 4.84375,-5.828125 4.84375,-17.15625 z"
         id="DejaVuSans-110" />
      <path
         d="M 31,75.875 Q 24.46875,64.65625 21.28125,53.65625 18.109375,42.671875 18.109375,31.390625 18.109375,20.125 21.3125,9.0625 24.515625,-2 31,-13.1875 H 23.1875 Q 15.875,-1.703125 12.234375,9.375 8.59375,20.453125 8.59375,31.390625 q 0,10.890625 3.609375,21.921875 3.625,11.046875 10.984375,22.5625 z"
         id="DejaVuSans-40" />
      <path
         d="M 60.015625,54.6875 34.90625,27.875 50.296875,0 h -10.3125 L 28.421875,21.6875 8.296875,0 H -2.59375 L 24.3125,28.8125 10.015625,54.6875 H 20.3125 l 10.5,-19.78125 18.3125,19.78125 z"
         id="DejaVuSans-Oblique-120" />
      <path
         d="m 8.015625,75.875 h 7.8125 q 7.3125,-11.515625 10.953125,-22.5625 3.640625,-11.03125 3.640625,-21.921875 0,-10.9375 -3.640625,-22.015625 -3.640625,-11.078125 -10.953125,-22.5625 h -7.8125 Q 14.5,-2 17.703125,9.0625 20.90625,20.125 20.90625,31.390625 q 0,11.28125 -3.203125,22.265625 -3.203125,11 -9.6875,22.21875 z"
         id="DejaVuSans-41" />
      <path
         d="M 25.390625,72.90625 H 33.6875 L 8.296875,-9.28125 H 0 Z"
         id="DejaVuSans-47" />
    </defs>
    <defs
       id="defs242">
      <path
         d="m 10.796875,72.90625 h 38.71875 v -8.3125 h -29.6875 V 46.734375 q 2.140625,0.734375 4.28125,1.09375 2.15625,0.359375 4.3125,0.359375 Q 40.625,48.1875 47.75,41.5 54.890625,34.8125 54.890625,23.390625 54.890625,11.625 47.5625,5.09375 40.234375,-1.421875 26.90625,-1.421875 q -4.59375,0 -9.359375,0.78125 -4.75,0.78125 -9.828125,2.34375 V 11.625 q 4.390625,-2.390625 9.078125,-3.5625 4.6875,-1.171875 9.90625,-1.171875 8.453125,0 13.375,4.4375 4.9375,4.4375 4.9375,12.0625 0,7.609375 -4.9375,12.046875 -4.921875,4.453125 -13.375,4.453125 -3.953125,0 -7.890625,-0.875 -3.921875,-0.875 -8.015625,-2.734375 z"
         id="DejaVuSans-53" />
    </defs>
    <defs
       id="defs24">
      <path
         d="M 10.59375,35.5 H 73.1875 V 27.203125 H 10.59375 Z"
         id="DejaVuSans-8722" />
      <path
         d="M 37.796875,64.3125 12.890625,25.390625 h 24.90625 z m -2.59375,8.59375 h 12.40625 V 25.390625 h 10.40625 V 17.1875 H 47.609375 V 0 h -9.8125 V 17.1875 H 4.890625 v 9.515625 z"
         id="DejaVuSans-52" />
    </defs>
    <defs
       id="defs40">
      <path
         d="M 19.1875,8.296875 H 53.609375 V 0 H 7.328125 v 8.296875 q 5.609375,5.8125 15.296875,15.59375 9.703125,9.796875 12.1875,12.640625 4.734375,5.3125 6.609375,9 1.890625,3.6875 1.890625,7.25 0,5.8125 -4.078125,9.46875 -4.078125,3.671875 -10.625,3.671875 -4.640625,0 -9.796875,-1.609375 -5.140625,-1.609375 -11,-4.890625 v 9.96875 Q 13.765625,71.78125 18.9375,73 q 5.1875,1.21875 9.484375,1.21875 11.328125,0 18.0625,-5.671875 6.734375,-5.65625 6.734375,-15.125 0,-4.5 -1.6875,-8.53125 Q 49.859375,40.875 45.40625,35.40625 44.1875,33.984375 37.640625,27.21875 31.109375,20.453125 19.1875,8.296875 Z"
         id="DejaVuSans-50" />
    </defs>
    <defs
       id="defs56">
      <path
         d="m 31.78125,66.40625 q -7.609375,0 -11.453125,-7.5 Q 16.5,51.421875 16.5,36.375 q 0,-14.984375 3.828125,-22.484375 3.84375,-7.5 11.453125,-7.5 7.671875,0 11.5,7.5 3.84375,7.5 3.84375,22.484375 0,15.046875 -3.84375,22.53125 -3.828125,7.5 -11.5,7.5 z m 0,7.8125 q 12.265625,0 18.734375,-9.703125 6.46875,-9.6875 6.46875,-28.140625 0,-18.40625 -6.46875,-28.109375 -6.46875,-9.6875 -18.734375,-9.6875 -12.25,0 -18.71875,9.6875 Q 6.59375,17.96875 6.59375,36.375 q 0,18.453125 6.46875,28.140625 6.46875,9.703125 18.71875,9.703125 z"
         id="DejaVuSans-48" />
    </defs>
    <defs
       id="defs142">
      <path
         d="m 33.015625,40.375 q -6.640625,0 -10.53125,-4.546875 -3.875,-4.53125 -3.875,-12.4375 0,-7.859375 3.875,-12.4375 3.890625,-4.5625 10.53125,-4.5625 6.640625,0 10.515625,4.5625 3.875,4.578125 3.875,12.4375 0,7.90625 -3.875,12.4375 Q 39.65625,40.375 33.015625,40.375 Z M 52.59375,71.296875 V 62.3125 q -3.71875,1.75 -7.5,2.671875 -3.78125,0.9375 -7.5,0.9375 -9.765625,0 -14.921875,-6.59375 -5.140625,-6.59375 -5.875,-19.921875 2.875,4.25 7.21875,6.515625 4.359375,2.265625 9.578125,2.265625 10.984375,0 17.359375,-6.671875 6.375,-6.65625 6.375,-18.125 0,-11.234375 -6.640625,-18.03125 -6.640625,-6.78125 -17.671875,-6.78125 -12.65625,0 -19.34375,9.6875 -6.6875,9.703125 -6.6875,28.109375 0,17.28125 8.203125,27.5625 8.203125,10.28125 22.015625,10.28125 3.71875,0 7.5,-0.734375 3.78125,-0.734375 7.890625,-2.1875 z"
         id="DejaVuSans-54" />
    </defs>
    <defs
       id="defs156">
      <path
         d="m 31.78125,34.625 q -7.03125,0 -11.0625,-3.765625 -4.015625,-3.765625 -4.015625,-10.34375 0,-6.59375 4.015625,-10.359375 4.03125,-3.765625 11.0625,-3.765625 7.03125,0 11.078125,3.78125 4.0625,3.796875 4.0625,10.34375 0,6.578125 -4.03125,10.34375 Q 38.875,34.625 31.78125,34.625 Z m -9.859375,4.1875 Q 15.578125,40.375 12.03125,44.71875 8.5,49.078125 8.5,55.328125 q 0,8.734375 6.21875,13.8125 6.234375,5.078125 17.0625,5.078125 10.890625,0 17.09375,-5.078125 6.203125,-5.078125 6.203125,-13.8125 0,-6.25 -3.546875,-10.609375 Q 48,40.375 41.703125,38.8125 q 7.125,-1.65625 11.09375,-6.5 3.984375,-4.828125 3.984375,-11.796875 0,-10.609375 -6.46875,-16.28125 -6.46875,-5.65625 -18.53125,-5.65625 -12.046875,0 -18.53125,5.65625 -6.46875,5.671875 -6.46875,16.28125 0,6.96875 4,11.796875 4.015625,4.84375 11.140625,6.5 z M 18.3125,54.390625 q 0,-5.65625 3.53125,-8.828125 3.546875,-3.171875 9.9375,-3.171875 6.359375,0 9.9375,3.171875 3.59375,3.171875 3.59375,8.828125 0,5.671875 -3.59375,8.84375 -3.578125,3.171875 -9.9375,3.171875 -6.390625,0 -9.9375,-3.171875 Q 18.3125,60.0625 18.3125,54.390625 Z"
         id="DejaVuSans-56" />
    </defs>
    <defs
       id="defs170">
      <path
         d="m 12.40625,8.296875 h 16.109375 v 55.625 L 10.984375,60.40625 v 8.984375 l 17.4375,3.515625 H 38.28125 V 8.296875 H 54.390625 V 0 H 12.40625 Z"
         id="DejaVuSans-49" />
    </defs>
  </defs>
  <path
     d="m -57.2,304.528 h 460.8 v -345.6 H -57.2 Z"
     style="fill:none"
     id="path8" />
  <defs
     id="defs298">
    <clipPath
       id="pb4d0497576">
      <rect
         height="266.112"
         width="357.12"
         x="57.599998"
         y="41.472"
         id="rect295" />
    </clipPath>
  </defs>
  <g
     id="g1514"
     transform="translate(-57.2,-41.072)">
    <path
       d="M 57.6,307.584 H 414.72 V 41.472 H 57.6 Z"
       style="fill:none"
       id="path11" />
    <use
       style="fill:#586e75;stroke:#586e75;stroke-width:0.8"
       x="106.36324"
       xlink:href="#mcd9366992f"
       y="252.47069"
       id="use17"
       width="100%"
       height="100%" />
    <use
       xlink:href="#DejaVuSans-8722"
       id="use26"
       x="0"
       y="0"
       width="100%"
       height="100%"
       style="fill:#586e75"
       transform="matrix(0.1,0,0,-0.1,98.992149,243.39099)" />
    <use
       x="83.789062"
       xlink:href="#DejaVuSans-52"
       id="use28"
       y="0"
       width="100%"
       height="100%"
       style="fill:#586e75"
       transform="matrix(0.1,0,0,-0.1,98.992149,243.39099)" />
    <use
       style="fill:#586e75;stroke:#586e75;stroke-width:0.8"
       x="171.42427"
       xlink:href="#mcd9366992f"
       y="252.47069"
       id="use34"
       width="100%"
       height="100%" />
    <use
       xlink:href="#DejaVuSans-8722"
       id="use42"
       x="0"
       y="0"
       width="100%"
       height="100%"
       style="fill:#586e75"
       transform="matrix(0.1,0,0,-0.1,164.05318,243.39099)" />
    <use
       x="83.789062"
       xlink:href="#DejaVuSans-50"
       id="use44"
       y="0"
       width="100%"
       height="100%"
       style="fill:#586e75"
       transform="matrix(0.1,0,0,-0.1,164.05318,243.39099)" />
    <use
       style="fill:#586e75;stroke:#586e75;stroke-width:0.8"
       x="236.48531"
       xlink:href="#mcd9366992f"
       y="252.47069"
       id="use50"
       width="100%"
       height="100%" />
    <use
       xlink:href="#DejaVuSans-48"
       id="use58"
       x="0"
       y="0"
       width="100%"
       height="100%"
       style="fill:#586e75"
       transform="matrix(0.1,0,0,-0.1,233.30405,243.39099)" />
    <use
       style="fill:#586e75;stroke:#586e75;stroke-width:0.8"
       x="301.54633"
       xlink:href="#mcd9366992f"
       y="252.47069"
       id="use64"
       width="100%"
       height="100%" />
    <use
       xlink:href="#DejaVuSans-50"
       id="use69"
       x="0"
       y="0"
       width="100%"
       height="100%"
       style="fill:#586e75"
       transform="matrix(0.1,0,0,-0.1,298.36509,243.39099)" />
    <use
       style="fill:#586e75;stroke:#586e75;stroke-width:0.8"
       x="366.60736"
       xlink:href="#mcd9366992f"
       y="252.47069"
       id="use75"
       width="100%"
       height="100%" />
    <use
       xlink:href="#DejaVuSans-52"
       id="use80"
       x="0"
       y="0"
       width="100%"
       height="100%"
       style="fill:#586e75"
       transform="matrix(0.1,0,0,-0.1,363.42612,243.39099)" />
    <use
       style="fill:#586e75;stroke:#586e75;stroke-width:0.8"
       x="236.48531"
       xlink:href="#mcd10a0a236"
       y="292.25122"
       id="use90"
       width="100%"
       height="100%" />
    <use
       xlink:href="#DejaVuSans-8722"
       id="use95"
       x="0"
       y="0"
       width="100%"
       height="100%"
       style="fill:#586e75"
       transform="matrix(0.1,0,0,-0.1,243.4853,296.05044)" />
    <use
       x="83.789062"
       xlink:href="#DejaVuSans-50"
       id="use97"
       y="0"
       width="100%"
       height="100%"
       style="fill:#586e75"
       transform="matrix(0.1,0,0,-0.1,243.4853,296.05044)" />
    <use
       style="fill:#586e75;stroke:#586e75;stroke-width:0.8"
       x="236.48531"
       xlink:href="#mcd10a0a236"
       y="252.47069"
       id="use103"
       width="100%"
       height="100%" />
    <use
       xlink:href="#DejaVuSans-48"
       id="use108"
       x="0"
       y="0"
       width="100%"
       height="100%"
       style="fill:#586e75"
       transform="matrix(0.1,0,0,-0.1,243.4853,256.2699)" />
    <use
       style="fill:#586e75;stroke:#586e75;stroke-width:0.8"
       x="236.48531"
       xlink:href="#mcd10a0a236"
       y="212.69014"
       id="use114"
       width="100%"
       height="100%" />
    <use
       xlink:href="#DejaVuSans-50"
       id="use119"
       x="0"
       y="0"
       width="100%"
       height="100%"
       style="fill:#586e75"
       transform="matrix(0.1,0,0,-0.1,243.4853,216.48936)" />
    <use
       style="fill:#586e75;stroke:#586e75;stroke-width:0.8"
       x="236.48531"
       xlink:href="#mcd10a0a236"
       y="172.90961"
       id="use125"
       width="100%"
       height="100%" />
    <use
       xlink:href="#DejaVuSans-52"
       id="use130"
       x="0"
       y="0"
       width="100%"
       height="100%"
       style="fill:#586e75"
       transform="matrix(0.1,0,0,-0.1,243.4853,176.70883)" />
    <use
       style="fill:#586e75;stroke:#586e75;stroke-width:0.8"
       x="236.48531"
       xlink:href="#mcd10a0a236"
       y="133.12907"
       id="use136"
       width="100%"
       height="100%" />
    <use
       xlink:href="#DejaVuSans-54"
       id="use144"
       x="0"
       y="0"
       width="100%"
       height="100%"
       style="fill:#586e75"
       transform="matrix(0.1,0,0,-0.1,243.4853,136.92829)" />
    <use
       style="fill:#586e75;stroke:#586e75;stroke-width:0.8"
       x="236.48531"
       xlink:href="#mcd10a0a236"
       y="93.348534"
       id="use150"
       width="100%"
       height="100%" />
    <use
       xlink:href="#DejaVuSans-56"
       id="use158"
       x="0"
       y="0"
       width="100%"
       height="100%"
       style="fill:#586e75"
       transform="matrix(0.1,0,0,-0.1,243.4853,97.147755)" />
    <use
       style="fill:#586e75;stroke:#586e75;stroke-width:0.8"
       x="236.48531"
       xlink:href="#mcd10a0a236"
       y="53.568001"
       id="use164"
       width="100%"
       height="100%" />
    <use
       xlink:href="#DejaVuSans-49"
       id="use172"
       x="0"
       y="0"
       width="100%"
       height="100%"
       style="fill:#586e75"
       transform="matrix(0.1,0,0,-0.1,243.4853,57.367219)" />
    <use
       x="63.623047"
       xlink:href="#DejaVuSans-48"
       id="use174"
       y="0"
       width="100%"
       height="100%"
       style="fill:#586e75"
       transform="matrix(0.1,0,0,-0.1,243.4853,57.367219)" />
    <path
       clip-path="url(#pb4d0497576)"
       d="m 73.832727,256.28533 8.457934,0.38001 7.807324,0.12608 7.156713,-0.10118 7.156712,-0.32657 7.15671,-0.56241 7.15672,-0.80108 7.15671,-1.03456 7.15672,-1.25477 7.80732,-1.5948 8.45793,-1.95083 11.06038,-2.80157 29.92807,-7.74124 8.45794,-1.87195 7.15671,-1.3676 6.5061,-1.03619 6.50611,-0.81359 6.5061,-0.57166 5.85549,-0.29625 5.85549,-0.0834 5.8555,0.13101 5.85549,0.34291 5.85549,0.54817 6.50611,0.83681 6.5061,1.05719 7.15671,1.38754 7.80733,1.73704 9.75915,2.41264 16.91587,4.47123 13.01221,3.34179 9.10854,2.1255 7.80732,1.61297 7.80733,1.37908 7.15671,1.03456 7.15672,0.80108 7.15671,0.56241 7.15671,0.32657 7.15672,0.10118 7.80732,-0.12608 7.80732,-0.3428 v 0"
       style="fill:none;stroke:#b58900;stroke-width:2;stroke-linecap:square"
       id="path181" />
    <path
       clip-path="url(#pb4d0497576)"
       d="m 73.832727,252.99718 3.253052,1.87396 1.951831,0.90057 1.951831,0.6246 1.30122,0.2307 1.301221,0.0675 1.301221,-0.10116 1.30122,-0.26869 1.951831,-0.6982 1.951831,-1.00247 2.602441,-1.66447 5.204883,-3.46504 1.951831,-0.98604 1.30122,-0.47865 1.30122,-0.30918 1.30122,-0.12402 1.30122,0.0698 1.30122,0.26461 1.30122,0.45276 1.95183,0.99863 1.95183,1.31 3.25306,2.57071 3.25305,2.5126 1.95183,1.21283 1.30122,0.6097 1.30122,0.41687 1.30122,0.20292 1.30122,-0.0242 1.30122,-0.25558 1.30122,-0.48229 1.30122,-0.69514 1.95183,-1.38999 1.95184,-1.70641 6.5061,-6.01871 1.30122,-0.89688 1.30122,-0.69037 1.30122,-0.45046 1.30122,-0.18578 1.30122,0.0939 1.30122,0.37796 1.30122,0.65524 1.30122,0.91455 1.30122,1.14513 1.95183,2.06286 3.25306,3.9271 2.60244,3.03758 1.95183,1.8885 1.30122,0.96561 1.30122,0.67465 1.30122,0.34625 1.30122,-0.008 1.30122,-0.37524 1.30122,-0.74147 1.30122,-1.09233 1.30122,-1.41351 1.30122,-1.69129 1.95184,-2.93235 5.85549,-9.27937 1.30122,-1.62533 1.30122,-1.2914 1.30122,-0.88975 1.30122,-0.43247 0.65061,-0.0313 0.65061,0.097 0.65061,0.22786 0.65061,0.35998 1.30122,1.11539 1.30122,1.62865 1.30122,2.10753 1.30122,2.53208 1.95184,4.429 6.5061,15.88242 1.30122,2.43663 1.30122,1.88642 0.65061,0.69952 0.65061,0.51867 0.65061,0.32522 0.65061,0.12025 0.65061,-0.0951 0.65061,-0.31937 0.65061,-0.55134 0.65061,-0.78947 0.65061,-1.03222 0.65061,-1.27799 1.30122,-3.29694 1.30122,-4.27394 1.30122,-5.21344 1.30122,-6.0879 1.95184,-10.56427 1.95183,-11.90932 4.55427,-29.99827 2.60244,-16.19726 1.95183,-10.57126 1.30122,-5.98446 1.30122,-4.96737 1.30122,-3.83286 0.65061,-1.46142 0.65061,-1.14583 0.65061,-0.82339 0.65061,-0.49601 0.65061,-0.16567 0.65061,0.16567 0.65062,0.49601 0.65061,0.82339 0.65061,1.14583 0.65061,1.46142 1.30122,3.83286 1.30122,4.96737 1.30122,5.98446 1.30122,6.86114 1.95183,11.58261 3.25305,21.2509 3.25305,21.16149 1.95183,11.51348 1.95184,10.01889 1.30122,5.6605 1.30122,4.75011 1.30122,3.78839 1.30122,2.80308 0.65061,1.03222 0.65061,0.78947 0.65061,0.55134 0.65061,0.31937 0.65061,0.0951 0.65061,-0.12025 0.65061,-0.32522 0.65061,-0.51867 0.65061,-0.69952 1.30122,-1.88642 1.30122,-2.43663 1.95183,-4.40623 6.50611,-15.90519 1.30122,-2.53208 1.30122,-2.10753 1.30122,-1.62865 1.30122,-1.11539 0.65061,-0.35998 0.65061,-0.22786 0.65061,-0.097 0.65061,0.0313 0.65061,0.15615 1.30122,0.6672 1.30122,1.09835 1.30122,1.46748 1.30122,1.76389 1.95183,3.02456 4.55428,7.34025 1.95183,2.62408 1.30122,1.41351 1.30122,1.09233 1.30122,0.74147 1.30122,0.37524 1.30122,0.008 1.30122,-0.34625 1.30122,-0.67465 1.30122,-0.96561 1.30122,-1.20934 1.95183,-2.14938 5.8555,-6.91003 1.95183,-1.79242 1.30122,-0.91455 1.30122,-0.65524 1.30122,-0.37796 1.30122,-0.0939 1.30122,0.18578 1.30122,0.45046 1.30122,0.69037 1.30122,0.89688 1.95183,1.6425 7.15672,6.58728 1.95183,1.25829 1.30122,0.59101 1.30122,0.3701 1.30122,0.13988 1.30122,-0.0905 1.30122,-0.31206 1.30122,-0.51639 1.95183,-1.10168 1.95183,-1.3947 6.50611,-5.03023 1.95183,-1.11274 1.30122,-0.54194 1.30122,-0.36 1.30122,-0.16754 1.30122,0.0277 1.30122,0.21813 1.30122,0.39629 1.95183,0.88535 1.95183,1.1545 7.80733,5.03357 1.95183,0.80709 1.30122,0.34993 1.30122,0.18549 1.30122,0.0165 1.30122,-0.1502 1.95183,-0.51724 1.95183,-0.81716 2.60244,-1.41654 0.65061,-0.38864 v 0"
       style="fill:none;stroke:#268bd2;stroke-width:2;stroke-linecap:square"
       id="path184" />
    <path
       clip-path="url(#pb4d0497576)"
       d="m 73.832727,253.51442 1.301221,1.43227 1.301221,1.06148 0.65061,0.33402 0.65061,0.18178 0.65061,0.021 0.650611,-0.14191 0.65061,-0.30051 1.301221,-1.02801 1.30122,-1.45993 3.253052,-3.98306 1.301221,-1.06021 0.65061,-0.31184 0.65061,-0.14595 0.65061,0.0272 0.650611,0.20085 0.65061,0.36798 1.301221,1.17814 1.30122,1.61094 2.602442,3.49236 1.30122,1.32709 0.65061,0.45345 0.650611,0.28543 0.65061,0.10442 0.65061,-0.0825 0.650611,-0.26787 0.65061,-0.44429 1.30122,-1.34698 1.30122,-1.77965 2.60244,-3.72713 1.30122,-1.35408 0.65061,-0.43994 0.65061,-0.254 0.65061,-0.056 0.65061,0.14623 0.65061,0.34471 0.65061,0.53145 1.30123,1.53889 1.95183,3.02381 1.95183,2.93606 1.30122,1.38158 0.65061,0.42285 0.65061,0.21651 0.65061,-7.9e-4 0.65061,-0.22047 0.65061,-0.43379 0.65061,-0.63216 1.30122,-1.7599 1.95183,-3.34035 1.30122,-2.18815 1.30122,-1.74578 0.65061,-0.61285 0.65061,-0.4015 0.65061,-0.17152 0.65061,0.0681 0.65061,0.30797 0.65061,0.53844 0.65061,0.75021 1.30123,2.0184 3.90366,7.07809 0.65061,0.82681 0.65061,0.61459 0.65061,0.37493 0.65061,0.11705 0.65061,-0.14898 0.65061,-0.41267 0.65061,-0.66342 0.65061,-0.89105 1.30122,-2.3266 3.25305,-6.72472 1.30122,-1.93012 0.65061,-0.61563 0.65061,-0.34184 0.65061,-0.0503 0.65061,0.24773 0.65061,0.54034 0.65061,0.81578 1.30122,2.33389 1.95184,4.55277 1.30122,3.05358 1.30122,2.49547 0.65061,0.90302 0.65061,0.61649 0.65061,0.30041 0.65061,-0.0331 0.65061,-0.37098 0.65061,-0.69985 0.65061,-1.00644 1.30122,-2.7815 1.95183,-5.26356 1.30122,-3.44654 1.30122,-2.74446 0.65061,-0.95729 0.65061,-0.61836 0.65061,-0.24803 0.65061,0.13953 0.65061,0.52922 0.65061,0.90553 0.65061,1.2532 1.30122,3.36405 3.90367,11.8551 0.65061,1.39186 0.65061,1.03279 0.65061,0.62411 0.65061,0.18098 0.65061,-0.27976 0.65061,-0.7402 0.65061,-1.18202 0.65061,-1.58719 1.30122,-4.16004 3.90366,-14.17266 0.65061,-1.59655 0.65061,-1.14817 0.65061,-0.64126 0.65061,-0.0943 0.65061,0.47218 0.65061,1.0363 0.65061,1.57565 0.65061,2.06817 1.30122,5.3241 3.25306,15.28766 0.65061,2.41869 0.65061,1.93122 0.65061,1.3493 0.65061,0.69251 0.65061,-0.0161 0.65061,-0.75049 0.65061,-1.48293 0.65061,-2.18466 0.65061,-2.82701 1.30122,-7.20885 3.25305,-20.59718 0.65061,-3.25065 0.65061,-2.58281 0.65061,-1.77949 0.65061,-0.86495 0.65061,0.13138 0.65061,1.17568 0.65061,2.23077 0.65061,3.25731 0.65061,4.21505 1.30122,10.83083 3.90367,37.41478 0.65061,4.35392 0.65061,3.13261 0.65061,1.68778 0.65061,0.0504 0.65061,-1.74142 0.65061,-3.64339 0.65061,-5.60615 0.65061,-7.57678 0.65061,-9.50022 1.30122,-24.30574 1.30122,-30.08001 4.55427,-115.05117 1.30122,-23.867501 0.65061,-8.826441 0.65061,-6.459378 0.65061,-3.938432 0.65061,-1.323368 0.65061,1.323368 0.65062,3.938432 0.65061,6.459378 0.65061,8.826441 0.65061,10.984227 1.30122,27.364694 1.95183,49.57529 2.60244,66.63441 1.30122,27.42481 1.30122,20.82121 0.65061,7.57678 0.65061,5.60615 0.65061,3.64339 0.65061,1.74142 0.65061,-0.0504 0.65061,-1.68778 0.65061,-3.13261 0.65061,-4.35392 1.30122,-11.37106 3.25305,-31.81039 1.30123,-9.27921 0.65061,-3.25731 0.65061,-2.23077 0.65061,-1.17568 0.65061,-0.13138 0.65061,0.86495 0.65061,1.77949 0.65061,2.58281 1.30122,7.01531 3.90366,24.04137 0.65061,2.82701 0.65061,2.18466 0.65061,1.48293 0.65061,0.75049 0.65061,0.0161 0.65061,-0.69251 0.65061,-1.3493 0.65061,-1.93122 1.30122,-5.21504 3.90367,-17.81541 0.65061,-2.06817 0.65061,-1.57565 0.65061,-1.0363 0.65061,-0.47218 0.65061,0.0943 0.65061,0.64126 0.65061,1.14817 0.65061,1.59655 1.30122,4.22874 3.25305,12.16524 0.65061,1.93872 0.65061,1.58719 0.65061,1.18202 0.65061,0.7402 0.65061,0.27976 0.65061,-0.18098 0.65061,-0.62411 0.65061,-1.03279 0.65061,-1.39186 1.30122,-3.6009 3.25306,-10.06046 0.65061,-1.55779 0.65061,-1.2532 0.65061,-0.90553 0.65061,-0.52922 0.65061,-0.13953 0.65061,0.24803 0.65061,0.61836 0.65061,0.95729 1.30122,2.74446 1.95183,5.26 1.30122,3.4501 1.30122,2.7815 0.65061,1.00644 0.65061,0.69985 0.65061,0.37098 0.65061,0.0331 0.65061,-0.30041 0.65061,-0.61649 0.65061,-0.90302 1.30122,-2.49547 3.90366,-8.87744 0.65062,-1.0628 0.65061,-0.81578 0.65061,-0.54034 0.65061,-0.24773 0.65061,0.0503 0.65061,0.34184 0.65061,0.61563 0.65061,0.8611 1.30122,2.30076 3.90366,7.81958 0.65061,0.89105 0.65061,0.66342 0.65061,0.41267 0.65061,0.14898 0.65061,-0.11705 0.65061,-0.37493 0.65061,-0.61459 1.30122,-1.8304 1.95183,-3.62994 1.95184,-3.52839 1.30122,-1.68478 0.65061,-0.53844 0.65061,-0.30797 0.65061,-0.0681 0.65061,0.17152 0.65061,0.4015 0.65061,0.61285 1.30122,1.74578 1.95183,3.3393 1.30122,2.1892 1.30122,1.7599 0.65061,0.63216 0.65061,0.43379 0.65061,0.22047 0.65061,7.9e-4 0.65061,-0.21651 0.65061,-0.42285 0.65061,-0.61021 1.30122,-1.67162 3.90367,-5.89966 0.6506,-0.69885 0.65062,-0.53145 0.65061,-0.34471 0.65061,-0.14623 0.65061,0.056 0.65061,0.254 0.65061,0.43994 1.30122,1.35408 1.30122,1.78973 2.60244,3.71705 1.30122,1.34698 0.65061,0.44429 0.65061,0.26787 0.65061,0.0825 0.65061,-0.10442 0.65061,-0.28543 0.65061,-0.45345 1.30122,-1.32709 1.95183,-2.60042 1.95184,-2.50288 1.30122,-1.17814 0.65061,-0.36798 0.65061,-0.20085 0.65061,-0.0272 0.65061,0.14595 0.65061,0.31184 1.30122,1.06021 1.30122,1.48649 2.60244,3.26778 1.30122,1.26833 0.65061,0.4484 0.65061,0.30051 0.65061,0.14191 0.65061,-0.021 0.65061,-0.18178 0.65061,-0.33402 1.30122,-1.06148 0.65061,-0.68327 v 0"
       style="fill:none;stroke:#dc322f;stroke-width:2;stroke-linecap:square"
       id="path187" />
    <path
       d="M 236.4853,307.584 V 41.472"
       style="fill:none;stroke:#586e75;stroke-width:0.8;stroke-linecap:square;stroke-linejoin:miter"
       id="path190" />
    <path
       d="M 236.4853,307.584 V 41.472"
       style="fill:none;stroke:#586e75;stroke-width:0.8;stroke-linecap:square;stroke-linejoin:miter"
       id="path193" />
    <path
       d="M 57.6,252.47068 H 414.72"
       style="fill:none;stroke:#586e75;stroke-width:0.8;stroke-linecap:square;stroke-linejoin:miter"
       id="path196" />
    <path
       d="M 57.6,252.47068 H 414.72"
       style="fill:none;stroke:#586e75;stroke-width:0.8;stroke-linecap:square;stroke-linejoin:miter"
       id="path199" />
    <path
       d="m 71.1,60.222 h 30"
       style="fill:none;stroke:#b58900;stroke-width:2;stroke-linecap:square"
       id="path205" />
    <path
       d="m 71.1,82.316531 h 30"
       style="fill:none;stroke:#268bd2;stroke-width:2;stroke-linecap:square"
       id="path237" />
    <use
       transform="matrix(0.15,0,0,-0.15,113.1,65.469656)"
       xlink:href="#DejaVuSans-115"
       id="use218"
       x="0"
       y="0"
       width="100%"
       height="100%"
       style="fill:#586e75" />
    <use
       transform="matrix(0.15,0,0,-0.15,120.91494,65.469656)"
       xlink:href="#DejaVuSans-105"
       id="use220"
       x="0"
       y="0"
       width="100%"
       height="100%"
       style="fill:#586e75" />
    <use
       transform="matrix(0.15,0,0,-0.15,125.08242,65.469656)"
       xlink:href="#DejaVuSans-110"
       id="use222"
       x="0"
       y="0"
       width="100%"
       height="100%"
       style="fill:#586e75" />
    <use
       transform="matrix(0.15,0,0,-0.15,134.58926,65.469656)"
       xlink:href="#DejaVuSans-40"
       id="use224"
       x="0"
       y="0"
       width="100%"
       height="100%"
       style="fill:#586e75" />
    <use
       transform="matrix(0.15,0,0,-0.15,140.44131,65.469656)"
       xlink:href="#DejaVuSans-Oblique-120"
       id="use226"
       x="0"
       y="0"
       width="100%"
       height="100%"
       style="fill:#586e75" />
    <use
       transform="matrix(0.15,0,0,-0.15,149.31826,65.469656)"
       xlink:href="#DejaVuSans-41"
       id="use228"
       x="0"
       y="0"
       width="100%"
       height="100%"
       style="fill:#586e75" />
    <use
       transform="matrix(0.15,0,0,-0.15,155.17031,65.469656)"
       xlink:href="#DejaVuSans-47"
       id="use230"
       x="0"
       y="0"
       width="100%"
       height="100%"
       style="fill:#586e75" />
    <use
       transform="matrix(0.15,0,0,-0.15,160.22402,65.469656)"
       xlink:href="#DejaVuSans-Oblique-120"
       id="use232"
       x="0"
       y="0"
       width="100%"
       height="100%"
       style="fill:#586e75" />
    <path
       d="m 71.1,104.41106 h 30"
       style="fill:none;stroke:#dc322f;stroke-width:2;stroke-linecap:square"
       id="path265" />
    <use
       transform="matrix(0.15,0,0,-0.15,113.1,87.564187)"
       xlink:href="#DejaVuSans-115"
       id="use244"
       x="0"
       y="0"
       width="100%"
       height="100%"
       style="fill:#586e75" />
    <use
       transform="matrix(0.15,0,0,-0.15,120.91494,87.564187)"
       xlink:href="#DejaVuSans-105"
       id="use246"
       x="0"
       y="0"
       width="100%"
       height="100%"
       style="fill:#586e75" />
    <use
       transform="matrix(0.15,0,0,-0.15,125.08242,87.564187)"
       xlink:href="#DejaVuSans-110"
       id="use248"
       x="0"
       y="0"
       width="100%"
       height="100%"
       style="fill:#586e75" />
    <use
       transform="matrix(0.15,0,0,-0.15,134.58926,87.564187)"
       xlink:href="#DejaVuSans-40"
       id="use250"
       x="0"
       y="0"
       width="100%"
       height="100%"
       style="fill:#586e75" />
    <use
       transform="matrix(0.15,0,0,-0.15,140.44131,87.564187)"
       xlink:href="#DejaVuSans-53"
       id="use252"
       x="0"
       y="0"
       width="100%"
       height="100%"
       style="fill:#586e75" />
    <use
       transform="matrix(0.15,0,0,-0.15,149.98477,87.564187)"
       xlink:href="#DejaVuSans-Oblique-120"
       id="use254"
       x="0"
       y="0"
       width="100%"
       height="100%"
       style="fill:#586e75" />
    <use
       transform="matrix(0.15,0,0,-0.15,158.86172,87.564187)"
       xlink:href="#DejaVuSans-41"
       id="use256"
       x="0"
       y="0"
       width="100%"
       height="100%"
       style="fill:#586e75" />
    <use
       transform="matrix(0.15,0,0,-0.15,164.71377,87.564187)"
       xlink:href="#DejaVuSans-47"
       id="use258"
       x="0"
       y="0"
       width="100%"
       height="100%"
       style="fill:#586e75" />
    <use
       transform="matrix(0.15,0,0,-0.15,169.76748,87.564187)"
       xlink:href="#DejaVuSans-Oblique-120"
       id="use260"
       x="0"
       y="0"
       width="100%"
       height="100%"
       style="fill:#586e75" />
    <use
       transform="matrix(0.15,0,0,-0.15,113.1,109.65872)"
       xlink:href="#DejaVuSans-115"
       id="use269"
       x="0"
       y="0"
       width="100%"
       height="100%"
       style="fill:#586e75" />
    <use
       transform="matrix(0.15,0,0,-0.15,120.91494,109.65872)"
       xlink:href="#DejaVuSans-105"
       id="use271"
       x="0"
       y="0"
       width="100%"
       height="100%"
       style="fill:#586e75" />
    <use
       transform="matrix(0.15,0,0,-0.15,125.08242,109.65872)"
       xlink:href="#DejaVuSans-110"
       id="use273"
       x="0"
       y="0"
       width="100%"
       height="100%"
       style="fill:#586e75" />
    <use
       transform="matrix(0.15,0,0,-0.15,134.58926,109.65872)"
       xlink:href="#DejaVuSans-40"
       id="use275"
       x="0"
       y="0"
       width="100%"
       height="100%"
       style="fill:#586e75" />
    <use
       transform="matrix(0.15,0,0,-0.15,140.44131,109.65872)"
       xlink:href="#DejaVuSans-49"
       id="use277"
       x="0"
       y="0"
       width="100%"
       height="100%"
       style="fill:#586e75" />
    <use
       transform="matrix(0.15,0,0,-0.15,149.98477,109.65872)"
       xlink:href="#DejaVuSans-48"
       id="use279"
       x="0"
       y="0"
       width="100%"
       height="100%"
       style="fill:#586e75" />
    <use
       transform="matrix(0.15,0,0,-0.15,159.52822,109.65872)"
       xlink:href="#DejaVuSans-Oblique-120"
       id="use281"
       x="0"
       y="0"
       width="100%"
       height="100%"
       style="fill:#586e75" />
    <use
       transform="matrix(0.15,0,0,-0.15,168.40518,109.65872)"
       xlink:href="#DejaVuSans-41"
       id="use283"
       x="0"
       y="0"
       width="100%"
       height="100%"
       style="fill:#586e75" />
    <use
       transform="matrix(0.15,0,0,-0.15,174.25723,109.65872)"
       xlink:href="#DejaVuSans-47"
       id="use285"
       x="0"
       y="0"
       width="100%"
       height="100%"
       style="fill:#586e75" />
    <use
       transform="matrix(0.15,0,0,-0.15,179.31094,109.65872)"
       xlink:href="#DejaVuSans-Oblique-120"
       id="use287"
       x="0"
       y="0"
       width="100%"
       height="100%"
       style="fill:#586e75" />
  </g>
</svg>
