<?xml version="1.0" encoding="UTF-8" standalone="no"?>
<svg
   width="255.92201pt"
   height="170.79576pt"
   viewBox="0 0 255.92201 170.79576"
   version="1.2"
   id="svg33"
   sodipodi:docname="motivation1.svg"
   inkscape:version="1.1 (c4e8f9ed74, 2021-05-24)"
   xmlns:inkscape="http://www.inkscape.org/namespaces/inkscape"
   xmlns:sodipodi="http://sodipodi.sourceforge.net/DTD/sodipodi-0.dtd"
   xmlns="http://www.w3.org/2000/svg"
   xmlns:svg="http://www.w3.org/2000/svg">
  <defs
     id="defs37" />
  <sodipodi:namedview
     id="namedview35"
     pagecolor="#ffffff"
     bordercolor="#666666"
     borderopacity="1.0"
     inkscape:pageshadow="2"
     inkscape:pageopacity="0.0"
     inkscape:pagecheckerboard="0"
     inkscape:document-units="pt"
     showgrid="false"
     inkscape:zoom="2.0168614"
     inkscape:cx="235.26654"
     inkscape:cy="89.743401"
     inkscape:window-width="3840"
     inkscape:window-height="2346"
     inkscape:window-x="0"
     inkscape:window-y="54"
     inkscape:window-maximized="1"
     inkscape:current-layer="svg33" />
  <g
     id="g148"
     transform="translate(-178.03899,-72.036561)">
    <path
       style="fill:none;stroke:#576e73;stroke-width:0.79701;stroke-linecap:butt;stroke-linejoin:miter;stroke-miterlimit:10;stroke-dasharray:0.79701, 3.9851;stroke-opacity:1"
       d="m 433.5625,157.4375 c 0,-46.96484 -25.38281,-85.039062 -56.69531,-85.039062 -31.3125,0 -56.69532,38.074222 -56.69532,85.039062 0,46.96875 25.38282,85.03906 56.69532,85.03906 31.3125,0 56.69531,-38.07031 56.69531,-85.03906 z m 0,0"
       id="path4" />
    <path
       style="fill:none;stroke:#576e73;stroke-width:0.79701;stroke-linecap:butt;stroke-linejoin:miter;stroke-miterlimit:10;stroke-dasharray:0.79701, 3.9851;stroke-opacity:1"
       d="m 291.82812,157.4375 c 0,-46.96484 -25.38281,-85.039062 -56.69531,-85.039062 -31.3125,0 -56.69531,38.074222 -56.69531,85.039062 0,46.96875 25.38281,85.03906 56.69531,85.03906 31.3125,0 56.69531,-38.07031 56.69531,-85.03906 z m 0,0"
       id="path6" />
    <path
       style="fill:none;stroke:#576e73;stroke-width:0.79701;stroke-linecap:butt;stroke-linejoin:miter;stroke-miterlimit:10;stroke-opacity:1"
       d="m 211.03906,157.4375 c 0,-2.34766 -1.90625,-4.25 -4.2539,-4.25 -2.34766,0 -4.25,1.90234 -4.25,4.25 0,2.34766 1.90234,4.25391 4.25,4.25391 2.34765,0 4.2539,-1.90625 4.2539,-4.25391 z m 0,0"
       id="path8" />
    <path
       style="fill:none;stroke:#576e73;stroke-width:0.79701;stroke-linecap:butt;stroke-linejoin:miter;stroke-miterlimit:10;stroke-opacity:1"
       d="m 239.38672,100.74609 c 0,-2.351559 -1.90625,-4.253902 -4.25391,-4.253902 -2.34765,0 -4.25,1.902343 -4.25,4.253902 0,2.34766 1.90235,4.25 4.25,4.25 2.34766,0 4.25391,-1.90234 4.25391,-4.25 z m 0,0"
       id="path10" />
    <path
       style="fill:none;stroke:#576e73;stroke-width:0.79701;stroke-linecap:butt;stroke-linejoin:miter;stroke-miterlimit:10;stroke-opacity:1"
       d="m 239.38672,214.13281 c 0,-2.34765 -1.90625,-4.2539 -4.25391,-4.2539 -2.34765,0 -4.25,1.90625 -4.25,4.2539 0,2.34766 1.90235,4.25 4.25,4.25 2.34766,0 4.25391,-1.90234 4.25391,-4.25 z m 0,0"
       id="path12" />
    <path
       style="fill:none;stroke:#576e73;stroke-width:0.79701;stroke-linecap:butt;stroke-linejoin:miter;stroke-miterlimit:10;stroke-opacity:1"
       d="m 253.55859,185.78516 c 0,-2.34766 -1.90234,-4.25391 -4.2539,-4.25391 -2.34766,0 -4.25,1.90625 -4.25,4.25391 0,2.34765 1.90234,4.25 4.25,4.25 2.35156,0 4.2539,-1.90235 4.2539,-4.25 z m 0,0"
       id="path14" />
    <path
       style="fill:none;stroke:#576e73;stroke-width:0.79701;stroke-linecap:butt;stroke-linejoin:miter;stroke-miterlimit:10;stroke-opacity:1"
       d="m 253.55859,143.26562 c 0,-2.34765 -1.90234,-4.2539 -4.2539,-4.2539 -2.34766,0 -4.25,1.90625 -4.25,4.2539 0,2.34766 1.90234,4.25 4.25,4.25 2.35156,0 4.2539,-1.90234 4.2539,-4.25 z m 0,0"
       id="path16" />
    <path
       style="fill:none;stroke:#576e73;stroke-width:0.79701;stroke-linecap:butt;stroke-linejoin:miter;stroke-miterlimit:10;stroke-opacity:1"
       d="m 281.90625,171.61328 c 0,-2.35156 -1.90625,-4.25391 -4.25391,-4.25391 -2.34765,0 -4.25,1.90235 -4.25,4.25391 0,2.34766 1.90235,4.25 4.25,4.25 2.34766,0 4.25391,-1.90234 4.25391,-4.25 z m 0,0"
       id="path18" />
    <path
       style="fill:none;stroke:#576e73;stroke-width:0.79701;stroke-linecap:butt;stroke-linejoin:miter;stroke-miterlimit:10;stroke-opacity:1"
       d="m 334.34766,143.26562 v -7.9375 h 7.9375 v 7.9375 z m 0,0"
       id="path20" />
    <path
       style="fill:none;stroke:#576e73;stroke-width:0.79701;stroke-linecap:butt;stroke-linejoin:miter;stroke-miterlimit:10;stroke-opacity:1"
       d="m 379.70312,114.91797 v -7.9375 h 7.9375 v 7.9375 z m 0,0"
       id="path22" />
    <path
       style="fill:none;stroke:#576e73;stroke-width:0.79701;stroke-linecap:butt;stroke-linejoin:miter;stroke-miterlimit:10;stroke-opacity:1"
       d="m 374.03125,214.13281 v -7.9375 h 7.9375 v 7.9375 z m 0,0"
       id="path24" />
    <path
       style="fill:none;stroke:#576e73;stroke-width:0.79701;stroke-linecap:butt;stroke-linejoin:miter;stroke-miterlimit:10;stroke-opacity:1"
       d="M 362.69531,157.4375 V 149.5 h 7.9336 v 7.9375 z m 0,0"
       id="path26" />
    <path
       style="fill:none;stroke:#576e73;stroke-width:0.79701;stroke-linecap:butt;stroke-linejoin:miter;stroke-miterlimit:10;stroke-opacity:1"
       d="m 388.20703,199.95703 v -7.9375 h 7.9375 v 7.9375 z m 0,0"
       id="path28" />
    <path
       style="fill:none;stroke:#576e73;stroke-width:0.79701;stroke-linecap:butt;stroke-linejoin:miter;stroke-miterlimit:10;stroke-opacity:1"
       d="m 396.71094,134.76172 v -7.9375 h 7.9375 v 7.9375 z m 0,0"
       id="path30" />
  </g>
</svg>
