<?xml version="1.0" encoding="utf-8" standalone="no"?>
<!DOCTYPE svg PUBLIC "-//W3C//DTD SVG 1.1//EN"
  "http://www.w3.org/Graphics/SVG/1.1/DTD/svg11.dtd">
<svg height="288pt" version="1.1" viewBox="0 0 432 288" width="432pt" xmlns="http://www.w3.org/2000/svg" xmlns:xlink="http://www.w3.org/1999/xlink">
 <metadata>
  <rdf:RDF xmlns:cc="http://creativecommons.org/ns#" xmlns:dc="http://purl.org/dc/elements/1.1/" xmlns:rdf="http://www.w3.org/1999/02/22-rdf-syntax-ns#">
   <cc:Work>
    <dc:type rdf:resource="http://purl.org/dc/dcmitype/StillImage"/>
    <dc:date>2021-10-19T20:09:15.310716</dc:date>
    <dc:format>image/svg+xml</dc:format>
    <dc:creator>
     <cc:Agent>
      <dc:title>Matplotlib v3.4.3, https://matplotlib.org/</dc:title>
     </cc:Agent>
    </dc:creator>
   </cc:Work>
  </rdf:RDF>
 </metadata>
 <defs>
  <style type="text/css">*{stroke-linecap:butt;stroke-linejoin:round;}</style>
 </defs>
 <g id="figure_1">
  <g id="patch_1">
   <path d="M 0 288 
L 432 288 
L 432 0 
L 0 0 
z
" style="fill:none;"/>
  </g>
  <g id="axes_1">
   <g id="patch_2">
    <path d="M 54 140.628293 
L 217.317073 140.628293 
L 217.317073 34.56 
L 54 34.56 
z
" style="fill:none;"/>
   </g>
   <g id="matplotlib.axis_1">
    <g id="xtick_1">
     <g id="line2d_1">
      <path clip-path="url(#p2fe7145d21)" d="M 104.251407 140.628293 
L 104.251407 34.56 
" style="fill:none;stroke:#fdf6e3;"/>
     </g>
     <g id="line2d_2">
      <defs>
       <path d="M 0 0 
L 0 3.5 
" id="m829874f85e" style="stroke:#657b83;stroke-width:0.8;"/>
      </defs>
      <g>
       <use style="fill:#657b83;stroke:#657b83;stroke-width:0.8;" x="104.251407" xlink:href="#m829874f85e" y="140.628293"/>
      </g>
     </g>
    </g>
    <g id="xtick_2">
     <g id="line2d_3">
      <path clip-path="url(#p2fe7145d21)" d="M 167.065666 140.628293 
L 167.065666 34.56 
" style="fill:none;stroke:#fdf6e3;"/>
     </g>
     <g id="line2d_4">
      <g>
       <use style="fill:#657b83;stroke:#657b83;stroke-width:0.8;" x="167.065666" xlink:href="#m829874f85e" y="140.628293"/>
      </g>
     </g>
    </g>
   </g>
   <g id="matplotlib.axis_2">
    <g id="ytick_1">
     <g id="line2d_5">
      <path clip-path="url(#p2fe7145d21)" d="M 54 134.73561 
L 217.317073 134.73561 
" style="fill:none;stroke:#fdf6e3;"/>
     </g>
     <g id="line2d_6">
      <defs>
       <path d="M 0 0 
L -3.5 0 
" id="me7b5aa0bd5" style="stroke:#657b83;stroke-width:0.8;"/>
      </defs>
      <g>
       <use style="fill:#657b83;stroke:#657b83;stroke-width:0.8;" x="54" xlink:href="#me7b5aa0bd5" y="134.73561"/>
      </g>
     </g>
     <g id="text_1">
      <!-- 0.0 -->
      <g style="fill:#657b83;" transform="translate(31.096875 138.534829)scale(0.1 -0.1)">
       <defs>
        <path d="M 2034 4250 
Q 1547 4250 1301 3770 
Q 1056 3291 1056 2328 
Q 1056 1369 1301 889 
Q 1547 409 2034 409 
Q 2525 409 2770 889 
Q 3016 1369 3016 2328 
Q 3016 3291 2770 3770 
Q 2525 4250 2034 4250 
z
M 2034 4750 
Q 2819 4750 3233 4129 
Q 3647 3509 3647 2328 
Q 3647 1150 3233 529 
Q 2819 -91 2034 -91 
Q 1250 -91 836 529 
Q 422 1150 422 2328 
Q 422 3509 836 4129 
Q 1250 4750 2034 4750 
z
" id="DejaVuSans-30" transform="scale(0.015625)"/>
        <path d="M 684 794 
L 1344 794 
L 1344 0 
L 684 0 
L 684 794 
z
" id="DejaVuSans-2e" transform="scale(0.015625)"/>
       </defs>
       <use xlink:href="#DejaVuSans-30"/>
       <use x="63.623047" xlink:href="#DejaVuSans-2e"/>
       <use x="95.410156" xlink:href="#DejaVuSans-30"/>
      </g>
     </g>
    </g>
    <g id="ytick_2">
     <g id="line2d_7">
      <path clip-path="url(#p2fe7145d21)" d="M 54 105.272195 
L 217.317073 105.272195 
" style="fill:none;stroke:#fdf6e3;"/>
     </g>
     <g id="line2d_8">
      <g>
       <use style="fill:#657b83;stroke:#657b83;stroke-width:0.8;" x="54" xlink:href="#me7b5aa0bd5" y="105.272195"/>
      </g>
     </g>
     <g id="text_2">
      <!-- 0.1 -->
      <g style="fill:#657b83;" transform="translate(31.096875 109.071414)scale(0.1 -0.1)">
       <defs>
        <path d="M 794 531 
L 1825 531 
L 1825 4091 
L 703 3866 
L 703 4441 
L 1819 4666 
L 2450 4666 
L 2450 531 
L 3481 531 
L 3481 0 
L 794 0 
L 794 531 
z
" id="DejaVuSans-31" transform="scale(0.015625)"/>
       </defs>
       <use xlink:href="#DejaVuSans-30"/>
       <use x="63.623047" xlink:href="#DejaVuSans-2e"/>
       <use x="95.410156" xlink:href="#DejaVuSans-31"/>
      </g>
     </g>
    </g>
    <g id="ytick_3">
     <g id="line2d_9">
      <path clip-path="url(#p2fe7145d21)" d="M 54 75.80878 
L 217.317073 75.80878 
" style="fill:none;stroke:#fdf6e3;"/>
     </g>
     <g id="line2d_10">
      <g>
       <use style="fill:#657b83;stroke:#657b83;stroke-width:0.8;" x="54" xlink:href="#me7b5aa0bd5" y="75.80878"/>
      </g>
     </g>
     <g id="text_3">
      <!-- 0.2 -->
      <g style="fill:#657b83;" transform="translate(31.096875 79.607999)scale(0.1 -0.1)">
       <defs>
        <path d="M 1228 531 
L 3431 531 
L 3431 0 
L 469 0 
L 469 531 
Q 828 903 1448 1529 
Q 2069 2156 2228 2338 
Q 2531 2678 2651 2914 
Q 2772 3150 2772 3378 
Q 2772 3750 2511 3984 
Q 2250 4219 1831 4219 
Q 1534 4219 1204 4116 
Q 875 4013 500 3803 
L 500 4441 
Q 881 4594 1212 4672 
Q 1544 4750 1819 4750 
Q 2544 4750 2975 4387 
Q 3406 4025 3406 3419 
Q 3406 3131 3298 2873 
Q 3191 2616 2906 2266 
Q 2828 2175 2409 1742 
Q 1991 1309 1228 531 
z
" id="DejaVuSans-32" transform="scale(0.015625)"/>
       </defs>
       <use xlink:href="#DejaVuSans-30"/>
       <use x="63.623047" xlink:href="#DejaVuSans-2e"/>
       <use x="95.410156" xlink:href="#DejaVuSans-32"/>
      </g>
     </g>
    </g>
    <g id="ytick_4">
     <g id="line2d_11">
      <path clip-path="url(#p2fe7145d21)" d="M 54 46.345366 
L 217.317073 46.345366 
" style="fill:none;stroke:#fdf6e3;"/>
     </g>
     <g id="line2d_12">
      <g>
       <use style="fill:#657b83;stroke:#657b83;stroke-width:0.8;" x="54" xlink:href="#me7b5aa0bd5" y="46.345366"/>
      </g>
     </g>
     <g id="text_4">
      <!-- 0.3 -->
      <g style="fill:#657b83;" transform="translate(31.096875 50.144585)scale(0.1 -0.1)">
       <defs>
        <path d="M 2597 2516 
Q 3050 2419 3304 2112 
Q 3559 1806 3559 1356 
Q 3559 666 3084 287 
Q 2609 -91 1734 -91 
Q 1441 -91 1130 -33 
Q 819 25 488 141 
L 488 750 
Q 750 597 1062 519 
Q 1375 441 1716 441 
Q 2309 441 2620 675 
Q 2931 909 2931 1356 
Q 2931 1769 2642 2001 
Q 2353 2234 1838 2234 
L 1294 2234 
L 1294 2753 
L 1863 2753 
Q 2328 2753 2575 2939 
Q 2822 3125 2822 3475 
Q 2822 3834 2567 4026 
Q 2313 4219 1838 4219 
Q 1578 4219 1281 4162 
Q 984 4106 628 3988 
L 628 4550 
Q 988 4650 1302 4700 
Q 1616 4750 1894 4750 
Q 2613 4750 3031 4423 
Q 3450 4097 3450 3541 
Q 3450 3153 3228 2886 
Q 3006 2619 2597 2516 
z
" id="DejaVuSans-33" transform="scale(0.015625)"/>
       </defs>
       <use xlink:href="#DejaVuSans-30"/>
       <use x="63.623047" xlink:href="#DejaVuSans-2e"/>
       <use x="95.410156" xlink:href="#DejaVuSans-33"/>
      </g>
     </g>
    </g>
    <g id="text_5">
     <!-- Normalized Density -->
     <g style="fill:#657b83;" transform="translate(24.60125 146.337896)rotate(-90)scale(0.12 -0.12)">
      <defs>
       <path d="M 628 4666 
L 1478 4666 
L 3547 763 
L 3547 4666 
L 4159 4666 
L 4159 0 
L 3309 0 
L 1241 3903 
L 1241 0 
L 628 0 
L 628 4666 
z
" id="DejaVuSans-4e" transform="scale(0.015625)"/>
       <path d="M 1959 3097 
Q 1497 3097 1228 2736 
Q 959 2375 959 1747 
Q 959 1119 1226 758 
Q 1494 397 1959 397 
Q 2419 397 2687 759 
Q 2956 1122 2956 1747 
Q 2956 2369 2687 2733 
Q 2419 3097 1959 3097 
z
M 1959 3584 
Q 2709 3584 3137 3096 
Q 3566 2609 3566 1747 
Q 3566 888 3137 398 
Q 2709 -91 1959 -91 
Q 1206 -91 779 398 
Q 353 888 353 1747 
Q 353 2609 779 3096 
Q 1206 3584 1959 3584 
z
" id="DejaVuSans-6f" transform="scale(0.015625)"/>
       <path d="M 2631 2963 
Q 2534 3019 2420 3045 
Q 2306 3072 2169 3072 
Q 1681 3072 1420 2755 
Q 1159 2438 1159 1844 
L 1159 0 
L 581 0 
L 581 3500 
L 1159 3500 
L 1159 2956 
Q 1341 3275 1631 3429 
Q 1922 3584 2338 3584 
Q 2397 3584 2469 3576 
Q 2541 3569 2628 3553 
L 2631 2963 
z
" id="DejaVuSans-72" transform="scale(0.015625)"/>
       <path d="M 3328 2828 
Q 3544 3216 3844 3400 
Q 4144 3584 4550 3584 
Q 5097 3584 5394 3201 
Q 5691 2819 5691 2113 
L 5691 0 
L 5113 0 
L 5113 2094 
Q 5113 2597 4934 2840 
Q 4756 3084 4391 3084 
Q 3944 3084 3684 2787 
Q 3425 2491 3425 1978 
L 3425 0 
L 2847 0 
L 2847 2094 
Q 2847 2600 2669 2842 
Q 2491 3084 2119 3084 
Q 1678 3084 1418 2786 
Q 1159 2488 1159 1978 
L 1159 0 
L 581 0 
L 581 3500 
L 1159 3500 
L 1159 2956 
Q 1356 3278 1631 3431 
Q 1906 3584 2284 3584 
Q 2666 3584 2933 3390 
Q 3200 3197 3328 2828 
z
" id="DejaVuSans-6d" transform="scale(0.015625)"/>
       <path d="M 2194 1759 
Q 1497 1759 1228 1600 
Q 959 1441 959 1056 
Q 959 750 1161 570 
Q 1363 391 1709 391 
Q 2188 391 2477 730 
Q 2766 1069 2766 1631 
L 2766 1759 
L 2194 1759 
z
M 3341 1997 
L 3341 0 
L 2766 0 
L 2766 531 
Q 2569 213 2275 61 
Q 1981 -91 1556 -91 
Q 1019 -91 701 211 
Q 384 513 384 1019 
Q 384 1609 779 1909 
Q 1175 2209 1959 2209 
L 2766 2209 
L 2766 2266 
Q 2766 2663 2505 2880 
Q 2244 3097 1772 3097 
Q 1472 3097 1187 3025 
Q 903 2953 641 2809 
L 641 3341 
Q 956 3463 1253 3523 
Q 1550 3584 1831 3584 
Q 2591 3584 2966 3190 
Q 3341 2797 3341 1997 
z
" id="DejaVuSans-61" transform="scale(0.015625)"/>
       <path d="M 603 4863 
L 1178 4863 
L 1178 0 
L 603 0 
L 603 4863 
z
" id="DejaVuSans-6c" transform="scale(0.015625)"/>
       <path d="M 603 3500 
L 1178 3500 
L 1178 0 
L 603 0 
L 603 3500 
z
M 603 4863 
L 1178 4863 
L 1178 4134 
L 603 4134 
L 603 4863 
z
" id="DejaVuSans-69" transform="scale(0.015625)"/>
       <path d="M 353 3500 
L 3084 3500 
L 3084 2975 
L 922 459 
L 3084 459 
L 3084 0 
L 275 0 
L 275 525 
L 2438 3041 
L 353 3041 
L 353 3500 
z
" id="DejaVuSans-7a" transform="scale(0.015625)"/>
       <path d="M 3597 1894 
L 3597 1613 
L 953 1613 
Q 991 1019 1311 708 
Q 1631 397 2203 397 
Q 2534 397 2845 478 
Q 3156 559 3463 722 
L 3463 178 
Q 3153 47 2828 -22 
Q 2503 -91 2169 -91 
Q 1331 -91 842 396 
Q 353 884 353 1716 
Q 353 2575 817 3079 
Q 1281 3584 2069 3584 
Q 2775 3584 3186 3129 
Q 3597 2675 3597 1894 
z
M 3022 2063 
Q 3016 2534 2758 2815 
Q 2500 3097 2075 3097 
Q 1594 3097 1305 2825 
Q 1016 2553 972 2059 
L 3022 2063 
z
" id="DejaVuSans-65" transform="scale(0.015625)"/>
       <path d="M 2906 2969 
L 2906 4863 
L 3481 4863 
L 3481 0 
L 2906 0 
L 2906 525 
Q 2725 213 2448 61 
Q 2172 -91 1784 -91 
Q 1150 -91 751 415 
Q 353 922 353 1747 
Q 353 2572 751 3078 
Q 1150 3584 1784 3584 
Q 2172 3584 2448 3432 
Q 2725 3281 2906 2969 
z
M 947 1747 
Q 947 1113 1208 752 
Q 1469 391 1925 391 
Q 2381 391 2643 752 
Q 2906 1113 2906 1747 
Q 2906 2381 2643 2742 
Q 2381 3103 1925 3103 
Q 1469 3103 1208 2742 
Q 947 2381 947 1747 
z
" id="DejaVuSans-64" transform="scale(0.015625)"/>
       <path id="DejaVuSans-20" transform="scale(0.015625)"/>
       <path d="M 1259 4147 
L 1259 519 
L 2022 519 
Q 2988 519 3436 956 
Q 3884 1394 3884 2338 
Q 3884 3275 3436 3711 
Q 2988 4147 2022 4147 
L 1259 4147 
z
M 628 4666 
L 1925 4666 
Q 3281 4666 3915 4102 
Q 4550 3538 4550 2338 
Q 4550 1131 3912 565 
Q 3275 0 1925 0 
L 628 0 
L 628 4666 
z
" id="DejaVuSans-44" transform="scale(0.015625)"/>
       <path d="M 3513 2113 
L 3513 0 
L 2938 0 
L 2938 2094 
Q 2938 2591 2744 2837 
Q 2550 3084 2163 3084 
Q 1697 3084 1428 2787 
Q 1159 2491 1159 1978 
L 1159 0 
L 581 0 
L 581 3500 
L 1159 3500 
L 1159 2956 
Q 1366 3272 1645 3428 
Q 1925 3584 2291 3584 
Q 2894 3584 3203 3211 
Q 3513 2838 3513 2113 
z
" id="DejaVuSans-6e" transform="scale(0.015625)"/>
       <path d="M 2834 3397 
L 2834 2853 
Q 2591 2978 2328 3040 
Q 2066 3103 1784 3103 
Q 1356 3103 1142 2972 
Q 928 2841 928 2578 
Q 928 2378 1081 2264 
Q 1234 2150 1697 2047 
L 1894 2003 
Q 2506 1872 2764 1633 
Q 3022 1394 3022 966 
Q 3022 478 2636 193 
Q 2250 -91 1575 -91 
Q 1294 -91 989 -36 
Q 684 19 347 128 
L 347 722 
Q 666 556 975 473 
Q 1284 391 1588 391 
Q 1994 391 2212 530 
Q 2431 669 2431 922 
Q 2431 1156 2273 1281 
Q 2116 1406 1581 1522 
L 1381 1569 
Q 847 1681 609 1914 
Q 372 2147 372 2553 
Q 372 3047 722 3315 
Q 1072 3584 1716 3584 
Q 2034 3584 2315 3537 
Q 2597 3491 2834 3397 
z
" id="DejaVuSans-73" transform="scale(0.015625)"/>
       <path d="M 1172 4494 
L 1172 3500 
L 2356 3500 
L 2356 3053 
L 1172 3053 
L 1172 1153 
Q 1172 725 1289 603 
Q 1406 481 1766 481 
L 2356 481 
L 2356 0 
L 1766 0 
Q 1100 0 847 248 
Q 594 497 594 1153 
L 594 3053 
L 172 3053 
L 172 3500 
L 594 3500 
L 594 4494 
L 1172 4494 
z
" id="DejaVuSans-74" transform="scale(0.015625)"/>
       <path d="M 2059 -325 
Q 1816 -950 1584 -1140 
Q 1353 -1331 966 -1331 
L 506 -1331 
L 506 -850 
L 844 -850 
Q 1081 -850 1212 -737 
Q 1344 -625 1503 -206 
L 1606 56 
L 191 3500 
L 800 3500 
L 1894 763 
L 2988 3500 
L 3597 3500 
L 2059 -325 
z
" id="DejaVuSans-79" transform="scale(0.015625)"/>
      </defs>
      <use xlink:href="#DejaVuSans-4e"/>
      <use x="74.804688" xlink:href="#DejaVuSans-6f"/>
      <use x="135.986328" xlink:href="#DejaVuSans-72"/>
      <use x="175.349609" xlink:href="#DejaVuSans-6d"/>
      <use x="272.761719" xlink:href="#DejaVuSans-61"/>
      <use x="334.041016" xlink:href="#DejaVuSans-6c"/>
      <use x="361.824219" xlink:href="#DejaVuSans-69"/>
      <use x="389.607422" xlink:href="#DejaVuSans-7a"/>
      <use x="442.097656" xlink:href="#DejaVuSans-65"/>
      <use x="503.621094" xlink:href="#DejaVuSans-64"/>
      <use x="567.097656" xlink:href="#DejaVuSans-20"/>
      <use x="598.884766" xlink:href="#DejaVuSans-44"/>
      <use x="675.886719" xlink:href="#DejaVuSans-65"/>
      <use x="737.410156" xlink:href="#DejaVuSans-6e"/>
      <use x="800.789062" xlink:href="#DejaVuSans-73"/>
      <use x="852.888672" xlink:href="#DejaVuSans-69"/>
      <use x="880.671875" xlink:href="#DejaVuSans-74"/>
      <use x="919.880859" xlink:href="#DejaVuSans-79"/>
     </g>
    </g>
   </g>
   <g id="patch_3">
    <path clip-path="url(#p2fe7145d21)" d="M 41.437148 134.73561 
L 62.375235 134.73561 
L 62.375235 134.73561 
L 41.437148 134.73561 
z
" style="fill:#268bd2;"/>
   </g>
   <g id="patch_4">
    <path clip-path="url(#p2fe7145d21)" d="M 62.375235 134.73561 
L 83.313321 134.73561 
L 83.313321 125.896585 
L 62.375235 125.896585 
z
" style="fill:#268bd2;"/>
   </g>
   <g id="patch_5">
    <path clip-path="url(#p2fe7145d21)" d="M 83.313321 134.73561 
L 104.251407 134.73561 
L 104.251407 108.218537 
L 83.313321 108.218537 
z
" style="fill:#268bd2;"/>
   </g>
   <g id="patch_6">
    <path clip-path="url(#p2fe7145d21)" d="M 104.251407 134.73561 
L 125.189493 134.73561 
L 125.189493 117.057561 
L 104.251407 117.057561 
z
" style="fill:#268bd2;"/>
   </g>
   <g id="patch_7">
    <path clip-path="url(#p2fe7145d21)" d="M 125.189493 134.73561 
L 146.12758 134.73561 
L 146.12758 125.896585 
L 125.189493 125.896585 
z
" style="fill:#268bd2;"/>
   </g>
   <g id="patch_8">
    <path clip-path="url(#p2fe7145d21)" d="M 146.12758 134.73561 
L 167.065666 134.73561 
L 167.065666 72.862439 
L 146.12758 72.862439 
z
" style="fill:#268bd2;"/>
   </g>
   <g id="patch_9">
    <path clip-path="url(#p2fe7145d21)" d="M 167.065666 134.73561 
L 188.003752 134.73561 
L 188.003752 90.540488 
L 167.065666 90.540488 
z
" style="fill:#268bd2;"/>
   </g>
   <g id="patch_10">
    <path clip-path="url(#p2fe7145d21)" d="M 188.003752 134.73561 
L 208.941839 134.73561 
L 208.941839 125.896585 
L 188.003752 125.896585 
z
" style="fill:#268bd2;"/>
   </g>
   <g id="patch_11">
    <path clip-path="url(#p2fe7145d21)" d="M 208.941839 134.73561 
L 229.879925 134.73561 
L 229.879925 134.73561 
L 208.941839 134.73561 
z
" style="fill:#268bd2;"/>
   </g>
   <g id="line2d_13">
    <defs>
     <path d="M -3 0 
L 3 0 
M 0 3 
L 0 -3 
" id="m7d699601f9" style="stroke:#000000;"/>
    </defs>
    <g clip-path="url(#p2fe7145d21)">
     <use style="stroke:#000000;" x="124.657817" xlink:href="#m7d699601f9" y="137.681951"/>
     <use style="stroke:#000000;" x="96.566002" xlink:href="#m7d699601f9" y="137.681951"/>
     <use style="stroke:#000000;" x="97.616064" xlink:href="#m7d699601f9" y="137.681951"/>
     <use style="stroke:#000000;" x="90.771861" xlink:href="#m7d699601f9" y="137.681951"/>
     <use style="stroke:#000000;" x="115.123395" xlink:href="#m7d699601f9" y="137.681951"/>
     <use style="stroke:#000000;" x="75.337518" xlink:href="#m7d699601f9" y="137.681951"/>
     <use style="stroke:#000000;" x="188.985478" xlink:href="#m7d699601f9" y="137.681951"/>
     <use style="stroke:#000000;" x="157.502737" xlink:href="#m7d699601f9" y="137.681951"/>
     <use style="stroke:#000000;" x="171.073707" xlink:href="#m7d699601f9" y="137.681951"/>
     <use style="stroke:#000000;" x="163.932863" xlink:href="#m7d699601f9" y="137.681951"/>
     <use style="stroke:#000000;" x="185.433911" xlink:href="#m7d699601f9" y="137.681951"/>
     <use style="stroke:#000000;" x="141.184424" xlink:href="#m7d699601f9" y="137.681951"/>
     <use style="stroke:#000000;" x="163.015186" xlink:href="#m7d699601f9" y="137.681951"/>
     <use style="stroke:#000000;" x="162.240848" xlink:href="#m7d699601f9" y="137.681951"/>
     <use style="stroke:#000000;" x="181.309044" xlink:href="#m7d699601f9" y="137.681951"/>
     <use style="stroke:#000000;" x="153.247895" xlink:href="#m7d699601f9" y="137.681951"/>
     <use style="stroke:#000000;" x="164.899476" xlink:href="#m7d699601f9" y="137.681951"/>
     <use style="stroke:#000000;" x="156.037261" xlink:href="#m7d699601f9" y="137.681951"/>
     <use style="stroke:#000000;" x="167.595991" xlink:href="#m7d699601f9" y="137.681951"/>
     <use style="stroke:#000000;" x="174.387487" xlink:href="#m7d699601f9" y="137.681951"/>
    </g>
   </g>
   <g id="patch_12">
    <path d="M 54 140.628293 
L 54 34.56 
" style="fill:none;stroke:#eee8d5;stroke-linecap:square;stroke-linejoin:miter;stroke-width:0.8;"/>
   </g>
   <g id="patch_13">
    <path d="M 217.317073 140.628293 
L 217.317073 34.56 
" style="fill:none;stroke:#eee8d5;stroke-linecap:square;stroke-linejoin:miter;stroke-width:0.8;"/>
   </g>
   <g id="patch_14">
    <path d="M 54 140.628293 
L 217.317073 140.628293 
" style="fill:none;stroke:#eee8d5;stroke-linecap:square;stroke-linejoin:miter;stroke-width:0.8;"/>
   </g>
   <g id="patch_15">
    <path d="M 54 34.56 
L 217.317073 34.56 
" style="fill:none;stroke:#eee8d5;stroke-linecap:square;stroke-linejoin:miter;stroke-width:0.8;"/>
   </g>
   <g id="text_6">
    <!-- Histogram -->
    <g transform="translate(60.281426 43.399024)scale(0.1 -0.1)">
     <defs>
      <path d="M 628 4666 
L 1259 4666 
L 1259 2753 
L 3553 2753 
L 3553 4666 
L 4184 4666 
L 4184 0 
L 3553 0 
L 3553 2222 
L 1259 2222 
L 1259 0 
L 628 0 
L 628 4666 
z
" id="DejaVuSans-48" transform="scale(0.015625)"/>
      <path d="M 2906 1791 
Q 2906 2416 2648 2759 
Q 2391 3103 1925 3103 
Q 1463 3103 1205 2759 
Q 947 2416 947 1791 
Q 947 1169 1205 825 
Q 1463 481 1925 481 
Q 2391 481 2648 825 
Q 2906 1169 2906 1791 
z
M 3481 434 
Q 3481 -459 3084 -895 
Q 2688 -1331 1869 -1331 
Q 1566 -1331 1297 -1286 
Q 1028 -1241 775 -1147 
L 775 -588 
Q 1028 -725 1275 -790 
Q 1522 -856 1778 -856 
Q 2344 -856 2625 -561 
Q 2906 -266 2906 331 
L 2906 616 
Q 2728 306 2450 153 
Q 2172 0 1784 0 
Q 1141 0 747 490 
Q 353 981 353 1791 
Q 353 2603 747 3093 
Q 1141 3584 1784 3584 
Q 2172 3584 2450 3431 
Q 2728 3278 2906 2969 
L 2906 3500 
L 3481 3500 
L 3481 434 
z
" id="DejaVuSans-67" transform="scale(0.015625)"/>
     </defs>
     <use xlink:href="#DejaVuSans-48"/>
     <use x="75.195312" xlink:href="#DejaVuSans-69"/>
     <use x="102.978516" xlink:href="#DejaVuSans-73"/>
     <use x="155.078125" xlink:href="#DejaVuSans-74"/>
     <use x="194.287109" xlink:href="#DejaVuSans-6f"/>
     <use x="255.46875" xlink:href="#DejaVuSans-67"/>
     <use x="318.945312" xlink:href="#DejaVuSans-72"/>
     <use x="360.058594" xlink:href="#DejaVuSans-61"/>
     <use x="421.337891" xlink:href="#DejaVuSans-6d"/>
    </g>
   </g>
  </g>
  <g id="axes_2">
   <g id="patch_16">
    <path d="M 225.482927 140.628293 
L 388.8 140.628293 
L 388.8 34.56 
L 225.482927 34.56 
z
" style="fill:none;"/>
   </g>
   <g id="matplotlib.axis_3">
    <g id="xtick_3">
     <g id="line2d_14">
      <path clip-path="url(#pa63c7e4a99)" d="M 275.734334 140.628293 
L 275.734334 34.56 
" style="fill:none;stroke:#fdf6e3;"/>
     </g>
     <g id="line2d_15">
      <g>
       <use style="fill:#657b83;stroke:#657b83;stroke-width:0.8;" x="275.734334" xlink:href="#m829874f85e" y="140.628293"/>
      </g>
     </g>
    </g>
    <g id="xtick_4">
     <g id="line2d_16">
      <path clip-path="url(#pa63c7e4a99)" d="M 338.548593 140.628293 
L 338.548593 34.56 
" style="fill:none;stroke:#fdf6e3;"/>
     </g>
     <g id="line2d_17">
      <g>
       <use style="fill:#657b83;stroke:#657b83;stroke-width:0.8;" x="338.548593" xlink:href="#m829874f85e" y="140.628293"/>
      </g>
     </g>
    </g>
   </g>
   <g id="matplotlib.axis_4">
    <g id="ytick_5">
     <g id="line2d_18">
      <path clip-path="url(#pa63c7e4a99)" d="M 225.482927 134.73561 
L 388.8 134.73561 
" style="fill:none;stroke:#fdf6e3;"/>
     </g>
     <g id="line2d_19">
      <g>
       <use style="fill:#657b83;stroke:#657b83;stroke-width:0.8;" x="225.482927" xlink:href="#me7b5aa0bd5" y="134.73561"/>
      </g>
     </g>
    </g>
    <g id="ytick_6">
     <g id="line2d_20">
      <path clip-path="url(#pa63c7e4a99)" d="M 225.482927 105.272195 
L 388.8 105.272195 
" style="fill:none;stroke:#fdf6e3;"/>
     </g>
     <g id="line2d_21">
      <g>
       <use style="fill:#657b83;stroke:#657b83;stroke-width:0.8;" x="225.482927" xlink:href="#me7b5aa0bd5" y="105.272195"/>
      </g>
     </g>
    </g>
    <g id="ytick_7">
     <g id="line2d_22">
      <path clip-path="url(#pa63c7e4a99)" d="M 225.482927 75.80878 
L 388.8 75.80878 
" style="fill:none;stroke:#fdf6e3;"/>
     </g>
     <g id="line2d_23">
      <g>
       <use style="fill:#657b83;stroke:#657b83;stroke-width:0.8;" x="225.482927" xlink:href="#me7b5aa0bd5" y="75.80878"/>
      </g>
     </g>
    </g>
    <g id="ytick_8">
     <g id="line2d_24">
      <path clip-path="url(#pa63c7e4a99)" d="M 225.482927 46.345366 
L 388.8 46.345366 
" style="fill:none;stroke:#fdf6e3;"/>
     </g>
     <g id="line2d_25">
      <g>
       <use style="fill:#657b83;stroke:#657b83;stroke-width:0.8;" x="225.482927" xlink:href="#me7b5aa0bd5" y="46.345366"/>
      </g>
     </g>
    </g>
   </g>
   <g id="patch_17">
    <path clip-path="url(#pa63c7e4a99)" d="M 222.342214 134.73561 
L 243.2803 134.73561 
L 243.2803 134.73561 
L 222.342214 134.73561 
z
" style="fill:#268bd2;"/>
   </g>
   <g id="patch_18">
    <path clip-path="url(#pa63c7e4a99)" d="M 243.2803 134.73561 
L 264.218386 134.73561 
L 264.218386 117.057561 
L 243.2803 117.057561 
z
" style="fill:#268bd2;"/>
   </g>
   <g id="patch_19">
    <path clip-path="url(#pa63c7e4a99)" d="M 264.218386 134.73561 
L 285.156473 134.73561 
L 285.156473 117.057561 
L 264.218386 117.057561 
z
" style="fill:#268bd2;"/>
   </g>
   <g id="patch_20">
    <path clip-path="url(#pa63c7e4a99)" d="M 285.156473 134.73561 
L 306.094559 134.73561 
L 306.094559 117.057561 
L 285.156473 117.057561 
z
" style="fill:#268bd2;"/>
   </g>
   <g id="patch_21">
    <path clip-path="url(#pa63c7e4a99)" d="M 306.094559 134.73561 
L 327.032645 134.73561 
L 327.032645 117.057561 
L 306.094559 117.057561 
z
" style="fill:#268bd2;"/>
   </g>
   <g id="patch_22">
    <path clip-path="url(#pa63c7e4a99)" d="M 327.032645 134.73561 
L 347.970732 134.73561 
L 347.970732 55.18439 
L 327.032645 55.18439 
z
" style="fill:#268bd2;"/>
   </g>
   <g id="patch_23">
    <path clip-path="url(#pa63c7e4a99)" d="M 347.970732 134.73561 
L 368.908818 134.73561 
L 368.908818 108.218537 
L 347.970732 108.218537 
z
" style="fill:#268bd2;"/>
   </g>
   <g id="patch_24">
    <path clip-path="url(#pa63c7e4a99)" d="M 368.908818 134.73561 
L 389.846904 134.73561 
L 389.846904 134.73561 
L 368.908818 134.73561 
z
" style="fill:#268bd2;"/>
   </g>
   <g id="patch_25">
    <path clip-path="url(#pa63c7e4a99)" d="M 389.846904 134.73561 
L 410.784991 134.73561 
L 410.784991 134.73561 
L 389.846904 134.73561 
z
" style="fill:#268bd2;"/>
   </g>
   <g id="line2d_26">
    <g clip-path="url(#pa63c7e4a99)">
     <use style="stroke:#000000;" x="296.140744" xlink:href="#m7d699601f9" y="137.681951"/>
     <use style="stroke:#000000;" x="268.048929" xlink:href="#m7d699601f9" y="137.681951"/>
     <use style="stroke:#000000;" x="269.098991" xlink:href="#m7d699601f9" y="137.681951"/>
     <use style="stroke:#000000;" x="262.254788" xlink:href="#m7d699601f9" y="137.681951"/>
     <use style="stroke:#000000;" x="286.606322" xlink:href="#m7d699601f9" y="137.681951"/>
     <use style="stroke:#000000;" x="246.820444" xlink:href="#m7d699601f9" y="137.681951"/>
     <use style="stroke:#000000;" x="360.468404" xlink:href="#m7d699601f9" y="137.681951"/>
     <use style="stroke:#000000;" x="328.985663" xlink:href="#m7d699601f9" y="137.681951"/>
     <use style="stroke:#000000;" x="342.556634" xlink:href="#m7d699601f9" y="137.681951"/>
     <use style="stroke:#000000;" x="335.41579" xlink:href="#m7d699601f9" y="137.681951"/>
     <use style="stroke:#000000;" x="356.916838" xlink:href="#m7d699601f9" y="137.681951"/>
     <use style="stroke:#000000;" x="312.66735" xlink:href="#m7d699601f9" y="137.681951"/>
     <use style="stroke:#000000;" x="334.498113" xlink:href="#m7d699601f9" y="137.681951"/>
     <use style="stroke:#000000;" x="333.723775" xlink:href="#m7d699601f9" y="137.681951"/>
     <use style="stroke:#000000;" x="352.79197" xlink:href="#m7d699601f9" y="137.681951"/>
     <use style="stroke:#000000;" x="324.730822" xlink:href="#m7d699601f9" y="137.681951"/>
     <use style="stroke:#000000;" x="336.382403" xlink:href="#m7d699601f9" y="137.681951"/>
     <use style="stroke:#000000;" x="327.520188" xlink:href="#m7d699601f9" y="137.681951"/>
     <use style="stroke:#000000;" x="339.078918" xlink:href="#m7d699601f9" y="137.681951"/>
     <use style="stroke:#000000;" x="345.870414" xlink:href="#m7d699601f9" y="137.681951"/>
    </g>
   </g>
   <g id="patch_26">
    <path d="M 225.482927 140.628293 
L 225.482927 34.56 
" style="fill:none;stroke:#eee8d5;stroke-linecap:square;stroke-linejoin:miter;stroke-width:0.8;"/>
   </g>
   <g id="patch_27">
    <path d="M 388.8 140.628293 
L 388.8 34.56 
" style="fill:none;stroke:#eee8d5;stroke-linecap:square;stroke-linejoin:miter;stroke-width:0.8;"/>
   </g>
   <g id="patch_28">
    <path d="M 225.482927 140.628293 
L 388.8 140.628293 
" style="fill:none;stroke:#eee8d5;stroke-linecap:square;stroke-linejoin:miter;stroke-width:0.8;"/>
   </g>
   <g id="patch_29">
    <path d="M 225.482927 34.56 
L 388.8 34.56 
" style="fill:none;stroke:#eee8d5;stroke-linecap:square;stroke-linejoin:miter;stroke-width:0.8;"/>
   </g>
   <g id="text_7">
    <!-- Histogram, bins shifted -->
    <g transform="translate(231.764353 43.399024)scale(0.1 -0.1)">
     <defs>
      <path d="M 750 794 
L 1409 794 
L 1409 256 
L 897 -744 
L 494 -744 
L 750 256 
L 750 794 
z
" id="DejaVuSans-2c" transform="scale(0.015625)"/>
      <path d="M 3116 1747 
Q 3116 2381 2855 2742 
Q 2594 3103 2138 3103 
Q 1681 3103 1420 2742 
Q 1159 2381 1159 1747 
Q 1159 1113 1420 752 
Q 1681 391 2138 391 
Q 2594 391 2855 752 
Q 3116 1113 3116 1747 
z
M 1159 2969 
Q 1341 3281 1617 3432 
Q 1894 3584 2278 3584 
Q 2916 3584 3314 3078 
Q 3713 2572 3713 1747 
Q 3713 922 3314 415 
Q 2916 -91 2278 -91 
Q 1894 -91 1617 61 
Q 1341 213 1159 525 
L 1159 0 
L 581 0 
L 581 4863 
L 1159 4863 
L 1159 2969 
z
" id="DejaVuSans-62" transform="scale(0.015625)"/>
      <path d="M 3513 2113 
L 3513 0 
L 2938 0 
L 2938 2094 
Q 2938 2591 2744 2837 
Q 2550 3084 2163 3084 
Q 1697 3084 1428 2787 
Q 1159 2491 1159 1978 
L 1159 0 
L 581 0 
L 581 4863 
L 1159 4863 
L 1159 2956 
Q 1366 3272 1645 3428 
Q 1925 3584 2291 3584 
Q 2894 3584 3203 3211 
Q 3513 2838 3513 2113 
z
" id="DejaVuSans-68" transform="scale(0.015625)"/>
      <path d="M 2375 4863 
L 2375 4384 
L 1825 4384 
Q 1516 4384 1395 4259 
Q 1275 4134 1275 3809 
L 1275 3500 
L 2222 3500 
L 2222 3053 
L 1275 3053 
L 1275 0 
L 697 0 
L 697 3053 
L 147 3053 
L 147 3500 
L 697 3500 
L 697 3744 
Q 697 4328 969 4595 
Q 1241 4863 1831 4863 
L 2375 4863 
z
" id="DejaVuSans-66" transform="scale(0.015625)"/>
     </defs>
     <use xlink:href="#DejaVuSans-48"/>
     <use x="75.195312" xlink:href="#DejaVuSans-69"/>
     <use x="102.978516" xlink:href="#DejaVuSans-73"/>
     <use x="155.078125" xlink:href="#DejaVuSans-74"/>
     <use x="194.287109" xlink:href="#DejaVuSans-6f"/>
     <use x="255.46875" xlink:href="#DejaVuSans-67"/>
     <use x="318.945312" xlink:href="#DejaVuSans-72"/>
     <use x="360.058594" xlink:href="#DejaVuSans-61"/>
     <use x="421.337891" xlink:href="#DejaVuSans-6d"/>
     <use x="518.75" xlink:href="#DejaVuSans-2c"/>
     <use x="550.537109" xlink:href="#DejaVuSans-20"/>
     <use x="582.324219" xlink:href="#DejaVuSans-62"/>
     <use x="645.800781" xlink:href="#DejaVuSans-69"/>
     <use x="673.583984" xlink:href="#DejaVuSans-6e"/>
     <use x="736.962891" xlink:href="#DejaVuSans-73"/>
     <use x="789.0625" xlink:href="#DejaVuSans-20"/>
     <use x="820.849609" xlink:href="#DejaVuSans-73"/>
     <use x="872.949219" xlink:href="#DejaVuSans-68"/>
     <use x="936.328125" xlink:href="#DejaVuSans-69"/>
     <use x="964.111328" xlink:href="#DejaVuSans-66"/>
     <use x="997.566406" xlink:href="#DejaVuSans-74"/>
     <use x="1036.775391" xlink:href="#DejaVuSans-65"/>
     <use x="1098.298828" xlink:href="#DejaVuSans-64"/>
    </g>
   </g>
  </g>
  <g id="axes_3">
   <g id="patch_30">
    <path d="M 54 252 
L 217.317073 252 
L 217.317073 145.931707 
L 54 145.931707 
z
" style="fill:none;"/>
   </g>
   <g id="matplotlib.axis_5">
    <g id="xtick_5">
     <g id="line2d_27">
      <path clip-path="url(#pb0ca71a07b)" d="M 104.251407 252 
L 104.251407 145.931707 
" style="fill:none;stroke:#fdf6e3;"/>
     </g>
     <g id="line2d_28">
      <g>
       <use style="fill:#657b83;stroke:#657b83;stroke-width:0.8;" x="104.251407" xlink:href="#m829874f85e" y="252"/>
      </g>
     </g>
     <g id="text_8">
      <!-- 0 -->
      <g style="fill:#657b83;" transform="translate(101.070157 266.598438)scale(0.1 -0.1)">
       <use xlink:href="#DejaVuSans-30"/>
      </g>
     </g>
    </g>
    <g id="xtick_6">
     <g id="line2d_29">
      <path clip-path="url(#pb0ca71a07b)" d="M 167.065666 252 
L 167.065666 145.931707 
" style="fill:none;stroke:#fdf6e3;"/>
     </g>
     <g id="line2d_30">
      <g>
       <use style="fill:#657b83;stroke:#657b83;stroke-width:0.8;" x="167.065666" xlink:href="#m829874f85e" y="252"/>
      </g>
     </g>
     <g id="text_9">
      <!-- 5 -->
      <g style="fill:#657b83;" transform="translate(163.884416 266.598438)scale(0.1 -0.1)">
       <defs>
        <path d="M 691 4666 
L 3169 4666 
L 3169 4134 
L 1269 4134 
L 1269 2991 
Q 1406 3038 1543 3061 
Q 1681 3084 1819 3084 
Q 2600 3084 3056 2656 
Q 3513 2228 3513 1497 
Q 3513 744 3044 326 
Q 2575 -91 1722 -91 
Q 1428 -91 1123 -41 
Q 819 9 494 109 
L 494 744 
Q 775 591 1075 516 
Q 1375 441 1709 441 
Q 2250 441 2565 725 
Q 2881 1009 2881 1497 
Q 2881 1984 2565 2268 
Q 2250 2553 1709 2553 
Q 1456 2553 1204 2497 
Q 953 2441 691 2322 
L 691 4666 
z
" id="DejaVuSans-35" transform="scale(0.015625)"/>
       </defs>
       <use xlink:href="#DejaVuSans-35"/>
      </g>
     </g>
    </g>
    <g id="text_10">
     <!-- x -->
     <g style="fill:#657b83;" transform="translate(132.107287 281.79625)scale(0.12 -0.12)">
      <defs>
       <path d="M 3513 3500 
L 2247 1797 
L 3578 0 
L 2900 0 
L 1881 1375 
L 863 0 
L 184 0 
L 1544 1831 
L 300 3500 
L 978 3500 
L 1906 2253 
L 2834 3500 
L 3513 3500 
z
" id="DejaVuSans-78" transform="scale(0.015625)"/>
      </defs>
      <use xlink:href="#DejaVuSans-78"/>
     </g>
    </g>
   </g>
   <g id="matplotlib.axis_6">
    <g id="ytick_9">
     <g id="line2d_31">
      <path clip-path="url(#pb0ca71a07b)" d="M 54 246.107317 
L 217.317073 246.107317 
" style="fill:none;stroke:#fdf6e3;"/>
     </g>
     <g id="line2d_32">
      <g>
       <use style="fill:#657b83;stroke:#657b83;stroke-width:0.8;" x="54" xlink:href="#me7b5aa0bd5" y="246.107317"/>
      </g>
     </g>
     <g id="text_11">
      <!-- 0.0 -->
      <g style="fill:#657b83;" transform="translate(31.096875 249.906536)scale(0.1 -0.1)">
       <use xlink:href="#DejaVuSans-30"/>
       <use x="63.623047" xlink:href="#DejaVuSans-2e"/>
       <use x="95.410156" xlink:href="#DejaVuSans-30"/>
      </g>
     </g>
    </g>
    <g id="ytick_10">
     <g id="line2d_33">
      <path clip-path="url(#pb0ca71a07b)" d="M 54 216.643902 
L 217.317073 216.643902 
" style="fill:none;stroke:#fdf6e3;"/>
     </g>
     <g id="line2d_34">
      <g>
       <use style="fill:#657b83;stroke:#657b83;stroke-width:0.8;" x="54" xlink:href="#me7b5aa0bd5" y="216.643902"/>
      </g>
     </g>
     <g id="text_12">
      <!-- 0.1 -->
      <g style="fill:#657b83;" transform="translate(31.096875 220.443121)scale(0.1 -0.1)">
       <use xlink:href="#DejaVuSans-30"/>
       <use x="63.623047" xlink:href="#DejaVuSans-2e"/>
       <use x="95.410156" xlink:href="#DejaVuSans-31"/>
      </g>
     </g>
    </g>
    <g id="ytick_11">
     <g id="line2d_35">
      <path clip-path="url(#pb0ca71a07b)" d="M 54 187.180488 
L 217.317073 187.180488 
" style="fill:none;stroke:#fdf6e3;"/>
     </g>
     <g id="line2d_36">
      <g>
       <use style="fill:#657b83;stroke:#657b83;stroke-width:0.8;" x="54" xlink:href="#me7b5aa0bd5" y="187.180488"/>
      </g>
     </g>
     <g id="text_13">
      <!-- 0.2 -->
      <g style="fill:#657b83;" transform="translate(31.096875 190.979707)scale(0.1 -0.1)">
       <use xlink:href="#DejaVuSans-30"/>
       <use x="63.623047" xlink:href="#DejaVuSans-2e"/>
       <use x="95.410156" xlink:href="#DejaVuSans-32"/>
      </g>
     </g>
    </g>
    <g id="ytick_12">
     <g id="line2d_37">
      <path clip-path="url(#pb0ca71a07b)" d="M 54 157.717073 
L 217.317073 157.717073 
" style="fill:none;stroke:#fdf6e3;"/>
     </g>
     <g id="line2d_38">
      <g>
       <use style="fill:#657b83;stroke:#657b83;stroke-width:0.8;" x="54" xlink:href="#me7b5aa0bd5" y="157.717073"/>
      </g>
     </g>
     <g id="text_14">
      <!-- 0.3 -->
      <g style="fill:#657b83;" transform="translate(31.096875 161.516292)scale(0.1 -0.1)">
       <use xlink:href="#DejaVuSans-30"/>
       <use x="63.623047" xlink:href="#DejaVuSans-2e"/>
       <use x="95.410156" xlink:href="#DejaVuSans-33"/>
      </g>
     </g>
    </g>
    <g id="text_15">
     <!-- Normalized Density -->
     <g style="fill:#657b83;" transform="translate(24.60125 257.709604)rotate(-90)scale(0.12 -0.12)">
      <use xlink:href="#DejaVuSans-4e"/>
      <use x="74.804688" xlink:href="#DejaVuSans-6f"/>
      <use x="135.986328" xlink:href="#DejaVuSans-72"/>
      <use x="175.349609" xlink:href="#DejaVuSans-6d"/>
      <use x="272.761719" xlink:href="#DejaVuSans-61"/>
      <use x="334.041016" xlink:href="#DejaVuSans-6c"/>
      <use x="361.824219" xlink:href="#DejaVuSans-69"/>
      <use x="389.607422" xlink:href="#DejaVuSans-7a"/>
      <use x="442.097656" xlink:href="#DejaVuSans-65"/>
      <use x="503.621094" xlink:href="#DejaVuSans-64"/>
      <use x="567.097656" xlink:href="#DejaVuSans-20"/>
      <use x="598.884766" xlink:href="#DejaVuSans-44"/>
      <use x="675.886719" xlink:href="#DejaVuSans-65"/>
      <use x="737.410156" xlink:href="#DejaVuSans-6e"/>
      <use x="800.789062" xlink:href="#DejaVuSans-73"/>
      <use x="852.888672" xlink:href="#DejaVuSans-69"/>
      <use x="880.671875" xlink:href="#DejaVuSans-74"/>
      <use x="919.880859" xlink:href="#DejaVuSans-79"/>
     </g>
    </g>
   </g>
   <g id="patch_31">
    <path clip-path="url(#pb0ca71a07b)" d="M 41.437148 246.107317 
L 41.62578 246.107317 
L 41.814411 246.107317 
L 42.003042 246.107317 
L 42.191674 246.107317 
L 42.380305 246.107317 
L 42.568937 246.107317 
L 42.757568 246.107317 
L 42.946199 246.107317 
L 43.134831 246.107317 
L 43.323462 246.107317 
L 43.512094 246.107317 
L 43.700725 246.107317 
L 43.889357 246.107317 
L 44.077988 246.107317 
L 44.266619 246.107317 
L 44.455251 246.107317 
L 44.643882 246.107317 
L 44.832514 246.107317 
L 45.021145 246.107317 
L 45.209776 246.107317 
L 45.398408 246.107317 
L 45.587039 246.107317 
L 45.775671 246.107317 
L 45.964302 246.107317 
L 46.152933 246.107317 
L 46.341565 246.107317 
L 46.530196 246.107317 
L 46.718828 246.107317 
L 46.907459 246.107317 
L 47.09609 246.107317 
L 47.284722 246.107317 
L 47.473353 246.107317 
L 47.661985 246.107317 
L 47.850616 246.107317 
L 48.039248 246.107317 
L 48.227879 246.107317 
L 48.41651 246.107317 
L 48.605142 246.107317 
L 48.793773 246.107317 
L 48.982405 246.107317 
L 49.171036 246.107317 
L 49.359667 246.107317 
L 49.548299 246.107317 
L 49.73693 246.107317 
L 49.925562 246.107317 
L 50.114193 246.107317 
L 50.302824 246.107317 
L 50.491456 246.107317 
L 50.680087 246.107317 
L 50.868719 246.107317 
L 51.05735 246.107317 
L 51.245981 246.107317 
L 51.434613 246.107317 
L 51.623244 246.107317 
L 51.811876 246.107317 
L 52.000507 246.107317 
L 52.189138 246.107317 
L 52.37777 246.107317 
L 52.566401 246.107317 
L 52.755033 246.107317 
L 52.943664 246.107317 
L 53.132296 246.107317 
L 53.320927 246.107317 
L 53.509558 246.107317 
L 53.69819 246.107317 
L 53.886821 246.107317 
L 54.075453 246.107317 
L 54.264084 246.107317 
L 54.452715 246.107317 
L 54.641347 246.107317 
L 54.829978 246.107317 
L 55.01861 246.107317 
L 55.207241 246.107317 
L 55.395872 246.107317 
L 55.584504 246.107317 
L 55.773135 246.107317 
L 55.961767 246.107317 
L 56.150398 246.107317 
L 56.339029 246.107317 
L 56.527661 246.107317 
L 56.716292 246.107317 
L 56.904924 246.107317 
L 57.093555 246.107317 
L 57.282187 246.107317 
L 57.470818 246.107317 
L 57.659449 246.107317 
L 57.848081 246.107317 
L 58.036712 246.107317 
L 58.225344 246.107317 
L 58.413975 246.107317 
L 58.602606 246.107317 
L 58.791238 246.107317 
L 58.979869 246.107317 
L 59.168501 246.107317 
L 59.357132 246.107317 
L 59.545763 246.107317 
L 59.734395 246.107317 
L 59.923026 246.107317 
L 60.111658 246.107317 
L 60.300289 246.107317 
L 60.48892 246.107317 
L 60.677552 246.107317 
L 60.866183 246.107317 
L 61.054815 246.107317 
L 61.243446 246.107317 
L 61.432077 246.107317 
L 61.620709 246.107317 
L 61.80934 246.107317 
L 61.997972 246.107317 
L 62.186603 246.107317 
L 62.375235 246.107317 
L 62.563866 246.107317 
L 62.752497 246.107317 
L 62.941129 246.107317 
L 63.12976 246.107317 
L 63.318392 246.107317 
L 63.507023 246.107317 
L 63.695654 246.107317 
L 63.884286 246.107317 
L 64.072917 246.107317 
L 64.261549 246.107317 
L 64.45018 246.107317 
L 64.638811 246.107317 
L 64.827443 246.107317 
L 65.016074 246.107317 
L 65.204706 246.107317 
L 65.393337 246.107317 
L 65.581968 246.107317 
L 65.7706 246.107317 
L 65.959231 236.286179 
L 66.147863 236.286179 
L 66.336494 236.286179 
L 66.525126 236.286179 
L 66.713757 236.286179 
L 66.902388 236.286179 
L 67.09102 236.286179 
L 67.279651 236.286179 
L 67.468283 236.286179 
L 67.656914 236.286179 
L 67.845545 236.286179 
L 68.034177 236.286179 
L 68.222808 236.286179 
L 68.41144 236.286179 
L 68.600071 236.286179 
L 68.788702 236.286179 
L 68.977334 236.286179 
L 69.165965 236.286179 
L 69.354597 236.286179 
L 69.543228 236.286179 
L 69.731859 236.286179 
L 69.920491 236.286179 
L 70.109122 236.286179 
L 70.297754 236.286179 
L 70.486385 236.286179 
L 70.675016 236.286179 
L 70.863648 236.286179 
L 71.052279 236.286179 
L 71.240911 236.286179 
L 71.429542 236.286179 
L 71.618174 236.286179 
L 71.806805 236.286179 
L 71.995436 236.286179 
L 72.184068 236.286179 
L 72.372699 236.286179 
L 72.561331 236.286179 
L 72.749962 236.286179 
L 72.938593 236.286179 
L 73.127225 236.286179 
L 73.315856 236.286179 
L 73.504488 236.286179 
L 73.693119 236.286179 
L 73.88175 236.286179 
L 74.070382 236.286179 
L 74.259013 236.286179 
L 74.447645 236.286179 
L 74.636276 236.286179 
L 74.824907 236.286179 
L 75.013539 236.286179 
L 75.20217 236.286179 
L 75.390802 236.286179 
L 75.579433 236.286179 
L 75.768064 236.286179 
L 75.956696 236.286179 
L 76.145327 236.286179 
L 76.333959 236.286179 
L 76.52259 236.286179 
L 76.711222 236.286179 
L 76.899853 236.286179 
L 77.088484 236.286179 
L 77.277116 236.286179 
L 77.465747 236.286179 
L 77.654379 236.286179 
L 77.84301 236.286179 
L 78.031641 236.286179 
L 78.220273 236.286179 
L 78.408904 236.286179 
L 78.597536 236.286179 
L 78.786167 236.286179 
L 78.974798 236.286179 
L 79.16343 236.286179 
L 79.352061 236.286179 
L 79.540693 236.286179 
L 79.729324 236.286179 
L 79.917955 236.286179 
L 80.106587 236.286179 
L 80.295218 236.286179 
L 80.48385 236.286179 
L 80.672481 236.286179 
L 80.861113 236.286179 
L 81.049744 236.286179 
L 81.238375 236.286179 
L 81.427007 226.465041 
L 81.615638 226.465041 
L 81.80427 226.465041 
L 81.992901 226.465041 
L 82.181532 226.465041 
L 82.370164 226.465041 
L 82.558795 226.465041 
L 82.747427 226.465041 
L 82.936058 226.465041 
L 83.124689 226.465041 
L 83.313321 226.465041 
L 83.501952 226.465041 
L 83.690584 226.465041 
L 83.879215 226.465041 
L 84.067846 226.465041 
L 84.256478 226.465041 
L 84.445109 226.465041 
L 84.633741 226.465041 
L 84.822372 236.286179 
L 85.011003 236.286179 
L 85.199635 236.286179 
L 85.388266 236.286179 
L 85.576898 236.286179 
L 85.765529 236.286179 
L 85.954161 236.286179 
L 86.142792 236.286179 
L 86.331423 236.286179 
L 86.520055 236.286179 
L 86.708686 236.286179 
L 86.897318 236.286179 
L 87.085949 236.286179 
L 87.27458 226.465041 
L 87.463212 226.465041 
L 87.651843 226.465041 
L 87.840475 226.465041 
L 88.029106 226.465041 
L 88.217737 216.643902 
L 88.406369 216.643902 
L 88.595 216.643902 
L 88.783632 216.643902 
L 88.972263 216.643902 
L 89.160894 216.643902 
L 89.349526 216.643902 
L 89.538157 216.643902 
L 89.726789 216.643902 
L 89.91542 216.643902 
L 90.104052 216.643902 
L 90.292683 216.643902 
L 90.481314 216.643902 
L 90.669946 216.643902 
L 90.858577 216.643902 
L 91.047209 216.643902 
L 91.23584 216.643902 
L 91.424471 216.643902 
L 91.613103 216.643902 
L 91.801734 216.643902 
L 91.990366 216.643902 
L 92.178997 216.643902 
L 92.367628 216.643902 
L 92.55626 216.643902 
L 92.744891 216.643902 
L 92.933523 216.643902 
L 93.122154 216.643902 
L 93.310785 216.643902 
L 93.499417 216.643902 
L 93.688048 216.643902 
L 93.87668 216.643902 
L 94.065311 216.643902 
L 94.253942 216.643902 
L 94.442574 216.643902 
L 94.631205 216.643902 
L 94.819837 216.643902 
L 95.008468 216.643902 
L 95.1971 216.643902 
L 95.385731 216.643902 
L 95.574362 216.643902 
L 95.762994 216.643902 
L 95.951625 216.643902 
L 96.140257 216.643902 
L 96.328888 216.643902 
L 96.517519 216.643902 
L 96.706151 216.643902 
L 96.894782 216.643902 
L 97.083414 216.643902 
L 97.272045 216.643902 
L 97.460676 216.643902 
L 97.649308 216.643902 
L 97.837939 216.643902 
L 98.026571 216.643902 
L 98.215202 216.643902 
L 98.403833 216.643902 
L 98.592465 216.643902 
L 98.781096 216.643902 
L 98.969728 216.643902 
L 99.158359 216.643902 
L 99.346991 216.643902 
L 99.535622 216.643902 
L 99.724253 216.643902 
L 99.912885 216.643902 
L 100.101516 216.643902 
L 100.290148 226.465041 
L 100.478779 226.465041 
L 100.66741 226.465041 
L 100.856042 226.465041 
L 101.044673 226.465041 
L 101.233305 226.465041 
L 101.421936 226.465041 
L 101.610567 226.465041 
L 101.799199 226.465041 
L 101.98783 226.465041 
L 102.176462 226.465041 
L 102.365093 226.465041 
L 102.553724 226.465041 
L 102.742356 226.465041 
L 102.930987 226.465041 
L 103.119619 226.465041 
L 103.30825 226.465041 
L 103.496881 226.465041 
L 103.685513 226.465041 
L 103.874144 226.465041 
L 104.062776 226.465041 
L 104.251407 226.465041 
L 104.440039 226.465041 
L 104.62867 226.465041 
L 104.817301 226.465041 
L 105.005933 226.465041 
L 105.194564 226.465041 
L 105.383196 226.465041 
L 105.571827 226.465041 
L 105.760458 216.643902 
L 105.94909 216.643902 
L 106.137721 226.465041 
L 106.326353 226.465041 
L 106.514984 226.465041 
L 106.703615 226.465041 
L 106.892247 226.465041 
L 107.080878 236.286179 
L 107.26951 236.286179 
L 107.458141 236.286179 
L 107.646772 236.286179 
L 107.835404 236.286179 
L 108.024035 236.286179 
L 108.212667 236.286179 
L 108.401298 236.286179 
L 108.58993 236.286179 
L 108.778561 236.286179 
L 108.967192 236.286179 
L 109.155824 236.286179 
L 109.344455 236.286179 
L 109.533087 236.286179 
L 109.721718 236.286179 
L 109.910349 236.286179 
L 110.098981 236.286179 
L 110.287612 236.286179 
L 110.476244 236.286179 
L 110.664875 236.286179 
L 110.853506 236.286179 
L 111.042138 236.286179 
L 111.230769 236.286179 
L 111.419401 236.286179 
L 111.608032 236.286179 
L 111.796663 236.286179 
L 111.985295 236.286179 
L 112.173926 236.286179 
L 112.362558 236.286179 
L 112.551189 236.286179 
L 112.73982 236.286179 
L 112.928452 236.286179 
L 113.117083 236.286179 
L 113.305715 236.286179 
L 113.494346 236.286179 
L 113.682978 236.286179 
L 113.871609 236.286179 
L 114.06024 236.286179 
L 114.248872 236.286179 
L 114.437503 236.286179 
L 114.626135 236.286179 
L 114.814766 236.286179 
L 115.003397 236.286179 
L 115.192029 236.286179 
L 115.38066 226.465041 
L 115.569292 226.465041 
L 115.757923 226.465041 
L 115.946554 226.465041 
L 116.135186 226.465041 
L 116.323817 226.465041 
L 116.512449 226.465041 
L 116.70108 226.465041 
L 116.889711 226.465041 
L 117.078343 226.465041 
L 117.266974 226.465041 
L 117.455606 226.465041 
L 117.644237 226.465041 
L 117.832869 226.465041 
L 118.0215 226.465041 
L 118.210131 226.465041 
L 118.398763 226.465041 
L 118.587394 226.465041 
L 118.776026 226.465041 
L 118.964657 226.465041 
L 119.153288 226.465041 
L 119.34192 226.465041 
L 119.530551 226.465041 
L 119.719183 226.465041 
L 119.907814 226.465041 
L 120.096445 226.465041 
L 120.285077 226.465041 
L 120.473708 226.465041 
L 120.66234 226.465041 
L 120.850971 226.465041 
L 121.039602 226.465041 
L 121.228234 226.465041 
L 121.416865 226.465041 
L 121.605497 226.465041 
L 121.794128 226.465041 
L 121.982759 226.465041 
L 122.171391 226.465041 
L 122.360022 226.465041 
L 122.548654 226.465041 
L 122.737285 226.465041 
L 122.925917 226.465041 
L 123.114548 226.465041 
L 123.303179 226.465041 
L 123.491811 226.465041 
L 123.680442 226.465041 
L 123.869074 226.465041 
L 124.057705 226.465041 
L 124.246336 226.465041 
L 124.434968 226.465041 
L 124.623599 236.286179 
L 124.812231 236.286179 
L 125.000862 236.286179 
L 125.189493 236.286179 
L 125.378125 236.286179 
L 125.566756 236.286179 
L 125.755388 236.286179 
L 125.944019 236.286179 
L 126.13265 236.286179 
L 126.321282 236.286179 
L 126.509913 236.286179 
L 126.698545 236.286179 
L 126.887176 236.286179 
L 127.075808 236.286179 
L 127.264439 236.286179 
L 127.45307 236.286179 
L 127.641702 236.286179 
L 127.830333 236.286179 
L 128.018965 236.286179 
L 128.207596 236.286179 
L 128.396227 236.286179 
L 128.584859 236.286179 
L 128.77349 236.286179 
L 128.962122 236.286179 
L 129.150753 236.286179 
L 129.339384 236.286179 
L 129.528016 236.286179 
L 129.716647 236.286179 
L 129.905279 236.286179 
L 130.09391 236.286179 
L 130.282541 236.286179 
L 130.471173 236.286179 
L 130.659804 236.286179 
L 130.848436 236.286179 
L 131.037067 236.286179 
L 131.225698 236.286179 
L 131.41433 236.286179 
L 131.602961 236.286179 
L 131.791593 226.465041 
L 131.980224 226.465041 
L 132.168856 226.465041 
L 132.357487 226.465041 
L 132.546118 226.465041 
L 132.73475 226.465041 
L 132.923381 226.465041 
L 133.112013 226.465041 
L 133.300644 226.465041 
L 133.489275 226.465041 
L 133.677907 226.465041 
L 133.866538 226.465041 
L 134.05517 226.465041 
L 134.243801 236.286179 
L 134.432432 236.286179 
L 134.621064 236.286179 
L 134.809695 236.286179 
L 134.998327 236.286179 
L 135.186958 236.286179 
L 135.375589 236.286179 
L 135.564221 236.286179 
L 135.752852 236.286179 
L 135.941484 236.286179 
L 136.130115 236.286179 
L 136.318747 236.286179 
L 136.507378 236.286179 
L 136.696009 236.286179 
L 136.884641 236.286179 
L 137.073272 236.286179 
L 137.261904 236.286179 
L 137.450535 236.286179 
L 137.639166 236.286179 
L 137.827798 236.286179 
L 138.016429 236.286179 
L 138.205061 236.286179 
L 138.393692 236.286179 
L 138.582323 236.286179 
L 138.770955 236.286179 
L 138.959586 236.286179 
L 139.148218 236.286179 
L 139.336849 236.286179 
L 139.52548 236.286179 
L 139.714112 236.286179 
L 139.902743 236.286179 
L 140.091375 236.286179 
L 140.280006 236.286179 
L 140.468637 236.286179 
L 140.657269 236.286179 
L 140.8459 236.286179 
L 141.034532 236.286179 
L 141.223163 236.286179 
L 141.411795 236.286179 
L 141.600426 236.286179 
L 141.789057 236.286179 
L 141.977689 236.286179 
L 142.16632 236.286179 
L 142.354952 236.286179 
L 142.543583 236.286179 
L 142.732214 236.286179 
L 142.920846 236.286179 
L 143.109477 236.286179 
L 143.298109 236.286179 
L 143.48674 236.286179 
L 143.675371 236.286179 
L 143.864003 226.465041 
L 144.052634 226.465041 
L 144.241266 226.465041 
L 144.429897 226.465041 
L 144.618528 226.465041 
L 144.80716 226.465041 
L 144.995791 226.465041 
L 145.184423 226.465041 
L 145.373054 226.465041 
L 145.561686 226.465041 
L 145.750317 226.465041 
L 145.938948 226.465041 
L 146.12758 226.465041 
L 146.316211 226.465041 
L 146.504843 226.465041 
L 146.693474 216.643902 
L 146.882105 216.643902 
L 147.070737 216.643902 
L 147.259368 216.643902 
L 147.448 216.643902 
L 147.636631 216.643902 
L 147.825262 216.643902 
L 148.013894 216.643902 
L 148.202525 206.822764 
L 148.391157 206.822764 
L 148.579788 206.822764 
L 148.768419 206.822764 
L 148.957051 206.822764 
L 149.145682 206.822764 
L 149.334314 206.822764 
L 149.522945 206.822764 
L 149.711576 206.822764 
L 149.900208 206.822764 
L 150.088839 206.822764 
L 150.277471 206.822764 
L 150.466102 206.822764 
L 150.654734 216.643902 
L 150.843365 216.643902 
L 151.031996 216.643902 
L 151.220628 216.643902 
L 151.409259 216.643902 
L 151.597891 216.643902 
L 151.786522 216.643902 
L 151.975153 216.643902 
L 152.163785 216.643902 
L 152.352416 216.643902 
L 152.541048 216.643902 
L 152.729679 216.643902 
L 152.91831 206.822764 
L 153.106942 206.822764 
L 153.295573 206.822764 
L 153.484205 206.822764 
L 153.672836 197.001626 
L 153.861467 197.001626 
L 154.050099 197.001626 
L 154.23873 197.001626 
L 154.427362 197.001626 
L 154.615993 187.180488 
L 154.804625 187.180488 
L 154.993256 187.180488 
L 155.181887 187.180488 
L 155.370519 187.180488 
L 155.55915 177.35935 
L 155.747782 177.35935 
L 155.936413 177.35935 
L 156.125044 177.35935 
L 156.313676 177.35935 
L 156.502307 177.35935 
L 156.690939 177.35935 
L 156.87957 177.35935 
L 157.068201 177.35935 
L 157.256833 177.35935 
L 157.445464 177.35935 
L 157.634096 177.35935 
L 157.822727 177.35935 
L 158.011358 177.35935 
L 158.19999 167.538211 
L 158.388621 167.538211 
L 158.577253 167.538211 
L 158.765884 167.538211 
L 158.954515 167.538211 
L 159.143147 167.538211 
L 159.331778 167.538211 
L 159.52041 167.538211 
L 159.709041 167.538211 
L 159.897673 167.538211 
L 160.086304 167.538211 
L 160.274935 167.538211 
L 160.463567 167.538211 
L 160.652198 167.538211 
L 160.84083 167.538211 
L 161.029461 167.538211 
L 161.218092 167.538211 
L 161.406724 167.538211 
L 161.595355 167.538211 
L 161.783987 157.717073 
L 161.972618 157.717073 
L 162.161249 157.717073 
L 162.349881 157.717073 
L 162.538512 157.717073 
L 162.727144 167.538211 
L 162.915775 167.538211 
L 163.104406 167.538211 
L 163.293038 167.538211 
L 163.481669 167.538211 
L 163.670301 167.538211 
L 163.858932 167.538211 
L 164.047564 167.538211 
L 164.236195 167.538211 
L 164.424826 167.538211 
L 164.613458 167.538211 
L 164.802089 167.538211 
L 164.990721 157.717073 
L 165.179352 157.717073 
L 165.367983 157.717073 
L 165.556615 167.538211 
L 165.745246 167.538211 
L 165.933878 167.538211 
L 166.122509 167.538211 
L 166.31114 167.538211 
L 166.499772 167.538211 
L 166.688403 167.538211 
L 166.877035 167.538211 
L 167.065666 177.35935 
L 167.254297 177.35935 
L 167.442929 177.35935 
L 167.63156 177.35935 
L 167.820192 177.35935 
L 168.008823 177.35935 
L 168.197454 177.35935 
L 168.386086 177.35935 
L 168.574717 177.35935 
L 168.763349 177.35935 
L 168.95198 177.35935 
L 169.140612 177.35935 
L 169.329243 177.35935 
L 169.517874 177.35935 
L 169.706506 177.35935 
L 169.895137 177.35935 
L 170.083769 177.35935 
L 170.2724 177.35935 
L 170.461031 177.35935 
L 170.649663 177.35935 
L 170.838294 177.35935 
L 171.026926 177.35935 
L 171.215557 177.35935 
L 171.404188 177.35935 
L 171.59282 177.35935 
L 171.781451 187.180488 
L 171.970083 177.35935 
L 172.158714 177.35935 
L 172.347345 177.35935 
L 172.535977 187.180488 
L 172.724608 187.180488 
L 172.91324 187.180488 
L 173.101871 187.180488 
L 173.290503 187.180488 
L 173.479134 197.001626 
L 173.667765 197.001626 
L 173.856397 197.001626 
L 174.045028 197.001626 
L 174.23366 197.001626 
L 174.422291 206.822764 
L 174.610922 206.822764 
L 174.799554 206.822764 
L 174.988185 206.822764 
L 175.176817 206.822764 
L 175.365448 206.822764 
L 175.554079 206.822764 
L 175.742711 206.822764 
L 175.931342 206.822764 
L 176.119974 197.001626 
L 176.308605 197.001626 
L 176.497236 197.001626 
L 176.685868 197.001626 
L 176.874499 197.001626 
L 177.063131 206.822764 
L 177.251762 206.822764 
L 177.440393 206.822764 
L 177.629025 206.822764 
L 177.817656 206.822764 
L 178.006288 206.822764 
L 178.194919 206.822764 
L 178.383551 206.822764 
L 178.572182 206.822764 
L 178.760813 206.822764 
L 178.949445 206.822764 
L 179.138076 206.822764 
L 179.326708 206.822764 
L 179.515339 206.822764 
L 179.70397 197.001626 
L 179.892602 197.001626 
L 180.081233 197.001626 
L 180.269865 197.001626 
L 180.458496 197.001626 
L 180.647127 206.822764 
L 180.835759 206.822764 
L 181.02439 206.822764 
L 181.213022 206.822764 
L 181.401653 206.822764 
L 181.590284 206.822764 
L 181.778916 206.822764 
L 181.967547 206.822764 
L 182.156179 206.822764 
L 182.34481 206.822764 
L 182.533442 206.822764 
L 182.722073 206.822764 
L 182.910704 206.822764 
L 183.099336 206.822764 
L 183.287967 206.822764 
L 183.476599 206.822764 
L 183.66523 206.822764 
L 183.853861 216.643902 
L 184.042493 216.643902 
L 184.231124 216.643902 
L 184.419756 216.643902 
L 184.608387 216.643902 
L 184.797018 216.643902 
L 184.98565 216.643902 
L 185.174281 216.643902 
L 185.362913 216.643902 
L 185.551544 216.643902 
L 185.740175 216.643902 
L 185.928807 216.643902 
L 186.117438 216.643902 
L 186.30607 216.643902 
L 186.494701 216.643902 
L 186.683332 216.643902 
L 186.871964 216.643902 
L 187.060595 216.643902 
L 187.249227 216.643902 
L 187.437858 216.643902 
L 187.62649 216.643902 
L 187.815121 216.643902 
L 188.003752 216.643902 
L 188.192384 216.643902 
L 188.381015 216.643902 
L 188.569647 216.643902 
L 188.758278 216.643902 
L 188.946909 216.643902 
L 189.135541 216.643902 
L 189.324172 216.643902 
L 189.512804 216.643902 
L 189.701435 216.643902 
L 189.890066 216.643902 
L 190.078698 216.643902 
L 190.267329 216.643902 
L 190.455961 216.643902 
L 190.644592 216.643902 
L 190.833223 226.465041 
L 191.021855 226.465041 
L 191.210486 226.465041 
L 191.399118 226.465041 
L 191.587749 226.465041 
L 191.776381 226.465041 
L 191.965012 226.465041 
L 192.153643 226.465041 
L 192.342275 226.465041 
L 192.530906 226.465041 
L 192.719538 226.465041 
L 192.908169 226.465041 
L 193.0968 226.465041 
L 193.285432 226.465041 
L 193.474063 226.465041 
L 193.662695 226.465041 
L 193.851326 226.465041 
L 194.039957 226.465041 
L 194.228589 226.465041 
L 194.41722 226.465041 
L 194.605852 226.465041 
L 194.794483 226.465041 
L 194.983114 236.286179 
L 195.171746 236.286179 
L 195.360377 236.286179 
L 195.549009 236.286179 
L 195.73764 236.286179 
L 195.926271 236.286179 
L 196.114903 236.286179 
L 196.303534 236.286179 
L 196.492166 236.286179 
L 196.680797 236.286179 
L 196.869429 236.286179 
L 197.05806 236.286179 
L 197.246691 236.286179 
L 197.435323 236.286179 
L 197.623954 236.286179 
L 197.812586 236.286179 
L 198.001217 236.286179 
L 198.189848 236.286179 
L 198.37848 236.286179 
L 198.567111 246.107317 
L 198.755743 246.107317 
L 198.944374 246.107317 
L 199.133005 246.107317 
L 199.321637 246.107317 
L 199.510268 246.107317 
L 199.6989 246.107317 
L 199.887531 246.107317 
L 200.076162 246.107317 
L 200.264794 246.107317 
L 200.453425 246.107317 
L 200.642057 246.107317 
L 200.830688 246.107317 
L 201.01932 246.107317 
L 201.207951 246.107317 
L 201.396582 246.107317 
L 201.585214 246.107317 
L 201.773845 246.107317 
L 201.962477 246.107317 
L 202.151108 246.107317 
L 202.339739 246.107317 
L 202.528371 246.107317 
L 202.717002 246.107317 
L 202.905634 246.107317 
L 203.094265 246.107317 
L 203.282896 246.107317 
L 203.471528 246.107317 
L 203.660159 246.107317 
L 203.848791 246.107317 
L 204.037422 246.107317 
L 204.226053 246.107317 
L 204.414685 246.107317 
L 204.603316 246.107317 
L 204.791948 246.107317 
L 204.980579 246.107317 
L 205.16921 246.107317 
L 205.357842 246.107317 
L 205.546473 246.107317 
L 205.735105 246.107317 
L 205.923736 246.107317 
L 206.112368 246.107317 
L 206.300999 246.107317 
L 206.48963 246.107317 
L 206.678262 246.107317 
L 206.866893 246.107317 
L 207.055525 246.107317 
L 207.244156 246.107317 
L 207.432787 246.107317 
L 207.621419 246.107317 
L 207.81005 246.107317 
L 207.998682 246.107317 
L 208.187313 246.107317 
L 208.375944 246.107317 
L 208.564576 246.107317 
L 208.753207 246.107317 
L 208.941839 246.107317 
L 209.13047 246.107317 
L 209.319101 246.107317 
L 209.507733 246.107317 
L 209.696364 246.107317 
L 209.884996 246.107317 
L 210.073627 246.107317 
L 210.262259 246.107317 
L 210.45089 246.107317 
L 210.639521 246.107317 
L 210.828153 246.107317 
L 211.016784 246.107317 
L 211.205416 246.107317 
L 211.394047 246.107317 
L 211.582678 246.107317 
L 211.77131 246.107317 
L 211.959941 246.107317 
L 212.148573 246.107317 
L 212.337204 246.107317 
L 212.525835 246.107317 
L 212.714467 246.107317 
L 212.903098 246.107317 
L 213.09173 246.107317 
L 213.280361 246.107317 
L 213.468992 246.107317 
L 213.657624 246.107317 
L 213.846255 246.107317 
L 214.034887 246.107317 
L 214.223518 246.107317 
L 214.412149 246.107317 
L 214.600781 246.107317 
L 214.789412 246.107317 
L 214.978044 246.107317 
L 215.166675 246.107317 
L 215.355307 246.107317 
L 215.543938 246.107317 
L 215.732569 246.107317 
L 215.921201 246.107317 
L 216.109832 246.107317 
L 216.298464 246.107317 
L 216.487095 246.107317 
L 216.675726 246.107317 
L 216.864358 246.107317 
L 217.052989 246.107317 
L 217.241621 246.107317 
L 217.430252 246.107317 
L 217.618883 246.107317 
L 217.807515 246.107317 
L 217.996146 246.107317 
L 218.184778 246.107317 
L 218.373409 246.107317 
L 218.56204 246.107317 
L 218.750672 246.107317 
L 218.939303 246.107317 
L 219.127935 246.107317 
L 219.316566 246.107317 
L 219.505198 246.107317 
L 219.693829 246.107317 
L 219.88246 246.107317 
L 220.071092 246.107317 
L 220.259723 246.107317 
L 220.448355 246.107317 
L 220.636986 246.107317 
L 220.825617 246.107317 
L 221.014249 246.107317 
L 221.20288 246.107317 
L 221.391512 246.107317 
L 221.580143 246.107317 
L 221.768774 246.107317 
L 221.957406 246.107317 
L 222.146037 246.107317 
L 222.334669 246.107317 
L 222.5233 246.107317 
L 222.711931 246.107317 
L 222.900563 246.107317 
L 223.089194 246.107317 
L 223.277826 246.107317 
L 223.466457 246.107317 
L 223.655088 246.107317 
L 223.84372 246.107317 
L 224.032351 246.107317 
L 224.220983 246.107317 
L 224.409614 246.107317 
L 224.598246 246.107317 
L 224.786877 246.107317 
L 224.975508 246.107317 
L 225.16414 246.107317 
L 225.352771 246.107317 
L 225.541403 246.107317 
L 225.730034 246.107317 
L 225.918665 246.107317 
L 226.107297 246.107317 
L 226.295928 246.107317 
L 226.48456 246.107317 
L 226.673191 246.107317 
L 226.861822 246.107317 
L 227.050454 246.107317 
L 227.239085 246.107317 
L 227.427717 246.107317 
L 227.616348 246.107317 
L 227.804979 246.107317 
L 227.993611 246.107317 
L 228.182242 246.107317 
L 228.370874 246.107317 
L 228.559505 246.107317 
L 228.748137 246.107317 
L 228.936768 246.107317 
L 229.125399 246.107317 
L 229.314031 246.107317 
L 229.502662 246.107317 
L 229.691294 246.107317 
L 229.879925 246.107317 
z
" style="fill:#268bd2;"/>
   </g>
   <g id="line2d_39">
    <g clip-path="url(#pb0ca71a07b)">
     <use style="stroke:#000000;" x="124.657817" xlink:href="#m7d699601f9" y="249.053659"/>
     <use style="stroke:#000000;" x="96.566002" xlink:href="#m7d699601f9" y="249.053659"/>
     <use style="stroke:#000000;" x="97.616064" xlink:href="#m7d699601f9" y="249.053659"/>
     <use style="stroke:#000000;" x="90.771861" xlink:href="#m7d699601f9" y="249.053659"/>
     <use style="stroke:#000000;" x="115.123395" xlink:href="#m7d699601f9" y="249.053659"/>
     <use style="stroke:#000000;" x="75.337518" xlink:href="#m7d699601f9" y="249.053659"/>
     <use style="stroke:#000000;" x="188.985478" xlink:href="#m7d699601f9" y="249.053659"/>
     <use style="stroke:#000000;" x="157.502737" xlink:href="#m7d699601f9" y="249.053659"/>
     <use style="stroke:#000000;" x="171.073707" xlink:href="#m7d699601f9" y="249.053659"/>
     <use style="stroke:#000000;" x="163.932863" xlink:href="#m7d699601f9" y="249.053659"/>
     <use style="stroke:#000000;" x="185.433911" xlink:href="#m7d699601f9" y="249.053659"/>
     <use style="stroke:#000000;" x="141.184424" xlink:href="#m7d699601f9" y="249.053659"/>
     <use style="stroke:#000000;" x="163.015186" xlink:href="#m7d699601f9" y="249.053659"/>
     <use style="stroke:#000000;" x="162.240848" xlink:href="#m7d699601f9" y="249.053659"/>
     <use style="stroke:#000000;" x="181.309044" xlink:href="#m7d699601f9" y="249.053659"/>
     <use style="stroke:#000000;" x="153.247895" xlink:href="#m7d699601f9" y="249.053659"/>
     <use style="stroke:#000000;" x="164.899476" xlink:href="#m7d699601f9" y="249.053659"/>
     <use style="stroke:#000000;" x="156.037261" xlink:href="#m7d699601f9" y="249.053659"/>
     <use style="stroke:#000000;" x="167.595991" xlink:href="#m7d699601f9" y="249.053659"/>
     <use style="stroke:#000000;" x="174.387487" xlink:href="#m7d699601f9" y="249.053659"/>
    </g>
   </g>
   <g id="patch_32">
    <path d="M 54 252 
L 54 145.931707 
" style="fill:none;stroke:#eee8d5;stroke-linecap:square;stroke-linejoin:miter;stroke-width:0.8;"/>
   </g>
   <g id="patch_33">
    <path d="M 217.317073 252 
L 217.317073 145.931707 
" style="fill:none;stroke:#eee8d5;stroke-linecap:square;stroke-linejoin:miter;stroke-width:0.8;"/>
   </g>
   <g id="patch_34">
    <path d="M 54 252 
L 217.317073 252 
" style="fill:none;stroke:#eee8d5;stroke-linecap:square;stroke-linejoin:miter;stroke-width:0.8;"/>
   </g>
   <g id="patch_35">
    <path d="M 54 145.931707 
L 217.317073 145.931707 
" style="fill:none;stroke:#eee8d5;stroke-linecap:square;stroke-linejoin:miter;stroke-width:0.8;"/>
   </g>
   <g id="text_16">
    <!-- Tophat Kernel Density -->
    <g transform="translate(60.281426 154.770732)scale(0.1 -0.1)">
     <defs>
      <path d="M -19 4666 
L 3928 4666 
L 3928 4134 
L 2272 4134 
L 2272 0 
L 1638 0 
L 1638 4134 
L -19 4134 
L -19 4666 
z
" id="DejaVuSans-54" transform="scale(0.015625)"/>
      <path d="M 1159 525 
L 1159 -1331 
L 581 -1331 
L 581 3500 
L 1159 3500 
L 1159 2969 
Q 1341 3281 1617 3432 
Q 1894 3584 2278 3584 
Q 2916 3584 3314 3078 
Q 3713 2572 3713 1747 
Q 3713 922 3314 415 
Q 2916 -91 2278 -91 
Q 1894 -91 1617 61 
Q 1341 213 1159 525 
z
M 3116 1747 
Q 3116 2381 2855 2742 
Q 2594 3103 2138 3103 
Q 1681 3103 1420 2742 
Q 1159 2381 1159 1747 
Q 1159 1113 1420 752 
Q 1681 391 2138 391 
Q 2594 391 2855 752 
Q 3116 1113 3116 1747 
z
" id="DejaVuSans-70" transform="scale(0.015625)"/>
      <path d="M 628 4666 
L 1259 4666 
L 1259 2694 
L 3353 4666 
L 4166 4666 
L 1850 2491 
L 4331 0 
L 3500 0 
L 1259 2247 
L 1259 0 
L 628 0 
L 628 4666 
z
" id="DejaVuSans-4b" transform="scale(0.015625)"/>
     </defs>
     <use xlink:href="#DejaVuSans-54"/>
     <use x="44.083984" xlink:href="#DejaVuSans-6f"/>
     <use x="105.265625" xlink:href="#DejaVuSans-70"/>
     <use x="168.742188" xlink:href="#DejaVuSans-68"/>
     <use x="232.121094" xlink:href="#DejaVuSans-61"/>
     <use x="293.400391" xlink:href="#DejaVuSans-74"/>
     <use x="332.609375" xlink:href="#DejaVuSans-20"/>
     <use x="364.396484" xlink:href="#DejaVuSans-4b"/>
     <use x="424.972656" xlink:href="#DejaVuSans-65"/>
     <use x="486.496094" xlink:href="#DejaVuSans-72"/>
     <use x="525.859375" xlink:href="#DejaVuSans-6e"/>
     <use x="589.238281" xlink:href="#DejaVuSans-65"/>
     <use x="650.761719" xlink:href="#DejaVuSans-6c"/>
     <use x="678.544922" xlink:href="#DejaVuSans-20"/>
     <use x="710.332031" xlink:href="#DejaVuSans-44"/>
     <use x="787.333984" xlink:href="#DejaVuSans-65"/>
     <use x="848.857422" xlink:href="#DejaVuSans-6e"/>
     <use x="912.236328" xlink:href="#DejaVuSans-73"/>
     <use x="964.335938" xlink:href="#DejaVuSans-69"/>
     <use x="992.119141" xlink:href="#DejaVuSans-74"/>
     <use x="1031.328125" xlink:href="#DejaVuSans-79"/>
    </g>
   </g>
  </g>
  <g id="axes_4">
   <g id="patch_36">
    <path d="M 225.482927 252 
L 388.8 252 
L 388.8 145.931707 
L 225.482927 145.931707 
z
" style="fill:none;"/>
   </g>
   <g id="matplotlib.axis_7">
    <g id="xtick_7">
     <g id="line2d_40">
      <path clip-path="url(#p82a4aa97a9)" d="M 275.734334 252 
L 275.734334 145.931707 
" style="fill:none;stroke:#fdf6e3;"/>
     </g>
     <g id="line2d_41">
      <g>
       <use style="fill:#657b83;stroke:#657b83;stroke-width:0.8;" x="275.734334" xlink:href="#m829874f85e" y="252"/>
      </g>
     </g>
     <g id="text_17">
      <!-- 0 -->
      <g style="fill:#657b83;" transform="translate(272.553084 266.598438)scale(0.1 -0.1)">
       <use xlink:href="#DejaVuSans-30"/>
      </g>
     </g>
    </g>
    <g id="xtick_8">
     <g id="line2d_42">
      <path clip-path="url(#p82a4aa97a9)" d="M 338.548593 252 
L 338.548593 145.931707 
" style="fill:none;stroke:#fdf6e3;"/>
     </g>
     <g id="line2d_43">
      <g>
       <use style="fill:#657b83;stroke:#657b83;stroke-width:0.8;" x="338.548593" xlink:href="#m829874f85e" y="252"/>
      </g>
     </g>
     <g id="text_18">
      <!-- 5 -->
      <g style="fill:#657b83;" transform="translate(335.367343 266.598438)scale(0.1 -0.1)">
       <use xlink:href="#DejaVuSans-35"/>
      </g>
     </g>
    </g>
    <g id="text_19">
     <!-- x -->
     <g style="fill:#657b83;" transform="translate(303.590213 281.79625)scale(0.12 -0.12)">
      <use xlink:href="#DejaVuSans-78"/>
     </g>
    </g>
   </g>
   <g id="matplotlib.axis_8">
    <g id="ytick_13">
     <g id="line2d_44">
      <path clip-path="url(#p82a4aa97a9)" d="M 225.482927 246.107317 
L 388.8 246.107317 
" style="fill:none;stroke:#fdf6e3;"/>
     </g>
     <g id="line2d_45">
      <g>
       <use style="fill:#657b83;stroke:#657b83;stroke-width:0.8;" x="225.482927" xlink:href="#me7b5aa0bd5" y="246.107317"/>
      </g>
     </g>
    </g>
    <g id="ytick_14">
     <g id="line2d_46">
      <path clip-path="url(#p82a4aa97a9)" d="M 225.482927 216.643902 
L 388.8 216.643902 
" style="fill:none;stroke:#fdf6e3;"/>
     </g>
     <g id="line2d_47">
      <g>
       <use style="fill:#657b83;stroke:#657b83;stroke-width:0.8;" x="225.482927" xlink:href="#me7b5aa0bd5" y="216.643902"/>
      </g>
     </g>
    </g>
    <g id="ytick_15">
     <g id="line2d_48">
      <path clip-path="url(#p82a4aa97a9)" d="M 225.482927 187.180488 
L 388.8 187.180488 
" style="fill:none;stroke:#fdf6e3;"/>
     </g>
     <g id="line2d_49">
      <g>
       <use style="fill:#657b83;stroke:#657b83;stroke-width:0.8;" x="225.482927" xlink:href="#me7b5aa0bd5" y="187.180488"/>
      </g>
     </g>
    </g>
    <g id="ytick_16">
     <g id="line2d_50">
      <path clip-path="url(#p82a4aa97a9)" d="M 225.482927 157.717073 
L 388.8 157.717073 
" style="fill:none;stroke:#fdf6e3;"/>
     </g>
     <g id="line2d_51">
      <g>
       <use style="fill:#657b83;stroke:#657b83;stroke-width:0.8;" x="225.482927" xlink:href="#me7b5aa0bd5" y="157.717073"/>
      </g>
     </g>
    </g>
   </g>
   <g id="patch_37">
    <path clip-path="url(#p82a4aa97a9)" d="M 212.920075 246.0952 
L 213.108706 246.094297 
L 213.297338 246.093333 
L 213.485969 246.092303 
L 213.674601 246.091203 
L 213.863232 246.090031 
L 214.051863 246.08878 
L 214.240495 246.087447 
L 214.429126 246.086026 
L 214.617758 246.084513 
L 214.806389 246.082902 
L 214.995021 246.081187 
L 215.183652 246.079364 
L 215.372283 246.077425 
L 215.560915 246.075365 
L 215.749546 246.073176 
L 215.938178 246.070851 
L 216.126809 246.068384 
L 216.31544 246.065767 
L 216.504072 246.062992 
L 216.692703 246.06005 
L 216.881335 246.056932 
L 217.069966 246.053631 
L 217.258597 246.050136 
L 217.447229 246.046438 
L 217.63586 246.042527 
L 217.824492 246.038391 
L 218.013123 246.034022 
L 218.201754 246.029406 
L 218.390386 246.024532 
L 218.579017 246.019389 
L 218.767649 246.013963 
L 218.95628 246.008242 
L 219.144912 246.002212 
L 219.333543 245.99586 
L 219.522174 245.98917 
L 219.710806 245.982129 
L 219.899437 245.974722 
L 220.088069 245.966931 
L 220.2767 245.958743 
L 220.465331 245.950139 
L 220.653963 245.941102 
L 220.842594 245.931617 
L 221.031226 245.921663 
L 221.219857 245.911224 
L 221.408488 245.90028 
L 221.59712 245.888811 
L 221.785751 245.876799 
L 221.974383 245.864223 
L 222.163014 245.851063 
L 222.351645 245.837297 
L 222.540277 245.822904 
L 222.728908 245.807862 
L 222.91754 245.79215 
L 223.106171 245.775745 
L 223.294802 245.758624 
L 223.483434 245.740763 
L 223.672065 245.72214 
L 223.860697 245.70273 
L 224.049328 245.68251 
L 224.23796 245.661455 
L 224.426591 245.639541 
L 224.615222 245.616743 
L 224.803854 245.593037 
L 224.992485 245.568397 
L 225.181117 245.542799 
L 225.369748 245.516217 
L 225.558379 245.488626 
L 225.747011 245.460001 
L 225.935642 245.430318 
L 226.124274 245.39955 
L 226.312905 245.367674 
L 226.501536 245.334664 
L 226.690168 245.300497 
L 226.878799 245.265147 
L 227.067431 245.228591 
L 227.256062 245.190805 
L 227.444693 245.151767 
L 227.633325 245.111453 
L 227.821956 245.069841 
L 228.010588 245.026909 
L 228.199219 244.982637 
L 228.387851 244.937003 
L 228.576482 244.889989 
L 228.765113 244.841574 
L 228.953745 244.791741 
L 229.142376 244.740472 
L 229.331008 244.687751 
L 229.519639 244.633561 
L 229.70827 244.577889 
L 229.896902 244.520722 
L 230.085533 244.462045 
L 230.274165 244.401849 
L 230.462796 244.340122 
L 230.651427 244.276857 
L 230.840059 244.212045 
L 231.02869 244.145681 
L 231.217322 244.077758 
L 231.405953 244.008275 
L 231.594584 243.937228 
L 231.783216 243.864617 
L 231.971847 243.790443 
L 232.160479 243.714708 
L 232.34911 243.637416 
L 232.537741 243.558573 
L 232.726373 243.478186 
L 232.915004 243.396263 
L 233.103636 243.312815 
L 233.292267 243.227854 
L 233.480899 243.141394 
L 233.66953 243.053449 
L 233.858161 242.964037 
L 234.046793 242.873176 
L 234.235424 242.780886 
L 234.424056 242.687189 
L 234.612687 242.592108 
L 234.801318 242.495669 
L 234.98995 242.397897 
L 235.178581 242.29882 
L 235.367213 242.198468 
L 235.555844 242.096872 
L 235.744475 241.994062 
L 235.933107 241.890074 
L 236.121738 241.784941 
L 236.31037 241.678699 
L 236.499001 241.571385 
L 236.687632 241.463037 
L 236.876264 241.353694 
L 237.064895 241.243396 
L 237.253527 241.132183 
L 237.442158 241.020097 
L 237.63079 240.907179 
L 237.819421 240.793472 
L 238.008052 240.679019 
L 238.196684 240.563863 
L 238.385315 240.448048 
L 238.573947 240.331616 
L 238.762578 240.214612 
L 238.951209 240.097079 
L 239.139841 239.97906 
L 239.328472 239.860598 
L 239.517104 239.741735 
L 239.705735 239.622514 
L 239.894366 239.502974 
L 240.082998 239.383157 
L 240.271629 239.263102 
L 240.460261 239.142847 
L 240.648892 239.02243 
L 240.837523 238.901885 
L 241.026155 238.781249 
L 241.214786 238.660552 
L 241.403418 238.539828 
L 241.592049 238.419106 
L 241.78068 238.298413 
L 241.969312 238.177775 
L 242.157943 238.057216 
L 242.346575 237.936759 
L 242.535206 237.816423 
L 242.723838 237.696224 
L 242.912469 237.576179 
L 243.1011 237.4563 
L 243.289732 237.336597 
L 243.478363 237.217078 
L 243.666995 237.097748 
L 243.855626 236.97861 
L 244.044257 236.859664 
L 244.232889 236.740907 
L 244.42152 236.622333 
L 244.610152 236.503936 
L 244.798783 236.385704 
L 244.987414 236.267624 
L 245.176046 236.149681 
L 245.364677 236.031856 
L 245.553309 235.914128 
L 245.74194 235.796474 
L 245.930571 235.678869 
L 246.119203 235.561284 
L 246.307834 235.443688 
L 246.496466 235.326051 
L 246.685097 235.208336 
L 246.873729 235.090507 
L 247.06236 234.972526 
L 247.250991 234.854353 
L 247.439623 234.735946 
L 247.628254 234.617262 
L 247.816886 234.498257 
L 248.005517 234.378884 
L 248.194148 234.259098 
L 248.38278 234.138852 
L 248.571411 234.018096 
L 248.760043 233.896783 
L 248.948674 233.774865 
L 249.137305 233.652291 
L 249.325937 233.529015 
L 249.514568 233.404988 
L 249.7032 233.280162 
L 249.891831 233.154491 
L 250.080462 233.027928 
L 250.269094 232.90043 
L 250.457725 232.771952 
L 250.646357 232.642454 
L 250.834988 232.511896 
L 251.023619 232.38024 
L 251.212251 232.247451 
L 251.400882 232.113496 
L 251.589514 231.978346 
L 251.778145 231.841972 
L 251.966777 231.704351 
L 252.155408 231.565463 
L 252.344039 231.42529 
L 252.532671 231.283818 
L 252.721302 231.141038 
L 252.909934 230.996945 
L 253.098565 230.851536 
L 253.287196 230.704816 
L 253.475828 230.55679 
L 253.664459 230.407472 
L 253.853091 230.256878 
L 254.041722 230.105029 
L 254.230353 229.951953 
L 254.418985 229.797681 
L 254.607616 229.642249 
L 254.796248 229.4857 
L 254.984879 229.328081 
L 255.17351 229.169444 
L 255.362142 229.009846 
L 255.550773 228.849351 
L 255.739405 228.688027 
L 255.928036 228.525946 
L 256.116668 228.363189 
L 256.305299 228.199837 
L 256.49393 228.035981 
L 256.682562 227.871714 
L 256.871193 227.707135 
L 257.059825 227.542347 
L 257.248456 227.377457 
L 257.437087 227.21258 
L 257.625719 227.047831 
L 257.81435 226.883331 
L 258.002982 226.719206 
L 258.191613 226.555585 
L 258.380244 226.392599 
L 258.568876 226.230385 
L 258.757507 226.069081 
L 258.946139 225.908829 
L 259.13477 225.749773 
L 259.323401 225.592059 
L 259.512033 225.435836 
L 259.700664 225.281255 
L 259.889296 225.128467 
L 260.077927 224.977625 
L 260.266558 224.828882 
L 260.45519 224.682393 
L 260.643821 224.538312 
L 260.832453 224.396793 
L 261.021084 224.25799 
L 261.209716 224.122056 
L 261.398347 223.989142 
L 261.586978 223.859398 
L 261.77561 223.732973 
L 261.964241 223.610014 
L 262.152873 223.490662 
L 262.341504 223.37506 
L 262.530135 223.263345 
L 262.718767 223.15565 
L 262.907398 223.052106 
L 263.09603 222.952839 
L 263.284661 222.857971 
L 263.473292 222.767618 
L 263.661924 222.681891 
L 263.850555 222.600898 
L 264.039187 222.524739 
L 264.227818 222.453509 
L 264.416449 222.387296 
L 264.605081 222.326184 
L 264.793712 222.270247 
L 264.982344 222.219555 
L 265.170975 222.17417 
L 265.359607 222.134146 
L 265.548238 222.099532 
L 265.736869 222.070366 
L 265.925501 222.046683 
L 266.114132 222.028505 
L 266.302764 222.015851 
L 266.491395 222.008728 
L 266.680026 222.007139 
L 266.868658 222.011076 
L 267.057289 222.020524 
L 267.245921 222.035459 
L 267.434552 222.055852 
L 267.623183 222.081662 
L 267.811815 222.112843 
L 268.000446 222.14934 
L 268.189078 222.19109 
L 268.377709 222.238023 
L 268.56634 222.29006 
L 268.754972 222.347117 
L 268.943603 222.4091 
L 269.132235 222.47591 
L 269.320866 222.54744 
L 269.509497 222.623577 
L 269.698129 222.704201 
L 269.88676 222.789186 
L 270.075392 222.878399 
L 270.264023 222.971702 
L 270.452655 223.068953 
L 270.641286 223.170003 
L 270.829917 223.274697 
L 271.018549 223.382879 
L 271.20718 223.494386 
L 271.395812 223.609051 
L 271.584443 223.726705 
L 271.773074 223.847175 
L 271.961706 223.970284 
L 272.150337 224.095854 
L 272.338969 224.223704 
L 272.5276 224.353652 
L 272.716231 224.485513 
L 272.904863 224.619102 
L 273.093494 224.754233 
L 273.282126 224.89072 
L 273.470757 225.028377 
L 273.659388 225.167016 
L 273.84802 225.306454 
L 274.036651 225.446505 
L 274.225283 225.586987 
L 274.413914 225.727718 
L 274.602546 225.868521 
L 274.791177 226.009217 
L 274.979808 226.149633 
L 275.16844 226.289599 
L 275.357071 226.428946 
L 275.545703 226.567512 
L 275.734334 226.705137 
L 275.922965 226.841665 
L 276.111597 226.976945 
L 276.300228 227.110831 
L 276.48886 227.243181 
L 276.677491 227.37386 
L 276.866122 227.502738 
L 277.054754 227.629688 
L 277.243385 227.754592 
L 277.432017 227.877337 
L 277.620648 227.997816 
L 277.809279 228.115928 
L 277.997911 228.231578 
L 278.186542 228.344679 
L 278.375174 228.45515 
L 278.563805 228.562915 
L 278.752436 228.667907 
L 278.941068 228.770065 
L 279.129699 228.869334 
L 279.318331 228.965667 
L 279.506962 229.059023 
L 279.695594 229.149368 
L 279.884225 229.236675 
L 280.072856 229.320923 
L 280.261488 229.402099 
L 280.450119 229.480194 
L 280.638751 229.555209 
L 280.827382 229.627149 
L 281.016013 229.696025 
L 281.204645 229.761855 
L 281.393276 229.824664 
L 281.581908 229.88448 
L 281.770539 229.94134 
L 281.95917 229.995285 
L 282.147802 230.046359 
L 282.336433 230.094615 
L 282.525065 230.14011 
L 282.713696 230.182903 
L 282.902327 230.22306 
L 283.090959 230.260652 
L 283.27959 230.295751 
L 283.468222 230.328435 
L 283.656853 230.358786 
L 283.845485 230.386888 
L 284.034116 230.412829 
L 284.222747 230.436697 
L 284.411379 230.458588 
L 284.60001 230.478596 
L 284.788642 230.496817 
L 284.977273 230.513352 
L 285.165904 230.5283 
L 285.354536 230.541764 
L 285.543167 230.553847 
L 285.731799 230.564652 
L 285.92043 230.574283 
L 286.109061 230.582844 
L 286.297693 230.590441 
L 286.486324 230.597178 
L 286.674956 230.603158 
L 286.863587 230.608483 
L 287.052218 230.613257 
L 287.24085 230.61758 
L 287.429481 230.621552 
L 287.618113 230.62527 
L 287.806744 230.628831 
L 287.995375 230.632329 
L 288.184007 230.635856 
L 288.372638 230.6395 
L 288.56127 230.64335 
L 288.749901 230.647489 
L 288.938533 230.651998 
L 289.127164 230.656956 
L 289.315795 230.662438 
L 289.504427 230.668514 
L 289.693058 230.675255 
L 289.88169 230.682723 
L 290.070321 230.69098 
L 290.258952 230.700082 
L 290.447584 230.710083 
L 290.636215 230.721032 
L 290.824847 230.732974 
L 291.013478 230.74595 
L 291.202109 230.759996 
L 291.390741 230.775144 
L 291.579372 230.791423 
L 291.768004 230.808857 
L 291.956635 230.827464 
L 292.145266 230.84726 
L 292.333898 230.868256 
L 292.522529 230.890457 
L 292.711161 230.913866 
L 292.899792 230.93848 
L 293.088424 230.964292 
L 293.277055 230.991291 
L 293.465686 231.019463 
L 293.654318 231.048787 
L 293.842949 231.07924 
L 294.031581 231.110793 
L 294.220212 231.143417 
L 294.408843 231.177073 
L 294.597475 231.211724 
L 294.786106 231.247326 
L 294.974738 231.283831 
L 295.163369 231.32119 
L 295.352 231.359348 
L 295.540632 231.398247 
L 295.729263 231.437828 
L 295.917895 231.478026 
L 296.106526 231.518774 
L 296.295157 231.560003 
L 296.483789 231.60164 
L 296.67242 231.64361 
L 296.861052 231.685835 
L 297.049683 231.728234 
L 297.238314 231.770726 
L 297.426946 231.813226 
L 297.615577 231.855648 
L 297.804209 231.897902 
L 297.99284 231.939899 
L 298.181472 231.981546 
L 298.370103 232.022752 
L 298.558734 232.06342 
L 298.747366 232.103456 
L 298.935997 232.142762 
L 299.124629 232.181241 
L 299.31326 232.218793 
L 299.501891 232.25532 
L 299.690523 232.290721 
L 299.879154 232.324897 
L 300.067786 232.357745 
L 300.256417 232.389166 
L 300.445048 232.419059 
L 300.63368 232.447321 
L 300.822311 232.473852 
L 301.010943 232.49855 
L 301.199574 232.521316 
L 301.388205 232.542048 
L 301.576837 232.560647 
L 301.765468 232.577013 
L 301.9541 232.591047 
L 302.142731 232.60265 
L 302.331363 232.611726 
L 302.519994 232.618177 
L 302.708625 232.621907 
L 302.897257 232.622821 
L 303.085888 232.620823 
L 303.27452 232.615822 
L 303.463151 232.607723 
L 303.651782 232.596436 
L 303.840414 232.581869 
L 304.029045 232.563933 
L 304.217677 232.54254 
L 304.406308 232.5176 
L 304.594939 232.489029 
L 304.783571 232.45674 
L 304.972202 232.420649 
L 305.160834 232.380671 
L 305.349465 232.336725 
L 305.538096 232.288728 
L 305.726728 232.2366 
L 305.915359 232.180262 
L 306.103991 232.119634 
L 306.292622 232.054638 
L 306.481253 231.985198 
L 306.669885 231.911237 
L 306.858516 231.832681 
L 307.047148 231.749454 
L 307.235779 231.661484 
L 307.424411 231.568697 
L 307.613042 231.471021 
L 307.801673 231.368385 
L 307.990305 231.260719 
L 308.178936 231.147952 
L 308.367568 231.030016 
L 308.556199 230.906843 
L 308.74483 230.778364 
L 308.933462 230.644513 
L 309.122093 230.505224 
L 309.310725 230.360431 
L 309.499356 230.21007 
L 309.687987 230.054077 
L 309.876619 229.892388 
L 310.06525 229.724943 
L 310.253882 229.551679 
L 310.442513 229.372536 
L 310.631144 229.187454 
L 310.819776 228.996377 
L 311.008407 228.799245 
L 311.197039 228.596004 
L 311.38567 228.386598 
L 311.574302 228.170974 
L 311.762933 227.949081 
L 311.951564 227.720867 
L 312.140196 227.486285 
L 312.328827 227.245286 
L 312.517459 226.997827 
L 312.70609 226.743864 
L 312.894721 226.483355 
L 313.083353 226.216263 
L 313.271984 225.942552 
L 313.460616 225.662186 
L 313.649247 225.375137 
L 313.837878 225.081375 
L 314.02651 224.780877 
L 314.215141 224.473619 
L 314.403773 224.159584 
L 314.592404 223.838758 
L 314.781035 223.511128 
L 314.969667 223.176689 
L 315.158298 222.835438 
L 315.34693 222.487375 
L 315.535561 222.132508 
L 315.724192 221.770845 
L 315.912824 221.402404 
L 316.101455 221.027205 
L 316.290087 220.645273 
L 316.478718 220.25664 
L 316.66735 219.861343 
L 316.855981 219.459424 
L 317.044612 219.050932 
L 317.233244 218.635921 
L 317.421875 218.214454 
L 317.610507 217.786596 
L 317.799138 217.352422 
L 317.987769 216.912014 
L 318.176401 216.465457 
L 318.365032 216.012848 
L 318.553664 215.554287 
L 318.742295 215.089884 
L 318.930926 214.619755 
L 319.119558 214.144024 
L 319.308189 213.662821 
L 319.496821 213.176285 
L 319.685452 212.684562 
L 319.874083 212.187807 
L 320.062715 211.68618 
L 320.251346 211.179851 
L 320.439978 210.668997 
L 320.628609 210.153802 
L 320.817241 209.634458 
L 321.005872 209.111165 
L 321.194503 208.584131 
L 321.383135 208.053569 
L 321.571766 207.519703 
L 321.760398 206.982761 
L 321.949029 206.442979 
L 322.13766 205.900603 
L 322.326292 205.35588 
L 322.514923 204.80907 
L 322.703555 204.260435 
L 322.892186 203.710246 
L 323.080817 203.158778 
L 323.269449 202.606314 
L 323.45808 202.053142 
L 323.646712 201.499553 
L 323.835343 200.945848 
L 324.023974 200.392328 
L 324.212606 199.839302 
L 324.401237 199.287081 
L 324.589869 198.735983 
L 324.7785 198.186325 
L 324.967131 197.638431 
L 325.155763 197.092628 
L 325.344394 196.549243 
L 325.533026 196.008606 
L 325.721657 195.471052 
L 325.910289 194.936913 
L 326.09892 194.406524 
L 326.287551 193.880221 
L 326.476183 193.35834 
L 326.664814 192.841216 
L 326.853446 192.329185 
L 327.042077 191.82258 
L 327.230708 191.321734 
L 327.41934 190.826978 
L 327.607971 190.33864 
L 327.796603 189.857044 
L 327.985234 189.382515 
L 328.173865 188.915369 
L 328.362497 188.455923 
L 328.551128 188.004486 
L 328.73976 187.561363 
L 328.928391 187.126855 
L 329.117022 186.701255 
L 329.305654 186.284851 
L 329.494285 185.877924 
L 329.682917 185.48075 
L 329.871548 185.093595 
L 330.06018 184.716719 
L 330.248811 184.350372 
L 330.437442 183.994797 
L 330.626074 183.650228 
L 330.814705 183.316891 
L 331.003337 182.994999 
L 331.191968 182.684759 
L 331.380599 182.386366 
L 331.569231 182.100005 
L 331.757862 181.82585 
L 331.946494 181.564065 
L 332.135125 181.314802 
L 332.323756 181.078202 
L 332.512388 180.854394 
L 332.701019 180.643496 
L 332.889651 180.445615 
L 333.078282 180.260842 
L 333.266913 180.089262 
L 333.455545 179.930942 
L 333.644176 179.785939 
L 333.832808 179.654299 
L 334.021439 179.536053 
L 334.21007 179.431221 
L 334.398702 179.339811 
L 334.587333 179.261816 
L 334.775965 179.197219 
L 334.964596 179.14599 
L 335.153228 179.108086 
L 335.341859 179.083453 
L 335.53049 179.072024 
L 335.719122 179.07372 
L 335.907753 179.088451 
L 336.096385 179.116114 
L 336.285016 179.156595 
L 336.473647 179.209771 
L 336.662279 179.275504 
L 336.85091 179.35365 
L 337.039542 179.444049 
L 337.228173 179.546536 
L 337.416804 179.660934 
L 337.605436 179.787055 
L 337.794067 179.924704 
L 337.982699 180.073677 
L 338.17133 180.233759 
L 338.359961 180.40473 
L 338.548593 180.586361 
L 338.737224 180.778416 
L 338.925856 180.98065 
L 339.114487 181.192815 
L 339.303119 181.414654 
L 339.49175 181.645907 
L 339.680381 181.886305 
L 339.869013 182.135578 
L 340.057644 182.393451 
L 340.246276 182.659643 
L 340.434907 182.933872 
L 340.623538 183.215853 
L 340.81217 183.505296 
L 341.000801 183.801913 
L 341.189433 184.105412 
L 341.378064 184.415501 
L 341.566695 184.731886 
L 341.755327 185.054275 
L 341.943958 185.382375 
L 342.13259 185.715896 
L 342.321221 186.054546 
L 342.509852 186.398037 
L 342.698484 186.746084 
L 342.887115 187.098403 
L 343.075747 187.454713 
L 343.264378 187.814738 
L 343.453009 188.178205 
L 343.641641 188.544845 
L 343.830272 188.914395 
L 344.018904 189.286595 
L 344.207535 189.661192 
L 344.396167 190.037938 
L 344.584798 190.416591 
L 344.773429 190.796917 
L 344.962061 191.178686 
L 345.150692 191.561677 
L 345.339324 191.945675 
L 345.527955 192.330472 
L 345.716586 192.715869 
L 345.905218 193.101675 
L 346.093849 193.487705 
L 346.282481 193.873783 
L 346.471112 194.259743 
L 346.659743 194.645424 
L 346.848375 195.030677 
L 347.037006 195.415359 
L 347.225638 195.799338 
L 347.414269 196.182488 
L 347.6029 196.564694 
L 347.791532 196.945847 
L 347.980163 197.325851 
L 348.168795 197.704614 
L 348.357426 198.082056 
L 348.546058 198.458103 
L 348.734689 198.832691 
L 348.92332 199.205764 
L 349.111952 199.577274 
L 349.300583 199.947181 
L 349.489215 200.315453 
L 349.677846 200.682066 
L 349.866477 201.047002 
L 350.055109 201.410252 
L 350.24374 201.771814 
L 350.432372 202.131692 
L 350.621003 202.489895 
L 350.809634 202.846443 
L 350.998266 203.201357 
L 351.186897 203.554666 
L 351.375529 203.906405 
L 351.56416 204.256613 
L 351.752791 204.605335 
L 351.941423 204.952619 
L 352.130054 205.298519 
L 352.318686 205.64309 
L 352.507317 205.986394 
L 352.695948 206.328494 
L 352.88458 206.669457 
L 353.073211 207.009351 
L 353.261843 207.348247 
L 353.450474 207.686219 
L 353.639106 208.02334 
L 353.827737 208.359687 
L 354.016368 208.695335 
L 354.205 209.030361 
L 354.393631 209.364843 
L 354.582263 209.698857 
L 354.770894 210.032479 
L 354.959525 210.365785 
L 355.148157 210.698849 
L 355.336788 211.031743 
L 355.52542 211.364539 
L 355.714051 211.697307 
L 355.902682 212.030112 
L 356.091314 212.36302 
L 356.279945 212.696091 
L 356.468577 213.029385 
L 356.657208 213.362957 
L 356.845839 213.696859 
L 357.034471 214.031139 
L 357.223102 214.365842 
L 357.411734 214.701007 
L 357.600365 215.036673 
L 357.788997 215.372869 
L 357.977628 215.709626 
L 358.166259 216.046964 
L 358.354891 216.384903 
L 358.543522 216.723457 
L 358.732154 217.062635 
L 358.920785 217.40244 
L 359.109416 217.742872 
L 359.298048 218.083926 
L 359.486679 218.425591 
L 359.675311 218.767851 
L 359.863942 219.110686 
L 360.052573 219.454072 
L 360.241205 219.797977 
L 360.429836 220.142367 
L 360.618468 220.487203 
L 360.807099 220.832441 
L 360.99573 221.178031 
L 361.184362 221.523922 
L 361.372993 221.870055 
L 361.561625 222.21637 
L 361.750256 222.5628 
L 361.938887 222.909277 
L 362.127519 223.255728 
L 362.31615 223.602075 
L 362.504782 223.94824 
L 362.693413 224.294138 
L 362.882045 224.639685 
L 363.070676 224.98479 
L 363.259307 225.329363 
L 363.447939 225.673309 
L 363.63657 226.016532 
L 363.825202 226.358935 
L 364.013833 226.700417 
L 364.202464 227.040877 
L 364.391096 227.380212 
L 364.579727 227.718318 
L 364.768359 228.055092 
L 364.95699 228.390427 
L 365.145621 228.724217 
L 365.334253 229.056357 
L 365.522884 229.386741 
L 365.711516 229.715262 
L 365.900147 230.041816 
L 366.088778 230.366297 
L 366.27741 230.688602 
L 366.466041 231.008628 
L 366.654673 231.326273 
L 366.843304 231.641438 
L 367.031936 231.954022 
L 367.220567 232.26393 
L 367.409198 232.571067 
L 367.59783 232.87534 
L 367.786461 233.176658 
L 367.975093 233.474934 
L 368.163724 233.770081 
L 368.352355 234.062018 
L 368.540987 234.350664 
L 368.729618 234.635942 
L 368.91825 234.917779 
L 369.106881 235.196103 
L 369.295512 235.470847 
L 369.484144 235.741947 
L 369.672775 236.009342 
L 369.861407 236.272975 
L 370.050038 236.532792 
L 370.238669 236.788744 
L 370.427301 237.040782 
L 370.615932 237.288865 
L 370.804564 237.532954 
L 370.993195 237.773013 
L 371.181826 238.00901 
L 371.370458 238.240918 
L 371.559089 238.468712 
L 371.747721 238.692371 
L 371.936352 238.911879 
L 372.124984 239.127221 
L 372.313615 239.33839 
L 372.502246 239.545378 
L 372.690878 239.748183 
L 372.879509 239.946806 
L 373.068141 240.141251 
L 373.256772 240.331526 
L 373.445403 240.517641 
L 373.634035 240.699611 
L 373.822666 240.877453 
L 374.011298 241.051187 
L 374.199929 241.220836 
L 374.38856 241.386426 
L 374.577192 241.547987 
L 374.765823 241.705549 
L 374.954455 241.859146 
L 375.143086 242.008816 
L 375.331717 242.154596 
L 375.520349 242.296527 
L 375.70898 242.434653 
L 375.897612 242.569019 
L 376.086243 242.699672 
L 376.274874 242.826661 
L 376.463506 242.950037 
L 376.652137 243.06985 
L 376.840769 243.186156 
L 377.0294 243.29901 
L 377.218032 243.408466 
L 377.406663 243.514583 
L 377.595294 243.61742 
L 377.783926 243.717035 
L 377.972557 243.813489 
L 378.161189 243.906842 
L 378.34982 243.997157 
L 378.538451 244.084495 
L 378.727083 244.168919 
L 378.915714 244.250491 
L 379.104346 244.329275 
L 379.292977 244.405335 
L 379.481608 244.478732 
L 379.67024 244.549531 
L 379.858871 244.617795 
L 380.047503 244.683588 
L 380.236134 244.746971 
L 380.424765 244.808007 
L 380.613397 244.86676 
L 380.802028 244.92329 
L 380.99066 244.977658 
L 381.179291 245.029926 
L 381.367923 245.080153 
L 381.556554 245.1284 
L 381.745185 245.174723 
L 381.933817 245.219183 
L 382.122448 245.261835 
L 382.31108 245.302737 
L 382.499711 245.341943 
L 382.688342 245.379509 
L 382.876974 245.415487 
L 383.065605 245.44993 
L 383.254237 245.482891 
L 383.442868 245.51442 
L 383.631499 245.544566 
L 383.820131 245.573379 
L 384.008762 245.600905 
L 384.197394 245.627191 
L 384.386025 245.652282 
L 384.574656 245.676224 
L 384.763288 245.699058 
L 384.951919 245.720828 
L 385.140551 245.741574 
L 385.329182 245.761336 
L 385.517813 245.780153 
L 385.706445 245.798062 
L 385.895076 245.815101 
L 386.083708 245.831305 
L 386.272339 245.846709 
L 386.460971 245.861346 
L 386.649602 245.875247 
L 386.838233 245.888446 
L 387.026865 245.900972 
L 387.215496 245.912855 
L 387.404128 245.924122 
L 387.592759 245.934802 
L 387.78139 245.944921 
L 387.970022 245.954504 
L 388.158653 245.963575 
L 388.347285 245.97216 
L 388.535916 245.98028 
L 388.724547 245.987958 
L 388.913179 245.995214 
L 389.10181 246.002069 
L 389.290442 246.008542 
L 389.479073 246.014652 
L 389.667704 246.020418 
L 389.856336 246.025855 
L 390.044967 246.030982 
L 390.233599 246.035813 
L 390.42223 246.040364 
L 390.610862 246.044649 
L 390.799493 246.048682 
L 390.988124 246.052477 
L 391.176756 246.056046 
L 391.365387 246.0594 
L 391.554019 246.062553 
L 391.74265 246.065514 
L 391.931281 246.068294 
L 392.119913 246.070903 
L 392.308544 246.073351 
L 392.497176 246.075646 
L 392.685807 246.077797 
L 392.874438 246.079813 
L 393.06307 246.081701 
L 393.251701 246.083469 
L 393.440333 246.085123 
L 393.628964 246.08667 
L 393.817595 246.088117 
L 394.006227 246.089469 
L 394.194858 246.090733 
L 394.38349 246.091913 
L 394.572121 246.093014 
L 394.760752 246.094042 
L 394.949384 246.095001 
L 395.138015 246.095895 
L 395.326647 246.096728 
L 395.515278 246.097504 
L 395.70391 246.098227 
L 395.892541 246.098899 
L 396.081172 246.099525 
L 396.269804 246.100108 
L 396.458435 246.100649 
L 396.647067 246.101152 
L 396.835698 246.101619 
L 397.024329 246.102053 
L 397.212961 246.102456 
L 397.401592 246.102829 
L 397.590224 246.103176 
L 397.778855 246.103497 
L 397.967486 246.103795 
L 398.156118 246.104071 
L 398.344749 246.104326 
L 398.533381 246.104562 
L 398.722012 246.104781 
L 398.910643 246.104983 
L 399.099275 246.10517 
L 399.287906 246.105343 
L 399.476538 246.105502 
L 399.665169 246.10565 
L 399.853801 246.105785 
L 400.042432 246.105911 
L 400.231063 246.106026 
L 400.419695 246.106133 
L 400.608326 246.106231 
L 400.796958 246.106322 
L 400.985589 246.106405 
L 401.17422 246.106482 
L 401.362852 246.106552 
z
" style="fill:#268bd2;"/>
   </g>
   <g id="line2d_52">
    <g clip-path="url(#p82a4aa97a9)">
     <use style="stroke:#000000;" x="296.140744" xlink:href="#m7d699601f9" y="249.053659"/>
     <use style="stroke:#000000;" x="268.048929" xlink:href="#m7d699601f9" y="249.053659"/>
     <use style="stroke:#000000;" x="269.098991" xlink:href="#m7d699601f9" y="249.053659"/>
     <use style="stroke:#000000;" x="262.254788" xlink:href="#m7d699601f9" y="249.053659"/>
     <use style="stroke:#000000;" x="286.606322" xlink:href="#m7d699601f9" y="249.053659"/>
     <use style="stroke:#000000;" x="246.820444" xlink:href="#m7d699601f9" y="249.053659"/>
     <use style="stroke:#000000;" x="360.468404" xlink:href="#m7d699601f9" y="249.053659"/>
     <use style="stroke:#000000;" x="328.985663" xlink:href="#m7d699601f9" y="249.053659"/>
     <use style="stroke:#000000;" x="342.556634" xlink:href="#m7d699601f9" y="249.053659"/>
     <use style="stroke:#000000;" x="335.41579" xlink:href="#m7d699601f9" y="249.053659"/>
     <use style="stroke:#000000;" x="356.916838" xlink:href="#m7d699601f9" y="249.053659"/>
     <use style="stroke:#000000;" x="312.66735" xlink:href="#m7d699601f9" y="249.053659"/>
     <use style="stroke:#000000;" x="334.498113" xlink:href="#m7d699601f9" y="249.053659"/>
     <use style="stroke:#000000;" x="333.723775" xlink:href="#m7d699601f9" y="249.053659"/>
     <use style="stroke:#000000;" x="352.79197" xlink:href="#m7d699601f9" y="249.053659"/>
     <use style="stroke:#000000;" x="324.730822" xlink:href="#m7d699601f9" y="249.053659"/>
     <use style="stroke:#000000;" x="336.382403" xlink:href="#m7d699601f9" y="249.053659"/>
     <use style="stroke:#000000;" x="327.520188" xlink:href="#m7d699601f9" y="249.053659"/>
     <use style="stroke:#000000;" x="339.078918" xlink:href="#m7d699601f9" y="249.053659"/>
     <use style="stroke:#000000;" x="345.870414" xlink:href="#m7d699601f9" y="249.053659"/>
    </g>
   </g>
   <g id="patch_38">
    <path d="M 225.482927 252 
L 225.482927 145.931707 
" style="fill:none;stroke:#eee8d5;stroke-linecap:square;stroke-linejoin:miter;stroke-width:0.8;"/>
   </g>
   <g id="patch_39">
    <path d="M 388.8 252 
L 388.8 145.931707 
" style="fill:none;stroke:#eee8d5;stroke-linecap:square;stroke-linejoin:miter;stroke-width:0.8;"/>
   </g>
   <g id="patch_40">
    <path d="M 225.482927 252 
L 388.8 252 
" style="fill:none;stroke:#eee8d5;stroke-linecap:square;stroke-linejoin:miter;stroke-width:0.8;"/>
   </g>
   <g id="patch_41">
    <path d="M 225.482927 145.931707 
L 388.8 145.931707 
" style="fill:none;stroke:#eee8d5;stroke-linecap:square;stroke-linejoin:miter;stroke-width:0.8;"/>
   </g>
   <g id="text_20">
    <!-- Gaussian Kernel Density -->
    <g transform="translate(231.764353 154.770732)scale(0.1 -0.1)">
     <defs>
      <path d="M 3809 666 
L 3809 1919 
L 2778 1919 
L 2778 2438 
L 4434 2438 
L 4434 434 
Q 4069 175 3628 42 
Q 3188 -91 2688 -91 
Q 1594 -91 976 548 
Q 359 1188 359 2328 
Q 359 3472 976 4111 
Q 1594 4750 2688 4750 
Q 3144 4750 3555 4637 
Q 3966 4525 4313 4306 
L 4313 3634 
Q 3963 3931 3569 4081 
Q 3175 4231 2741 4231 
Q 1884 4231 1454 3753 
Q 1025 3275 1025 2328 
Q 1025 1384 1454 906 
Q 1884 428 2741 428 
Q 3075 428 3337 486 
Q 3600 544 3809 666 
z
" id="DejaVuSans-47" transform="scale(0.015625)"/>
      <path d="M 544 1381 
L 544 3500 
L 1119 3500 
L 1119 1403 
Q 1119 906 1312 657 
Q 1506 409 1894 409 
Q 2359 409 2629 706 
Q 2900 1003 2900 1516 
L 2900 3500 
L 3475 3500 
L 3475 0 
L 2900 0 
L 2900 538 
Q 2691 219 2414 64 
Q 2138 -91 1772 -91 
Q 1169 -91 856 284 
Q 544 659 544 1381 
z
M 1991 3584 
L 1991 3584 
z
" id="DejaVuSans-75" transform="scale(0.015625)"/>
     </defs>
     <use xlink:href="#DejaVuSans-47"/>
     <use x="77.490234" xlink:href="#DejaVuSans-61"/>
     <use x="138.769531" xlink:href="#DejaVuSans-75"/>
     <use x="202.148438" xlink:href="#DejaVuSans-73"/>
     <use x="254.248047" xlink:href="#DejaVuSans-73"/>
     <use x="306.347656" xlink:href="#DejaVuSans-69"/>
     <use x="334.130859" xlink:href="#DejaVuSans-61"/>
     <use x="395.410156" xlink:href="#DejaVuSans-6e"/>
     <use x="458.789062" xlink:href="#DejaVuSans-20"/>
     <use x="490.576172" xlink:href="#DejaVuSans-4b"/>
     <use x="551.152344" xlink:href="#DejaVuSans-65"/>
     <use x="612.675781" xlink:href="#DejaVuSans-72"/>
     <use x="652.039062" xlink:href="#DejaVuSans-6e"/>
     <use x="715.417969" xlink:href="#DejaVuSans-65"/>
     <use x="776.941406" xlink:href="#DejaVuSans-6c"/>
     <use x="804.724609" xlink:href="#DejaVuSans-20"/>
     <use x="836.511719" xlink:href="#DejaVuSans-44"/>
     <use x="913.513672" xlink:href="#DejaVuSans-65"/>
     <use x="975.037109" xlink:href="#DejaVuSans-6e"/>
     <use x="1038.416016" xlink:href="#DejaVuSans-73"/>
     <use x="1090.515625" xlink:href="#DejaVuSans-69"/>
     <use x="1118.298828" xlink:href="#DejaVuSans-74"/>
     <use x="1157.507812" xlink:href="#DejaVuSans-79"/>
    </g>
   </g>
  </g>
 </g>
 <defs>
  <clipPath id="p2fe7145d21">
   <rect height="106.068293" width="163.317073" x="54" y="34.56"/>
  </clipPath>
  <clipPath id="pa63c7e4a99">
   <rect height="106.068293" width="163.317073" x="225.482927" y="34.56"/>
  </clipPath>
  <clipPath id="pb0ca71a07b">
   <rect height="106.068293" width="163.317073" x="54" y="145.931707"/>
  </clipPath>
  <clipPath id="p82a4aa97a9">
   <rect height="106.068293" width="163.317073" x="225.482927" y="145.931707"/>
  </clipPath>
 </defs>
</svg>
