<?xml version="1.0" encoding="utf-8" standalone="no"?>
<!DOCTYPE svg PUBLIC "-//W3C//DTD SVG 1.1//EN"
  "http://www.w3.org/Graphics/SVG/1.1/DTD/svg11.dtd">
<svg height="288pt" version="1.1" viewBox="0 0 432 288" width="432pt" xmlns="http://www.w3.org/2000/svg" xmlns:xlink="http://www.w3.org/1999/xlink">
 <metadata>
  <rdf:RDF xmlns:cc="http://creativecommons.org/ns#" xmlns:dc="http://purl.org/dc/elements/1.1/" xmlns:rdf="http://www.w3.org/1999/02/22-rdf-syntax-ns#">
   <cc:Work>
    <dc:type rdf:resource="http://purl.org/dc/dcmitype/StillImage"/>
    <dc:date>2021-10-19T20:09:15.994997</dc:date>
    <dc:format>image/svg+xml</dc:format>
    <dc:creator>
     <cc:Agent>
      <dc:title>Matplotlib v3.4.3, https://matplotlib.org/</dc:title>
     </cc:Agent>
    </dc:creator>
   </cc:Work>
  </rdf:RDF>
 </metadata>
 <defs>
  <style type="text/css">*{stroke-linecap:butt;stroke-linejoin:round;}</style>
 </defs>
 <g id="figure_1">
  <g id="patch_1">
   <path d="M 0 288 
L 432 288 
L 432 0 
L 0 0 
z
" style="fill:none;"/>
  </g>
  <g id="axes_1">
   <g id="patch_2">
    <path d="M 54 252 
L 388.8 252 
L 388.8 34.56 
L 54 34.56 
z
" style="fill:none;"/>
   </g>
   <g id="matplotlib.axis_1">
    <g id="xtick_1">
     <g id="line2d_1">
      <path clip-path="url(#p3f1afd2624)" d="M 54 252 
L 54 34.56 
" style="fill:none;stroke:#fdf6e3;"/>
     </g>
     <g id="line2d_2">
      <defs>
       <path d="M 0 0 
L 0 3.5 
" id="m7fa76f2ef2" style="stroke:#657b83;stroke-width:0.8;"/>
      </defs>
      <g>
       <use style="fill:#657b83;stroke:#657b83;stroke-width:0.8;" x="54" xlink:href="#m7fa76f2ef2" y="252"/>
      </g>
     </g>
     <g id="text_1">
      <!-- −4 -->
      <g style="fill:#657b83;" transform="translate(46.628906 266.598437)scale(0.1 -0.1)">
       <defs>
        <path d="M 678 2272 
L 4684 2272 
L 4684 1741 
L 678 1741 
L 678 2272 
z
" id="DejaVuSans-2212" transform="scale(0.015625)"/>
        <path d="M 2419 4116 
L 825 1625 
L 2419 1625 
L 2419 4116 
z
M 2253 4666 
L 3047 4666 
L 3047 1625 
L 3713 1625 
L 3713 1100 
L 3047 1100 
L 3047 0 
L 2419 0 
L 2419 1100 
L 313 1100 
L 313 1709 
L 2253 4666 
z
" id="DejaVuSans-34" transform="scale(0.015625)"/>
       </defs>
       <use xlink:href="#DejaVuSans-2212"/>
       <use x="83.789062" xlink:href="#DejaVuSans-34"/>
      </g>
     </g>
    </g>
    <g id="xtick_2">
     <g id="line2d_3">
      <path clip-path="url(#p3f1afd2624)" d="M 105.507692 252 
L 105.507692 34.56 
" style="fill:none;stroke:#fdf6e3;"/>
     </g>
     <g id="line2d_4">
      <g>
       <use style="fill:#657b83;stroke:#657b83;stroke-width:0.8;" x="105.507692" xlink:href="#m7fa76f2ef2" y="252"/>
      </g>
     </g>
     <g id="text_2">
      <!-- −2 -->
      <g style="fill:#657b83;" transform="translate(98.136599 266.598437)scale(0.1 -0.1)">
       <defs>
        <path d="M 1228 531 
L 3431 531 
L 3431 0 
L 469 0 
L 469 531 
Q 828 903 1448 1529 
Q 2069 2156 2228 2338 
Q 2531 2678 2651 2914 
Q 2772 3150 2772 3378 
Q 2772 3750 2511 3984 
Q 2250 4219 1831 4219 
Q 1534 4219 1204 4116 
Q 875 4013 500 3803 
L 500 4441 
Q 881 4594 1212 4672 
Q 1544 4750 1819 4750 
Q 2544 4750 2975 4387 
Q 3406 4025 3406 3419 
Q 3406 3131 3298 2873 
Q 3191 2616 2906 2266 
Q 2828 2175 2409 1742 
Q 1991 1309 1228 531 
z
" id="DejaVuSans-32" transform="scale(0.015625)"/>
       </defs>
       <use xlink:href="#DejaVuSans-2212"/>
       <use x="83.789062" xlink:href="#DejaVuSans-32"/>
      </g>
     </g>
    </g>
    <g id="xtick_3">
     <g id="line2d_5">
      <path clip-path="url(#p3f1afd2624)" d="M 157.015385 252 
L 157.015385 34.56 
" style="fill:none;stroke:#fdf6e3;"/>
     </g>
     <g id="line2d_6">
      <g>
       <use style="fill:#657b83;stroke:#657b83;stroke-width:0.8;" x="157.015385" xlink:href="#m7fa76f2ef2" y="252"/>
      </g>
     </g>
     <g id="text_3">
      <!-- 0 -->
      <g style="fill:#657b83;" transform="translate(153.834135 266.598437)scale(0.1 -0.1)">
       <defs>
        <path d="M 2034 4250 
Q 1547 4250 1301 3770 
Q 1056 3291 1056 2328 
Q 1056 1369 1301 889 
Q 1547 409 2034 409 
Q 2525 409 2770 889 
Q 3016 1369 3016 2328 
Q 3016 3291 2770 3770 
Q 2525 4250 2034 4250 
z
M 2034 4750 
Q 2819 4750 3233 4129 
Q 3647 3509 3647 2328 
Q 3647 1150 3233 529 
Q 2819 -91 2034 -91 
Q 1250 -91 836 529 
Q 422 1150 422 2328 
Q 422 3509 836 4129 
Q 1250 4750 2034 4750 
z
" id="DejaVuSans-30" transform="scale(0.015625)"/>
       </defs>
       <use xlink:href="#DejaVuSans-30"/>
      </g>
     </g>
    </g>
    <g id="xtick_4">
     <g id="line2d_7">
      <path clip-path="url(#p3f1afd2624)" d="M 208.523077 252 
L 208.523077 34.56 
" style="fill:none;stroke:#fdf6e3;"/>
     </g>
     <g id="line2d_8">
      <g>
       <use style="fill:#657b83;stroke:#657b83;stroke-width:0.8;" x="208.523077" xlink:href="#m7fa76f2ef2" y="252"/>
      </g>
     </g>
     <g id="text_4">
      <!-- 2 -->
      <g style="fill:#657b83;" transform="translate(205.341827 266.598437)scale(0.1 -0.1)">
       <use xlink:href="#DejaVuSans-32"/>
      </g>
     </g>
    </g>
    <g id="xtick_5">
     <g id="line2d_9">
      <path clip-path="url(#p3f1afd2624)" d="M 260.030769 252 
L 260.030769 34.56 
" style="fill:none;stroke:#fdf6e3;"/>
     </g>
     <g id="line2d_10">
      <g>
       <use style="fill:#657b83;stroke:#657b83;stroke-width:0.8;" x="260.030769" xlink:href="#m7fa76f2ef2" y="252"/>
      </g>
     </g>
     <g id="text_5">
      <!-- 4 -->
      <g style="fill:#657b83;" transform="translate(256.849519 266.598437)scale(0.1 -0.1)">
       <use xlink:href="#DejaVuSans-34"/>
      </g>
     </g>
    </g>
    <g id="xtick_6">
     <g id="line2d_11">
      <path clip-path="url(#p3f1afd2624)" d="M 311.538462 252 
L 311.538462 34.56 
" style="fill:none;stroke:#fdf6e3;"/>
     </g>
     <g id="line2d_12">
      <g>
       <use style="fill:#657b83;stroke:#657b83;stroke-width:0.8;" x="311.538462" xlink:href="#m7fa76f2ef2" y="252"/>
      </g>
     </g>
     <g id="text_6">
      <!-- 6 -->
      <g style="fill:#657b83;" transform="translate(308.357212 266.598437)scale(0.1 -0.1)">
       <defs>
        <path d="M 2113 2584 
Q 1688 2584 1439 2293 
Q 1191 2003 1191 1497 
Q 1191 994 1439 701 
Q 1688 409 2113 409 
Q 2538 409 2786 701 
Q 3034 994 3034 1497 
Q 3034 2003 2786 2293 
Q 2538 2584 2113 2584 
z
M 3366 4563 
L 3366 3988 
Q 3128 4100 2886 4159 
Q 2644 4219 2406 4219 
Q 1781 4219 1451 3797 
Q 1122 3375 1075 2522 
Q 1259 2794 1537 2939 
Q 1816 3084 2150 3084 
Q 2853 3084 3261 2657 
Q 3669 2231 3669 1497 
Q 3669 778 3244 343 
Q 2819 -91 2113 -91 
Q 1303 -91 875 529 
Q 447 1150 447 2328 
Q 447 3434 972 4092 
Q 1497 4750 2381 4750 
Q 2619 4750 2861 4703 
Q 3103 4656 3366 4563 
z
" id="DejaVuSans-36" transform="scale(0.015625)"/>
       </defs>
       <use xlink:href="#DejaVuSans-36"/>
      </g>
     </g>
    </g>
    <g id="xtick_7">
     <g id="line2d_13">
      <path clip-path="url(#p3f1afd2624)" d="M 363.046154 252 
L 363.046154 34.56 
" style="fill:none;stroke:#fdf6e3;"/>
     </g>
     <g id="line2d_14">
      <g>
       <use style="fill:#657b83;stroke:#657b83;stroke-width:0.8;" x="363.046154" xlink:href="#m7fa76f2ef2" y="252"/>
      </g>
     </g>
     <g id="text_7">
      <!-- 8 -->
      <g style="fill:#657b83;" transform="translate(359.864904 266.598437)scale(0.1 -0.1)">
       <defs>
        <path d="M 2034 2216 
Q 1584 2216 1326 1975 
Q 1069 1734 1069 1313 
Q 1069 891 1326 650 
Q 1584 409 2034 409 
Q 2484 409 2743 651 
Q 3003 894 3003 1313 
Q 3003 1734 2745 1975 
Q 2488 2216 2034 2216 
z
M 1403 2484 
Q 997 2584 770 2862 
Q 544 3141 544 3541 
Q 544 4100 942 4425 
Q 1341 4750 2034 4750 
Q 2731 4750 3128 4425 
Q 3525 4100 3525 3541 
Q 3525 3141 3298 2862 
Q 3072 2584 2669 2484 
Q 3125 2378 3379 2068 
Q 3634 1759 3634 1313 
Q 3634 634 3220 271 
Q 2806 -91 2034 -91 
Q 1263 -91 848 271 
Q 434 634 434 1313 
Q 434 1759 690 2068 
Q 947 2378 1403 2484 
z
M 1172 3481 
Q 1172 3119 1398 2916 
Q 1625 2713 2034 2713 
Q 2441 2713 2670 2916 
Q 2900 3119 2900 3481 
Q 2900 3844 2670 4047 
Q 2441 4250 2034 4250 
Q 1625 4250 1398 4047 
Q 1172 3844 1172 3481 
z
" id="DejaVuSans-38" transform="scale(0.015625)"/>
       </defs>
       <use xlink:href="#DejaVuSans-38"/>
      </g>
     </g>
    </g>
   </g>
   <g id="matplotlib.axis_2">
    <g id="ytick_1">
     <g id="line2d_15">
      <path clip-path="url(#p3f1afd2624)" d="M 54 241.645714 
L 388.8 241.645714 
" style="fill:none;stroke:#fdf6e3;"/>
     </g>
     <g id="line2d_16">
      <defs>
       <path d="M 0 0 
L -3.5 0 
" id="m031509b424" style="stroke:#657b83;stroke-width:0.8;"/>
      </defs>
      <g>
       <use style="fill:#657b83;stroke:#657b83;stroke-width:0.8;" x="54" xlink:href="#m031509b424" y="241.645714"/>
      </g>
     </g>
     <g id="text_8">
      <!-- 0.00 -->
      <g style="fill:#657b83;" transform="translate(24.734375 245.444933)scale(0.1 -0.1)">
       <defs>
        <path d="M 684 794 
L 1344 794 
L 1344 0 
L 684 0 
L 684 794 
z
" id="DejaVuSans-2e" transform="scale(0.015625)"/>
       </defs>
       <use xlink:href="#DejaVuSans-30"/>
       <use x="63.623047" xlink:href="#DejaVuSans-2e"/>
       <use x="95.410156" xlink:href="#DejaVuSans-30"/>
       <use x="159.033203" xlink:href="#DejaVuSans-30"/>
      </g>
     </g>
    </g>
    <g id="ytick_2">
     <g id="line2d_17">
      <path clip-path="url(#p3f1afd2624)" d="M 54 215.76 
L 388.8 215.76 
" style="fill:none;stroke:#fdf6e3;"/>
     </g>
     <g id="line2d_18">
      <g>
       <use style="fill:#657b83;stroke:#657b83;stroke-width:0.8;" x="54" xlink:href="#m031509b424" y="215.76"/>
      </g>
     </g>
     <g id="text_9">
      <!-- 0.05 -->
      <g style="fill:#657b83;" transform="translate(24.734375 219.559219)scale(0.1 -0.1)">
       <defs>
        <path d="M 691 4666 
L 3169 4666 
L 3169 4134 
L 1269 4134 
L 1269 2991 
Q 1406 3038 1543 3061 
Q 1681 3084 1819 3084 
Q 2600 3084 3056 2656 
Q 3513 2228 3513 1497 
Q 3513 744 3044 326 
Q 2575 -91 1722 -91 
Q 1428 -91 1123 -41 
Q 819 9 494 109 
L 494 744 
Q 775 591 1075 516 
Q 1375 441 1709 441 
Q 2250 441 2565 725 
Q 2881 1009 2881 1497 
Q 2881 1984 2565 2268 
Q 2250 2553 1709 2553 
Q 1456 2553 1204 2497 
Q 953 2441 691 2322 
L 691 4666 
z
" id="DejaVuSans-35" transform="scale(0.015625)"/>
       </defs>
       <use xlink:href="#DejaVuSans-30"/>
       <use x="63.623047" xlink:href="#DejaVuSans-2e"/>
       <use x="95.410156" xlink:href="#DejaVuSans-30"/>
       <use x="159.033203" xlink:href="#DejaVuSans-35"/>
      </g>
     </g>
    </g>
    <g id="ytick_3">
     <g id="line2d_19">
      <path clip-path="url(#p3f1afd2624)" d="M 54 189.874286 
L 388.8 189.874286 
" style="fill:none;stroke:#fdf6e3;"/>
     </g>
     <g id="line2d_20">
      <g>
       <use style="fill:#657b83;stroke:#657b83;stroke-width:0.8;" x="54" xlink:href="#m031509b424" y="189.874286"/>
      </g>
     </g>
     <g id="text_10">
      <!-- 0.10 -->
      <g style="fill:#657b83;" transform="translate(24.734375 193.673504)scale(0.1 -0.1)">
       <defs>
        <path d="M 794 531 
L 1825 531 
L 1825 4091 
L 703 3866 
L 703 4441 
L 1819 4666 
L 2450 4666 
L 2450 531 
L 3481 531 
L 3481 0 
L 794 0 
L 794 531 
z
" id="DejaVuSans-31" transform="scale(0.015625)"/>
       </defs>
       <use xlink:href="#DejaVuSans-30"/>
       <use x="63.623047" xlink:href="#DejaVuSans-2e"/>
       <use x="95.410156" xlink:href="#DejaVuSans-31"/>
       <use x="159.033203" xlink:href="#DejaVuSans-30"/>
      </g>
     </g>
    </g>
    <g id="ytick_4">
     <g id="line2d_21">
      <path clip-path="url(#p3f1afd2624)" d="M 54 163.988571 
L 388.8 163.988571 
" style="fill:none;stroke:#fdf6e3;"/>
     </g>
     <g id="line2d_22">
      <g>
       <use style="fill:#657b83;stroke:#657b83;stroke-width:0.8;" x="54" xlink:href="#m031509b424" y="163.988571"/>
      </g>
     </g>
     <g id="text_11">
      <!-- 0.15 -->
      <g style="fill:#657b83;" transform="translate(24.734375 167.78779)scale(0.1 -0.1)">
       <use xlink:href="#DejaVuSans-30"/>
       <use x="63.623047" xlink:href="#DejaVuSans-2e"/>
       <use x="95.410156" xlink:href="#DejaVuSans-31"/>
       <use x="159.033203" xlink:href="#DejaVuSans-35"/>
      </g>
     </g>
    </g>
    <g id="ytick_5">
     <g id="line2d_23">
      <path clip-path="url(#p3f1afd2624)" d="M 54 138.102857 
L 388.8 138.102857 
" style="fill:none;stroke:#fdf6e3;"/>
     </g>
     <g id="line2d_24">
      <g>
       <use style="fill:#657b83;stroke:#657b83;stroke-width:0.8;" x="54" xlink:href="#m031509b424" y="138.102857"/>
      </g>
     </g>
     <g id="text_12">
      <!-- 0.20 -->
      <g style="fill:#657b83;" transform="translate(24.734375 141.902076)scale(0.1 -0.1)">
       <use xlink:href="#DejaVuSans-30"/>
       <use x="63.623047" xlink:href="#DejaVuSans-2e"/>
       <use x="95.410156" xlink:href="#DejaVuSans-32"/>
       <use x="159.033203" xlink:href="#DejaVuSans-30"/>
      </g>
     </g>
    </g>
    <g id="ytick_6">
     <g id="line2d_25">
      <path clip-path="url(#p3f1afd2624)" d="M 54 112.217143 
L 388.8 112.217143 
" style="fill:none;stroke:#fdf6e3;"/>
     </g>
     <g id="line2d_26">
      <g>
       <use style="fill:#657b83;stroke:#657b83;stroke-width:0.8;" x="54" xlink:href="#m031509b424" y="112.217143"/>
      </g>
     </g>
     <g id="text_13">
      <!-- 0.25 -->
      <g style="fill:#657b83;" transform="translate(24.734375 116.016362)scale(0.1 -0.1)">
       <use xlink:href="#DejaVuSans-30"/>
       <use x="63.623047" xlink:href="#DejaVuSans-2e"/>
       <use x="95.410156" xlink:href="#DejaVuSans-32"/>
       <use x="159.033203" xlink:href="#DejaVuSans-35"/>
      </g>
     </g>
    </g>
    <g id="ytick_7">
     <g id="line2d_27">
      <path clip-path="url(#p3f1afd2624)" d="M 54 86.331429 
L 388.8 86.331429 
" style="fill:none;stroke:#fdf6e3;"/>
     </g>
     <g id="line2d_28">
      <g>
       <use style="fill:#657b83;stroke:#657b83;stroke-width:0.8;" x="54" xlink:href="#m031509b424" y="86.331429"/>
      </g>
     </g>
     <g id="text_14">
      <!-- 0.30 -->
      <g style="fill:#657b83;" transform="translate(24.734375 90.130647)scale(0.1 -0.1)">
       <defs>
        <path d="M 2597 2516 
Q 3050 2419 3304 2112 
Q 3559 1806 3559 1356 
Q 3559 666 3084 287 
Q 2609 -91 1734 -91 
Q 1441 -91 1130 -33 
Q 819 25 488 141 
L 488 750 
Q 750 597 1062 519 
Q 1375 441 1716 441 
Q 2309 441 2620 675 
Q 2931 909 2931 1356 
Q 2931 1769 2642 2001 
Q 2353 2234 1838 2234 
L 1294 2234 
L 1294 2753 
L 1863 2753 
Q 2328 2753 2575 2939 
Q 2822 3125 2822 3475 
Q 2822 3834 2567 4026 
Q 2313 4219 1838 4219 
Q 1578 4219 1281 4162 
Q 984 4106 628 3988 
L 628 4550 
Q 988 4650 1302 4700 
Q 1616 4750 1894 4750 
Q 2613 4750 3031 4423 
Q 3450 4097 3450 3541 
Q 3450 3153 3228 2886 
Q 3006 2619 2597 2516 
z
" id="DejaVuSans-33" transform="scale(0.015625)"/>
       </defs>
       <use xlink:href="#DejaVuSans-30"/>
       <use x="63.623047" xlink:href="#DejaVuSans-2e"/>
       <use x="95.410156" xlink:href="#DejaVuSans-33"/>
       <use x="159.033203" xlink:href="#DejaVuSans-30"/>
      </g>
     </g>
    </g>
    <g id="ytick_8">
     <g id="line2d_29">
      <path clip-path="url(#p3f1afd2624)" d="M 54 60.445714 
L 388.8 60.445714 
" style="fill:none;stroke:#fdf6e3;"/>
     </g>
     <g id="line2d_30">
      <g>
       <use style="fill:#657b83;stroke:#657b83;stroke-width:0.8;" x="54" xlink:href="#m031509b424" y="60.445714"/>
      </g>
     </g>
     <g id="text_15">
      <!-- 0.35 -->
      <g style="fill:#657b83;" transform="translate(24.734375 64.244933)scale(0.1 -0.1)">
       <use xlink:href="#DejaVuSans-30"/>
       <use x="63.623047" xlink:href="#DejaVuSans-2e"/>
       <use x="95.410156" xlink:href="#DejaVuSans-33"/>
       <use x="159.033203" xlink:href="#DejaVuSans-35"/>
      </g>
     </g>
    </g>
    <g id="ytick_9">
     <g id="line2d_31">
      <path clip-path="url(#p3f1afd2624)" d="M 54 34.56 
L 388.8 34.56 
" style="fill:none;stroke:#fdf6e3;"/>
     </g>
     <g id="line2d_32">
      <g>
       <use style="fill:#657b83;stroke:#657b83;stroke-width:0.8;" x="54" xlink:href="#m031509b424" y="34.56"/>
      </g>
     </g>
     <g id="text_16">
      <!-- 0.40 -->
      <g style="fill:#657b83;" transform="translate(24.734375 38.359219)scale(0.1 -0.1)">
       <use xlink:href="#DejaVuSans-30"/>
       <use x="63.623047" xlink:href="#DejaVuSans-2e"/>
       <use x="95.410156" xlink:href="#DejaVuSans-34"/>
       <use x="159.033203" xlink:href="#DejaVuSans-30"/>
      </g>
     </g>
    </g>
   </g>
   <g id="patch_3">
    <path clip-path="url(#p3f1afd2624)" d="M 28.246154 241.645483 
L 28.632848 241.645465 
L 29.019543 241.645446 
L 29.406237 241.645425 
L 29.792931 241.645403 
L 30.179626 241.645379 
L 30.56632 241.645353 
L 30.953015 241.645326 
L 31.339709 241.645296 
L 31.726403 241.645265 
L 32.113098 241.645231 
L 32.499792 241.645194 
L 32.886486 241.645155 
L 33.273181 241.645113 
L 33.659875 241.645068 
L 34.04657 241.64502 
L 34.433264 241.644969 
L 34.819958 241.644913 
L 35.206653 241.644854 
L 35.593347 241.644791 
L 35.980042 241.644724 
L 36.366736 241.644651 
L 36.75343 241.644574 
L 37.140125 241.644491 
L 37.526819 241.644403 
L 37.913514 241.644308 
L 38.300208 241.644207 
L 38.686902 241.6441 
L 39.073597 241.643985 
L 39.460291 241.643862 
L 39.846985 241.64373 
L 40.23368 241.64359 
L 40.620374 241.643441 
L 41.007069 241.643282 
L 41.393763 241.643112 
L 41.780457 241.642931 
L 42.167152 241.642737 
L 42.553846 241.642532 
L 42.940541 241.642312 
L 43.327235 241.642079 
L 43.713929 241.64183 
L 44.100624 241.641565 
L 44.487318 241.641284 
L 44.874012 241.640984 
L 45.260707 241.640665 
L 45.647401 241.640325 
L 46.034096 241.639964 
L 46.42079 241.639581 
L 46.807484 241.639173 
L 47.194179 241.63874 
L 47.580873 241.638279 
L 47.967568 241.63779 
L 48.354262 241.637271 
L 48.740956 241.63672 
L 49.127651 241.636135 
L 49.514345 241.635514 
L 49.90104 241.634856 
L 50.287734 241.634157 
L 50.674428 241.633417 
L 51.061123 241.632631 
L 51.447817 241.631799 
L 51.834511 241.630918 
L 52.221206 241.629984 
L 52.6079 241.628995 
L 52.994595 241.627947 
L 53.381289 241.626838 
L 53.767983 241.625665 
L 54.154678 241.624424 
L 54.541372 241.62311 
L 54.928067 241.621721 
L 55.314761 241.620253 
L 55.701455 241.6187 
L 56.08815 241.61706 
L 56.474844 241.615327 
L 56.861538 241.613496 
L 57.248233 241.611562 
L 57.634927 241.609521 
L 58.021622 241.607366 
L 58.408316 241.605093 
L 58.79501 241.602694 
L 59.181705 241.600163 
L 59.568399 241.597495 
L 59.955094 241.594682 
L 60.341788 241.591717 
L 60.728482 241.588593 
L 61.115177 241.585301 
L 61.501871 241.581834 
L 61.888565 241.578184 
L 62.27526 241.574341 
L 62.661954 241.570296 
L 63.048649 241.56604 
L 63.435343 241.561563 
L 63.822037 241.556854 
L 64.208732 241.551903 
L 64.595426 241.546698 
L 64.982121 241.541228 
L 65.368815 241.535481 
L 65.755509 241.529444 
L 66.142204 241.523104 
L 66.528898 241.516447 
L 66.915593 241.50946 
L 67.302287 241.502128 
L 67.688981 241.494435 
L 68.075676 241.486365 
L 68.46237 241.477903 
L 68.849064 241.469032 
L 69.235759 241.459733 
L 69.622453 241.44999 
L 70.009148 241.439782 
L 70.395842 241.429091 
L 70.782536 241.417896 
L 71.169231 241.406176 
L 71.555925 241.393911 
L 71.94262 241.381077 
L 72.329314 241.367651 
L 72.716008 241.353611 
L 73.102703 241.33893 
L 73.489397 241.323585 
L 73.876091 241.307548 
L 74.262786 241.290792 
L 74.64948 241.273291 
L 75.036175 241.255014 
L 75.422869 241.235933 
L 75.809563 241.216017 
L 76.196258 241.195235 
L 76.582952 241.173554 
L 76.969647 241.150941 
L 77.356341 241.127362 
L 77.743035 241.102782 
L 78.12973 241.077164 
L 78.516424 241.050472 
L 78.903119 241.022667 
L 79.289813 240.99371 
L 79.676507 240.963561 
L 80.063202 240.932179 
L 80.449896 240.899522 
L 80.83659 240.865546 
L 81.223285 240.830207 
L 81.609979 240.793459 
L 81.996674 240.755256 
L 82.383368 240.71555 
L 82.770062 240.674293 
L 83.156757 240.631434 
L 83.543451 240.586924 
L 83.930146 240.540709 
L 84.31684 240.492737 
L 84.703534 240.442953 
L 85.090229 240.391303 
L 85.476923 240.33773 
L 85.863617 240.282176 
L 86.250312 240.224583 
L 86.637006 240.164891 
L 87.023701 240.10304 
L 87.410395 240.038968 
L 87.797089 239.972612 
L 88.183784 239.903908 
L 88.570478 239.832792 
L 88.957173 239.759198 
L 89.343867 239.683058 
L 89.730561 239.604306 
L 90.117256 239.522873 
L 90.50395 239.438689 
L 90.890644 239.351683 
L 91.277339 239.261785 
L 91.664033 239.168923 
L 92.050728 239.073024 
L 92.437422 238.974014 
L 92.824116 238.871818 
L 93.210811 238.766363 
L 93.597505 238.657573 
L 93.9842 238.545372 
L 94.370894 238.429682 
L 94.757588 238.310427 
L 95.144283 238.187531 
L 95.530977 238.060913 
L 95.917672 237.930498 
L 96.304366 237.796206 
L 96.69106 237.65796 
L 97.077755 237.515679 
L 97.464449 237.369286 
L 97.851143 237.218703 
L 98.237838 237.06385 
L 98.624532 236.904649 
L 99.011227 236.741023 
L 99.397921 236.572894 
L 99.784615 236.400184 
L 100.17131 236.222816 
L 100.558004 236.040715 
L 100.944699 235.853805 
L 101.331393 235.662011 
L 101.718087 235.46526 
L 102.104782 235.263479 
L 102.491476 235.056595 
L 102.87817 234.844538 
L 103.264865 234.62724 
L 103.651559 234.404631 
L 104.038254 234.176646 
L 104.424948 233.943219 
L 104.811642 233.704288 
L 105.198337 233.459791 
L 105.585031 233.209669 
L 105.971726 232.953864 
L 106.35842 232.69232 
L 106.745114 232.424987 
L 107.131809 232.151811 
L 107.518503 231.872746 
L 107.905198 231.587746 
L 108.291892 231.296768 
L 108.678586 230.999772 
L 109.065281 230.696722 
L 109.451975 230.387584 
L 109.838669 230.072327 
L 110.225364 229.750924 
L 110.612058 229.423351 
L 110.998753 229.089588 
L 111.385447 228.749619 
L 111.772141 228.40343 
L 112.158836 228.051014 
L 112.54553 227.692365 
L 112.932225 227.327482 
L 113.318919 226.95637 
L 113.705613 226.579036 
L 114.092308 226.195493 
L 114.479002 225.805759 
L 114.865696 225.409853 
L 115.252391 225.007804 
L 115.639085 224.599642 
L 116.02578 224.185405 
L 116.412474 223.765132 
L 116.799168 223.338871 
L 117.185863 222.906674 
L 117.572557 222.468597 
L 117.959252 222.024703 
L 118.345946 221.575059 
L 118.73264 221.119739 
L 119.119335 220.658823 
L 119.506029 220.192393 
L 119.892723 219.72054 
L 120.279418 219.243361 
L 120.666112 218.760956 
L 121.052807 218.273433 
L 121.439501 217.780906 
L 121.826195 217.283492 
L 122.21289 216.781317 
L 122.599584 216.274511 
L 122.986279 215.763211 
L 123.372973 215.24756 
L 123.759667 214.727704 
L 124.146362 214.203798 
L 124.533056 213.676002 
L 124.919751 213.144481 
L 125.306445 212.609407 
L 125.693139 212.070955 
L 126.079834 211.529309 
L 126.466528 210.984657 
L 126.853222 210.437191 
L 127.239917 209.88711 
L 127.626611 209.33462 
L 128.013306 208.779928 
L 128.4 208.22325 
L 128.786694 207.664804 
L 129.173389 207.104816 
L 129.560083 206.543515 
L 129.946778 205.981133 
L 130.333472 205.41791 
L 130.720166 204.854088 
L 131.106861 204.289914 
L 131.493555 203.725639 
L 131.880249 203.161517 
L 132.266944 202.597808 
L 132.653638 202.034772 
L 133.040333 201.472677 
L 133.427027 200.911789 
L 133.813721 200.352381 
L 134.200416 199.794727 
L 134.58711 199.239104 
L 134.973805 198.68579 
L 135.360499 198.135068 
L 135.747193 197.58722 
L 136.133888 197.04253 
L 136.520582 196.501286 
L 136.907277 195.963774 
L 137.293971 195.430282 
L 137.680665 194.9011 
L 138.06736 194.376517 
L 138.454054 193.856822 
L 138.840748 193.342304 
L 139.227443 192.833253 
L 139.614137 192.329956 
L 140.000832 191.832702 
L 140.387526 191.341776 
L 140.77422 190.857463 
L 141.160915 190.380046 
L 141.547609 189.909807 
L 141.934304 189.447024 
L 142.320998 188.991973 
L 142.707692 188.544928 
L 143.094387 188.106159 
L 143.481081 187.675934 
L 143.867775 187.254515 
L 144.25447 186.842162 
L 144.641164 186.43913 
L 145.027859 186.045671 
L 145.414553 185.66203 
L 145.801247 185.288449 
L 146.187942 184.925164 
L 146.574636 184.572406 
L 146.961331 184.230399 
L 147.348025 183.899362 
L 147.734719 183.57951 
L 148.121414 183.271047 
L 148.508108 182.974174 
L 148.894802 182.689083 
L 149.281497 182.415962 
L 149.668191 182.154989 
L 150.054886 181.906335 
L 150.44158 181.670164 
L 150.828274 181.446632 
L 151.214969 181.235887 
L 151.601663 181.038068 
L 151.988358 180.853309 
L 152.375052 180.68173 
L 152.761746 180.523448 
L 153.148441 180.378568 
L 153.535135 180.247187 
L 153.92183 180.129393 
L 154.308524 180.025265 
L 154.695218 179.934874 
L 155.081913 179.85828 
L 155.468607 179.795534 
L 155.855301 179.746679 
L 156.241996 179.711748 
L 156.62869 179.690763 
L 157.015385 179.68374 
L 157.402079 179.690682 
L 157.788773 179.711585 
L 158.175468 179.746434 
L 158.562162 179.795206 
L 158.948857 179.857867 
L 159.335551 179.934374 
L 159.722245 180.024676 
L 160.10894 180.128711 
L 160.495634 180.246409 
L 160.882328 180.377691 
L 161.269023 180.522467 
L 161.655717 180.680641 
L 162.042412 180.852105 
L 162.429106 181.036745 
L 162.8158 181.234437 
L 163.202495 181.445049 
L 163.589189 181.668441 
L 163.975884 181.904463 
L 164.362578 182.152959 
L 164.749272 182.413765 
L 165.135967 182.686709 
L 165.522661 182.97161 
L 165.909356 183.268283 
L 166.29605 183.576533 
L 166.682744 183.896159 
L 167.069439 184.226954 
L 167.456133 184.568704 
L 167.842827 184.921188 
L 168.229522 185.284182 
L 168.616216 185.657452 
L 169.002911 186.040762 
L 169.389605 186.433869 
L 169.776299 186.836526 
L 170.162994 187.248479 
L 170.549688 187.669472 
L 170.936383 188.099244 
L 171.323077 188.537531 
L 171.709771 188.984062 
L 172.096466 189.438565 
L 172.48316 189.900766 
L 172.869854 190.370386 
L 173.256549 190.847143 
L 173.643243 191.330755 
L 174.029938 191.820935 
L 174.416632 192.317396 
L 174.803326 192.81985 
L 175.190021 193.328005 
L 175.576715 193.84157 
L 175.96341 194.360253 
L 176.350104 194.883761 
L 176.736798 195.411802 
L 177.123493 195.944081 
L 177.510187 196.480306 
L 177.896881 197.020185 
L 178.283576 197.563426 
L 178.67027 198.109737 
L 179.056965 198.658829 
L 179.443659 199.210414 
L 179.830353 199.764205 
L 180.217048 200.319917 
L 180.603742 200.877267 
L 180.990437 201.435975 
L 181.377131 201.995763 
L 181.763825 202.556354 
L 182.15052 203.117476 
L 182.537214 203.67886 
L 182.923909 204.240238 
L 183.310603 204.801347 
L 183.697297 205.361928 
L 184.083992 205.921725 
L 184.470686 206.480484 
L 184.85738 207.037958 
L 185.244075 207.593901 
L 185.630769 208.148075 
L 186.017464 208.700241 
L 186.404158 209.25017 
L 186.790852 209.797633 
L 187.177547 210.342408 
L 187.564241 210.884276 
L 187.950936 211.423024 
L 188.33763 211.958444 
L 188.724324 212.490332 
L 189.111019 213.018488 
L 189.497713 213.542719 
L 189.884407 214.062834 
L 190.271102 214.578651 
L 190.657796 215.089988 
L 191.044491 215.596673 
L 191.431185 216.098535 
L 191.817879 216.59541 
L 192.204574 217.087138 
L 192.591268 217.573565 
L 192.977963 218.05454 
L 193.364657 218.529919 
L 193.751351 218.99956 
L 194.138046 219.46333 
L 194.52474 219.921096 
L 194.911435 220.372732 
L 195.298129 220.818117 
L 195.684823 221.257133 
L 196.071518 221.689667 
L 196.458212 222.115611 
L 196.844906 222.534859 
L 197.231601 222.947312 
L 197.618295 223.352873 
L 198.00499 223.751449 
L 198.391684 224.142952 
L 198.778378 224.527296 
L 199.165073 224.904398 
L 199.551767 225.274182 
L 199.938462 225.636572 
L 200.325156 225.991495 
L 200.71185 226.338883 
L 201.098545 226.678669 
L 201.485239 227.01079 
L 201.871933 227.335185 
L 202.258628 227.651795 
L 202.645322 227.960564 
L 203.032017 228.261437 
L 203.418711 228.554363 
L 203.805405 228.839291 
L 204.1921 229.116172 
L 204.578794 229.384958 
L 204.965489 229.645604 
L 205.352183 229.898065 
L 205.738877 230.142297 
L 206.125572 230.378257 
L 206.512266 230.605903 
L 206.89896 230.825194 
L 207.285655 231.036087 
L 207.672349 231.238543 
L 208.059044 231.43252 
L 208.445738 231.617978 
L 208.832432 231.794876 
L 209.219127 231.963173 
L 209.605821 232.122826 
L 209.992516 232.273794 
L 210.37921 232.416034 
L 210.765904 232.549503 
L 211.152599 232.674155 
L 211.539293 232.789944 
L 211.925988 232.896825 
L 212.312682 232.994748 
L 212.699376 233.083665 
L 213.086071 233.163524 
L 213.472765 233.234273 
L 213.859459 233.295857 
L 214.246154 233.34822 
L 214.632848 233.391304 
L 215.019543 233.42505 
L 215.406237 233.449396 
L 215.792931 233.464277 
L 216.179626 233.469628 
L 216.56632 233.465381 
L 216.953015 233.451465 
L 217.339709 233.427808 
L 217.726403 233.394334 
L 218.113098 233.350967 
L 218.499792 233.297628 
L 218.886486 233.234234 
L 219.273181 233.160701 
L 219.659875 233.076943 
L 220.04657 232.982871 
L 220.433264 232.878394 
L 220.819958 232.763419 
L 221.206653 232.63785 
L 221.593347 232.50159 
L 221.980042 232.354539 
L 222.366736 232.196594 
L 222.75343 232.027652 
L 223.140125 231.847608 
L 223.526819 231.656353 
L 223.913514 231.453777 
L 224.300208 231.239771 
L 224.686902 231.014221 
L 225.073597 230.777012 
L 225.460291 230.528031 
L 225.846985 230.267159 
L 226.23368 229.99428 
L 226.620374 229.709275 
L 227.007069 229.412023 
L 227.393763 229.102407 
L 227.780457 228.780304 
L 228.167152 228.445595 
L 228.553846 228.098159 
L 228.940541 227.737874 
L 229.327235 227.364622 
L 229.713929 226.978282 
L 230.100624 226.578736 
L 230.487318 226.165864 
L 230.874012 225.739551 
L 231.260707 225.29968 
L 231.647401 224.846139 
L 232.034096 224.378815 
L 232.42079 223.897597 
L 232.807484 223.40238 
L 233.194179 222.893057 
L 233.580873 222.369527 
L 233.967568 221.831692 
L 234.354262 221.279455 
L 234.740956 220.712725 
L 235.127651 220.131415 
L 235.514345 219.53544 
L 235.90104 218.924723 
L 236.287734 218.299189 
L 236.674428 217.658769 
L 237.061123 217.0034 
L 237.447817 216.333023 
L 237.834511 215.647587 
L 238.221206 214.947047 
L 238.6079 214.231363 
L 238.994595 213.500504 
L 239.381289 212.754444 
L 239.767983 211.993165 
L 240.154678 211.216659 
L 240.541372 210.424922 
L 240.928067 209.617963 
L 241.314761 208.795795 
L 241.701455 207.958443 
L 242.08815 207.10594 
L 242.474844 206.238329 
L 242.861538 205.355661 
L 243.248233 204.457999 
L 243.634927 203.545415 
L 244.021622 202.617992 
L 244.408316 201.675822 
L 244.79501 200.719011 
L 245.181705 199.747674 
L 245.568399 198.761936 
L 245.955094 197.761938 
L 246.341788 196.747827 
L 246.728482 195.719767 
L 247.115177 194.677932 
L 247.501871 193.622506 
L 247.888565 192.55369 
L 248.27526 191.471694 
L 248.661954 190.376742 
L 249.048649 189.269071 
L 249.435343 188.14893 
L 249.822037 187.016581 
L 250.208732 185.872301 
L 250.595426 184.716378 
L 250.982121 183.549113 
L 251.368815 182.370823 
L 251.755509 181.181835 
L 252.142204 179.98249 
L 252.528898 178.773144 
L 252.915593 177.554164 
L 253.302287 176.325932 
L 253.688981 175.088841 
L 254.075676 173.843299 
L 254.46237 172.589726 
L 254.849064 171.328553 
L 255.235759 170.060227 
L 255.622453 168.785206 
L 256.009148 167.503959 
L 256.395842 166.216969 
L 256.782536 164.92473 
L 257.169231 163.627748 
L 257.555925 162.32654 
L 257.94262 161.021635 
L 258.329314 159.713572 
L 258.716008 158.402901 
L 259.102703 157.090182 
L 259.489397 155.775987 
L 259.876091 154.460894 
L 260.262786 153.145494 
L 260.64948 151.830384 
L 261.036175 150.516172 
L 261.422869 149.203471 
L 261.809563 147.892904 
L 262.196258 146.585101 
L 262.582952 145.280698 
L 262.969647 143.980338 
L 263.356341 142.68467 
L 263.743035 141.394347 
L 264.12973 140.110027 
L 264.516424 138.832375 
L 264.903119 137.562055 
L 265.289813 136.299738 
L 265.676507 135.046096 
L 266.063202 133.801803 
L 266.449896 132.567536 
L 266.83659 131.34397 
L 267.223285 130.131783 
L 267.609979 128.931652 
L 267.996674 127.744252 
L 268.383368 126.570257 
L 268.770062 125.410339 
L 269.156757 124.265167 
L 269.543451 123.135408 
L 269.930146 122.021721 
L 270.31684 120.924765 
L 270.703534 119.845191 
L 271.090229 118.783644 
L 271.476923 117.740764 
L 271.863617 116.717182 
L 272.250312 115.713522 
L 272.637006 114.730399 
L 273.023701 113.768419 
L 273.410395 112.82818 
L 273.797089 111.910266 
L 274.183784 111.015254 
L 274.570478 110.143706 
L 274.957173 109.296175 
L 275.343867 108.473199 
L 275.730561 107.675304 
L 276.117256 106.903 
L 276.50395 106.156786 
L 276.890644 105.437144 
L 277.277339 104.74454 
L 277.664033 104.079426 
L 278.050728 103.442237 
L 278.437422 102.833389 
L 278.824116 102.253283 
L 279.210811 101.702302 
L 279.597505 101.18081 
L 279.9842 100.689153 
L 280.370894 100.227658 
L 280.757588 99.796631 
L 281.144283 99.396361 
L 281.530977 99.027116 
L 281.917672 98.689142 
L 282.304366 98.382668 
L 282.69106 98.107898 
L 283.077755 97.865017 
L 283.464449 97.654191 
L 283.851143 97.47556 
L 284.237838 97.329245 
L 284.624532 97.215346 
L 285.011227 97.133939 
L 285.397921 97.08508 
L 285.784615 97.068801 
L 286.17131 97.085114 
L 286.558004 97.134008 
L 286.944699 97.21545 
L 287.331393 97.329385 
L 287.718087 97.475736 
L 288.104782 97.654405 
L 288.491476 97.86527 
L 288.87817 98.10819 
L 289.264865 98.383001 
L 289.651559 98.689518 
L 290.038254 99.027536 
L 290.424948 99.396828 
L 290.811642 99.797147 
L 291.198337 100.228225 
L 291.585031 100.689774 
L 291.971726 101.181489 
L 292.35842 101.703041 
L 292.745114 102.254085 
L 293.131809 102.834259 
L 293.518503 103.443178 
L 293.905198 104.080444 
L 294.291892 104.745639 
L 294.678586 105.438328 
L 295.065281 106.158062 
L 295.451975 106.904373 
L 295.838669 107.67678 
L 296.225364 108.474786 
L 296.612058 109.297879 
L 296.998753 110.145535 
L 297.385447 111.017216 
L 297.772141 111.91237 
L 298.158836 112.830434 
L 298.54553 113.770835 
L 298.932225 114.732986 
L 299.318919 115.716291 
L 299.705613 116.720146 
L 300.092308 117.743935 
L 300.479002 118.787035 
L 300.865696 119.848816 
L 301.252391 120.92864 
L 301.639085 122.025861 
L 302.02578 123.13983 
L 302.412474 124.269891 
L 302.799168 125.415382 
L 303.185863 126.57564 
L 303.572557 127.749996 
L 303.959252 128.93778 
L 304.345946 130.13832 
L 304.73264 131.35094 
L 305.119335 132.574967 
L 305.506029 133.809723 
L 305.892723 135.054535 
L 306.279418 136.308729 
L 306.666112 137.571631 
L 307.052807 138.842572 
L 307.439501 140.120884 
L 307.826195 141.405902 
L 308.21289 142.696966 
L 308.599584 143.993419 
L 308.986279 145.294611 
L 309.372973 146.599896 
L 309.759667 147.908633 
L 310.146362 149.220189 
L 310.533056 150.533937 
L 310.919751 151.849259 
L 311.306445 153.165542 
L 311.693139 154.482184 
L 312.079834 155.79859 
L 312.466528 157.114175 
L 312.853222 158.428361 
L 313.239917 159.740585 
L 313.626611 161.050288 
L 314.013306 162.356927 
L 314.4 163.659966 
L 314.786694 164.958882 
L 315.173389 166.253162 
L 315.560083 167.542307 
L 315.946778 168.825827 
L 316.333472 170.103248 
L 316.720166 171.374104 
L 317.106861 172.637945 
L 317.493555 173.894331 
L 317.880249 175.142839 
L 318.266944 176.383054 
L 318.653638 177.614578 
L 319.040333 178.837024 
L 319.427027 180.050021 
L 319.813721 181.253208 
L 320.200416 182.446241 
L 320.58711 183.628788 
L 320.973805 184.800529 
L 321.360499 185.961161 
L 321.747193 187.110393 
L 322.133888 188.247946 
L 322.520582 189.373557 
L 322.907277 190.486975 
L 323.293971 191.587964 
L 323.680665 192.6763 
L 324.06736 193.751773 
L 324.454054 194.814186 
L 324.840748 195.863354 
L 325.227443 196.899107 
L 325.614137 197.921287 
L 326.000832 198.929747 
L 326.387526 199.924356 
L 326.77422 200.904992 
L 327.160915 201.871547 
L 327.547609 202.823924 
L 327.934304 203.762039 
L 328.320998 204.685818 
L 328.707692 205.595199 
L 329.094387 206.490133 
L 329.481081 207.370578 
L 329.867775 208.236506 
L 330.25447 209.087899 
L 330.641164 209.924747 
L 331.027859 210.747052 
L 331.414553 211.554825 
L 331.801247 212.348087 
L 332.187942 213.126867 
L 332.574636 213.891204 
L 332.961331 214.641144 
L 333.348025 215.376744 
L 333.734719 216.098067 
L 334.121414 216.805183 
L 334.508108 217.498173 
L 334.894802 218.177121 
L 335.281497 218.842121 
L 335.668191 219.493273 
L 336.054886 220.130683 
L 336.44158 220.754462 
L 336.828274 221.364729 
L 337.214969 221.961608 
L 337.601663 222.545227 
L 337.988358 223.11572 
L 338.375052 223.673225 
L 338.761746 224.217887 
L 339.148441 224.749853 
L 339.535135 225.269273 
L 339.92183 225.776303 
L 340.308524 226.271102 
L 340.695218 226.753831 
L 341.081913 227.224655 
L 341.468607 227.683741 
L 341.855301 228.13126 
L 342.241996 228.567383 
L 342.62869 228.992286 
L 343.015385 229.406143 
L 343.402079 229.809133 
L 343.788773 230.201435 
L 344.175468 230.58323 
L 344.562162 230.954698 
L 344.948857 231.316021 
L 345.335551 231.667382 
L 345.722245 232.008965 
L 346.10894 232.340953 
L 346.495634 232.663529 
L 346.882328 232.976877 
L 347.269023 233.281179 
L 347.655717 233.576619 
L 348.042412 233.863378 
L 348.429106 234.141639 
L 348.8158 234.411581 
L 349.202495 234.673385 
L 349.589189 234.927229 
L 349.975884 235.173291 
L 350.362578 235.411746 
L 350.749272 235.64277 
L 351.135967 235.866535 
L 351.522661 236.083214 
L 351.909356 236.292975 
L 352.29605 236.495988 
L 352.682744 236.692417 
L 353.069439 236.882429 
L 353.456133 237.066183 
L 353.842827 237.243842 
L 354.229522 237.415562 
L 354.616216 237.5815 
L 355.002911 237.741809 
L 355.389605 237.896639 
L 355.776299 238.046141 
L 356.162994 238.19046 
L 356.549688 238.329741 
L 356.936383 238.464125 
L 357.323077 238.59375 
L 357.709771 238.718755 
L 358.096466 238.839272 
L 358.48316 238.955433 
L 358.869854 239.067368 
L 359.256549 239.175202 
L 359.643243 239.279061 
L 360.029938 239.379064 
L 360.416632 239.475331 
L 360.803326 239.567977 
L 361.190021 239.657118 
L 361.576715 239.742863 
L 361.96341 239.825321 
L 362.350104 239.904599 
L 362.736798 239.9808 
L 363.123493 240.054024 
L 363.510187 240.124371 
L 363.896881 240.191937 
L 364.283576 240.256815 
L 364.67027 240.319097 
L 365.056965 240.378872 
L 365.443659 240.436226 
L 365.830353 240.491244 
L 366.217048 240.544007 
L 366.603742 240.594596 
L 366.990437 240.643088 
L 367.377131 240.689559 
L 367.763825 240.734081 
L 368.15052 240.776726 
L 368.537214 240.817563 
L 368.923909 240.856659 
L 369.310603 240.894078 
L 369.697297 240.929885 
L 370.083992 240.964139 
L 370.470686 240.996901 
L 370.85738 241.028227 
L 371.244075 241.058173 
L 371.630769 241.086792 
L 372.017464 241.114138 
L 372.404158 241.140259 
L 372.790852 241.165206 
L 373.177547 241.189024 
L 373.564241 241.211759 
L 373.950936 241.233455 
L 374.33763 241.254155 
L 374.724324 241.2739 
L 375.111019 241.292728 
L 375.497713 241.310679 
L 375.884407 241.327788 
L 376.271102 241.344092 
L 376.657796 241.359624 
L 377.044491 241.374417 
L 377.431185 241.388504 
L 377.817879 241.401914 
L 378.204574 241.414676 
L 378.591268 241.426821 
L 378.977963 241.438373 
L 379.364657 241.44936 
L 379.751351 241.459807 
L 380.138046 241.469738 
L 380.52474 241.479176 
L 380.911435 241.488143 
L 381.298129 241.496661 
L 381.684823 241.50475 
L 382.071518 241.51243 
L 382.458212 241.519721 
L 382.844906 241.526639 
L 383.231601 241.533203 
L 383.618295 241.539429 
L 384.00499 241.545333 
L 384.391684 241.55093 
L 384.778378 241.556236 
L 385.165073 241.561263 
L 385.551767 241.566027 
L 385.938462 241.570538 
L 386.325156 241.57481 
L 386.71185 241.578854 
L 387.098545 241.582682 
L 387.485239 241.586304 
L 387.871933 241.589731 
L 388.258628 241.592971 
L 388.645322 241.596036 
L 389.032017 241.598933 
L 389.418711 241.601671 
L 389.805405 241.604258 
L 390.1921 241.606702 
L 390.578794 241.60901 
L 390.965489 241.611189 
L 391.352183 241.613246 
L 391.738877 241.615188 
L 392.125572 241.61702 
L 392.512266 241.618748 
L 392.89896 241.620377 
L 393.285655 241.621914 
L 393.672349 241.623362 
L 394.059044 241.624727 
L 394.445738 241.626013 
L 394.832432 241.627225 
L 395.219127 241.628366 
L 395.605821 241.62944 
L 395.992516 241.630451 
L 396.37921 241.631402 
L 396.765904 241.632298 
L 397.152599 241.63314 
L 397.539293 241.633932 
L 397.925988 241.634676 
L 398.312682 241.635376 
L 398.699376 241.636033 
L 399.086071 241.636651 
L 399.472765 241.637232 
L 399.859459 241.637776 
L 400.246154 241.638288 
L 400.632848 241.638768 
L 401.019543 241.639219 
L 401.406237 241.639642 
L 401.792931 241.640038 
L 402.179626 241.64041 
L 402.56632 241.640758 
L 402.953015 241.641085 
L 403.339709 241.641391 
L 403.726403 241.641678 
L 404.113098 241.641947 
L 404.499792 241.642198 
L 404.886486 241.642434 
L 405.273181 241.642654 
L 405.659875 241.64286 
L 406.04657 241.643053 
L 406.433264 241.643234 
L 406.819958 241.643403 
L 407.206653 241.64356 
L 407.593347 241.643708 
L 407.980042 241.643846 
L 408.366736 241.643974 
L 408.75343 241.644094 
L 409.140125 241.644207 
L 409.526819 241.644311 
L 409.913514 241.644409 
L 410.300208 241.6445 
L 410.686902 241.644586 
L 411.073597 241.644665 
L 411.460291 241.644739 
L 411.846985 241.644808 
L 412.23368 241.644872 
L 412.620374 241.644932 
L 413.007069 241.644988 
L 413.393763 241.64504 
L 413.780457 241.645088 
L 414.167152 241.645134 
L 414.553846 241.645175 
z
" style="opacity:0.2;"/>
   </g>
   <g id="line2d_33">
    <path clip-path="url(#p3f1afd2624)" d="M 28.246154 241.645712 
L 61.888565 241.540197 
L 67.688981 241.296151 
L 71.94262 240.902018 
L 75.422869 240.368814 
L 78.903119 239.59905 
L 82.383368 238.58046 
L 86.250312 237.203071 
L 97.851143 232.883734 
L 106.745114 229.938442 
L 109.065281 228.816392 
L 110.998753 227.624387 
L 112.932225 226.142181 
L 114.865696 224.33126 
L 116.799168 222.172647 
L 118.73264 219.670608 
L 121.052807 216.257405 
L 123.759667 211.833763 
L 132.653638 196.875567 
L 134.58711 194.168622 
L 136.520582 191.838195 
L 138.06736 190.281989 
L 139.614137 189.020626 
L 141.160915 188.064654 
L 142.707692 187.416252 
L 144.25447 187.069354 
L 145.801247 187.009952 
L 147.348025 187.216624 
L 148.894802 187.661269 
L 150.828274 188.499848 
L 153.148441 189.82056 
L 156.241996 191.88453 
L 161.269023 195.236188 
L 163.975884 196.753729 
L 166.682744 197.990638 
L 169.389605 198.978008 
L 174.416632 200.494284 
L 177.896881 201.672972 
L 180.603742 202.853837 
L 182.923909 204.116357 
L 185.244075 205.634302 
L 187.564241 207.407846 
L 190.271102 209.775383 
L 193.364657 212.810273 
L 197.231601 216.943608 
L 205.738877 226.149425 
L 208.445738 228.718777 
L 210.765904 230.645516 
L 213.086071 232.25944 
L 215.019543 233.334129 
L 216.953015 234.144541 
L 218.886486 234.68076 
L 220.819958 234.93926 
L 222.75343 234.921321 
L 224.686902 234.630798 
L 226.620374 234.071509 
L 228.553846 233.24455 
L 230.487318 232.145863 
L 232.42079 230.764355 
L 234.354262 229.080776 
L 236.287734 227.067536 
L 238.221206 224.689508 
L 240.154678 221.905834 
L 242.08815 218.672653 
L 244.021622 214.946647 
L 245.955094 210.689196 
L 247.888565 205.870909 
L 249.822037 200.476166 
L 252.142204 193.246274 
L 254.46237 185.235467 
L 257.169231 175.029157 
L 260.64948 160.909448 
L 269.156757 125.772382 
L 271.863617 115.717696 
L 274.183784 107.953004 
L 276.117256 102.212735 
L 278.050728 97.229814 
L 279.597505 93.842829 
L 281.144283 91.029828 
L 282.304366 89.317784 
L 283.464449 87.96145 
L 284.624532 86.972528 
L 285.784615 86.360843 
L 286.558004 86.166472 
L 287.331393 86.144788 
L 288.104782 86.296826 
L 288.87817 86.623 
L 289.651559 87.123066 
L 290.811642 88.19696 
L 291.971726 89.65359 
L 293.131809 91.482962 
L 294.291892 93.671321 
L 295.838669 97.117008 
L 297.385447 101.119127 
L 299.318919 106.812672 
L 301.639085 114.482503 
L 304.345946 124.272368 
L 308.986279 142.073074 
L 313.626611 159.644179 
L 316.720166 170.555499 
L 319.427027 179.328713 
L 321.747193 186.193738 
L 324.06736 192.428604 
L 326.387526 198.041371 
L 328.707692 203.066214 
L 331.027859 207.556996 
L 333.348025 211.579589 
L 335.668191 215.203653 
L 338.375052 219.015033 
L 341.081913 222.458342 
L 344.175468 226.015477 
L 347.269023 229.205406 
L 349.975884 231.695209 
L 352.682744 233.888769 
L 355.389605 235.770582 
L 357.709771 237.129912 
L 360.029938 238.259026 
L 362.350104 239.170544 
L 365.056965 239.986237 
L 367.763825 240.574525 
L 370.85738 241.026541 
L 374.724324 241.355836 
L 380.138046 241.558721 
L 389.418711 241.638252 
L 414.553846 241.645714 
L 414.553846 241.645714 
" style="fill:none;stroke:#268bd2;stroke-width:2;"/>
   </g>
   <g id="line2d_34">
    <path clip-path="url(#p3f1afd2624)" d="M 28.246154 241.645714 
L 84.703534 241.645714 
L 85.090229 236.468571 
L 90.890644 236.468571 
L 91.277339 231.291429 
L 110.612058 231.291429 
L 110.998753 236.468571 
L 115.639085 236.468571 
L 116.02578 226.114286 
L 116.412474 226.114286 
L 116.799168 220.937143 
L 117.185863 226.114286 
L 119.892723 226.114286 
L 120.279418 220.937143 
L 121.439501 220.937143 
L 121.826195 215.76 
L 124.533056 215.76 
L 124.919751 210.582857 
L 126.466528 210.582857 
L 126.853222 205.405714 
L 128.013306 205.405714 
L 128.4 200.228571 
L 130.333472 200.228571 
L 130.720166 195.051429 
L 134.200416 195.051429 
L 134.58711 189.874286 
L 135.747193 189.874286 
L 136.133888 184.697143 
L 136.907277 184.697143 
L 137.293971 179.52 
L 137.680665 179.52 
L 138.06736 174.342857 
L 139.614137 174.342857 
L 140.000832 169.165714 
L 140.77422 169.165714 
L 141.160915 163.988571 
L 142.320998 179.52 
L 145.027859 179.52 
L 145.414553 174.342857 
L 145.801247 179.52 
L 146.961331 179.52 
L 147.348025 184.697143 
L 150.054886 184.697143 
L 150.44158 189.874286 
L 153.92183 189.874286 
L 154.308524 195.051429 
L 156.241996 195.051429 
L 156.62869 200.228571 
L 157.015385 200.228571 
L 157.402079 195.051429 
L 157.788773 195.051429 
L 158.175468 189.874286 
L 158.948857 189.874286 
L 159.335551 184.697143 
L 159.722245 184.697143 
L 160.10894 189.874286 
L 161.269023 189.874286 
L 161.655717 195.051429 
L 162.8158 195.051429 
L 163.589189 205.405714 
L 165.135967 205.405714 
L 165.522661 210.582857 
L 166.29605 210.582857 
L 166.682744 205.405714 
L 167.069439 210.582857 
L 167.456133 200.228571 
L 170.936383 200.228571 
L 171.323077 205.405714 
L 173.256549 205.405714 
L 173.643243 195.051429 
L 177.896881 195.051429 
L 178.283576 200.228571 
L 181.763825 200.228571 
L 182.15052 195.051429 
L 182.537214 195.051429 
L 182.923909 200.228571 
L 183.310603 200.228571 
L 183.697297 205.405714 
L 184.85738 205.405714 
L 185.244075 210.582857 
L 185.630769 210.582857 
L 186.017464 205.405714 
L 188.724324 205.405714 
L 189.111019 200.228571 
L 191.817879 200.228571 
L 192.204574 205.405714 
L 192.977963 205.405714 
L 193.364657 215.76 
L 198.778378 215.76 
L 199.551767 226.114286 
L 207.285655 226.114286 
L 207.672349 231.291429 
L 211.539293 231.291429 
L 211.925988 236.468571 
L 214.632848 236.468571 
L 215.019543 241.645714 
L 220.819958 241.645714 
L 221.206653 236.468571 
L 235.514345 236.468571 
L 235.90104 231.291429 
L 236.674428 231.291429 
L 237.061123 226.114286 
L 243.248233 226.114286 
L 243.634927 220.937143 
L 244.021622 220.937143 
L 244.408316 215.76 
L 246.341788 215.76 
L 246.728482 220.937143 
L 249.822037 220.937143 
L 250.208732 215.76 
L 250.982121 215.76 
L 251.368815 210.582857 
L 253.302287 210.582857 
L 253.688981 200.228571 
L 254.849064 200.228571 
L 255.235759 189.874286 
L 256.009148 179.52 
L 256.395842 179.52 
L 256.782536 169.165714 
L 257.169231 163.988571 
L 259.876091 163.988571 
L 260.262786 158.811429 
L 261.422869 158.811429 
L 261.809563 163.988571 
L 262.969647 163.988571 
L 263.356341 158.811429 
L 263.743035 158.811429 
L 264.12973 143.28 
L 264.903119 143.28 
L 265.289813 132.925714 
L 266.83659 132.925714 
L 267.609979 122.571429 
L 267.996674 112.217143 
L 269.156757 112.217143 
L 269.930146 122.571429 
L 270.703534 122.571429 
L 271.090229 117.394286 
L 272.250312 117.394286 
L 272.637006 112.217143 
L 273.797089 112.217143 
L 274.957173 96.685714 
L 275.730561 96.685714 
L 276.117256 86.331429 
L 277.664033 86.331429 
L 278.050728 65.622857 
L 278.824116 65.622857 
L 279.210811 55.268571 
L 279.597505 65.622857 
L 279.9842 65.622857 
L 280.757588 55.268571 
L 281.144283 60.445714 
L 281.530977 70.8 
L 281.917672 70.8 
L 282.304366 81.154286 
L 282.69106 75.977143 
L 283.077755 81.154286 
L 283.464449 81.154286 
L 283.851143 70.8 
L 285.784615 70.8 
L 286.17131 65.622857 
L 287.718087 65.622857 
L 288.104782 60.445714 
L 288.491476 65.622857 
L 288.87817 60.445714 
L 289.651559 70.8 
L 290.038254 81.154286 
L 290.424948 81.154286 
L 290.811642 86.331429 
L 291.971726 86.331429 
L 292.745114 75.977143 
L 293.131809 81.154286 
L 293.518503 91.508571 
L 293.905198 96.685714 
L 294.678586 86.331429 
L 295.451975 86.331429 
L 295.838669 75.977143 
L 298.158836 75.977143 
L 298.54553 81.154286 
L 299.705613 81.154286 
L 300.092308 91.508571 
L 300.479002 91.508571 
L 300.865696 96.685714 
L 301.639085 96.685714 
L 302.02578 107.04 
L 302.412474 101.862857 
L 302.799168 107.04 
L 303.185863 107.04 
L 303.572557 117.394286 
L 303.959252 122.571429 
L 304.345946 122.571429 
L 304.73264 132.925714 
L 305.119335 132.925714 
L 305.506029 127.748571 
L 305.892723 127.748571 
L 307.052807 143.28 
L 308.21289 143.28 
L 308.599584 148.457143 
L 308.986279 148.457143 
L 309.759667 158.811429 
L 310.919751 158.811429 
L 311.306445 163.988571 
L 313.626611 163.988571 
L 314.013306 169.165714 
L 314.4 169.165714 
L 314.786694 174.342857 
L 315.560083 174.342857 
L 315.946778 169.165714 
L 317.493555 169.165714 
L 317.880249 174.342857 
L 318.266944 174.342857 
L 318.653638 179.52 
L 319.813721 179.52 
L 320.58711 189.874286 
L 320.973805 189.874286 
L 321.747193 200.228571 
L 322.520582 200.228571 
L 322.907277 205.405714 
L 326.77422 205.405714 
L 327.160915 200.228571 
L 327.547609 200.228571 
L 327.934304 210.582857 
L 329.094387 210.582857 
L 329.481081 205.405714 
L 329.867775 210.582857 
L 330.641164 210.582857 
L 331.027859 215.76 
L 337.601663 215.76 
L 337.988358 220.937143 
L 341.081913 220.937143 
L 341.468607 226.114286 
L 342.241996 226.114286 
L 342.62869 231.291429 
L 352.682744 231.291429 
L 353.069439 236.468571 
L 354.616216 236.468571 
L 355.002911 241.645714 
L 414.553846 241.645714 
L 414.553846 241.645714 
" style="fill:none;stroke:#2aa198;stroke-width:2;"/>
   </g>
   <g id="line2d_35">
    <path clip-path="url(#p3f1afd2624)" d="M 28.246154 241.645714 
L 84.703534 241.645714 
L 85.090229 241.376418 
L 87.023701 239.260241 
L 88.957173 237.494223 
L 91.277339 235.603286 
L 92.824116 233.053461 
L 94.370894 230.951838 
L 95.917672 229.298416 
L 97.077755 228.352481 
L 98.237838 227.658659 
L 99.397921 227.216951 
L 100.558004 227.027355 
L 101.718087 227.089873 
L 102.87817 227.404504 
L 104.038254 227.971248 
L 105.198337 228.790105 
L 106.35842 229.861075 
L 107.518503 231.184158 
L 109.065281 233.340445 
L 110.998753 236.20109 
L 112.54553 237.333099 
L 114.479002 239.063251 
L 115.639085 240.269418 
L 116.02578 240.165923 
L 116.412474 239.707349 
L 116.799168 238.940499 
L 118.73264 232.927814 
L 120.666112 227.183327 
L 121.826195 223.062873 
L 123.372973 217.113077 
L 126.466528 206.419462 
L 128.013306 200.671302 
L 128.786694 197.868374 
L 129.946778 193.825192 
L 131.106861 190.117193 
L 131.880249 187.790838 
L 132.653638 185.96871 
L 133.427027 184.650808 
L 135.360499 182.277715 
L 135.747193 182.019036 
L 136.520582 181.116943 
L 137.680665 180.236748 
L 138.454054 179.031827 
L 138.840748 178.68102 
L 139.227443 178.512295 
L 139.614137 178.525651 
L 140.387526 178.288948 
L 141.547609 178.575225 
L 143.481081 175.517666 
L 143.867775 175.239054 
L 144.25447 175.128518 
L 144.641164 175.186058 
L 145.414553 175.579163 
L 145.801247 175.677987 
L 146.187942 175.495547 
L 146.574636 175.481183 
L 148.121414 176.061694 
L 148.508108 176.383966 
L 149.281497 177.490716 
L 150.054886 179.213743 
L 151.601663 182.843739 
L 152.375052 185.224798 
L 153.148441 186.430134 
L 155.081913 190.713351 
L 155.855301 192.850302 
L 156.62869 195.077416 
L 157.402079 196.853384 
L 157.788773 197.653746 
L 158.562162 198.737339 
L 159.335551 200.146737 
L 162.429106 204.80468 
L 163.202495 206.159598 
L 163.589189 206.528068 
L 164.362578 206.920397 
L 165.135967 207.704903 
L 165.522661 208.158297 
L 166.682744 208.588001 
L 167.069439 208.13337 
L 167.456133 207.450277 
L 168.616216 204.032386 
L 169.389605 202.314044 
L 170.162994 201.043903 
L 171.323077 199.559105 
L 172.096466 198.423744 
L 172.869854 197.68056 
L 173.256549 197.456034 
L 173.643243 196.936412 
L 174.416632 195.191845 
L 175.190021 193.951503 
L 175.96341 193.215388 
L 176.350104 193.036415 
L 176.736798 192.983499 
L 177.123493 193.056639 
L 177.510187 193.255836 
L 178.283576 193.820154 
L 179.056965 194.127451 
L 179.830353 194.882949 
L 180.603742 196.086648 
L 181.377131 197.738548 
L 181.763825 198.732574 
L 183.697297 202.002503 
L 184.470686 202.685488 
L 184.85738 203.174046 
L 186.017464 203.769139 
L 186.790852 203.685535 
L 187.564241 203.994106 
L 188.33763 204.694854 
L 189.111019 205.743282 
L 189.884407 206.326252 
L 190.657796 207.357423 
L 191.431185 208.836795 
L 192.591268 211.392113 
L 192.977963 212.147712 
L 193.364657 212.361957 
L 194.138046 212.403699 
L 194.911435 212.725566 
L 195.684823 213.327559 
L 196.458212 214.209678 
L 197.231601 215.371922 
L 198.391684 217.640524 
L 199.165073 219.413764 
L 199.551767 219.757311 
L 200.325156 220.072109 
L 201.485239 220.859448 
L 202.645322 222.024956 
L 203.805405 223.568634 
L 204.965489 225.490482 
L 206.125572 227.790499 
L 208.059044 231.834625 
L 209.605821 234.278113 
L 211.152599 237.169802 
L 211.925988 238.539959 
L 213.859459 240.521535 
L 214.632848 241.41221 
L 215.019543 241.645714 
L 220.819958 241.645714 
L 223.140125 239.107557 
L 225.073597 237.36928 
L 227.007069 235.981159 
L 228.553846 235.122775 
L 230.100624 234.488492 
L 231.647401 234.07831 
L 233.194179 233.892228 
L 234.740956 233.930247 
L 235.514345 234.033294 
L 235.90104 233.884493 
L 237.061123 232.727645 
L 238.221206 230.641966 
L 239.381289 228.934455 
L 240.541372 227.605115 
L 241.701455 226.653944 
L 242.861538 226.080943 
L 243.248233 225.97398 
L 243.634927 225.727413 
L 244.021622 225.250568 
L 245.955094 221.664144 
L 246.728482 220.488408 
L 247.888565 218.038256 
L 249.048649 216.09233 
L 250.208732 214.457775 
L 251.368815 211.928523 
L 252.528898 208.991237 
L 253.688981 206.530835 
L 254.849064 202.459193 
L 255.235759 201.126341 
L 255.622453 199.190165 
L 256.782536 190.85064 
L 258.329314 178.019394 
L 259.489397 170.458373 
L 261.422869 160.347138 
L 263.743035 148.874197 
L 264.903119 140.050852 
L 266.83659 125.661186 
L 267.609979 121.14022 
L 269.543451 108.095713 
L 271.090229 100.092493 
L 271.863617 97.001433 
L 272.637006 95.188209 
L 273.023701 94.36181 
L 273.410395 93.885569 
L 273.797089 93.759485 
L 274.183784 93.79975 
L 274.570478 93.49868 
L 275.343867 93.426055 
L 275.730561 93.77705 
L 276.117256 93.736524 
L 276.50395 93.020829 
L 276.890644 92.725322 
L 277.277339 92.084727 
L 277.664033 91.691889 
L 279.210811 87.155819 
L 279.9842 84.387906 
L 280.757588 82.51999 
L 281.144283 81.059286 
L 282.69106 72.819694 
L 283.464449 67.940786 
L 284.624532 61.594624 
L 285.011227 60.259615 
L 286.558004 56.675104 
L 286.944699 56.281404 
L 287.331393 56.363918 
L 287.718087 56.922645 
L 289.651559 61.611595 
L 290.038254 61.968958 
L 290.424948 62.559629 
L 290.811642 63.540971 
L 291.585031 64.366902 
L 292.745114 67.20755 
L 293.518503 69.158404 
L 295.065281 71.133455 
L 296.612058 75.086672 
L 297.385447 77.689913 
L 298.158836 81.626615 
L 298.932225 86.619552 
L 300.092308 96.524115 
L 301.252391 107.149915 
L 302.02578 114.747834 
L 303.185863 122.986771 
L 303.572557 125.85387 
L 304.73264 130.613688 
L 308.21289 141.584807 
L 310.919751 152.966251 
L 312.079834 158.618983 
L 312.853222 161.496804 
L 314.4 168.994284 
L 317.493555 183.040596 
L 318.266944 186.161686 
L 319.040333 188.7427 
L 320.973805 195.966136 
L 321.360499 197.166555 
L 324.454054 202.520042 
L 325.227443 204.442847 
L 326.387526 208.062385 
L 327.547609 211.914796 
L 327.934304 212.791961 
L 328.707692 213.698279 
L 329.094387 214.277494 
L 329.481081 214.59913 
L 330.641164 214.400841 
L 331.027859 214.358612 
L 331.801247 213.800702 
L 332.574636 213.522917 
L 333.348025 213.525259 
L 334.121414 213.807726 
L 334.894802 214.370319 
L 335.668191 215.213037 
L 336.44158 216.335881 
L 338.761746 220.1853 
L 339.92183 222.088897 
L 341.081913 224.496719 
L 341.468607 225.337896 
L 342.241996 226.370053 
L 343.402079 226.780057 
L 344.562162 227.434025 
L 345.722245 228.340107 
L 346.882328 229.498301 
L 348.429106 231.434736 
L 349.975884 233.819373 
L 351.522661 236.65221 
L 353.069439 239.544647 
L 355.002911 241.645714 
L 414.553846 241.645714 
L 414.553846 241.645714 
" style="fill:none;stroke:#859900;stroke-width:2;"/>
   </g>
   <g id="line2d_36">
    <defs>
     <path d="M -3 0 
L 3 0 
M 0 3 
L 0 -3 
" id="m320f0088ac" style="stroke:#000000;"/>
    </defs>
    <g clip-path="url(#p3f1afd2624)">
     <use style="stroke:#000000;" x="198.848525" xlink:href="#m320f0088ac" y="248.412785"/>
     <use style="stroke:#000000;" x="141.260304" xlink:href="#m320f0088ac" y="246.242296"/>
     <use style="stroke:#000000;" x="143.412931" xlink:href="#m320f0088ac" y="248.704965"/>
     <use style="stroke:#000000;" x="129.382316" xlink:href="#m320f0088ac" y="248.102241"/>
     <use style="stroke:#000000;" x="179.30296" xlink:href="#m320f0088ac" y="247.114021"/>
     <use style="stroke:#000000;" x="97.741911" xlink:href="#m320f0088ac" y="244.940734"/>
     <use style="stroke:#000000;" x="201.950998" xlink:href="#m320f0088ac" y="244.544488"/>
     <use style="stroke:#000000;" x="137.411379" xlink:href="#m320f0088ac" y="244.862498"/>
     <use style="stroke:#000000;" x="165.231868" xlink:href="#m320f0088ac" y="244.464937"/>
     <use style="stroke:#000000;" x="150.593138" xlink:href="#m320f0088ac" y="244.790798"/>
     <use style="stroke:#000000;" x="194.670287" xlink:href="#m320f0088ac" y="245.402815"/>
     <use style="stroke:#000000;" x="103.958838" xlink:href="#m320f0088ac" y="247.925532"/>
     <use style="stroke:#000000;" x="148.711902" xlink:href="#m320f0088ac" y="247.13202"/>
     <use style="stroke:#000000;" x="147.124508" xlink:href="#m320f0088ac" y="244.29929"/>
     <use style="stroke:#000000;" x="186.214308" xlink:href="#m320f0088ac" y="244.606907"/>
     <use style="stroke:#000000;" x="128.688954" xlink:href="#m320f0088ac" y="249.242013"/>
     <use style="stroke:#000000;" x="152.574695" xlink:href="#m320f0088ac" y="247.175423"/>
     <use style="stroke:#000000;" x="134.407154" xlink:href="#m320f0088ac" y="245.286764"/>
     <use style="stroke:#000000;" x="158.102551" xlink:href="#m320f0088ac" y="245.540612"/>
     <use style="stroke:#000000;" x="172.025118" xlink:href="#m320f0088ac" y="248.085178"/>
     <use style="stroke:#000000;" x="128.670208" xlink:href="#m320f0088ac" y="245.246052"/>
     <use style="stroke:#000000;" x="186.496423" xlink:href="#m320f0088ac" y="247.244064"/>
     <use style="stroke:#000000;" x="180.234813" xlink:href="#m320f0088ac" y="249.256218"/>
     <use style="stroke:#000000;" x="169.956547" xlink:href="#m320f0088ac" y="248.618439"/>
     <use style="stroke:#000000;" x="180.21589" xlink:href="#m320f0088ac" y="245.476012"/>
     <use style="stroke:#000000;" x="139.406763" xlink:href="#m320f0088ac" y="246.790602"/>
     <use style="stroke:#000000;" x="153.850489" xlink:href="#m320f0088ac" y="247.443885"/>
     <use style="stroke:#000000;" x="132.915723" xlink:href="#m320f0088ac" y="248.526038"/>
     <use style="stroke:#000000;" x="150.116236" xlink:href="#m320f0088ac" y="245.046017"/>
     <use style="stroke:#000000;" x="170.674078" xlink:href="#m320f0088ac" y="244.330457"/>
     <use style="stroke:#000000;" x="267.971691" xlink:href="#m320f0088ac" y="244.5968"/>
     <use style="stroke:#000000;" x="275.566686" xlink:href="#m320f0088ac" y="246.752164"/>
     <use style="stroke:#000000;" x="268.087275" xlink:href="#m320f0088ac" y="247.37334"/>
     <use style="stroke:#000000;" x="264.017319" xlink:href="#m320f0088ac" y="247.179311"/>
     <use style="stroke:#000000;" x="268.497446" xlink:href="#m320f0088ac" y="245.877316"/>
     <use style="stroke:#000000;" x="285.458453" xlink:href="#m320f0088ac" y="249.352493"/>
     <use style="stroke:#000000;" x="257.009577" xlink:href="#m320f0088ac" y="247.23571"/>
     <use style="stroke:#000000;" x="291.821721" xlink:href="#m320f0088ac" y="246.202331"/>
     <use style="stroke:#000000;" x="328.530905" xlink:href="#m320f0088ac" y="247.086623"/>
     <use style="stroke:#000000;" x="304.895107" xlink:href="#m320f0088ac" y="248.092989"/>
     <use style="stroke:#000000;" x="280.844112" xlink:href="#m320f0088ac" y="247.699"/>
     <use style="stroke:#000000;" x="262.924756" xlink:href="#m320f0088ac" y="245.605812"/>
     <use style="stroke:#000000;" x="266.542416" xlink:href="#m320f0088ac" y="244.577711"/>
     <use style="stroke:#000000;" x="329.371831" xlink:href="#m320f0088ac" y="246.150264"/>
     <use style="stroke:#000000;" x="287.09311" xlink:href="#m320f0088ac" y="247.494423"/>
     <use style="stroke:#000000;" x="269.379528" xlink:href="#m320f0088ac" y="245.322387"/>
     <use style="stroke:#000000;" x="290.701423" xlink:href="#m320f0088ac" y="248.131409"/>
     <use style="stroke:#000000;" x="339.874263" xlink:href="#m320f0088ac" y="244.578755"/>
     <use style="stroke:#000000;" x="288.879171" xlink:href="#m320f0088ac" y="245.581974"/>
     <use style="stroke:#000000;" x="301.679969" xlink:href="#m320f0088ac" y="248.400615"/>
     <use style="stroke:#000000;" x="293.515156" xlink:href="#m320f0088ac" y="245.235723"/>
     <use style="stroke:#000000;" x="276.712827" xlink:href="#m320f0088ac" y="247.544866"/>
     <use style="stroke:#000000;" x="256.360377" xlink:href="#m320f0088ac" y="246.950579"/>
     <use style="stroke:#000000;" x="276.787697" xlink:href="#m320f0088ac" y="249.022149"/>
     <use style="stroke:#000000;" x="280.404785" xlink:href="#m320f0088ac" y="245.597411"/>
     <use style="stroke:#000000;" x="300.892419" xlink:href="#m320f0088ac" y="244.575776"/>
     <use style="stroke:#000000;" x="307.391665" xlink:href="#m320f0088ac" y="248.039827"/>
     <use style="stroke:#000000;" x="309.764075" xlink:href="#m320f0088ac" y="248.231962"/>
     <use style="stroke:#000000;" x="293.139587" xlink:href="#m320f0088ac" y="248.934178"/>
     <use style="stroke:#000000;" x="308.580405" xlink:href="#m320f0088ac" y="249.059238"/>
     <use style="stroke:#000000;" x="266.355967" xlink:href="#m320f0088ac" y="244.306515"/>
     <use style="stroke:#000000;" x="318.050789" xlink:href="#m320f0088ac" y="245.447612"/>
     <use style="stroke:#000000;" x="298.994531" xlink:href="#m320f0088ac" y="247.427435"/>
     <use style="stroke:#000000;" x="278.107578" xlink:href="#m320f0088ac" y="249.147479"/>
     <use style="stroke:#000000;" x="298.365837" xlink:href="#m320f0088ac" y="249.153483"/>
     <use style="stroke:#000000;" x="283.838353" xlink:href="#m320f0088ac" y="247.116159"/>
     <use style="stroke:#000000;" x="314.928425" xlink:href="#m320f0088ac" y="248.974511"/>
     <use style="stroke:#000000;" x="324.925744" xlink:href="#m320f0088ac" y="247.555766"/>
     <use style="stroke:#000000;" x="342.071588" xlink:href="#m320f0088ac" y="246.253411"/>
     <use style="stroke:#000000;" x="249.819464" xlink:href="#m320f0088ac" y="246.750329"/>
     <use style="stroke:#000000;" x="248.593131" xlink:href="#m320f0088ac" y="247.362887"/>
     <use style="stroke:#000000;" x="272.792679" xlink:href="#m320f0088ac" y="247.079374"/>
     <use style="stroke:#000000;" x="289.906185" xlink:href="#m320f0088ac" y="249.029259"/>
     <use style="stroke:#000000;" x="308.349335" xlink:href="#m320f0088ac" y="248.9907"/>
     <use style="stroke:#000000;" x="293.913429" xlink:href="#m320f0088ac" y="246.278613"/>
     <use style="stroke:#000000;" x="233.705156" xlink:href="#m320f0088ac" y="249.221233"/>
     <use style="stroke:#000000;" x="277.898684" xlink:href="#m320f0088ac" y="245.134879"/>
     <use style="stroke:#000000;" x="307.108147" xlink:href="#m320f0088ac" y="244.888312"/>
     <use style="stroke:#000000;" x="291.71044" xlink:href="#m320f0088ac" y="244.93361"/>
     <use style="stroke:#000000;" x="305.409334" xlink:href="#m320f0088ac" y="246.852171"/>
     <use style="stroke:#000000;" x="280.058811" xlink:href="#m320f0088ac" y="244.345723"/>
     <use style="stroke:#000000;" x="280.614323" xlink:href="#m320f0088ac" y="249.142063"/>
     <use style="stroke:#000000;" x="290.589289" xlink:href="#m320f0088ac" y="248.516381"/>
     <use style="stroke:#000000;" x="296.345022" xlink:href="#m320f0088ac" y="244.312041"/>
     <use style="stroke:#000000;" x="290.891596" xlink:href="#m320f0088ac" y="245.146479"/>
     <use style="stroke:#000000;" x="288.849546" xlink:href="#m320f0088ac" y="245.953426"/>
     <use style="stroke:#000000;" x="268.512482" xlink:href="#m320f0088ac" y="244.912475"/>
     <use style="stroke:#000000;" x="295.508335" xlink:href="#m320f0088ac" y="248.425135"/>
     <use style="stroke:#000000;" x="288.921982" xlink:href="#m320f0088ac" y="246.019037"/>
     <use style="stroke:#000000;" x="314.87317" xlink:href="#m320f0088ac" y="249.101356"/>
     <use style="stroke:#000000;" x="316.661362" xlink:href="#m320f0088ac" y="247.247456"/>
     <use style="stroke:#000000;" x="290.553105" xlink:href="#m320f0088ac" y="248.784124"/>
     <use style="stroke:#000000;" x="276.119585" xlink:href="#m320f0088ac" y="248.607597"/>
     <use style="stroke:#000000;" x="269.334851" xlink:href="#m320f0088ac" y="248.921631"/>
     <use style="stroke:#000000;" x="296.691224" xlink:href="#m320f0088ac" y="246.615152"/>
     <use style="stroke:#000000;" x="287.77642" xlink:href="#m320f0088ac" y="247.062801"/>
     <use style="stroke:#000000;" x="276.929061" xlink:href="#m320f0088ac" y="248.368771"/>
     <use style="stroke:#000000;" x="286.907402" xlink:href="#m320f0088ac" y="245.713493"/>
     <use style="stroke:#000000;" x="269.817209" xlink:href="#m320f0088ac" y="246.772398"/>
     <use style="stroke:#000000;" x="303.761625" xlink:href="#m320f0088ac" y="247.335965"/>
    </g>
   </g>
   <g id="patch_4">
    <path d="M 54 252 
L 54 34.56 
" style="fill:none;stroke:#eee8d5;stroke-linecap:square;stroke-linejoin:miter;stroke-width:0.8;"/>
   </g>
   <g id="patch_5">
    <path d="M 388.8 252 
L 388.8 34.56 
" style="fill:none;stroke:#eee8d5;stroke-linecap:square;stroke-linejoin:miter;stroke-width:0.8;"/>
   </g>
   <g id="patch_6">
    <path d="M 54 252 
L 388.8 252 
" style="fill:none;stroke:#eee8d5;stroke-linecap:square;stroke-linejoin:miter;stroke-width:0.8;"/>
   </g>
   <g id="patch_7">
    <path d="M 54 34.56 
L 388.8 34.56 
" style="fill:none;stroke:#eee8d5;stroke-linecap:square;stroke-linejoin:miter;stroke-width:0.8;"/>
   </g>
   <g id="text_17">
    <!-- N=100 points -->
    <g transform="translate(311.538462 44.914286)scale(0.1 -0.1)">
     <defs>
      <path d="M 628 4666 
L 1478 4666 
L 3547 763 
L 3547 4666 
L 4159 4666 
L 4159 0 
L 3309 0 
L 1241 3903 
L 1241 0 
L 628 0 
L 628 4666 
z
" id="DejaVuSans-4e" transform="scale(0.015625)"/>
      <path d="M 678 2906 
L 4684 2906 
L 4684 2381 
L 678 2381 
L 678 2906 
z
M 678 1631 
L 4684 1631 
L 4684 1100 
L 678 1100 
L 678 1631 
z
" id="DejaVuSans-3d" transform="scale(0.015625)"/>
      <path id="DejaVuSans-20" transform="scale(0.015625)"/>
      <path d="M 1159 525 
L 1159 -1331 
L 581 -1331 
L 581 3500 
L 1159 3500 
L 1159 2969 
Q 1341 3281 1617 3432 
Q 1894 3584 2278 3584 
Q 2916 3584 3314 3078 
Q 3713 2572 3713 1747 
Q 3713 922 3314 415 
Q 2916 -91 2278 -91 
Q 1894 -91 1617 61 
Q 1341 213 1159 525 
z
M 3116 1747 
Q 3116 2381 2855 2742 
Q 2594 3103 2138 3103 
Q 1681 3103 1420 2742 
Q 1159 2381 1159 1747 
Q 1159 1113 1420 752 
Q 1681 391 2138 391 
Q 2594 391 2855 752 
Q 3116 1113 3116 1747 
z
" id="DejaVuSans-70" transform="scale(0.015625)"/>
      <path d="M 1959 3097 
Q 1497 3097 1228 2736 
Q 959 2375 959 1747 
Q 959 1119 1226 758 
Q 1494 397 1959 397 
Q 2419 397 2687 759 
Q 2956 1122 2956 1747 
Q 2956 2369 2687 2733 
Q 2419 3097 1959 3097 
z
M 1959 3584 
Q 2709 3584 3137 3096 
Q 3566 2609 3566 1747 
Q 3566 888 3137 398 
Q 2709 -91 1959 -91 
Q 1206 -91 779 398 
Q 353 888 353 1747 
Q 353 2609 779 3096 
Q 1206 3584 1959 3584 
z
" id="DejaVuSans-6f" transform="scale(0.015625)"/>
      <path d="M 603 3500 
L 1178 3500 
L 1178 0 
L 603 0 
L 603 3500 
z
M 603 4863 
L 1178 4863 
L 1178 4134 
L 603 4134 
L 603 4863 
z
" id="DejaVuSans-69" transform="scale(0.015625)"/>
      <path d="M 3513 2113 
L 3513 0 
L 2938 0 
L 2938 2094 
Q 2938 2591 2744 2837 
Q 2550 3084 2163 3084 
Q 1697 3084 1428 2787 
Q 1159 2491 1159 1978 
L 1159 0 
L 581 0 
L 581 3500 
L 1159 3500 
L 1159 2956 
Q 1366 3272 1645 3428 
Q 1925 3584 2291 3584 
Q 2894 3584 3203 3211 
Q 3513 2838 3513 2113 
z
" id="DejaVuSans-6e" transform="scale(0.015625)"/>
      <path d="M 1172 4494 
L 1172 3500 
L 2356 3500 
L 2356 3053 
L 1172 3053 
L 1172 1153 
Q 1172 725 1289 603 
Q 1406 481 1766 481 
L 2356 481 
L 2356 0 
L 1766 0 
Q 1100 0 847 248 
Q 594 497 594 1153 
L 594 3053 
L 172 3053 
L 172 3500 
L 594 3500 
L 594 4494 
L 1172 4494 
z
" id="DejaVuSans-74" transform="scale(0.015625)"/>
      <path d="M 2834 3397 
L 2834 2853 
Q 2591 2978 2328 3040 
Q 2066 3103 1784 3103 
Q 1356 3103 1142 2972 
Q 928 2841 928 2578 
Q 928 2378 1081 2264 
Q 1234 2150 1697 2047 
L 1894 2003 
Q 2506 1872 2764 1633 
Q 3022 1394 3022 966 
Q 3022 478 2636 193 
Q 2250 -91 1575 -91 
Q 1294 -91 989 -36 
Q 684 19 347 128 
L 347 722 
Q 666 556 975 473 
Q 1284 391 1588 391 
Q 1994 391 2212 530 
Q 2431 669 2431 922 
Q 2431 1156 2273 1281 
Q 2116 1406 1581 1522 
L 1381 1569 
Q 847 1681 609 1914 
Q 372 2147 372 2553 
Q 372 3047 722 3315 
Q 1072 3584 1716 3584 
Q 2034 3584 2315 3537 
Q 2597 3491 2834 3397 
z
" id="DejaVuSans-73" transform="scale(0.015625)"/>
     </defs>
     <use xlink:href="#DejaVuSans-4e"/>
     <use x="74.804688" xlink:href="#DejaVuSans-3d"/>
     <use x="158.59375" xlink:href="#DejaVuSans-31"/>
     <use x="222.216797" xlink:href="#DejaVuSans-30"/>
     <use x="285.839844" xlink:href="#DejaVuSans-30"/>
     <use x="349.462891" xlink:href="#DejaVuSans-20"/>
     <use x="381.25" xlink:href="#DejaVuSans-70"/>
     <use x="444.726562" xlink:href="#DejaVuSans-6f"/>
     <use x="505.908203" xlink:href="#DejaVuSans-69"/>
     <use x="533.691406" xlink:href="#DejaVuSans-6e"/>
     <use x="597.070312" xlink:href="#DejaVuSans-74"/>
     <use x="636.279297" xlink:href="#DejaVuSans-73"/>
    </g>
   </g>
   <g id="legend_1">
    <g id="patch_8">
     <path d="M 61 101.2725 
L 213.55625 101.2725 
Q 215.55625 101.2725 215.55625 99.2725 
L 215.55625 41.56 
Q 215.55625 39.56 213.55625 39.56 
L 61 39.56 
Q 59 39.56 59 41.56 
L 59 99.2725 
Q 59 101.2725 61 101.2725 
z
" style="fill:#eee8d5;opacity:0.8;stroke:#cccccc;stroke-linejoin:miter;"/>
    </g>
    <g id="line2d_37">
     <path d="M 63 47.658437 
L 83 47.658437 
" style="fill:none;stroke:#268bd2;stroke-width:2;"/>
    </g>
    <g id="line2d_38"/>
    <g id="text_18">
     <!-- kernel = 'gaussian' -->
     <g transform="translate(91 51.158437)scale(0.1 -0.1)">
      <defs>
       <path d="M 581 4863 
L 1159 4863 
L 1159 1991 
L 2875 3500 
L 3609 3500 
L 1753 1863 
L 3688 0 
L 2938 0 
L 1159 1709 
L 1159 0 
L 581 0 
L 581 4863 
z
" id="DejaVuSans-6b" transform="scale(0.015625)"/>
       <path d="M 3597 1894 
L 3597 1613 
L 953 1613 
Q 991 1019 1311 708 
Q 1631 397 2203 397 
Q 2534 397 2845 478 
Q 3156 559 3463 722 
L 3463 178 
Q 3153 47 2828 -22 
Q 2503 -91 2169 -91 
Q 1331 -91 842 396 
Q 353 884 353 1716 
Q 353 2575 817 3079 
Q 1281 3584 2069 3584 
Q 2775 3584 3186 3129 
Q 3597 2675 3597 1894 
z
M 3022 2063 
Q 3016 2534 2758 2815 
Q 2500 3097 2075 3097 
Q 1594 3097 1305 2825 
Q 1016 2553 972 2059 
L 3022 2063 
z
" id="DejaVuSans-65" transform="scale(0.015625)"/>
       <path d="M 2631 2963 
Q 2534 3019 2420 3045 
Q 2306 3072 2169 3072 
Q 1681 3072 1420 2755 
Q 1159 2438 1159 1844 
L 1159 0 
L 581 0 
L 581 3500 
L 1159 3500 
L 1159 2956 
Q 1341 3275 1631 3429 
Q 1922 3584 2338 3584 
Q 2397 3584 2469 3576 
Q 2541 3569 2628 3553 
L 2631 2963 
z
" id="DejaVuSans-72" transform="scale(0.015625)"/>
       <path d="M 603 4863 
L 1178 4863 
L 1178 0 
L 603 0 
L 603 4863 
z
" id="DejaVuSans-6c" transform="scale(0.015625)"/>
       <path d="M 1147 4666 
L 1147 2931 
L 616 2931 
L 616 4666 
L 1147 4666 
z
" id="DejaVuSans-27" transform="scale(0.015625)"/>
       <path d="M 2906 1791 
Q 2906 2416 2648 2759 
Q 2391 3103 1925 3103 
Q 1463 3103 1205 2759 
Q 947 2416 947 1791 
Q 947 1169 1205 825 
Q 1463 481 1925 481 
Q 2391 481 2648 825 
Q 2906 1169 2906 1791 
z
M 3481 434 
Q 3481 -459 3084 -895 
Q 2688 -1331 1869 -1331 
Q 1566 -1331 1297 -1286 
Q 1028 -1241 775 -1147 
L 775 -588 
Q 1028 -725 1275 -790 
Q 1522 -856 1778 -856 
Q 2344 -856 2625 -561 
Q 2906 -266 2906 331 
L 2906 616 
Q 2728 306 2450 153 
Q 2172 0 1784 0 
Q 1141 0 747 490 
Q 353 981 353 1791 
Q 353 2603 747 3093 
Q 1141 3584 1784 3584 
Q 2172 3584 2450 3431 
Q 2728 3278 2906 2969 
L 2906 3500 
L 3481 3500 
L 3481 434 
z
" id="DejaVuSans-67" transform="scale(0.015625)"/>
       <path d="M 2194 1759 
Q 1497 1759 1228 1600 
Q 959 1441 959 1056 
Q 959 750 1161 570 
Q 1363 391 1709 391 
Q 2188 391 2477 730 
Q 2766 1069 2766 1631 
L 2766 1759 
L 2194 1759 
z
M 3341 1997 
L 3341 0 
L 2766 0 
L 2766 531 
Q 2569 213 2275 61 
Q 1981 -91 1556 -91 
Q 1019 -91 701 211 
Q 384 513 384 1019 
Q 384 1609 779 1909 
Q 1175 2209 1959 2209 
L 2766 2209 
L 2766 2266 
Q 2766 2663 2505 2880 
Q 2244 3097 1772 3097 
Q 1472 3097 1187 3025 
Q 903 2953 641 2809 
L 641 3341 
Q 956 3463 1253 3523 
Q 1550 3584 1831 3584 
Q 2591 3584 2966 3190 
Q 3341 2797 3341 1997 
z
" id="DejaVuSans-61" transform="scale(0.015625)"/>
       <path d="M 544 1381 
L 544 3500 
L 1119 3500 
L 1119 1403 
Q 1119 906 1312 657 
Q 1506 409 1894 409 
Q 2359 409 2629 706 
Q 2900 1003 2900 1516 
L 2900 3500 
L 3475 3500 
L 3475 0 
L 2900 0 
L 2900 538 
Q 2691 219 2414 64 
Q 2138 -91 1772 -91 
Q 1169 -91 856 284 
Q 544 659 544 1381 
z
M 1991 3584 
L 1991 3584 
z
" id="DejaVuSans-75" transform="scale(0.015625)"/>
      </defs>
      <use xlink:href="#DejaVuSans-6b"/>
      <use x="54.285156" xlink:href="#DejaVuSans-65"/>
      <use x="115.808594" xlink:href="#DejaVuSans-72"/>
      <use x="155.171875" xlink:href="#DejaVuSans-6e"/>
      <use x="218.550781" xlink:href="#DejaVuSans-65"/>
      <use x="280.074219" xlink:href="#DejaVuSans-6c"/>
      <use x="307.857422" xlink:href="#DejaVuSans-20"/>
      <use x="339.644531" xlink:href="#DejaVuSans-3d"/>
      <use x="423.433594" xlink:href="#DejaVuSans-20"/>
      <use x="455.220703" xlink:href="#DejaVuSans-27"/>
      <use x="482.710938" xlink:href="#DejaVuSans-67"/>
      <use x="546.1875" xlink:href="#DejaVuSans-61"/>
      <use x="607.466797" xlink:href="#DejaVuSans-75"/>
      <use x="670.845703" xlink:href="#DejaVuSans-73"/>
      <use x="722.945312" xlink:href="#DejaVuSans-73"/>
      <use x="775.044922" xlink:href="#DejaVuSans-69"/>
      <use x="802.828125" xlink:href="#DejaVuSans-61"/>
      <use x="864.107422" xlink:href="#DejaVuSans-6e"/>
      <use x="927.486328" xlink:href="#DejaVuSans-27"/>
     </g>
    </g>
    <g id="line2d_39">
     <path d="M 63 62.336562 
L 83 62.336562 
" style="fill:none;stroke:#2aa198;stroke-width:2;"/>
    </g>
    <g id="line2d_40"/>
    <g id="text_19">
     <!-- kernel = 'tophat' -->
     <g transform="translate(91 65.836562)scale(0.1 -0.1)">
      <defs>
       <path d="M 3513 2113 
L 3513 0 
L 2938 0 
L 2938 2094 
Q 2938 2591 2744 2837 
Q 2550 3084 2163 3084 
Q 1697 3084 1428 2787 
Q 1159 2491 1159 1978 
L 1159 0 
L 581 0 
L 581 4863 
L 1159 4863 
L 1159 2956 
Q 1366 3272 1645 3428 
Q 1925 3584 2291 3584 
Q 2894 3584 3203 3211 
Q 3513 2838 3513 2113 
z
" id="DejaVuSans-68" transform="scale(0.015625)"/>
      </defs>
      <use xlink:href="#DejaVuSans-6b"/>
      <use x="54.285156" xlink:href="#DejaVuSans-65"/>
      <use x="115.808594" xlink:href="#DejaVuSans-72"/>
      <use x="155.171875" xlink:href="#DejaVuSans-6e"/>
      <use x="218.550781" xlink:href="#DejaVuSans-65"/>
      <use x="280.074219" xlink:href="#DejaVuSans-6c"/>
      <use x="307.857422" xlink:href="#DejaVuSans-20"/>
      <use x="339.644531" xlink:href="#DejaVuSans-3d"/>
      <use x="423.433594" xlink:href="#DejaVuSans-20"/>
      <use x="455.220703" xlink:href="#DejaVuSans-27"/>
      <use x="482.710938" xlink:href="#DejaVuSans-74"/>
      <use x="521.919922" xlink:href="#DejaVuSans-6f"/>
      <use x="583.101562" xlink:href="#DejaVuSans-70"/>
      <use x="646.578125" xlink:href="#DejaVuSans-68"/>
      <use x="709.957031" xlink:href="#DejaVuSans-61"/>
      <use x="771.236328" xlink:href="#DejaVuSans-74"/>
      <use x="810.445312" xlink:href="#DejaVuSans-27"/>
     </g>
    </g>
    <g id="line2d_41">
     <path d="M 63 77.014687 
L 83 77.014687 
" style="fill:none;stroke:#859900;stroke-width:2;"/>
    </g>
    <g id="line2d_42"/>
    <g id="text_20">
     <!-- kernel = 'epanechnikov' -->
     <g transform="translate(91 80.514687)scale(0.1 -0.1)">
      <defs>
       <path d="M 3122 3366 
L 3122 2828 
Q 2878 2963 2633 3030 
Q 2388 3097 2138 3097 
Q 1578 3097 1268 2742 
Q 959 2388 959 1747 
Q 959 1106 1268 751 
Q 1578 397 2138 397 
Q 2388 397 2633 464 
Q 2878 531 3122 666 
L 3122 134 
Q 2881 22 2623 -34 
Q 2366 -91 2075 -91 
Q 1284 -91 818 406 
Q 353 903 353 1747 
Q 353 2603 823 3093 
Q 1294 3584 2113 3584 
Q 2378 3584 2631 3529 
Q 2884 3475 3122 3366 
z
" id="DejaVuSans-63" transform="scale(0.015625)"/>
       <path d="M 191 3500 
L 800 3500 
L 1894 563 
L 2988 3500 
L 3597 3500 
L 2284 0 
L 1503 0 
L 191 3500 
z
" id="DejaVuSans-76" transform="scale(0.015625)"/>
      </defs>
      <use xlink:href="#DejaVuSans-6b"/>
      <use x="54.285156" xlink:href="#DejaVuSans-65"/>
      <use x="115.808594" xlink:href="#DejaVuSans-72"/>
      <use x="155.171875" xlink:href="#DejaVuSans-6e"/>
      <use x="218.550781" xlink:href="#DejaVuSans-65"/>
      <use x="280.074219" xlink:href="#DejaVuSans-6c"/>
      <use x="307.857422" xlink:href="#DejaVuSans-20"/>
      <use x="339.644531" xlink:href="#DejaVuSans-3d"/>
      <use x="423.433594" xlink:href="#DejaVuSans-20"/>
      <use x="455.220703" xlink:href="#DejaVuSans-27"/>
      <use x="482.710938" xlink:href="#DejaVuSans-65"/>
      <use x="544.234375" xlink:href="#DejaVuSans-70"/>
      <use x="607.710938" xlink:href="#DejaVuSans-61"/>
      <use x="668.990234" xlink:href="#DejaVuSans-6e"/>
      <use x="732.369141" xlink:href="#DejaVuSans-65"/>
      <use x="793.892578" xlink:href="#DejaVuSans-63"/>
      <use x="848.873047" xlink:href="#DejaVuSans-68"/>
      <use x="912.251953" xlink:href="#DejaVuSans-6e"/>
      <use x="975.630859" xlink:href="#DejaVuSans-69"/>
      <use x="1003.414062" xlink:href="#DejaVuSans-6b"/>
      <use x="1057.699219" xlink:href="#DejaVuSans-6f"/>
      <use x="1118.880859" xlink:href="#DejaVuSans-76"/>
      <use x="1178.060547" xlink:href="#DejaVuSans-27"/>
     </g>
    </g>
    <g id="patch_9">
     <path d="M 63 95.192813 
L 83 95.192813 
L 83 88.192813 
L 63 88.192813 
z
" style="opacity:0.2;"/>
    </g>
    <g id="text_21">
     <!-- input distribution -->
     <g transform="translate(91 95.192813)scale(0.1 -0.1)">
      <defs>
       <path d="M 2906 2969 
L 2906 4863 
L 3481 4863 
L 3481 0 
L 2906 0 
L 2906 525 
Q 2725 213 2448 61 
Q 2172 -91 1784 -91 
Q 1150 -91 751 415 
Q 353 922 353 1747 
Q 353 2572 751 3078 
Q 1150 3584 1784 3584 
Q 2172 3584 2448 3432 
Q 2725 3281 2906 2969 
z
M 947 1747 
Q 947 1113 1208 752 
Q 1469 391 1925 391 
Q 2381 391 2643 752 
Q 2906 1113 2906 1747 
Q 2906 2381 2643 2742 
Q 2381 3103 1925 3103 
Q 1469 3103 1208 2742 
Q 947 2381 947 1747 
z
" id="DejaVuSans-64" transform="scale(0.015625)"/>
       <path d="M 3116 1747 
Q 3116 2381 2855 2742 
Q 2594 3103 2138 3103 
Q 1681 3103 1420 2742 
Q 1159 2381 1159 1747 
Q 1159 1113 1420 752 
Q 1681 391 2138 391 
Q 2594 391 2855 752 
Q 3116 1113 3116 1747 
z
M 1159 2969 
Q 1341 3281 1617 3432 
Q 1894 3584 2278 3584 
Q 2916 3584 3314 3078 
Q 3713 2572 3713 1747 
Q 3713 922 3314 415 
Q 2916 -91 2278 -91 
Q 1894 -91 1617 61 
Q 1341 213 1159 525 
L 1159 0 
L 581 0 
L 581 4863 
L 1159 4863 
L 1159 2969 
z
" id="DejaVuSans-62" transform="scale(0.015625)"/>
      </defs>
      <use xlink:href="#DejaVuSans-69"/>
      <use x="27.783203" xlink:href="#DejaVuSans-6e"/>
      <use x="91.162109" xlink:href="#DejaVuSans-70"/>
      <use x="154.638672" xlink:href="#DejaVuSans-75"/>
      <use x="218.017578" xlink:href="#DejaVuSans-74"/>
      <use x="257.226562" xlink:href="#DejaVuSans-20"/>
      <use x="289.013672" xlink:href="#DejaVuSans-64"/>
      <use x="352.490234" xlink:href="#DejaVuSans-69"/>
      <use x="380.273438" xlink:href="#DejaVuSans-73"/>
      <use x="432.373047" xlink:href="#DejaVuSans-74"/>
      <use x="471.582031" xlink:href="#DejaVuSans-72"/>
      <use x="512.695312" xlink:href="#DejaVuSans-69"/>
      <use x="540.478516" xlink:href="#DejaVuSans-62"/>
      <use x="603.955078" xlink:href="#DejaVuSans-75"/>
      <use x="667.333984" xlink:href="#DejaVuSans-74"/>
      <use x="706.542969" xlink:href="#DejaVuSans-69"/>
      <use x="734.326172" xlink:href="#DejaVuSans-6f"/>
      <use x="795.507812" xlink:href="#DejaVuSans-6e"/>
     </g>
    </g>
   </g>
  </g>
 </g>
 <defs>
  <clipPath id="p3f1afd2624">
   <rect height="217.44" width="334.8" x="54" y="34.56"/>
  </clipPath>
 </defs>
</svg>
