<?xml version="1.0" encoding="UTF-8" standalone="no"?>
<svg
   height="266.91199pt"
   version="1.1"
   viewBox="0 0 357.92002 266.91198"
   width="357.92001pt"
   id="svg314"
   sodipodi:docname="ReLU.svg"
   inkscape:version="1.1.1 (3bf5ae0d25, 2021-09-20)"
   xmlns:inkscape="http://www.inkscape.org/namespaces/inkscape"
   xmlns:sodipodi="http://sodipodi.sourceforge.net/DTD/sodipodi-0.dtd"
   xmlns:xlink="http://www.w3.org/1999/xlink"
   xmlns="http://www.w3.org/2000/svg"
   xmlns:svg="http://www.w3.org/2000/svg"
   xmlns:rdf="http://www.w3.org/1999/02/22-rdf-syntax-ns#"
   xmlns:cc="http://creativecommons.org/ns#"
   xmlns:dc="http://purl.org/dc/elements/1.1/">
  <sodipodi:namedview
     id="namedview316"
     pagecolor="#ffffff"
     bordercolor="#666666"
     borderopacity="1.0"
     inkscape:pageshadow="2"
     inkscape:pageopacity="0.0"
     inkscape:pagecheckerboard="0"
     inkscape:document-units="pt"
     showgrid="false"
     inkscape:zoom="1.8945312"
     inkscape:cx="230.92784"
     inkscape:cy="175.24124"
     inkscape:window-width="3840"
     inkscape:window-height="2106"
     inkscape:window-x="0"
     inkscape:window-y="54"
     inkscape:window-maximized="1"
     inkscape:current-layer="svg314" />
  <metadata
     id="metadata2">
    <rdf:RDF>
      <cc:Work>
        <dc:type
           rdf:resource="http://purl.org/dc/dcmitype/StillImage" />
        <dc:date>2021-10-20T07:53:25.934120</dc:date>
        <dc:format>image/svg+xml</dc:format>
        <dc:creator>
          <cc:Agent>
            <dc:title>Matplotlib v3.4.3, https://matplotlib.org/</dc:title>
          </cc:Agent>
        </dc:creator>
      </cc:Work>
    </rdf:RDF>
  </metadata>
  <defs
     id="defs6">
    <style
       type="text/css"
       id="style4">*{stroke-linecap:butt;stroke-linejoin:round;}</style>
  </defs>
  <path
     d="m -57.2,304.528 h 460.8 v -345.6 H -57.2 Z"
     style="fill:none"
     id="path8" />
  <g
     id="line2d_18"
     transform="translate(-57.2,-41.072)" />
  <g
     id="line2d_20"
     transform="translate(-57.2,-41.072)" />
  <g
     id="line2d_22"
     transform="translate(-57.2,-41.072)" />
  <g
     id="line2d_24"
     transform="translate(-57.2,-41.072)" />
  <g
     id="g1136"
     transform="translate(-57.2,-41.072)">
    <path
       d="M 57.6,307.584 H 414.72 V 41.472 H 57.6 Z"
       style="fill:none"
       id="path11" />
    <g
       id="xtick_1">
      <g
         id="line2d_1">
        <defs
           id="defs15">
          <path
             d="M 0,0 V -3.5"
             id="m7ba218db9c"
             style="stroke:#586e75;stroke-width:0.8" />
        </defs>
        <g
           id="g19">
          <use
             style="fill:#586e75;stroke:#586e75;stroke-width:0.8"
             x="96.112938"
             xlink:href="#m7ba218db9c"
             y="260.37057"
             id="use17"
             width="100%"
             height="100%" />
        </g>
      </g>
      <g
         id="text_1">
        <!-- −4 -->
        <g
           style="fill:#586e75"
           transform="matrix(0.1,0,0,-0.1,88.741847,251.29089)"
           id="g30">
          <defs
             id="defs24">
            <path
               d="M 678,2272 H 4684 V 1741 H 678 Z"
               id="DejaVuSans-2212"
               transform="scale(0.015625)" />
            <path
               d="M 2419,4116 825,1625 h 1594 z m -166,550 h 794 V 1625 h 666 V 1100 H 3047 V 0 H 2419 V 1100 H 313 v 609 z"
               id="DejaVuSans-34"
               transform="scale(0.015625)" />
          </defs>
          <use
             xlink:href="#DejaVuSans-2212"
             id="use26"
             x="0"
             y="0"
             width="100%"
             height="100%" />
          <use
             x="83.789062"
             xlink:href="#DejaVuSans-34"
             id="use28"
             y="0"
             width="100%"
             height="100%" />
        </g>
      </g>
    </g>
    <g
       id="xtick_2">
      <g
         id="line2d_2">
        <g
           id="g36">
          <use
             style="fill:#586e75;stroke:#586e75;stroke-width:0.8"
             x="166.13647"
             xlink:href="#m7ba218db9c"
             y="260.37057"
             id="use34"
             width="100%"
             height="100%" />
        </g>
      </g>
      <g
         id="text_2">
        <!-- −2 -->
        <g
           style="fill:#586e75"
           transform="matrix(0.1,0,0,-0.1,158.76538,251.29089)"
           id="g46">
          <defs
             id="defs40">
            <path
               d="M 1228,531 H 3431 V 0 H 469 v 531 q 359,372 979,998 621,627 780,809 303,340 423,576 121,236 121,464 0,372 -261,606 -261,235 -680,235 -297,0 -627,-103 -329,-103 -704,-313 v 638 q 381,153 712,231 332,78 607,78 725,0 1156,-363 431,-362 431,-968 0,-288 -108,-546 -107,-257 -392,-607 -78,-91 -497,-524 Q 1991,1309 1228,531 Z"
               id="DejaVuSans-32"
               transform="scale(0.015625)" />
          </defs>
          <use
             xlink:href="#DejaVuSans-2212"
             id="use42"
             x="0"
             y="0"
             width="100%"
             height="100%" />
          <use
             x="83.789062"
             xlink:href="#DejaVuSans-32"
             id="use44"
             y="0"
             width="100%"
             height="100%" />
        </g>
      </g>
    </g>
    <g
       id="xtick_3">
      <g
         id="line2d_3">
        <g
           id="g52">
          <use
             style="fill:#586e75;stroke:#586e75;stroke-width:0.8"
             x="236.16"
             xlink:href="#m7ba218db9c"
             y="260.37057"
             id="use50"
             width="100%"
             height="100%" />
        </g>
      </g>
      <g
         id="text_3">
        <!-- 0 -->
        <g
           style="fill:#586e75"
           transform="matrix(0.1,0,0,-0.1,232.97875,251.29089)"
           id="g60">
          <defs
             id="defs56">
            <path
               d="m 2034,4250 q -487,0 -733,-480 -245,-479 -245,-1442 0,-959 245,-1439 246,-480 733,-480 491,0 736,480 246,480 246,1439 0,963 -246,1442 -245,480 -736,480 z m 0,500 q 785,0 1199,-621 414,-620 414,-1801 0,-1178 -414,-1799 -414,-620 -1199,-620 -784,0 -1198,620 -414,621 -414,1799 0,1181 414,1801 414,621 1198,621 z"
               id="DejaVuSans-30"
               transform="scale(0.015625)" />
          </defs>
          <use
             xlink:href="#DejaVuSans-30"
             id="use58"
             x="0"
             y="0"
             width="100%"
             height="100%" />
        </g>
      </g>
    </g>
    <g
       id="xtick_4">
      <g
         id="line2d_4">
        <g
           id="g66">
          <use
             style="fill:#586e75;stroke:#586e75;stroke-width:0.8"
             x="306.18353"
             xlink:href="#m7ba218db9c"
             y="260.37057"
             id="use64"
             width="100%"
             height="100%" />
        </g>
      </g>
      <g
         id="text_4">
        <!-- 2 -->
        <g
           style="fill:#586e75"
           transform="matrix(0.1,0,0,-0.1,303.00228,251.29089)"
           id="g71">
          <use
             xlink:href="#DejaVuSans-32"
             id="use69"
             x="0"
             y="0"
             width="100%"
             height="100%" />
        </g>
      </g>
    </g>
    <g
       id="xtick_5">
      <g
         id="line2d_5">
        <g
           id="g77">
          <use
             style="fill:#586e75;stroke:#586e75;stroke-width:0.8"
             x="376.20706"
             xlink:href="#m7ba218db9c"
             y="260.37057"
             id="use75"
             width="100%"
             height="100%" />
        </g>
      </g>
      <g
         id="text_5">
        <!-- 4 -->
        <g
           style="fill:#586e75"
           transform="matrix(0.1,0,0,-0.1,373.02581,251.29089)"
           id="g82">
          <use
             xlink:href="#DejaVuSans-34"
             id="use80"
             x="0"
             y="0"
             width="100%"
             height="100%" />
        </g>
      </g>
    </g>
    <g
       id="ytick_1">
      <g
         id="line2d_6">
        <defs
           id="defs88">
          <path
             d="M 0,0 H 3.5"
             id="m7e6910a780"
             style="stroke:#586e75;stroke-width:0.8" />
        </defs>
        <g
           id="g92">
          <use
             style="fill:#586e75;stroke:#586e75;stroke-width:0.8"
             x="236.16"
             xlink:href="#m7e6910a780"
             y="303.29187"
             id="use90"
             width="100%"
             height="100%" />
        </g>
      </g>
      <g
         id="text_6">
        <!-- −1 -->
        <g
           style="fill:#586e75"
           transform="matrix(0.1,0,0,-0.1,243.16,307.09109)"
           id="g102">
          <defs
             id="defs96">
            <path
               d="M 794,531 H 1825 V 4091 L 703,3866 v 575 l 1116,225 h 631 V 531 H 3481 V 0 H 794 Z"
               id="DejaVuSans-31"
               transform="scale(0.015625)" />
          </defs>
          <use
             xlink:href="#DejaVuSans-2212"
             id="use98"
             x="0"
             y="0"
             width="100%"
             height="100%" />
          <use
             x="83.789062"
             xlink:href="#DejaVuSans-31"
             id="use100"
             y="0"
             width="100%"
             height="100%" />
        </g>
      </g>
    </g>
    <g
       id="ytick_2">
      <g
         id="line2d_7">
        <g
           id="g108">
          <use
             style="fill:#586e75;stroke:#586e75;stroke-width:0.8"
             x="236.16"
             xlink:href="#m7e6910a780"
             y="260.37057"
             id="use106"
             width="100%"
             height="100%" />
        </g>
      </g>
      <g
         id="text_7">
        <!-- 0 -->
        <g
           style="fill:#586e75"
           transform="matrix(0.1,0,0,-0.1,243.16,264.1698)"
           id="g113">
          <use
             xlink:href="#DejaVuSans-30"
             id="use111"
             x="0"
             y="0"
             width="100%"
             height="100%" />
        </g>
      </g>
    </g>
    <g
       id="ytick_3">
      <g
         id="line2d_8">
        <g
           id="g119">
          <use
             style="fill:#586e75;stroke:#586e75;stroke-width:0.8"
             x="236.16"
             xlink:href="#m7e6910a780"
             y="217.4493"
             id="use117"
             width="100%"
             height="100%" />
        </g>
      </g>
      <g
         id="text_8">
        <!-- 1 -->
        <g
           style="fill:#586e75"
           transform="matrix(0.1,0,0,-0.1,243.16,221.24851)"
           id="g124">
          <use
             xlink:href="#DejaVuSans-31"
             id="use122"
             x="0"
             y="0"
             width="100%"
             height="100%" />
        </g>
      </g>
    </g>
    <g
       id="ytick_4">
      <g
         id="line2d_9">
        <g
           id="g130">
          <use
             style="fill:#586e75;stroke:#586e75;stroke-width:0.8"
             x="236.16"
             xlink:href="#m7e6910a780"
             y="174.528"
             id="use128"
             width="100%"
             height="100%" />
        </g>
      </g>
      <g
         id="text_9">
        <!-- 2 -->
        <g
           style="fill:#586e75"
           transform="matrix(0.1,0,0,-0.1,243.16,178.32722)"
           id="g135">
          <use
             xlink:href="#DejaVuSans-32"
             id="use133"
             x="0"
             y="0"
             width="100%"
             height="100%" />
        </g>
      </g>
    </g>
    <g
       id="ytick_5">
      <g
         id="line2d_10">
        <g
           id="g141">
          <use
             style="fill:#586e75;stroke:#586e75;stroke-width:0.8"
             x="236.16"
             xlink:href="#m7e6910a780"
             y="131.6067"
             id="use139"
             width="100%"
             height="100%" />
        </g>
      </g>
      <g
         id="text_10">
        <!-- 3 -->
        <g
           style="fill:#586e75"
           transform="matrix(0.1,0,0,-0.1,243.16,135.40593)"
           id="g149">
          <defs
             id="defs145">
            <path
               d="m 2597,2516 q 453,-97 707,-404 255,-306 255,-756 0,-690 -475,-1069 -475,-378 -1350,-378 -293,0 -604,58 -311,58 -642,174 v 609 q 262,-153 574,-231 313,-78 654,-78 593,0 904,234 311,234 311,681 0,413 -289,645 -289,233 -804,233 h -544 v 519 h 569 q 465,0 712,186 247,186 247,536 0,359 -255,551 -254,193 -729,193 -260,0 -557,-57 -297,-56 -653,-174 v 562 q 360,100 674,150 314,50 592,50 719,0 1137,-327 419,-326 419,-882 0,-388 -222,-655 -222,-267 -631,-370 z"
               id="DejaVuSans-33"
               transform="scale(0.015625)" />
          </defs>
          <use
             xlink:href="#DejaVuSans-33"
             id="use147"
             x="0"
             y="0"
             width="100%"
             height="100%" />
        </g>
      </g>
    </g>
    <g
       id="ytick_6">
      <g
         id="line2d_11">
        <g
           id="g155">
          <use
             style="fill:#586e75;stroke:#586e75;stroke-width:0.8"
             x="236.16"
             xlink:href="#m7e6910a780"
             y="88.685417"
             id="use153"
             width="100%"
             height="100%" />
        </g>
      </g>
      <g
         id="text_11">
        <!-- 4 -->
        <g
           style="fill:#586e75"
           transform="matrix(0.1,0,0,-0.1,243.16,92.484638)"
           id="g160">
          <use
             xlink:href="#DejaVuSans-34"
             id="use158"
             x="0"
             y="0"
             width="100%"
             height="100%" />
        </g>
      </g>
    </g>
    <g
       id="ytick_7">
      <g
         id="line2d_12">
        <g
           id="g166">
          <use
             style="fill:#586e75;stroke:#586e75;stroke-width:0.8"
             x="236.16"
             xlink:href="#m7e6910a780"
             y="45.76413"
             id="use164"
             width="100%"
             height="100%" />
        </g>
      </g>
      <g
         id="text_12">
        <!-- 5 -->
        <g
           style="fill:#586e75"
           transform="matrix(0.1,0,0,-0.1,243.16,49.563348)"
           id="g174">
          <defs
             id="defs170">
            <path
               d="M 691,4666 H 3169 V 4134 H 1269 V 2991 q 137,47 274,70 138,23 276,23 781,0 1237,-428 457,-428 457,-1159 Q 3513,744 3044,326 2575,-91 1722,-91 1428,-91 1123,-41 819,9 494,109 v 635 q 281,-153 581,-228 300,-75 634,-75 541,0 856,284 316,284 316,772 0,487 -316,771 -315,285 -856,285 -253,0 -505,-56 -251,-56 -513,-175 z"
               id="DejaVuSans-35"
               transform="scale(0.015625)" />
          </defs>
          <use
             xlink:href="#DejaVuSans-35"
             id="use172"
             x="0"
             y="0"
             width="100%"
             height="100%" />
        </g>
      </g>
    </g>
    <path
       clip-path="url(#pafaa66a449)"
       d="M 61.101176,260.37058 H 236.16 L 410.51859,46.622555 v 0"
       style="fill:none;stroke:#b58900;stroke-width:2;stroke-linecap:square"
       id="path179" />
    <path
       clip-path="url(#pafaa66a449)"
       d="M 61.101176,303.29187 236.16,260.37058 410.51859,46.622555 v 0"
       style="fill:none;stroke:#268bd2;stroke-width:2;stroke-dasharray:7.4, 3.2;stroke-dashoffset:0"
       id="path182" />
    <path
       clip-path="url(#pafaa66a449)"
       d="m 61.101176,281.68662 35.712,-0.2564 23.107764,-0.37486 16.80565,-0.47799 14.0047,-0.61667 11.20377,-0.70543 9.80329,-0.83237 8.40283,-0.9245 7.70258,-1.06621 7.00236,-1.19536 6.30211,-1.30053 5.60189,-1.36986 5.60188,-1.60754 4.90165,-1.63383 4.90164,-1.87935 4.20142,-1.8341 4.20141,-2.06795 4.20141,-2.33161 1.40047,-0.84148 174.35859,-213.748025 v 0"
       style="fill:none;stroke:#dc322f;stroke-width:2;stroke-dasharray:2, 3.3;stroke-dashoffset:0"
       id="path185" />
    <path
       clip-path="url(#pafaa66a449)"
       d="m 61.101176,260.08235 26.608942,-0.32575 19.606592,-0.45519 15.40517,-0.57971 12.60424,-0.6953 10.50353,-0.79081 9.80329,-0.96594 8.40282,-1.04799 7.70259,-1.17768 7.00236,-1.28301 7.00235,-1.51677 6.30212,-1.59153 6.30211,-1.83089 5.60189,-1.8476 5.60188,-2.07137 5.60188,-2.30978 5.60188,-2.56096 5.60189,-2.82254 5.60188,-3.09166 5.60188,-3.36507 5.60188,-3.63937 5.60189,-3.91106 5.60188,-4.17678 5.60188,-4.4335 6.30212,-5.27994 6.30211,-5.57028 7.00236,-6.50277 7.00235,-6.80156 7.70259,-7.78761 8.40282,-8.81246 9.10306,-9.86156 10.50353,-11.71043 11.904,-13.60828 14.00471,-16.3496 17.50588,-20.79405 22.40753,-26.977298 22.40753,-27.207731 v 0"
       style="fill:none;stroke:#d33682;stroke-width:2;stroke-dasharray:12.8, 3.2, 2, 3.2;stroke-dashoffset:0"
       id="path188" />
    <path
       d="M 236.16,307.584 V 41.472"
       style="fill:none;stroke:#586e75;stroke-width:0.8;stroke-linecap:square;stroke-linejoin:miter"
       id="path191" />
    <path
       d="M 236.16,307.584 V 41.472"
       style="fill:none;stroke:#586e75;stroke-width:0.8;stroke-linecap:square;stroke-linejoin:miter"
       id="path194" />
    <path
       d="M 57.6,260.37058 H 414.72"
       style="fill:none;stroke:#586e75;stroke-width:0.8;stroke-linecap:square;stroke-linejoin:miter"
       id="path197" />
    <path
       d="M 57.6,260.37058 H 414.72"
       style="fill:none;stroke:#586e75;stroke-width:0.8;stroke-linecap:square;stroke-linejoin:miter"
       id="path200" />
    <g
       id="line2d_17">
      <path
         d="m 71.1,60.297 h 30"
         style="fill:none;stroke:#b58900;stroke-width:2;stroke-linecap:square"
         id="path206" />
    </g>
    <g
       id="text_13">
      <!-- ReLU -->
      <g
         style="fill:#586e75"
         transform="matrix(0.15,0,0,-0.15,113.1,65.547)"
         id="g224">
        <defs
           id="defs214">
          <path
             d="m 4077,-134 q -179,0 -339,29 -160,28 -295,105 -134,77 -249,211 -154,192 -295,368 -141,176 -298,406 -156,231 -380,589 -96,160 -275,250 -141,70 -279,99 -137,29 -227,35 -51,7 -74,-32 -22,-38 -22,-96 V 704 q 0,-205 96,-356 96,-150 333,-194 109,-20 160,-46 51,-25 51,-70 0,-38 -51,-54 -51,-16 -135,-16 -172,0 -265,13 -93,13 -167,22 -73,10 -195,10 Q 1011,13 886,3 762,-6 637,-19 512,-32 339,-32 q -83,0 -134,16 -51,16 -51,54 0,77 211,116 243,44 355,146 112,103 112,340 v 2726 q 0,244 -23,368 -22,125 -102,176 -80,52 -265,71 -109,13 -161,48 -51,35 -51,80 0,38 51,54 52,16 135,16 173,0 259,0 87,0 163,-3 77,-3 205,-3 122,0 218,9 96,10 214,16 119,7 304,7 704,0 1072,-263 368,-262 368,-787 0,-288 -115,-496 -115,-208 -288,-349 -173,-140 -352,-230 -26,-6 -23,-29 4,-22 23,-54 198,-301 380,-570 183,-269 400,-525 218,-256 519,-531 167,-147 339,-179 173,-32 397,-32 96,0 96,-70 0,-96 -96,-144 -96,-48 -218,-64 -121,-16 -204,-16 z M 1683,2106 q 295,0 509,134 214,134 332,352 119,218 119,461 0,262 -67,479 -67,218 -269,349 -201,132 -605,132 -204,0 -268,-132 -64,-131 -77,-463 -7,-160 -10,-432 -3,-272 -3,-656 0,-160 89,-192 90,-32 250,-32 z"
             id="EBGaramond-Regular-52"
             transform="scale(0.015625)" />
          <path
             d="M 1363,-96 Q 1011,-96 748,77 486,250 339,566 192,883 192,1299 q 0,371 169,675 170,304 451,490 282,186 615,186 256,0 454,-103 199,-102 311,-285 112,-182 112,-419 0,-198 -192,-198 H 762 q -90,0 -125,-48 -35,-48 -35,-189 0,-307 134,-560 134,-253 358,-404 224,-150 493,-150 192,0 349,74 157,74 278,214 26,32 39,42 13,10 32,10 51,0 51,-64 0,-122 -115,-269 Q 2125,179 1990,89 1856,0 1696,-48 1536,-96 1363,-96 Z M 774,1843 h 583 q 153,0 262,6 109,7 211,26 32,7 42,42 10,35 10,99 0,186 -164,317 -163,131 -387,131 -147,0 -294,-87 -147,-86 -243,-214 -96,-128 -96,-256 0,-64 76,-64 z"
             id="EBGaramond-Regular-65"
             transform="scale(0.015625)" />
          <path
             d="m 352,-32 q -83,0 -131,23 -48,22 -48,54 0,57 60,79 61,23 81,30 249,51 383,150 135,99 135,310 v 2970 q 0,154 -32,227 -32,74 -115,109 -83,35 -243,61 -212,38 -212,128 0,38 51,54 52,16 135,16 173,0 278,-7 106,-6 202,-9 96,-3 237,-3 160,0 275,3 115,3 236,9 122,7 295,7 83,0 134,-16 52,-16 52,-54 0,-45 -52,-77 -51,-32 -159,-51 -237,-45 -404,-106 -166,-61 -166,-246 V 614 q 0,-198 89,-294 90,-96 404,-96 h 793 q 173,0 304,54 132,55 196,112 128,109 188,195 61,87 144,260 13,38 54,115 42,77 87,77 39,0 58,-39 19,-38 19,-76 0,-7 -3,-17 -3,-9 -3,-15 -45,-167 -81,-302 -35,-134 -57,-256 -22,-121 -35,-255 -7,-45 -23,-77 -16,-32 -67,-32 -320,0 -615,7 -294,6 -566,9 -272,3 -522,10 Q 1459,0 1216,0 1056,0 854,-6 653,-13 502,-22 352,-32 352,-32 Z"
             id="EBGaramond-Regular-4c"
             transform="scale(0.015625)" />
          <path
             d="m 2381,-90 q -570,0 -954,202 -384,202 -576,570 -192,368 -192,854 v 1965 q 0,230 -93,335 -92,106 -201,132 -211,58 -211,141 0,38 51,54 51,16 134,16 147,0 291,-10 144,-9 324,-9 147,0 278,6 131,7 234,7 83,0 134,-16 51,-16 51,-55 0,-44 -51,-70 -51,-26 -160,-58 -77,-25 -173,-147 -96,-121 -96,-313 V 1715 q 0,-512 173,-842 173,-329 477,-486 304,-157 694,-157 659,0 966,458 308,458 308,1206 0,141 -4,371 -3,231 -9,496 -6,266 -13,509 0,167 -29,314 -28,147 -86,252 -58,106 -147,132 -64,19 -138,51 -73,32 -73,77 0,38 51,54 51,16 134,16 147,0 243,-3 96,-3 237,-3 103,0 192,3 90,3 173,9 83,7 154,7 83,0 134,-16 51,-16 51,-54 0,-83 -211,-128 -166,-32 -237,-160 -70,-128 -83,-320 -32,-551 -42,-1005 -9,-454 -22,-896 Q 4051,1107 3827,723 3603,339 3228,124 2854,-90 2381,-90 Z"
             id="EBGaramond-Regular-55"
             transform="scale(0.015625)" />
        </defs>
        <use
           xlink:href="#EBGaramond-Regular-52"
           id="use216"
           x="0"
           y="0"
           width="100%"
           height="100%" />
        <use
           x="71.299988"
           xlink:href="#EBGaramond-Regular-65"
           id="use218"
           y="0"
           width="100%"
           height="100%" />
        <use
           x="110.29997"
           xlink:href="#EBGaramond-Regular-4c"
           id="use220"
           y="0"
           width="100%"
           height="100%" />
        <use
           x="168.69997"
           xlink:href="#EBGaramond-Regular-55"
           id="use222"
           y="0"
           width="100%"
           height="100%" />
      </g>
    </g>
    <g
       id="line2d_19">
      <path
         d="m 71.1,82.647 h 30"
         style="fill:none;stroke:#268bd2;stroke-width:2;stroke-dasharray:7.4, 3.2;stroke-dashoffset:0"
         id="path227" />
    </g>
    <g
       id="text_14">
      <!-- LeakyReLU -->
      <g
         style="fill:#586e75"
         transform="matrix(0.15,0,0,-0.15,113.1,87.897)"
         id="g254">
        <defs
           id="defs234">
          <path
             d="M 749,-90 Q 634,-90 515,0 397,90 317,218 q -80,128 -80,243 0,205 108,320 109,115 346,211 l 653,269 q 128,51 150,89 23,39 29,167 l 13,409 q 6,167 -93,288 -99,122 -285,122 -96,0 -192,-32 -96,-32 -160,-83 -38,-26 -51,-77 -13,-51 -13,-109 0,-25 3,-57 4,-32 4,-58 0,-32 -80,-87 -80,-54 -180,-96 -99,-41 -163,-41 -32,0 -51,16 -19,16 -19,42 0,102 67,220 67,119 189,221 147,135 320,237 173,102 339,160 167,58 295,58 230,0 380,-164 151,-163 144,-406 L 1958,544 q -6,-134 61,-218 67,-83 170,-83 160,0 237,71 32,32 51,32 32,0 51,-20 19,-19 19,-51 0,-70 -70,-141 -103,-102 -221,-163 -118,-61 -221,-61 -294,0 -467,333 h -19 Q 1338,70 1146,-10 954,-90 749,-90 Z m 301,308 q 128,0 217,41 90,42 160,112 32,32 54,86 23,55 29,177 l 13,313 q 7,71 -6,103 -13,32 -51,32 -13,0 -45,-7 -32,-6 -83,-25 Q 998,928 867,797 736,666 736,557 q 0,-167 99,-253 99,-86 215,-86 z"
             id="EBGaramond-Regular-61"
             transform="scale(0.015625)" />
          <path
             d="m 269,-19 q -147,0 -147,70 0,51 48,67 48,16 99,36 96,32 185,83 90,51 90,179 v 3206 q 0,224 -64,326 -64,103 -224,142 -58,12 -58,83 0,64 52,77 166,38 287,79 122,42 221,83 100,42 196,81 38,19 57,19 19,0 29,-13 10,-13 10,-45 0,-64 -29,-256 -29,-192 -29,-601 V 1498 q 0,-58 32,-58 38,0 99,32 61,32 131,96 263,224 439,406 176,183 240,253 32,39 44,61 13,22 13,35 0,32 -54,57 -54,26 -112,39 -77,19 -77,64 0,32 38,54 39,23 103,23 h 314 q 102,0 214,19 112,19 211,38 99,20 157,20 90,0 90,-64 0,-39 -45,-68 -45,-28 -115,-47 -122,-32 -228,-90 -105,-58 -195,-109 -38,-25 -176,-137 -137,-112 -313,-260 -176,-147 -330,-281 -38,-39 -38,-64 0,-7 6,-20 6,-12 13,-25 166,-205 358,-416 192,-211 355,-371 164,-160 228,-224 108,-103 246,-183 138,-80 234,-112 70,-25 131,-45 61,-19 61,-70 0,-70 -128,-70 -250,0 -561,10 -310,9 -636,9 -115,0 -115,58 0,38 32,63 32,26 76,39 71,26 122,58 51,32 51,89 0,19 -13,41 -12,23 -32,49 l -774,877 q -38,44 -64,44 -32,0 -32,-44 -6,-90 -6,-196 0,-105 0,-214 0,-109 0,-224 0,-115 6,-224 0,-128 64,-179 64,-51 160,-83 51,-20 99,-36 48,-16 48,-67 0,-45 -61,-57 -60,-13 -86,-13 -122,0 -180,10 Q 979,0 931,6 883,13 768,13 659,13 595,6 531,0 464,-9 397,-19 269,-19 Z"
             id="EBGaramond-Regular-6b"
             transform="scale(0.015625)" />
          <path
             d="m 410,-1824 q -122,0 -225,61 -102,61 -102,201 0,116 54,202 55,86 157,86 71,0 138,-19 67,-19 118,-19 39,0 67,16 29,16 55,54 70,116 163,289 93,172 192,390 99,217 189,461 19,57 19,147 0,51 -7,99 -6,48 -18,86 L 467,2106 q -45,115 -119,201 -73,87 -169,112 -51,19 -99,45 -48,26 -48,70 0,39 48,48 48,10 80,10 128,0 189,-7 61,-6 115,-16 54,-9 163,-9 115,0 173,9 58,10 122,16 64,7 192,7 38,0 83,-16 45,-16 45,-54 0,-45 -68,-87 -67,-41 -118,-54 -64,-19 -96,-67 -32,-48 -32,-138 0,-38 19,-93 19,-54 32,-86 L 1498,717 q 12,-39 38,-39 19,0 32,39 l 442,1171 q 19,45 35,118 16,74 16,119 0,121 -36,169 -35,48 -92,74 -51,26 -119,67 -67,42 -67,87 0,38 48,54 48,16 80,16 90,0 182,-16 93,-16 273,-16 121,0 175,9 55,10 93,16 39,7 109,7 32,0 80,-10 48,-9 48,-48 0,-44 -48,-70 -48,-26 -99,-45 -96,-25 -205,-150 -109,-125 -173,-279 L 1440,-83 q -6,-19 -67,-166 -61,-148 -151,-365 -89,-218 -195,-467 -105,-250 -201,-481 -58,-128 -167,-195 -109,-67 -249,-67 z"
             id="EBGaramond-Regular-79"
             transform="scale(0.015625)" />
        </defs>
        <use
           xlink:href="#EBGaramond-Regular-4c"
           id="use236"
           x="0"
           y="0"
           width="100%"
           height="100%" />
        <use
           x="58.399994"
           xlink:href="#EBGaramond-Regular-65"
           id="use238"
           y="0"
           width="100%"
           height="100%" />
        <use
           x="97.399979"
           xlink:href="#EBGaramond-Regular-61"
           id="use240"
           y="0"
           width="100%"
           height="100%" />
        <use
           x="137.29997"
           xlink:href="#EBGaramond-Regular-6b"
           id="use242"
           y="0"
           width="100%"
           height="100%" />
        <use
           x="184.19997"
           xlink:href="#EBGaramond-Regular-79"
           id="use244"
           y="0"
           width="100%"
           height="100%" />
        <use
           x="227.99995"
           xlink:href="#EBGaramond-Regular-52"
           id="use246"
           y="0"
           width="100%"
           height="100%" />
        <use
           x="299.29993"
           xlink:href="#EBGaramond-Regular-65"
           id="use248"
           y="0"
           width="100%"
           height="100%" />
        <use
           x="338.29993"
           xlink:href="#EBGaramond-Regular-4c"
           id="use250"
           y="0"
           width="100%"
           height="100%" />
        <use
           x="396.69992"
           xlink:href="#EBGaramond-Regular-55"
           id="use252"
           y="0"
           width="100%"
           height="100%" />
      </g>
    </g>
    <g
       id="line2d_21">
      <path
         d="m 71.1,104.997 h 30"
         style="fill:none;stroke:#dc322f;stroke-width:2;stroke-dasharray:2, 3.3;stroke-dashoffset:0"
         id="path257" />
    </g>
    <g
       id="text_15">
      <!-- ELU -->
      <g
         style="fill:#586e75"
         transform="matrix(0.15,0,0,-0.15,113.1,110.247)"
         id="g270">
        <defs
           id="defs262">
          <path
             d="m 422,-32 q -83,0 -134,16 -51,16 -51,54 0,77 211,116 243,44 358,146 116,103 116,334 v 2880 q 0,230 -93,326 -93,96 -336,141 -109,19 -160,51 -51,32 -51,77 0,38 51,54 51,16 134,16 243,0 413,-7 170,-6 333,-9 163,-3 387,-3 211,0 444,3 234,3 433,3 217,7 367,10 151,3 177,3 32,0 70,-13 39,-12 45,-44 32,-180 64,-356 32,-176 32,-304 0,-57 -29,-77 -29,-19 -61,-19 -32,0 -45,16 -12,16 -25,48 -32,109 -64,208 -32,100 -77,144 -89,103 -198,138 -109,35 -231,35 h -838 q -51,0 -141,-58 -89,-57 -89,-147 V 2394 q 0,-58 35,-100 35,-41 80,-41 h 633 q 186,0 256,67 71,67 116,246 38,141 115,141 25,0 54,-26 29,-25 29,-76 0,-26 -3,-116 -3,-89 -10,-185 -6,-96 -6,-147 0,-64 3,-170 3,-105 6,-201 4,-96 4,-122 0,-45 -10,-77 -10,-32 -48,-32 -96,0 -147,205 -39,147 -103,217 -64,71 -192,71 h -595 q -109,0 -163,-29 -54,-29 -54,-137 V 653 q 0,-243 102,-336 102,-93 320,-93 h 474 q 204,0 342,22 138,23 240,87 102,70 182,185 80,116 183,308 19,38 44,63 26,26 58,20 32,-7 51,-29 20,-22 20,-61 0,-57 -32,-201 -32,-144 -80,-298 -48,-154 -87,-243 -19,-45 -35,-77 -16,-32 -54,-32 -308,0 -570,7 -262,6 -499,13 Q 1856,-6 1629,0 1402,6 1158,6 1018,6 915,-3 813,-13 704,-22 595,-32 422,-32 Z"
             id="EBGaramond-Regular-45"
             transform="scale(0.015625)" />
        </defs>
        <use
           xlink:href="#EBGaramond-Regular-45"
           id="use264"
           x="0"
           y="0"
           width="100%"
           height="100%" />
        <use
           x="56.399994"
           xlink:href="#EBGaramond-Regular-4c"
           id="use266"
           y="0"
           width="100%"
           height="100%" />
        <use
           x="114.79999"
           xlink:href="#EBGaramond-Regular-55"
           id="use268"
           y="0"
           width="100%"
           height="100%" />
      </g>
    </g>
    <g
       id="line2d_23">
      <path
         d="m 71.1,127.36106 h 30"
         style="fill:none;stroke:#d33682;stroke-width:2;stroke-dasharray:12.8, 3.2, 2, 3.2;stroke-dashoffset:0"
         id="path273" />
    </g>
    <g
       id="text_16">
      <!-- Softplus -->
      <g
         style="fill:#586e75"
         transform="matrix(0.15,0,0,-0.15,113.1,132.61106)"
         id="g303">
        <defs
           id="defs285">
          <path
             d="m 1306,-102 q -269,0 -497,80 -227,80 -406,227 -25,25 -48,57 -22,32 -35,71 -32,128 -42,332 -9,205 -22,340 0,45 38,67 39,22 90,22 32,0 64,-16 32,-16 38,-54 128,-493 381,-704 253,-211 528,-211 224,0 397,96 173,96 272,272 99,176 99,413 0,262 -87,425 -86,163 -246,285 -160,122 -390,262 -250,160 -493,323 -243,164 -403,378 -160,215 -160,522 0,326 147,588 147,263 445,420 298,157 746,157 230,0 399,-48 170,-48 273,-93 51,-19 86,-64 35,-45 48,-96 38,-135 83,-308 45,-172 45,-326 0,-70 -96,-70 -58,0 -112,25 -54,26 -67,64 -135,340 -314,519 -179,179 -454,179 -192,0 -359,-71 -166,-70 -272,-230 -105,-160 -105,-429 0,-192 124,-349 125,-156 330,-297 205,-141 442,-288 224,-134 438,-294 215,-160 352,-381 138,-221 138,-541 0,-378 -173,-663 Q 2355,205 2041,51 1728,-102 1306,-102 Z"
             id="EBGaramond-Regular-53"
             transform="scale(0.015625)" />
          <path
             d="M 1498,-90 Q 1139,-90 851,76 563,243 393,534 224,826 224,1197 q 0,269 105,525 106,256 298,467 192,211 448,336 256,125 551,125 371,0 668,-180 298,-179 474,-470 176,-291 176,-637 0,-371 -163,-704 Q 2618,326 2298,118 1978,-90 1498,-90 Z m 134,192 q 218,0 390,83 173,84 269,269 77,148 102,359 26,211 26,397 0,307 -112,591 -112,285 -314,467 -201,183 -476,183 -173,0 -311,-55 -137,-54 -252,-201 -128,-160 -167,-391 -38,-230 -38,-460 0,-314 115,-599 115,-284 313,-464 199,-179 455,-179 z"
             id="EBGaramond-Regular-6f"
             transform="scale(0.015625)" />
          <path
             d="m 282,-19 q -64,0 -96,16 -32,16 -32,54 0,51 41,70 42,20 106,33 147,32 211,92 64,61 64,189 v 1805 q -64,0 -147,3 -83,3 -186,10 -19,6 -54,44 -35,39 -35,71 0,13 19,22 19,10 25,16 116,58 199,103 83,45 179,89 0,557 137,928 138,372 355,589 218,218 461,310 244,93 455,93 358,0 531,-109 173,-108 173,-275 0,-128 -64,-192 -64,-64 -154,-64 -57,0 -105,45 -48,45 -112,103 -83,83 -205,156 -122,74 -333,74 -301,0 -496,-263 -195,-262 -195,-806 v -563 q 0,-38 22,-51 23,-13 48,-13 h 800 q 32,0 58,-19 26,-19 26,-51 0,-45 -10,-97 -10,-51 -29,-89 -19,-51 -57,-51 h -736 q -77,0 -100,-23 -22,-22 -22,-60 V 435 q 0,-128 83,-189 83,-60 339,-92 148,-20 148,-103 0,-38 -32,-54 -32,-16 -96,-16 -192,0 -340,16 Q 979,13 813,13 704,13 633,6 563,0 486,-9 410,-19 282,-19 Z"
             id="EBGaramond-Regular-66"
             transform="scale(0.015625)" />
          <path
             d="M 1210,-90 Q 896,-90 720,102 544,294 544,672 v 1485 q 0,51 -39,73 -38,23 -166,23 h -38 q -32,0 -55,41 -22,42 -22,87 0,13 19,38 19,26 26,32 128,90 233,179 106,90 192,176 87,87 144,157 32,32 54,54 23,23 55,23 32,0 61,-13 29,-13 22,-57 l -32,-288 q -6,-71 32,-97 39,-25 122,-25 h 730 q 25,0 44,-42 20,-41 20,-99 0,-57 -20,-112 -19,-54 -44,-54 h -634 q -160,0 -208,-26 -48,-25 -48,-153 V 813 q 0,-256 109,-404 109,-147 313,-147 186,0 288,29 103,29 186,87 13,12 26,12 25,0 34,-29 10,-28 10,-60 0,-32 -106,-128 Q 1747,77 1577,-6 1408,-90 1210,-90 Z"
             id="EBGaramond-Regular-74"
             transform="scale(0.015625)" />
          <path
             d="m 256,-1824 q -32,0 -83,10 -51,9 -51,48 0,51 48,74 48,22 99,41 96,32 185,74 90,41 90,169 v 3245 q 0,51 -29,153 -29,103 -93,199 -64,96 -172,115 -26,6 -39,32 -13,26 -13,51 0,32 13,51 13,20 32,26 243,58 416,125 173,67 327,131 6,0 6,3 0,3 6,3 13,0 26,-19 13,-19 13,-38 0,-58 -16,-183 -16,-124 -16,-201 0,-51 6,-58 64,64 233,163 170,100 388,180 218,80 416,80 333,0 566,-176 234,-176 359,-455 125,-278 125,-579 0,-288 -109,-560 Q 2880,608 2681,390 2483,173 2220,41 1958,-90 1658,-90 q -90,0 -215,29 -125,29 -243,74 -118,45 -182,102 -7,0 -14,-74 -6,-73 -9,-153 -3,-80 -3,-99 v -1197 q 0,-83 67,-131 67,-48 153,-70 87,-23 151,-42 51,-19 99,-41 48,-23 48,-74 0,-39 -51,-48 -51,-10 -89,-10 -186,0 -311,16 -125,16 -291,16 -109,0 -176,-6 -67,-7 -138,-16 -70,-10 -198,-10 z M 1754,109 q 96,0 233,57 138,58 275,186 138,128 231,345 93,218 93,538 0,371 -96,595 -96,224 -237,339 -141,116 -288,154 -147,39 -250,39 -153,0 -317,-64 -163,-64 -275,-144 -112,-80 -112,-125 0,-141 -3,-285 -3,-144 -7,-279 -3,-134 -6,-240 -3,-105 -3,-163 0,-256 118,-474 119,-217 295,-348 176,-131 349,-131 z"
             id="EBGaramond-Regular-70"
             transform="scale(0.015625)" />
          <path
             d="m 250,-19 q -32,0 -80,10 -48,9 -48,47 0,52 48,74 48,22 99,42 96,32 185,73 90,42 90,170 v 3225 q 0,186 -67,311 -67,125 -227,157 -52,12 -52,83 0,64 45,77 167,38 288,79 122,42 227,87 106,45 208,83 26,13 39,13 13,0 22,-16 10,-16 10,-29 0,-57 -23,-246 -22,-189 -22,-624 V 397 q 0,-128 89,-170 90,-41 186,-73 51,-20 99,-42 48,-22 48,-74 0,-38 -48,-47 -48,-10 -80,-10 -121,0 -195,10 Q 1018,0 950,6 883,13 768,13 659,13 588,6 518,0 448,-9 378,-19 250,-19 Z"
             id="EBGaramond-Regular-6c"
             transform="scale(0.015625)" />
          <path
             d="m 2342,-122 q -44,0 -44,52 0,64 16,188 16,125 16,208 0,13 0,22 0,10 0,17 Q 2080,122 1827,16 1574,-90 1274,-90 1069,-90 902,-3 736,83 640,252 544,422 544,672 v 1299 q 0,141 -64,224 -64,83 -211,141 -32,13 -58,32 -25,19 -25,70 0,58 28,77 29,19 68,26 217,13 335,35 119,22 298,67 19,7 29,7 10,0 22,0 71,0 64,-90 -19,-147 -29,-247 -9,-99 -9,-246 V 819 q 0,-153 77,-285 77,-131 201,-214 125,-83 260,-83 166,0 291,19 125,19 246,109 71,51 179,166 109,115 109,314 v 1171 q 0,134 -80,201 -80,68 -183,93 -102,26 -166,26 -57,0 -96,22 -38,23 -38,87 0,57 41,76 42,20 93,20 199,6 330,15 131,10 236,32 106,23 222,55 12,7 31,10 20,3 33,3 83,0 83,-70 0,-7 -4,-23 -3,-16 -9,-35 -6,-19 -16,-109 -10,-89 -20,-185 -9,-96 -9,-148 V 608 q 0,-173 35,-247 36,-73 80,-73 52,0 151,9 99,10 144,10 32,0 64,-13 32,-12 32,-70 0,-51 -26,-67 -25,-16 -64,-23 -249,-32 -429,-96 -179,-64 -320,-121 -19,-7 -58,-23 -38,-16 -70,-16 z"
             id="EBGaramond-Regular-75"
             transform="scale(0.015625)" />
          <path
             d="m 922,-90 q -199,0 -372,61 -172,61 -294,170 -32,70 -48,236 -16,167 -22,276 0,57 83,57 25,0 47,-10 23,-9 30,-34 Q 429,352 611,217 794,83 979,83 q 186,0 317,125 131,125 131,310 0,173 -115,298 -115,125 -403,304 -218,134 -353,256 -134,122 -195,250 -60,128 -60,288 0,204 96,370 96,167 288,266 192,100 480,100 192,0 320,-39 128,-38 192,-83 51,-70 86,-221 35,-150 35,-285 0,-44 -64,-44 -38,0 -73,16 -35,16 -48,41 -83,211 -208,323 -125,112 -311,112 -160,0 -285,-96 -124,-96 -124,-281 0,-147 92,-263 93,-115 349,-262 372,-211 554,-394 182,-182 182,-483 0,-345 -262,-563 Q 1338,-90 922,-90 Z"
             id="EBGaramond-Regular-73"
             transform="scale(0.015625)" />
        </defs>
        <use
           xlink:href="#EBGaramond-Regular-53"
           id="use287"
           x="0"
           y="0"
           width="100%"
           height="100%" />
        <use
           x="46.499985"
           xlink:href="#EBGaramond-Regular-6f"
           id="use289"
           y="0"
           width="100%"
           height="100%" />
        <use
           x="95.999969"
           xlink:href="#EBGaramond-Regular-66"
           id="use291"
           y="0"
           width="100%"
           height="100%" />
        <use
           x="127.79996"
           xlink:href="#EBGaramond-Regular-74"
           id="use293"
           y="0"
           width="100%"
           height="100%" />
        <use
           x="159.19995"
           xlink:href="#EBGaramond-Regular-70"
           id="use295"
           y="0"
           width="100%"
           height="100%" />
        <use
           x="211.09995"
           xlink:href="#EBGaramond-Regular-6c"
           id="use297"
           y="0"
           width="100%"
           height="100%" />
        <use
           x="235.09993"
           xlink:href="#EBGaramond-Regular-75"
           id="use299"
           y="0"
           width="100%"
           height="100%" />
        <use
           x="287.79993"
           xlink:href="#EBGaramond-Regular-73"
           id="use301"
           y="0"
           width="100%"
           height="100%" />
      </g>
    </g>
  </g>
  <defs
     id="defs312">
    <clipPath
       id="pafaa66a449">
      <rect
         height="266.112"
         width="357.12"
         x="57.599998"
         y="41.472"
         id="rect309" />
    </clipPath>
  </defs>
</svg>
