<?xml version="1.0" encoding="UTF-8" standalone="no"?>
<svg
   height="266.91199pt"
   version="1.1"
   viewBox="0 0 357.92002 266.91198"
   width="357.92001pt"
   id="svg342"
   sodipodi:docname="Sigmoid.svg"
   inkscape:version="1.1.1 (3bf5ae0d25, 2021-09-20)"
   xmlns:inkscape="http://www.inkscape.org/namespaces/inkscape"
   xmlns:sodipodi="http://sodipodi.sourceforge.net/DTD/sodipodi-0.dtd"
   xmlns:xlink="http://www.w3.org/1999/xlink"
   xmlns="http://www.w3.org/2000/svg"
   xmlns:svg="http://www.w3.org/2000/svg"
   xmlns:rdf="http://www.w3.org/1999/02/22-rdf-syntax-ns#"
   xmlns:cc="http://creativecommons.org/ns#"
   xmlns:dc="http://purl.org/dc/elements/1.1/">
  <sodipodi:namedview
     id="namedview344"
     pagecolor="#ffffff"
     bordercolor="#666666"
     borderopacity="1.0"
     inkscape:pageshadow="2"
     inkscape:pageopacity="0.0"
     inkscape:pagecheckerboard="0"
     inkscape:document-units="pt"
     showgrid="false"
     inkscape:zoom="1.8945312"
     inkscape:cx="306.93609"
     inkscape:cy="230.13609"
     inkscape:window-width="3840"
     inkscape:window-height="2106"
     inkscape:window-x="0"
     inkscape:window-y="54"
     inkscape:window-maximized="1"
     inkscape:current-layer="svg342" />
  <metadata
     id="metadata2">
    <rdf:RDF>
      <cc:Work>
        <dc:type
           rdf:resource="http://purl.org/dc/dcmitype/StillImage" />
        <dc:date>2021-10-19T23:07:33.734244</dc:date>
        <dc:format>image/svg+xml</dc:format>
        <dc:creator>
          <cc:Agent>
            <dc:title>Matplotlib v3.4.3, https://matplotlib.org/</dc:title>
          </cc:Agent>
        </dc:creator>
      </cc:Work>
    </rdf:RDF>
  </metadata>
  <defs
     id="defs6">
    <style
       type="text/css"
       id="style4">*{stroke-linecap:butt;stroke-linejoin:round;}</style>
    <defs
       id="defs292">
      <path
         d="m 352,-32 q -83,0 -131,23 -48,22 -48,54 0,57 60,79 61,23 81,30 249,51 383,150 135,99 135,310 v 2970 q 0,154 -32,227 -32,74 -115,109 -83,35 -243,61 -212,38 -212,128 0,38 51,54 52,16 135,16 173,0 278,-7 106,-6 202,-9 96,-3 237,-3 160,0 275,3 115,3 236,9 122,7 295,7 83,0 134,-16 52,-16 52,-54 0,-45 -52,-77 -51,-32 -159,-51 -237,-45 -404,-106 -166,-61 -166,-246 V 614 q 0,-198 89,-294 90,-96 404,-96 h 793 q 173,0 304,54 132,55 196,112 128,109 188,195 61,87 144,260 13,38 54,115 42,77 87,77 39,0 58,-39 19,-38 19,-76 0,-7 -3,-17 -3,-9 -3,-15 -45,-167 -81,-302 -35,-134 -57,-256 -22,-121 -35,-255 -7,-45 -23,-77 -16,-32 -67,-32 -320,0 -615,7 -294,6 -566,9 -272,3 -522,10 Q 1459,0 1216,0 1056,0 854,-6 653,-13 502,-22 352,-32 352,-32 Z"
         id="EBGaramond-Regular-4c"
         transform="scale(0.015625)" />
      <path
         d="M 1498,-90 Q 1139,-90 851,76 563,243 393,534 224,826 224,1197 q 0,269 105,525 106,256 298,467 192,211 448,336 256,125 551,125 371,0 668,-180 298,-179 474,-470 176,-291 176,-637 0,-371 -163,-704 Q 2618,326 2298,118 1978,-90 1498,-90 Z m 134,192 q 218,0 390,83 173,84 269,269 77,148 102,359 26,211 26,397 0,307 -112,591 -112,285 -314,467 -201,183 -476,183 -173,0 -311,-55 -137,-54 -252,-201 -128,-160 -167,-391 -38,-230 -38,-460 0,-314 115,-599 115,-284 313,-464 199,-179 455,-179 z"
         id="EBGaramond-Regular-6f"
         transform="scale(0.015625)" />
      <path
         d="m 1248,-1856 q -544,0 -861,208 -317,208 -317,560 0,166 51,282 52,115 161,198 89,77 239,196 151,118 311,246 l 269,-13 Q 794,-378 672,-557 550,-736 550,-992 q 0,-256 227,-432 228,-176 561,-176 377,0 608,173 160,121 249,317 90,195 90,412 0,141 -100,234 -99,93 -310,151 -211,57 -550,76 -602,45 -836,160 -233,115 -233,359 0,64 35,118 35,54 112,118 147,116 217,170 71,54 106,92 36,39 68,97 L 1011,768 Q 870,717 774,630 678,544 678,474 q 0,-90 96,-157 96,-67 282,-106 186,-38 454,-57 589,-32 877,-192 288,-160 288,-455 0,-249 -125,-489 -124,-240 -329,-438 -205,-199 -458,-317 -253,-119 -515,-119 z m 77,2758 q 243,0 403,246 160,247 160,612 0,186 -87,349 -86,163 -224,262 -137,99 -297,99 -147,0 -279,-106 -131,-105 -211,-272 -80,-166 -80,-364 0,-224 83,-413 84,-189 224,-301 141,-112 308,-112 z m -39,-224 q -262,0 -499,134 -237,135 -387,356 -150,221 -150,483 0,301 156,528 157,227 413,355 256,128 544,128 186,0 323,-48 138,-48 272,-86 154,-45 243,-55 90,-9 186,-9 77,0 192,9 115,10 160,10 83,0 83,-96 0,-57 -64,-121 -32,-32 -51,-32 h -173 q -172,0 -192,-52 -6,-25 -16,-73 -9,-48 -16,-106 -6,-57 -6,-115 0,-326 -141,-602 Q 2022,1011 1792,844 1562,678 1286,678 Z"
         id="EBGaramond-Regular-67"
         transform="scale(0.015625)" />
      <path
         d="m 282,-19 q -58,0 -93,16 -35,16 -35,54 0,51 48,70 48,20 99,33 134,32 204,80 71,48 71,163 v 1389 q 0,172 -61,306 -61,135 -227,161 -32,6 -48,25 -16,20 -16,58 0,70 58,77 256,57 422,156 166,100 250,164 57,45 89,45 39,0 39,-32 0,-52 -16,-202 -16,-150 -29,-333 -13,-182 -13,-329 V 397 q 0,-109 73,-160 74,-51 202,-83 51,-13 99,-33 48,-19 48,-70 0,-70 -128,-70 -121,0 -195,10 Q 1050,0 982,6 915,13 800,13 691,13 620,6 550,0 480,-9 410,-19 282,-19 Z m 512,3321 q -135,0 -228,93 -92,93 -92,227 0,141 92,234 93,93 228,93 140,0 233,-93 93,-93 93,-234 0,-134 -93,-227 -93,-93 -233,-93 z"
         id="EBGaramond-Regular-69"
         transform="scale(0.015625)" />
      <path
         d="m 922,-90 q -199,0 -372,61 -172,61 -294,170 -32,70 -48,236 -16,167 -22,276 0,57 83,57 25,0 47,-10 23,-9 30,-34 Q 429,352 611,217 794,83 979,83 q 186,0 317,125 131,125 131,310 0,173 -115,298 -115,125 -403,304 -218,134 -353,256 -134,122 -195,250 -60,128 -60,288 0,204 96,370 96,167 288,266 192,100 480,100 192,0 320,-39 128,-38 192,-83 51,-70 86,-221 35,-150 35,-285 0,-44 -64,-44 -38,0 -73,16 -35,16 -48,41 -83,211 -208,323 -125,112 -311,112 -160,0 -285,-96 -124,-96 -124,-281 0,-147 92,-263 93,-115 349,-262 372,-211 554,-394 182,-182 182,-483 0,-345 -262,-563 Q 1338,-90 922,-90 Z"
         id="EBGaramond-Regular-73"
         transform="scale(0.015625)" />
      <path
         d="M 1210,-90 Q 896,-90 720,102 544,294 544,672 v 1485 q 0,51 -39,73 -38,23 -166,23 h -38 q -32,0 -55,41 -22,42 -22,87 0,13 19,38 19,26 26,32 128,90 233,179 106,90 192,176 87,87 144,157 32,32 54,54 23,23 55,23 32,0 61,-13 29,-13 22,-57 l -32,-288 q -6,-71 32,-97 39,-25 122,-25 h 730 q 25,0 44,-42 20,-41 20,-99 0,-57 -20,-112 -19,-54 -44,-54 h -634 q -160,0 -208,-26 -48,-25 -48,-153 V 813 q 0,-256 109,-404 109,-147 313,-147 186,0 288,29 103,29 186,87 13,12 26,12 25,0 34,-29 10,-28 10,-60 0,-32 -106,-128 Q 1747,77 1577,-6 1408,-90 1210,-90 Z"
         id="EBGaramond-Regular-74"
         transform="scale(0.015625)" />
      <path
         d="M 1363,-96 Q 1043,-96 784,67 525,230 374,515 224,800 224,1152 q 0,416 182,755 183,339 490,541 307,202 678,202 416,0 730,-224 77,-58 77,-122 0,-51 -45,-115 -45,-64 -109,-106 -64,-41 -121,-41 -32,0 -64,22 -32,22 -71,48 -141,109 -314,205 -172,96 -287,96 -314,0 -509,-292 -195,-291 -195,-764 0,-301 131,-544 131,-243 352,-384 221,-141 489,-141 186,0 320,61 135,61 288,214 13,13 32,22 20,10 32,10 71,0 71,-89 0,-39 -23,-87 -22,-48 -73,-112 Q 2182,179 2041,86 1901,-6 1731,-51 1562,-96 1363,-96 Z"
         id="EBGaramond-Regular-63"
         transform="scale(0.015625)" />
    </defs>
    <defs
       id="defs88">
      <path
         d="M 0,0 H 3.5"
         id="mb79084050d"
         style="stroke:#586e75;stroke-width:0.8" />
    </defs>
    <defs
       id="defs321">
      <path
         d="m 1370,-32 q -84,0 -135,16 -51,16 -51,54 0,45 51,70 51,26 160,46 243,44 371,156 128,112 128,343 v 2483 q 0,294 -13,451 -12,157 -41,221 -29,64 -80,70 -90,20 -189,23 -99,3 -265,3 h -301 q -154,0 -305,-61 -150,-61 -220,-189 -19,-32 -64,-93 -45,-60 -96,-105 -51,-45 -102,-45 -26,0 -36,25 -9,26 -9,58 0,64 32,128 89,186 131,330 42,144 67,342 13,109 48,128 35,20 61,20 26,0 80,-77 54,-77 80,-128 38,-64 176,-96 138,-32 272,-32 h 2253 q 224,0 364,25 141,26 244,71 77,38 125,83 48,45 124,45 20,0 32,-48 13,-48 13,-99 0,-32 -10,-90 -9,-58 -15,-90 -20,-115 -36,-166 -16,-51 -22,-90 -6,-38 -6,-121 v -77 q 0,-58 -26,-132 -26,-73 -77,-73 -45,0 -71,70 -25,71 -50,193 -26,134 -154,214 -128,80 -435,80 h -647 q -140,0 -211,-39 -70,-38 -90,-192 -19,-153 -19,-505 V 653 q 0,-231 134,-343 135,-112 372,-156 109,-20 160,-46 51,-25 51,-70 0,-38 -51,-54 -51,-16 -134,-16 -173,0 -285,10 -112,9 -215,16 -102,6 -249,6 -160,0 -279,-6 -118,-7 -243,-16 -125,-10 -297,-10 z"
         id="EBGaramond-Regular-54"
         transform="scale(0.015625)" />
      <path
         d="M 749,-90 Q 634,-90 515,0 397,90 317,218 q -80,128 -80,243 0,205 108,320 109,115 346,211 l 653,269 q 128,51 150,89 23,39 29,167 l 13,409 q 6,167 -93,288 -99,122 -285,122 -96,0 -192,-32 -96,-32 -160,-83 -38,-26 -51,-77 -13,-51 -13,-109 0,-25 3,-57 4,-32 4,-58 0,-32 -80,-87 -80,-54 -180,-96 -99,-41 -163,-41 -32,0 -51,16 -19,16 -19,42 0,102 67,220 67,119 189,221 147,135 320,237 173,102 339,160 167,58 295,58 230,0 380,-164 151,-163 144,-406 L 1958,544 q -6,-134 61,-218 67,-83 170,-83 160,0 237,71 32,32 51,32 32,0 51,-20 19,-19 19,-51 0,-70 -70,-141 -103,-102 -221,-163 -118,-61 -221,-61 -294,0 -467,333 h -19 Q 1338,70 1146,-10 954,-90 749,-90 Z m 301,308 q 128,0 217,41 90,42 160,112 32,32 54,86 23,55 29,177 l 13,313 q 7,71 -6,103 -13,32 -51,32 -13,0 -45,-7 -32,-6 -83,-25 Q 998,928 867,797 736,666 736,557 q 0,-167 99,-253 99,-86 215,-86 z"
         id="EBGaramond-Regular-61"
         transform="scale(0.015625)" />
      <path
         d="m 282,-19 q -58,0 -93,16 -35,16 -35,54 0,51 38,67 38,16 109,36 96,25 185,70 90,45 90,173 v 1376 q 0,173 -35,294 -35,122 -202,167 -25,12 -45,28 -19,16 -19,55 0,70 58,77 224,57 364,140 141,84 276,186 19,13 35,22 16,10 35,10 13,0 22,-13 10,-13 10,-32 0,-45 -16,-183 -16,-137 -16,-226 0,-26 3,-49 4,-22 10,-28 224,211 477,320 253,109 553,109 314,0 519,-256 205,-256 205,-634 V 397 q 0,-128 89,-170 90,-41 186,-73 51,-20 99,-42 48,-22 48,-74 0,-38 -45,-47 -45,-10 -83,-10 -128,0 -199,10 -70,9 -134,15 -64,7 -179,7 -109,0 -180,-7 -70,-6 -144,-15 -73,-10 -201,-10 -32,0 -80,10 -48,9 -48,47 0,52 48,74 48,22 99,42 96,32 186,73 90,42 90,170 v 1344 q 0,281 -157,438 -157,157 -419,163 -231,0 -404,-74 -172,-73 -307,-182 -25,-25 -38,-67 -13,-41 -13,-80 V 397 q 0,-128 89,-173 90,-45 186,-70 147,-39 147,-103 0,-38 -32,-54 -32,-16 -96,-16 -128,0 -202,10 Q 1043,0 979,6 915,13 800,13 691,13 624,6 557,0 483,-9 410,-19 282,-19 Z"
         id="EBGaramond-Regular-6e"
         transform="scale(0.015625)" />
      <path
         d="m 250,-19 q -128,0 -128,70 0,58 147,103 96,32 182,83 87,51 93,179 v 3206 q 0,173 -58,304 -57,132 -224,157 -57,13 -57,90 0,57 51,77 90,32 214,70 125,38 259,86 135,48 237,93 26,13 39,13 19,0 32,-13 13,-13 13,-32 0,-38 -16,-109 -16,-70 -29,-243 -13,-173 -13,-518 V 2483 q 0,-102 9,-147 10,-45 36,-90 102,77 252,170 151,93 336,163 186,71 385,71 313,0 521,-247 208,-246 208,-624 V 435 q 0,-128 83,-189 84,-60 180,-92 70,-20 108,-42 39,-22 39,-61 0,-70 -128,-70 -128,0 -196,10 -67,9 -128,15 -60,7 -175,7 -109,0 -173,-7 -64,-6 -132,-15 -67,-10 -195,-10 -128,0 -128,70 0,45 38,61 39,16 110,42 96,32 172,92 77,61 77,189 v 1306 q 0,160 -93,291 -92,131 -227,208 -134,77 -275,77 -122,0 -282,-36 -160,-35 -249,-105 -103,-83 -138,-173 -35,-89 -35,-288 V 416 q 6,-128 80,-179 74,-51 170,-83 70,-20 105,-42 35,-22 35,-61 0,-70 -128,-70 -128,0 -192,10 Q 998,0 940,6 883,13 768,13 659,13 592,6 525,0 451,-9 378,-19 250,-19 Z"
         id="EBGaramond-Regular-68"
         transform="scale(0.015625)" />
    </defs>
    <defs
       id="defs15">
      <path
         d="M 0,0 V -3.5"
         id="m5b0d2fc37d"
         style="stroke:#586e75;stroke-width:0.8" />
    </defs>
    <defs
       id="defs97">
      <path
         d="M 794,531 H 1825 V 4091 L 703,3866 v 575 l 1116,225 h 631 V 531 H 3481 V 0 H 794 Z"
         id="DejaVuSans-31"
         transform="scale(0.015625)" />
      <path
         d="m 684,794 h 660 V 0 H 684 Z"
         id="DejaVuSans-2e"
         transform="scale(0.015625)" />
    </defs>
    <defs
       id="defs24">
      <path
         d="M 678,2272 H 4684 V 1741 H 678 Z"
         id="DejaVuSans-2212"
         transform="scale(0.015625)" />
      <path
         d="M 2419,4116 825,1625 h 1594 z m -166,550 h 794 V 1625 h 666 V 1100 H 3047 V 0 H 2419 V 1100 H 313 v 609 z"
         id="DejaVuSans-34"
         transform="scale(0.015625)" />
    </defs>
    <defs
       id="defs120">
      <path
         d="M 525,4666 H 3525 V 4397 L 1831,0 H 1172 L 2766,4134 H 525 Z"
         id="DejaVuSans-37"
         transform="scale(0.015625)" />
      <path
         d="M 691,4666 H 3169 V 4134 H 1269 V 2991 q 137,47 274,70 138,23 276,23 781,0 1237,-428 457,-428 457,-1159 Q 3513,744 3044,326 2575,-91 1722,-91 1428,-91 1123,-41 819,9 494,109 v 635 q 281,-153 581,-228 300,-75 634,-75 541,0 856,284 316,284 316,772 0,487 -316,771 -315,285 -856,285 -253,0 -505,-56 -251,-56 -513,-175 z"
         id="DejaVuSans-35"
         transform="scale(0.015625)" />
    </defs>
    <defs
       id="defs56">
      <path
         d="m 2034,4250 q -487,0 -733,-480 -245,-479 -245,-1442 0,-959 245,-1439 246,-480 733,-480 491,0 736,480 246,480 246,1439 0,963 -246,1442 -245,480 -736,480 z m 0,500 q 785,0 1199,-621 414,-620 414,-1801 0,-1178 -414,-1799 -414,-620 -1199,-620 -784,0 -1198,620 -414,621 -414,1799 0,1181 414,1801 414,621 1198,621 z"
         id="DejaVuSans-30"
         transform="scale(0.015625)" />
    </defs>
    <defs
       id="defs40">
      <path
         d="M 1228,531 H 3431 V 0 H 469 v 531 q 359,372 979,998 621,627 780,809 303,340 423,576 121,236 121,464 0,372 -261,606 -261,235 -680,235 -297,0 -627,-103 -329,-103 -704,-313 v 638 q 381,153 712,231 332,78 607,78 725,0 1156,-363 431,-362 431,-968 0,-288 -108,-546 -107,-257 -392,-607 -78,-91 -497,-524 Q 1991,1309 1228,531 Z"
         id="DejaVuSans-32"
         transform="scale(0.015625)" />
    </defs>
  </defs>
  <path
     d="m -57.2,304.528 h 460.8 v -345.6 H -57.2 Z"
     style="fill:none"
     id="path8" />
  <g
     id="g1054">
    <path
       d="M 0.4,266.512 H 357.52 V 0.4 H 0.4 Z"
       style="fill:none"
       id="path11" />
    <use
       style="fill:#586e75;stroke:#586e75;stroke-width:0.8"
       x="96.112938"
       xlink:href="#m5b0d2fc37d"
       y="174.528"
       id="use17"
       width="100%"
       height="100%"
       transform="translate(-57.2,-41.072)" />
    <use
       xlink:href="#DejaVuSans-2212"
       id="use26"
       x="0"
       y="0"
       width="100%"
       height="100%"
       transform="matrix(0.1,0,0,-0.1,31.541847,124.37631)"
       style="fill:#586e75" />
    <use
       x="83.789062"
       xlink:href="#DejaVuSans-34"
       id="use28"
       y="0"
       width="100%"
       height="100%"
       transform="matrix(0.1,0,0,-0.1,31.541847,124.37631)"
       style="fill:#586e75" />
    <use
       style="fill:#586e75;stroke:#586e75;stroke-width:0.8"
       x="166.13647"
       xlink:href="#m5b0d2fc37d"
       y="174.528"
       id="use34"
       width="100%"
       height="100%"
       transform="translate(-57.2,-41.072)" />
    <use
       xlink:href="#DejaVuSans-2212"
       id="use42"
       x="0"
       y="0"
       width="100%"
       height="100%"
       transform="matrix(0.1,0,0,-0.1,101.56538,124.37631)"
       style="fill:#586e75" />
    <use
       x="83.789062"
       xlink:href="#DejaVuSans-32"
       id="use44"
       y="0"
       width="100%"
       height="100%"
       transform="matrix(0.1,0,0,-0.1,101.56538,124.37631)"
       style="fill:#586e75" />
    <use
       style="fill:#586e75;stroke:#586e75;stroke-width:0.8"
       x="236.16"
       xlink:href="#m5b0d2fc37d"
       y="174.528"
       id="use50"
       width="100%"
       height="100%"
       transform="translate(-57.2,-41.072)" />
    <use
       xlink:href="#DejaVuSans-30"
       id="use58"
       x="0"
       y="0"
       width="100%"
       height="100%"
       transform="matrix(0.1,0,0,-0.1,175.77875,124.37631)"
       style="fill:#586e75" />
    <use
       style="fill:#586e75;stroke:#586e75;stroke-width:0.8"
       x="306.18353"
       xlink:href="#m5b0d2fc37d"
       y="174.528"
       id="use64"
       width="100%"
       height="100%"
       transform="translate(-57.2,-41.072)" />
    <use
       xlink:href="#DejaVuSans-32"
       id="use69"
       x="0"
       y="0"
       width="100%"
       height="100%"
       transform="matrix(0.1,0,0,-0.1,245.80228,124.37631)"
       style="fill:#586e75" />
    <use
       style="fill:#586e75;stroke:#586e75;stroke-width:0.8"
       x="376.20706"
       xlink:href="#m5b0d2fc37d"
       y="174.528"
       id="use75"
       width="100%"
       height="100%"
       transform="translate(-57.2,-41.072)" />
    <use
       xlink:href="#DejaVuSans-34"
       id="use80"
       x="0"
       y="0"
       width="100%"
       height="100%"
       transform="matrix(0.1,0,0,-0.1,315.82581,124.37631)"
       style="fill:#586e75" />
    <use
       style="fill:#586e75;stroke:#586e75;stroke-width:0.8"
       x="236.16"
       xlink:href="#mb79084050d"
       y="295.48801"
       id="use90"
       width="100%"
       height="100%"
       transform="translate(-57.2,-41.072)" />
    <use
       xlink:href="#DejaVuSans-2212"
       id="use99"
       x="0"
       y="0"
       width="100%"
       height="100%"
       transform="matrix(0.1,0,0,-0.1,185.96,258.21522)"
       style="fill:#586e75" />
    <use
       x="83.789062"
       xlink:href="#DejaVuSans-31"
       id="use101"
       y="0"
       width="100%"
       height="100%"
       transform="matrix(0.1,0,0,-0.1,185.96,258.21522)"
       style="fill:#586e75" />
    <use
       x="147.41211"
       xlink:href="#DejaVuSans-2e"
       id="use103"
       y="0"
       width="100%"
       height="100%"
       transform="matrix(0.1,0,0,-0.1,185.96,258.21522)"
       style="fill:#586e75" />
    <use
       x="179.19922"
       xlink:href="#DejaVuSans-30"
       id="use105"
       y="0"
       width="100%"
       height="100%"
       transform="matrix(0.1,0,0,-0.1,185.96,258.21522)"
       style="fill:#586e75" />
    <use
       x="242.82227"
       xlink:href="#DejaVuSans-30"
       id="use107"
       y="0"
       width="100%"
       height="100%"
       transform="matrix(0.1,0,0,-0.1,185.96,258.21522)"
       style="fill:#586e75" />
    <use
       style="fill:#586e75;stroke:#586e75;stroke-width:0.8"
       x="236.16"
       xlink:href="#mb79084050d"
       y="265.24799"
       id="use113"
       width="100%"
       height="100%"
       transform="translate(-57.2,-41.072)" />
    <use
       xlink:href="#DejaVuSans-2212"
       id="use122"
       x="0"
       y="0"
       width="100%"
       height="100%"
       transform="matrix(0.1,0,0,-0.1,185.96,227.97522)"
       style="fill:#586e75" />
    <use
       x="83.789062"
       xlink:href="#DejaVuSans-30"
       id="use124"
       y="0"
       width="100%"
       height="100%"
       transform="matrix(0.1,0,0,-0.1,185.96,227.97522)"
       style="fill:#586e75" />
    <use
       x="147.41211"
       xlink:href="#DejaVuSans-2e"
       id="use126"
       y="0"
       width="100%"
       height="100%"
       transform="matrix(0.1,0,0,-0.1,185.96,227.97522)"
       style="fill:#586e75" />
    <use
       x="179.19922"
       xlink:href="#DejaVuSans-37"
       id="use128"
       y="0"
       width="100%"
       height="100%"
       transform="matrix(0.1,0,0,-0.1,185.96,227.97522)"
       style="fill:#586e75" />
    <use
       x="242.82227"
       xlink:href="#DejaVuSans-35"
       id="use130"
       y="0"
       width="100%"
       height="100%"
       transform="matrix(0.1,0,0,-0.1,185.96,227.97522)"
       style="fill:#586e75" />
    <use
       style="fill:#586e75;stroke:#586e75;stroke-width:0.8"
       x="236.16"
       xlink:href="#mb79084050d"
       y="235.008"
       id="use136"
       width="100%"
       height="100%"
       transform="translate(-57.2,-41.072)" />
    <use
       xlink:href="#DejaVuSans-2212"
       id="use141"
       x="0"
       y="0"
       width="100%"
       height="100%"
       transform="matrix(0.1,0,0,-0.1,185.96,197.73522)"
       style="fill:#586e75" />
    <use
       x="83.789062"
       xlink:href="#DejaVuSans-30"
       id="use143"
       y="0"
       width="100%"
       height="100%"
       transform="matrix(0.1,0,0,-0.1,185.96,197.73522)"
       style="fill:#586e75" />
    <use
       x="147.41211"
       xlink:href="#DejaVuSans-2e"
       id="use145"
       y="0"
       width="100%"
       height="100%"
       transform="matrix(0.1,0,0,-0.1,185.96,197.73522)"
       style="fill:#586e75" />
    <use
       x="179.19922"
       xlink:href="#DejaVuSans-35"
       id="use147"
       y="0"
       width="100%"
       height="100%"
       transform="matrix(0.1,0,0,-0.1,185.96,197.73522)"
       style="fill:#586e75" />
    <use
       x="242.82227"
       xlink:href="#DejaVuSans-30"
       id="use149"
       y="0"
       width="100%"
       height="100%"
       transform="matrix(0.1,0,0,-0.1,185.96,197.73522)"
       style="fill:#586e75" />
    <use
       style="fill:#586e75;stroke:#586e75;stroke-width:0.8"
       x="236.16"
       xlink:href="#mb79084050d"
       y="204.76801"
       id="use155"
       width="100%"
       height="100%"
       transform="translate(-57.2,-41.072)" />
    <use
       xlink:href="#DejaVuSans-2212"
       id="use160"
       x="0"
       y="0"
       width="100%"
       height="100%"
       transform="matrix(0.1,0,0,-0.1,185.96,167.49522)"
       style="fill:#586e75" />
    <use
       x="83.789062"
       xlink:href="#DejaVuSans-30"
       id="use162"
       y="0"
       width="100%"
       height="100%"
       transform="matrix(0.1,0,0,-0.1,185.96,167.49522)"
       style="fill:#586e75" />
    <use
       x="147.41211"
       xlink:href="#DejaVuSans-2e"
       id="use164"
       y="0"
       width="100%"
       height="100%"
       transform="matrix(0.1,0,0,-0.1,185.96,167.49522)"
       style="fill:#586e75" />
    <use
       x="179.19922"
       xlink:href="#DejaVuSans-32"
       id="use166"
       y="0"
       width="100%"
       height="100%"
       transform="matrix(0.1,0,0,-0.1,185.96,167.49522)"
       style="fill:#586e75" />
    <use
       x="242.82227"
       xlink:href="#DejaVuSans-35"
       id="use168"
       y="0"
       width="100%"
       height="100%"
       transform="matrix(0.1,0,0,-0.1,185.96,167.49522)"
       style="fill:#586e75" />
    <use
       style="fill:#586e75;stroke:#586e75;stroke-width:0.8"
       x="236.16"
       xlink:href="#mb79084050d"
       y="174.528"
       id="use174"
       width="100%"
       height="100%"
       transform="translate(-57.2,-41.072)" />
    <use
       xlink:href="#DejaVuSans-30"
       id="use179"
       x="0"
       y="0"
       width="100%"
       height="100%"
       transform="matrix(0.1,0,0,-0.1,185.96,137.25522)"
       style="fill:#586e75" />
    <use
       x="63.623047"
       xlink:href="#DejaVuSans-2e"
       id="use181"
       y="0"
       width="100%"
       height="100%"
       transform="matrix(0.1,0,0,-0.1,185.96,137.25522)"
       style="fill:#586e75" />
    <use
       x="95.410156"
       xlink:href="#DejaVuSans-30"
       id="use183"
       y="0"
       width="100%"
       height="100%"
       transform="matrix(0.1,0,0,-0.1,185.96,137.25522)"
       style="fill:#586e75" />
    <use
       x="159.0332"
       xlink:href="#DejaVuSans-30"
       id="use185"
       y="0"
       width="100%"
       height="100%"
       transform="matrix(0.1,0,0,-0.1,185.96,137.25522)"
       style="fill:#586e75" />
    <use
       style="fill:#586e75;stroke:#586e75;stroke-width:0.8"
       x="236.16"
       xlink:href="#mb79084050d"
       y="144.28799"
       id="use191"
       width="100%"
       height="100%"
       transform="translate(-57.2,-41.072)" />
    <use
       xlink:href="#DejaVuSans-30"
       id="use196"
       x="0"
       y="0"
       width="100%"
       height="100%"
       transform="matrix(0.1,0,0,-0.1,185.96,107.01522)"
       style="fill:#586e75" />
    <use
       x="63.623047"
       xlink:href="#DejaVuSans-2e"
       id="use198"
       y="0"
       width="100%"
       height="100%"
       transform="matrix(0.1,0,0,-0.1,185.96,107.01522)"
       style="fill:#586e75" />
    <use
       x="95.410156"
       xlink:href="#DejaVuSans-32"
       id="use200"
       y="0"
       width="100%"
       height="100%"
       transform="matrix(0.1,0,0,-0.1,185.96,107.01522)"
       style="fill:#586e75" />
    <use
       x="159.0332"
       xlink:href="#DejaVuSans-35"
       id="use202"
       y="0"
       width="100%"
       height="100%"
       transform="matrix(0.1,0,0,-0.1,185.96,107.01522)"
       style="fill:#586e75" />
    <use
       style="fill:#586e75;stroke:#586e75;stroke-width:0.8"
       x="236.16"
       xlink:href="#mb79084050d"
       y="114.048"
       id="use208"
       width="100%"
       height="100%"
       transform="translate(-57.2,-41.072)" />
    <use
       xlink:href="#DejaVuSans-30"
       id="use213"
       x="0"
       y="0"
       width="100%"
       height="100%"
       transform="matrix(0.1,0,0,-0.1,185.96,76.77522)"
       style="fill:#586e75" />
    <use
       x="63.623047"
       xlink:href="#DejaVuSans-2e"
       id="use215"
       y="0"
       width="100%"
       height="100%"
       transform="matrix(0.1,0,0,-0.1,185.96,76.77522)"
       style="fill:#586e75" />
    <use
       x="95.410156"
       xlink:href="#DejaVuSans-35"
       id="use217"
       y="0"
       width="100%"
       height="100%"
       transform="matrix(0.1,0,0,-0.1,185.96,76.77522)"
       style="fill:#586e75" />
    <use
       x="159.0332"
       xlink:href="#DejaVuSans-30"
       id="use219"
       y="0"
       width="100%"
       height="100%"
       transform="matrix(0.1,0,0,-0.1,185.96,76.77522)"
       style="fill:#586e75" />
    <use
       style="fill:#586e75;stroke:#586e75;stroke-width:0.8"
       x="236.16"
       xlink:href="#mb79084050d"
       y="83.807999"
       id="use225"
       width="100%"
       height="100%"
       transform="translate(-57.2,-41.072)" />
    <use
       xlink:href="#DejaVuSans-30"
       id="use230"
       x="0"
       y="0"
       width="100%"
       height="100%"
       transform="matrix(0.1,0,0,-0.1,185.96,46.535219)"
       style="fill:#586e75" />
    <use
       x="63.623047"
       xlink:href="#DejaVuSans-2e"
       id="use232"
       y="0"
       width="100%"
       height="100%"
       transform="matrix(0.1,0,0,-0.1,185.96,46.535219)"
       style="fill:#586e75" />
    <use
       x="95.410156"
       xlink:href="#DejaVuSans-37"
       id="use234"
       y="0"
       width="100%"
       height="100%"
       transform="matrix(0.1,0,0,-0.1,185.96,46.535219)"
       style="fill:#586e75" />
    <use
       x="159.0332"
       xlink:href="#DejaVuSans-35"
       id="use236"
       y="0"
       width="100%"
       height="100%"
       transform="matrix(0.1,0,0,-0.1,185.96,46.535219)"
       style="fill:#586e75" />
    <use
       style="fill:#586e75;stroke:#586e75;stroke-width:0.8"
       x="236.16"
       xlink:href="#mb79084050d"
       y="53.568001"
       id="use242"
       width="100%"
       height="100%"
       transform="translate(-57.2,-41.072)" />
    <use
       xlink:href="#DejaVuSans-31"
       id="use247"
       x="0"
       y="0"
       width="100%"
       height="100%"
       transform="matrix(0.1,0,0,-0.1,185.96,16.295219)"
       style="fill:#586e75" />
    <use
       x="63.623047"
       xlink:href="#DejaVuSans-2e"
       id="use249"
       y="0"
       width="100%"
       height="100%"
       transform="matrix(0.1,0,0,-0.1,185.96,16.295219)"
       style="fill:#586e75" />
    <use
       x="95.410156"
       xlink:href="#DejaVuSans-30"
       id="use251"
       y="0"
       width="100%"
       height="100%"
       transform="matrix(0.1,0,0,-0.1,185.96,16.295219)"
       style="fill:#586e75" />
    <use
       x="159.0332"
       xlink:href="#DejaVuSans-30"
       id="use253"
       y="0"
       width="100%"
       height="100%"
       transform="matrix(0.1,0,0,-0.1,185.96,16.295219)"
       style="fill:#586e75" />
    <path
       clip-path="url(#p73306bf8ba)"
       d="m 61.101176,173.71843 16.805648,-0.49338 14.004705,-0.63058 11.203761,-0.71323 9.8033,-0.83066 9.10306,-0.99438 7.70258,-1.05017 7.00236,-1.15509 7.00235,-1.37985 6.30212,-1.46389 6.30212,-1.70344 5.60188,-1.73881 5.60188,-1.97152 5.60188,-2.22374 5.60189,-2.49346 4.90164,-2.41442 4.90165,-2.63872 4.90165,-2.86628 5.60188,-3.55296 5.60188,-3.8394 5.60188,-4.10703 6.30212,-4.90412 7.00235,-5.73497 9.8033,-8.35242 16.80565,-14.35517 7.00235,-5.681327 6.30212,-4.84128 5.60188,-4.042428 5.60188,-3.769167 5.60188,-3.479536 4.90165,-2.801165 4.90165,-2.57413 4.90164,-2.351439 5.60189,-2.424544 5.60188,-2.158939 5.60188,-1.911466 5.60188,-1.683811 6.30212,-1.647703 6.30212,-1.414543 7.00235,-1.332101 7.70259,-1.214907 8.40282,-1.0745 9.10306,-0.922582 9.8033,-0.769789 11.20376,-0.660316 13.30447,-0.559226 14.00471,-0.402031 v 0"
       style="fill:none;stroke:#b58900;stroke-width:2;stroke-linecap:square"
       id="path260"
       transform="translate(-57.2,-41.072)" />
    <path
       clip-path="url(#p73306bf8ba)"
       d="m 61.101176,295.47702 45.515294,-0.1368 17.50588,-0.25352 11.20377,-0.35862 8.40282,-0.4658 7.00235,-0.59829 5.60189,-0.68077 4.90164,-0.79831 4.20141,-0.88047 4.20142,-1.10996 3.50117,-1.14083 3.50118,-1.37857 3.50118,-1.66205 2.80094,-1.56896 2.80094,-1.81439 2.80094,-2.09318 2.80094,-2.40808 2.80094,-2.76156 2.80094,-3.15532 2.80094,-3.5902 2.80095,-4.06561 2.80094,-4.57925 2.80094,-5.12659 2.80094,-5.70054 2.80094,-6.2911 2.80094,-6.8853 2.80094,-7.46732 2.80094,-8.019 3.50118,-10.72146 4.20141,-13.69651 6.30212,-21.54066 7.00235,-23.87452 4.20141,-13.56344 3.50118,-10.57475 3.50118,-9.76988 2.80094,-7.17893 2.80094,-6.58867 2.80094,-5.994479 2.80094,-5.410795 2.80094,-4.849087 2.80094,-4.317878 2.80095,-3.822934 2.80094,-3.367621 2.80094,-2.953325 2.80094,-2.579875 2.80094,-2.245951 2.80094,-1.949433 2.80094,-1.68769 2.80094,-1.457824 3.50118,-1.542732 3.50118,-1.278367 3.50117,-1.057052 4.20142,-1.027712 4.90164,-0.932944 4.90165,-0.70997 6.30212,-0.668085 7.00235,-0.510784 9.10306,-0.422746 11.904,-0.306743 17.50588,-0.199517 31.51059,-0.09704 9.10306,-0.0078 v 0"
       style="fill:none;stroke:#268bd2;stroke-width:2;stroke-dasharray:7.4, 3.2;stroke-dashoffset:0"
       id="path263"
       transform="translate(-57.2,-41.072)" />
    <path
       d="M 178.96,266.512 V 0.4"
       style="fill:none;stroke:#586e75;stroke-width:0.8;stroke-linecap:square;stroke-linejoin:miter"
       id="path266" />
    <path
       d="M 178.96,266.512 V 0.4"
       style="fill:none;stroke:#586e75;stroke-width:0.8;stroke-linecap:square;stroke-linejoin:miter"
       id="path269" />
    <path
       d="M 0.4,133.456 H 357.52"
       style="fill:none;stroke:#586e75;stroke-width:0.8;stroke-linecap:square;stroke-linejoin:miter"
       id="path272" />
    <path
       d="M 0.4,133.456 H 357.52"
       style="fill:none;stroke:#586e75;stroke-width:0.8;stroke-linecap:square;stroke-linejoin:miter"
       id="path275" />
    <path
       d="m 13.9,19.225 h 30"
       style="fill:none;stroke:#b58900;stroke-width:2;stroke-linecap:square"
       id="path281" />
    <use
       xlink:href="#EBGaramond-Regular-4c"
       id="use294"
       x="0"
       y="0"
       width="100%"
       height="100%"
       transform="matrix(0.15,0,0,-0.15,55.9,24.475)"
       style="fill:#586e75" />
    <use
       x="58.399994"
       xlink:href="#EBGaramond-Regular-6f"
       id="use296"
       y="0"
       width="100%"
       height="100%"
       transform="matrix(0.15,0,0,-0.15,55.9,24.475)"
       style="fill:#586e75" />
    <use
       x="107.89998"
       xlink:href="#EBGaramond-Regular-67"
       id="use298"
       y="0"
       width="100%"
       height="100%"
       transform="matrix(0.15,0,0,-0.15,55.9,24.475)"
       style="fill:#586e75" />
    <use
       x="151.39996"
       xlink:href="#EBGaramond-Regular-69"
       id="use300"
       y="0"
       width="100%"
       height="100%"
       transform="matrix(0.15,0,0,-0.15,55.9,24.475)"
       style="fill:#586e75" />
    <use
       x="175.89995"
       xlink:href="#EBGaramond-Regular-73"
       id="use302"
       y="0"
       width="100%"
       height="100%"
       transform="matrix(0.15,0,0,-0.15,55.9,24.475)"
       style="fill:#586e75" />
    <use
       x="208.19994"
       xlink:href="#EBGaramond-Regular-74"
       id="use304"
       y="0"
       width="100%"
       height="100%"
       transform="matrix(0.15,0,0,-0.15,55.9,24.475)"
       style="fill:#586e75" />
    <use
       x="239.59993"
       xlink:href="#EBGaramond-Regular-69"
       id="use306"
       y="0"
       width="100%"
       height="100%"
       transform="matrix(0.15,0,0,-0.15,55.9,24.475)"
       style="fill:#586e75" />
    <use
       x="264.09991"
       xlink:href="#EBGaramond-Regular-63"
       id="use308"
       y="0"
       width="100%"
       height="100%"
       transform="matrix(0.15,0,0,-0.15,55.9,24.475)"
       style="fill:#586e75" />
    <path
       d="m 13.9,41.65 h 30"
       style="fill:none;stroke:#268bd2;stroke-width:2;stroke-dasharray:7.4, 3.2;stroke-dashoffset:0"
       id="path313" />
    <use
       xlink:href="#EBGaramond-Regular-54"
       id="use323"
       x="0"
       y="0"
       width="100%"
       height="100%"
       transform="matrix(0.15,0,0,-0.15,55.9,46.9)"
       style="fill:#586e75" />
    <use
       x="66.999985"
       xlink:href="#EBGaramond-Regular-61"
       id="use325"
       y="0"
       width="100%"
       height="100%"
       transform="matrix(0.15,0,0,-0.15,55.9,46.9)"
       style="fill:#586e75" />
    <use
       x="106.89998"
       xlink:href="#EBGaramond-Regular-6e"
       id="use327"
       y="0"
       width="100%"
       height="100%"
       transform="matrix(0.15,0,0,-0.15,55.9,46.9)"
       style="fill:#586e75" />
    <use
       x="159.69997"
       xlink:href="#EBGaramond-Regular-68"
       id="use329"
       y="0"
       width="100%"
       height="100%"
       transform="matrix(0.15,0,0,-0.15,55.9,46.9)"
       style="fill:#586e75" />
  </g>
  <defs
     id="defs340">
    <clipPath
       id="p73306bf8ba">
      <rect
         height="266.112"
         width="357.12"
         x="57.599998"
         y="41.472"
         id="rect337" />
    </clipPath>
  </defs>
</svg>
