<?xml version="1.0" encoding="UTF-8" standalone="no"?>
<svg
   height="266.91199pt"
   version="1.1"
   viewBox="0 0 357.92002 266.91198"
   width="357.92001pt"
   id="svg410"
   sodipodi:docname="surrogate-loss.svg"
   inkscape:version="1.1.1 (3bf5ae0d25, 2021-09-20)"
   xmlns:inkscape="http://www.inkscape.org/namespaces/inkscape"
   xmlns:sodipodi="http://sodipodi.sourceforge.net/DTD/sodipodi-0.dtd"
   xmlns:xlink="http://www.w3.org/1999/xlink"
   xmlns="http://www.w3.org/2000/svg"
   xmlns:svg="http://www.w3.org/2000/svg"
   xmlns:rdf="http://www.w3.org/1999/02/22-rdf-syntax-ns#"
   xmlns:cc="http://creativecommons.org/ns#"
   xmlns:dc="http://purl.org/dc/elements/1.1/">
  <sodipodi:namedview
     id="namedview412"
     pagecolor="#ffffff"
     bordercolor="#666666"
     borderopacity="1.0"
     inkscape:pageshadow="2"
     inkscape:pageopacity="0.0"
     inkscape:pagecheckerboard="0"
     inkscape:document-units="pt"
     showgrid="false"
     inkscape:zoom="1.8945312"
     inkscape:cx="230.92784"
     inkscape:cy="175.24124"
     inkscape:window-width="3840"
     inkscape:window-height="2106"
     inkscape:window-x="0"
     inkscape:window-y="54"
     inkscape:window-maximized="1"
     inkscape:current-layer="svg410" />
  <metadata
     id="metadata2">
    <rdf:RDF>
      <cc:Work>
        <dc:type
           rdf:resource="http://purl.org/dc/dcmitype/StillImage" />
        <dc:date>2021-10-19T00:09:51.571315</dc:date>
        <dc:format>image/svg+xml</dc:format>
        <dc:creator>
          <cc:Agent>
            <dc:title>Matplotlib v3.4.3, https://matplotlib.org/</dc:title>
          </cc:Agent>
        </dc:creator>
      </cc:Work>
    </rdf:RDF>
  </metadata>
  <defs
     id="defs6">
    <style
       type="text/css"
       id="style4">*{stroke-linecap:butt;stroke-linejoin:round;}</style>
  </defs>
  <path
     d="m -57.2,304.528 h 460.8 v -345.6 H -57.2 Z"
     style="fill:none"
     id="path8" />
  <g
     id="g1650"
     transform="translate(-57.2,-41.072)">
    <path
       d="M 57.6,307.584 H 414.72 V 41.472 H 57.6 Z"
       style="fill:none"
       id="path11" />
    <g
       id="line2d_1">
      <path
         clip-path="url(#pb9cd4d6276)"
         d="M 96.112941,307.584 V 41.472"
         style="fill:none;stroke:#fdf6e3"
         id="path14" />
    </g>
    <g
       id="line2d_2">
      <defs
         id="defs18">
        <path
           d="M 0,0 V -3.5"
           id="m7c4b1d85b9"
           style="stroke:#657b83;stroke-width:0.8" />
      </defs>
      <g
         id="g22">
        <use
           style="fill:#657b83;stroke:#657b83;stroke-width:0.8"
           x="96.112938"
           xlink:href="#m7c4b1d85b9"
           y="260.37057"
           id="use20"
           width="100%"
           height="100%" />
      </g>
    </g>
    <g
       id="text_1">
      <!-- −4 -->
      <g
         style="fill:#657b83"
         transform="matrix(0.1,0,0,-0.1,88.741847,251.29089)"
         id="g33">
        <defs
           id="defs27">
          <path
             d="M 678,2272 H 4684 V 1741 H 678 Z"
             id="DejaVuSans-2212"
             transform="scale(0.015625)" />
          <path
             d="M 2419,4116 825,1625 h 1594 z m -166,550 h 794 V 1625 h 666 V 1100 H 3047 V 0 H 2419 V 1100 H 313 v 609 z"
             id="DejaVuSans-34"
             transform="scale(0.015625)" />
        </defs>
        <use
           xlink:href="#DejaVuSans-2212"
           id="use29"
           x="0"
           y="0"
           width="100%"
           height="100%" />
        <use
           x="83.789062"
           xlink:href="#DejaVuSans-34"
           id="use31"
           y="0"
           width="100%"
           height="100%" />
      </g>
    </g>
    <g
       id="line2d_3">
      <path
         clip-path="url(#pb9cd4d6276)"
         d="M 166.13647,307.584 V 41.472"
         style="fill:none;stroke:#fdf6e3"
         id="path37" />
    </g>
    <g
       id="line2d_4">
      <g
         id="g42">
        <use
           style="fill:#657b83;stroke:#657b83;stroke-width:0.8"
           x="166.13647"
           xlink:href="#m7c4b1d85b9"
           y="260.37057"
           id="use40"
           width="100%"
           height="100%" />
      </g>
    </g>
    <g
       id="text_2">
      <!-- −2 -->
      <g
         style="fill:#657b83"
         transform="matrix(0.1,0,0,-0.1,158.76538,251.29089)"
         id="g52">
        <defs
           id="defs46">
          <path
             d="M 1228,531 H 3431 V 0 H 469 v 531 q 359,372 979,998 621,627 780,809 303,340 423,576 121,236 121,464 0,372 -261,606 -261,235 -680,235 -297,0 -627,-103 -329,-103 -704,-313 v 638 q 381,153 712,231 332,78 607,78 725,0 1156,-363 431,-362 431,-968 0,-288 -108,-546 -107,-257 -392,-607 -78,-91 -497,-524 Q 1991,1309 1228,531 Z"
             id="DejaVuSans-32"
             transform="scale(0.015625)" />
        </defs>
        <use
           xlink:href="#DejaVuSans-2212"
           id="use48"
           x="0"
           y="0"
           width="100%"
           height="100%" />
        <use
           x="83.789062"
           xlink:href="#DejaVuSans-32"
           id="use50"
           y="0"
           width="100%"
           height="100%" />
      </g>
    </g>
    <g
       id="line2d_5">
      <path
         clip-path="url(#pb9cd4d6276)"
         d="M 236.16,307.584 V 41.472"
         style="fill:none;stroke:#fdf6e3"
         id="path56" />
    </g>
    <g
       id="line2d_6">
      <g
         id="g61">
        <use
           style="fill:#657b83;stroke:#657b83;stroke-width:0.8"
           x="236.16"
           xlink:href="#m7c4b1d85b9"
           y="260.37057"
           id="use59"
           width="100%"
           height="100%" />
      </g>
    </g>
    <g
       id="text_3">
      <!-- 0 -->
      <g
         style="fill:#657b83"
         transform="matrix(0.1,0,0,-0.1,232.97875,251.29089)"
         id="g69">
        <defs
           id="defs65">
          <path
             d="m 2034,4250 q -487,0 -733,-480 -245,-479 -245,-1442 0,-959 245,-1439 246,-480 733,-480 491,0 736,480 246,480 246,1439 0,963 -246,1442 -245,480 -736,480 z m 0,500 q 785,0 1199,-621 414,-620 414,-1801 0,-1178 -414,-1799 -414,-620 -1199,-620 -784,0 -1198,620 -414,621 -414,1799 0,1181 414,1801 414,621 1198,621 z"
             id="DejaVuSans-30"
             transform="scale(0.015625)" />
        </defs>
        <use
           xlink:href="#DejaVuSans-30"
           id="use67"
           x="0"
           y="0"
           width="100%"
           height="100%" />
      </g>
    </g>
    <g
       id="line2d_7">
      <path
         clip-path="url(#pb9cd4d6276)"
         d="M 306.18353,307.584 V 41.472"
         style="fill:none;stroke:#fdf6e3"
         id="path73" />
    </g>
    <g
       id="line2d_8">
      <g
         id="g78">
        <use
           style="fill:#657b83;stroke:#657b83;stroke-width:0.8"
           x="306.18353"
           xlink:href="#m7c4b1d85b9"
           y="260.37057"
           id="use76"
           width="100%"
           height="100%" />
      </g>
    </g>
    <g
       id="text_4">
      <!-- 2 -->
      <g
         style="fill:#657b83"
         transform="matrix(0.1,0,0,-0.1,303.00228,251.29089)"
         id="g83">
        <use
           xlink:href="#DejaVuSans-32"
           id="use81"
           x="0"
           y="0"
           width="100%"
           height="100%" />
      </g>
    </g>
    <g
       id="line2d_9">
      <path
         clip-path="url(#pb9cd4d6276)"
         d="M 376.20706,307.584 V 41.472"
         style="fill:none;stroke:#fdf6e3"
         id="path87" />
    </g>
    <g
       id="line2d_10">
      <g
         id="g92">
        <use
           style="fill:#657b83;stroke:#657b83;stroke-width:0.8"
           x="376.20706"
           xlink:href="#m7c4b1d85b9"
           y="260.37057"
           id="use90"
           width="100%"
           height="100%" />
      </g>
    </g>
    <g
       id="text_5">
      <!-- 4 -->
      <g
         style="fill:#657b83"
         transform="matrix(0.1,0,0,-0.1,373.02581,251.29089)"
         id="g97">
        <use
           xlink:href="#DejaVuSans-34"
           id="use95"
           x="0"
           y="0"
           width="100%"
           height="100%" />
      </g>
    </g>
    <g
       style="fill:#657b83"
       transform="matrix(0.12,0,0,-0.12,386.88,273.49058)"
       id="g118">
      <defs
         id="defs106">
        <path
           d="m 1588,-325 q -400,-672 -652,-839 -252,-167 -642,-167 h -453 l 96,481 h 332 q 240,0 409,131 169,131 378,513 l 178,334 -775,3372 h 610 L 1650,819 3256,3500 h 603 z"
           id="DejaVuSans-Oblique-79"
           transform="scale(0.015625)" />
        <path
           d="m 3059,4863 -90,-479 h -550 q -313,0 -455,-123 -142,-123 -211,-452 l -62,-309 h 947 l -85,-447 H 1606 L 1013,0 H 434 l 597,3053 H 481 l 82,447 h 550 l 46,244 q 119,619 417,869 299,250 940,250 z"
           id="DejaVuSans-Oblique-66"
           transform="scale(0.015625)" />
        <path
           d="m 1984,4856 q -418,-718 -622,-1422 -203,-703 -203,-1425 0,-721 205,-1429 205,-708 620,-1424 h -500 q -468,735 -701,1444 -233,709 -233,1409 0,697 231,1403 232,707 703,1444 z"
           id="DejaVuSans-28"
           transform="scale(0.015625)" />
        <path
           d="M 3841,3500 2234,1784 3219,0 H 2559 L 1819,1388 531,0 H -166 L 1556,1844 641,3500 h 659 l 672,-1266 1172,1266 z"
           id="DejaVuSans-Oblique-78"
           transform="scale(0.015625)" />
        <path
           d="m 513,4856 h 500 q 468,-737 701,-1444 233,-706 233,-1403 0,-700 -233,-1409 -233,-709 -701,-1444 H 513 q 415,716 620,1424 205,708 205,1429 0,722 -205,1425 -205,704 -620,1422 z"
           id="DejaVuSans-29"
           transform="scale(0.015625)" />
      </defs>
      <use
         transform="translate(0,0.015625)"
         xlink:href="#DejaVuSans-Oblique-79"
         id="use108"
         x="0"
         y="0"
         width="100%"
         height="100%" />
      <use
         transform="translate(59.179688,0.015625)"
         xlink:href="#DejaVuSans-Oblique-66"
         id="use110"
         x="0"
         y="0"
         width="100%"
         height="100%" />
      <use
         transform="translate(94.384766,0.015625)"
         xlink:href="#DejaVuSans-28"
         id="use112"
         x="0"
         y="0"
         width="100%"
         height="100%" />
      <use
         transform="translate(133.39844,0.015625)"
         xlink:href="#DejaVuSans-Oblique-78"
         id="use114"
         x="0"
         y="0"
         width="100%"
         height="100%" />
      <use
         transform="translate(192.57812,0.015625)"
         xlink:href="#DejaVuSans-29"
         id="use116"
         x="0"
         y="0"
         width="100%"
         height="100%" />
    </g>
    <g
       id="line2d_11">
      <path
         clip-path="url(#pb9cd4d6276)"
         d="M 57.6,303.29187 H 414.72"
         style="fill:none;stroke:#fdf6e3"
         id="path122" />
    </g>
    <g
       id="line2d_12">
      <defs
         id="defs126">
        <path
           d="M 0,0 H 3.5"
           id="m7ffcd7c7dc"
           style="stroke:#657b83;stroke-width:0.8" />
      </defs>
      <g
         id="g130">
        <use
           style="fill:#657b83;stroke:#657b83;stroke-width:0.8"
           x="236.16"
           xlink:href="#m7ffcd7c7dc"
           y="303.29187"
           id="use128"
           width="100%"
           height="100%" />
      </g>
    </g>
    <g
       id="text_7">
      <!-- −1 -->
      <g
         style="fill:#657b83"
         transform="matrix(0.1,0,0,-0.1,243.16,307.09109)"
         id="g140">
        <defs
           id="defs134">
          <path
             d="M 794,531 H 1825 V 4091 L 703,3866 v 575 l 1116,225 h 631 V 531 H 3481 V 0 H 794 Z"
             id="DejaVuSans-31"
             transform="scale(0.015625)" />
        </defs>
        <use
           xlink:href="#DejaVuSans-2212"
           id="use136"
           x="0"
           y="0"
           width="100%"
           height="100%" />
        <use
           x="83.789062"
           xlink:href="#DejaVuSans-31"
           id="use138"
           y="0"
           width="100%"
           height="100%" />
      </g>
    </g>
    <g
       id="line2d_13">
      <path
         clip-path="url(#pb9cd4d6276)"
         d="M 57.6,260.37058 H 414.72"
         style="fill:none;stroke:#fdf6e3"
         id="path144" />
    </g>
    <g
       id="line2d_14">
      <g
         id="g149">
        <use
           style="fill:#657b83;stroke:#657b83;stroke-width:0.8"
           x="236.16"
           xlink:href="#m7ffcd7c7dc"
           y="260.37057"
           id="use147"
           width="100%"
           height="100%" />
      </g>
    </g>
    <g
       id="text_8">
      <!-- 0 -->
      <g
         style="fill:#657b83"
         transform="matrix(0.1,0,0,-0.1,243.16,264.1698)"
         id="g154">
        <use
           xlink:href="#DejaVuSans-30"
           id="use152"
           x="0"
           y="0"
           width="100%"
           height="100%" />
      </g>
    </g>
    <g
       id="line2d_15">
      <path
         clip-path="url(#pb9cd4d6276)"
         d="M 57.6,217.44929 H 414.72"
         style="fill:none;stroke:#fdf6e3"
         id="path158" />
    </g>
    <g
       id="line2d_16">
      <g
         id="g163">
        <use
           style="fill:#657b83;stroke:#657b83;stroke-width:0.8"
           x="236.16"
           xlink:href="#m7ffcd7c7dc"
           y="217.4493"
           id="use161"
           width="100%"
           height="100%" />
      </g>
    </g>
    <g
       id="text_9">
      <!-- 1 -->
      <g
         style="fill:#657b83"
         transform="matrix(0.1,0,0,-0.1,243.16,221.24851)"
         id="g168">
        <use
           xlink:href="#DejaVuSans-31"
           id="use166"
           x="0"
           y="0"
           width="100%"
           height="100%" />
      </g>
    </g>
    <g
       id="line2d_17">
      <path
         clip-path="url(#pb9cd4d6276)"
         d="M 57.6,174.528 H 414.72"
         style="fill:none;stroke:#fdf6e3"
         id="path172" />
    </g>
    <g
       id="line2d_18">
      <g
         id="g177">
        <use
           style="fill:#657b83;stroke:#657b83;stroke-width:0.8"
           x="236.16"
           xlink:href="#m7ffcd7c7dc"
           y="174.528"
           id="use175"
           width="100%"
           height="100%" />
      </g>
    </g>
    <g
       id="text_10">
      <!-- 2 -->
      <g
         style="fill:#657b83"
         transform="matrix(0.1,0,0,-0.1,243.16,178.32722)"
         id="g182">
        <use
           xlink:href="#DejaVuSans-32"
           id="use180"
           x="0"
           y="0"
           width="100%"
           height="100%" />
      </g>
    </g>
    <g
       id="line2d_19">
      <path
         clip-path="url(#pb9cd4d6276)"
         d="M 57.6,131.60671 H 414.72"
         style="fill:none;stroke:#fdf6e3"
         id="path186" />
    </g>
    <g
       id="line2d_20">
      <g
         id="g191">
        <use
           style="fill:#657b83;stroke:#657b83;stroke-width:0.8"
           x="236.16"
           xlink:href="#m7ffcd7c7dc"
           y="131.6067"
           id="use189"
           width="100%"
           height="100%" />
      </g>
    </g>
    <g
       id="text_11">
      <!-- 3 -->
      <g
         style="fill:#657b83"
         transform="matrix(0.1,0,0,-0.1,243.16,135.40593)"
         id="g199">
        <defs
           id="defs195">
          <path
             d="m 2597,2516 q 453,-97 707,-404 255,-306 255,-756 0,-690 -475,-1069 -475,-378 -1350,-378 -293,0 -604,58 -311,58 -642,174 v 609 q 262,-153 574,-231 313,-78 654,-78 593,0 904,234 311,234 311,681 0,413 -289,645 -289,233 -804,233 h -544 v 519 h 569 q 465,0 712,186 247,186 247,536 0,359 -255,551 -254,193 -729,193 -260,0 -557,-57 -297,-56 -653,-174 v 562 q 360,100 674,150 314,50 592,50 719,0 1137,-327 419,-326 419,-882 0,-388 -222,-655 -222,-267 -631,-370 z"
             id="DejaVuSans-33"
             transform="scale(0.015625)" />
        </defs>
        <use
           xlink:href="#DejaVuSans-33"
           id="use197"
           x="0"
           y="0"
           width="100%"
           height="100%" />
      </g>
    </g>
    <g
       id="line2d_21">
      <path
         clip-path="url(#pb9cd4d6276)"
         d="M 57.6,88.685419 H 414.72"
         style="fill:none;stroke:#fdf6e3"
         id="path203" />
    </g>
    <g
       id="line2d_22">
      <g
         id="g208">
        <use
           style="fill:#657b83;stroke:#657b83;stroke-width:0.8"
           x="236.16"
           xlink:href="#m7ffcd7c7dc"
           y="88.685417"
           id="use206"
           width="100%"
           height="100%" />
      </g>
    </g>
    <g
       id="text_12">
      <!-- 4 -->
      <g
         style="fill:#657b83"
         transform="matrix(0.1,0,0,-0.1,243.16,92.484638)"
         id="g213">
        <use
           xlink:href="#DejaVuSans-34"
           id="use211"
           x="0"
           y="0"
           width="100%"
           height="100%" />
      </g>
    </g>
    <g
       id="line2d_23">
      <path
         clip-path="url(#pb9cd4d6276)"
         d="M 57.6,45.764129 H 414.72"
         style="fill:none;stroke:#fdf6e3"
         id="path217" />
    </g>
    <g
       id="line2d_24">
      <g
         id="g222">
        <use
           style="fill:#657b83;stroke:#657b83;stroke-width:0.8"
           x="236.16"
           xlink:href="#m7ffcd7c7dc"
           y="45.76413"
           id="use220"
           width="100%"
           height="100%" />
      </g>
    </g>
    <g
       id="text_13">
      <!-- 5 -->
      <g
         style="fill:#657b83"
         transform="matrix(0.1,0,0,-0.1,243.16,49.563348)"
         id="g230">
        <defs
           id="defs226">
          <path
             d="M 691,4666 H 3169 V 4134 H 1269 V 2991 q 137,47 274,70 138,23 276,23 781,0 1237,-428 457,-428 457,-1159 Q 3513,744 3044,326 2575,-91 1722,-91 1428,-91 1123,-41 819,9 494,109 v 635 q 281,-153 581,-228 300,-75 634,-75 541,0 856,284 316,284 316,772 0,487 -316,771 -315,285 -856,285 -253,0 -505,-56 -251,-56 -513,-175 z"
             id="DejaVuSans-35"
             transform="scale(0.015625)" />
        </defs>
        <use
           xlink:href="#DejaVuSans-35"
           id="use228"
           x="0"
           y="0"
           width="100%"
           height="100%" />
      </g>
    </g>
    <path
       clip-path="url(#pb9cd4d6276)"
       d="M 61.101176,217.44929 H 236.16 l 0.70023,42.92129 h 173.65836 v 0"
       style="fill:none;stroke:#268bd2;stroke-width:2"
       id="path235" />
    <path
       clip-path="url(#pb9cd4d6276)"
       d="M 61.101176,2.842839 271.17176,260.37058 h 139.34683 v 0"
       style="fill:none;stroke:#2aa198;stroke-width:2"
       id="path238" />
    <path
       clip-path="url(#pb9cd4d6276)"
       d="m 184.77398,-1 3.77002,22.316162 4.20141,23.692552 4.20141,22.456419 4.20141,21.220286 4.20142,19.984151 4.20141,18.74802 3.50117,14.67908 3.50118,13.82066 3.50118,12.96223 3.50117,12.1038 3.50118,11.24538 3.50118,10.38695 2.80094,7.6915 2.80094,7.1421 2.80094,6.59271 2.80094,6.04332 2.80094,5.49392 2.80094,4.94454 2.80095,4.39514 2.1007,2.93581 2.10071,2.62678 2.1007,2.31775 2.10071,2.00872 2.1007,1.69968 2.10071,1.39065 2.10071,1.08162 2.1007,0.77258 2.10071,0.46355 2.1007,0.15452 h 139.34683 v 0"
       style="fill:none;stroke:#859900;stroke-width:2;stroke-dasharray:7.4, 3.2;stroke-dashoffset:0"
       id="path241" />
    <path
       clip-path="url(#pb9cd4d6276)"
       d="m 172.91029,-1 2.32924,16.83325 2.80094,18.800923 2.80094,17.35544 2.80094,16.02109 2.80094,14.78933 2.80094,13.652273 2.80095,12.602634 2.80094,11.6337 2.80094,10.73926 2.80094,9.91358 2.80094,9.15139 2.80094,8.4478 2.80094,7.79831 2.80094,7.19874 2.80095,6.64527 2.80094,6.13436 2.80094,5.66273 2.80094,5.22736 2.80094,4.82546 2.80094,4.45446 2.80094,4.11198 3.50118,4.6983 3.50118,4.25119 3.50117,3.84664 3.50118,3.48058 3.50118,3.14936 3.50117,2.84966 3.50118,2.57848 3.50117,2.3331 4.20142,2.50855 4.20141,2.22489 4.20141,1.97329 4.20141,1.75016 4.90165,1.79332 4.90165,1.55904 5.60188,1.53396 5.60188,1.30716 6.30212,1.241 7.00235,1.14065 7.70259,1.0174 8.40282,0.88219 9.8033,0.79427 11.20376,0.67314 13.30447,0.56428 16.10541,0.45007 21.00706,0.34767 12.60424,0.12785 v 0"
       style="fill:none;stroke:#b58900;stroke-width:2;stroke-dasharray:2, 3.3;stroke-dashoffset:0"
       id="path244" />
    <path
       clip-path="url(#pb9cd4d6276)"
       d="m 88.895344,-1 21.922536,37.986122 16.80565,28.696684 13.30447,22.308643 11.20376,18.388441 9.8033,15.69602 9.10306,14.16005 8.40282,12.63919 7.00235,10.15998 7.00236,9.77161 6.30211,8.42318 6.30212,8.03623 5.60188,6.79258 5.60189,6.44136 5.60188,6.07292 4.90165,5.00083 4.90164,4.70196 4.90165,4.39955 4.90165,4.0965 4.90164,3.79577 4.90165,3.5002 4.90165,3.21249 4.90165,2.93498 4.90164,2.66972 4.90165,2.41832 4.90165,2.18197 4.90164,1.96147 5.60189,1.99253 5.60188,1.75003 5.60188,1.53133 6.30212,1.48973 6.30212,1.27241 7.00235,1.19303 7.70259,1.08387 8.40282,0.95543 9.8033,0.87301 10.50353,0.70924 12.60423,0.61949 14.70494,0.49472 18.90635,0.39834 9.8033,0.13645 v 0"
       style="fill:none;stroke:#cb4b16;stroke-width:2;stroke-dasharray:12.8, 3.2, 2, 3.2;stroke-dashoffset:0"
       id="path247" />
    <path
       d="M 236.16,307.584 V 41.472"
       style="fill:none;stroke:#eee8d5;stroke-width:0.8;stroke-linecap:square;stroke-linejoin:miter"
       id="path250" />
    <path
       d="M 236.16,307.584 V 41.472"
       style="fill:none;stroke:#586e75;stroke-width:0.8;stroke-linecap:square;stroke-linejoin:miter"
       id="path253" />
    <path
       d="M 57.6,260.37058 H 414.72"
       style="fill:none;stroke:#eee8d5;stroke-width:0.8;stroke-linecap:square;stroke-linejoin:miter"
       id="path256" />
    <path
       d="M 57.6,260.37058 H 414.72"
       style="fill:none;stroke:#586e75;stroke-width:0.8;stroke-linecap:square;stroke-linejoin:miter"
       id="path259" />
    <path
       d="m 287.09812,60.297 h 30"
       style="fill:none;stroke:#268bd2;stroke-width:2"
       id="path265" />
    <g
       style="fill:#586e75"
       transform="matrix(0.15,0,0,-0.15,329.09812,65.547)"
       id="g294">
      <defs
         id="defs276">
        <path
           d="m 1568,-90 q -326,0 -566,179 -240,180 -400,477 -160,298 -237,656 -77,359 -77,711 0,365 77,736 77,371 240,678 163,307 419,496 256,189 608,189 326,0 566,-179 240,-179 400,-477 160,-298 237,-653 77,-355 77,-701 0,-358 -77,-729 Q 2758,922 2595,608 2432,294 2179,102 1926,-90 1568,-90 Z m 109,167 q 256,0 412,259 157,259 227,675 71,416 71,896 0,359 -55,704 -54,346 -166,627 -112,282 -275,448 -163,167 -381,167 -256,0 -406,-250 -150,-249 -218,-662 -67,-413 -67,-893 0,-358 54,-710 55,-352 160,-637 106,-285 266,-455 160,-169 378,-169 z"
           id="EBGaramond-Regular-30"
           transform="scale(0.015625)" />
        <path
           d="m 224,1088 q -38,0 -38,38 0,109 28,224 29,116 74,122 307,45 614,86 308,42 615,74 19,0 35,-10 16,-9 16,-28 0,-122 -29,-228 -29,-105 -105,-118 -288,-45 -586,-87 -298,-41 -624,-73 z"
           id="EBGaramond-Regular-2d"
           transform="scale(0.015625)" />
        <path
           d="m 685,-19 q -45,0 -71,25 -25,26 -25,52 0,57 96,83 243,64 400,118 157,55 230,154 74,99 74,285 v 2444 q 0,122 -77,186 -77,64 -199,89 -121,26 -262,33 -64,6 -115,31 -51,26 -51,77 0,45 48,77 48,32 112,39 288,44 515,111 227,68 445,285 6,7 15,7 10,0 17,0 32,0 57,-16 26,-16 20,-42 -13,-96 -20,-208 -6,-112 -6,-246 V 621 q 0,-160 61,-244 61,-83 208,-131 147,-48 409,-112 39,-6 74,-29 35,-22 35,-54 0,-70 -89,-70 -180,0 -330,10 -150,9 -294,15 -144,7 -317,7 Q 1472,13 1318,6 1165,0 1011,-9 858,-19 685,-19 Z"
           id="EBGaramond-Regular-31"
           transform="scale(0.015625)" />
        <path
           id="EBGaramond-Regular-20"
           transform="scale(0.015625)"
           d="" />
        <path
           d="m 250,-19 q -32,0 -80,10 -48,9 -48,47 0,52 48,74 48,22 99,42 96,32 185,73 90,42 90,170 v 3225 q 0,186 -67,311 -67,125 -227,157 -52,12 -52,83 0,64 45,77 167,38 288,79 122,42 227,87 106,45 208,83 26,13 39,13 13,0 22,-16 10,-16 10,-29 0,-57 -23,-246 -22,-189 -22,-624 V 397 q 0,-128 89,-170 90,-41 186,-73 51,-20 99,-42 48,-22 48,-74 0,-38 -48,-47 -48,-10 -80,-10 -121,0 -195,10 Q 1018,0 950,6 883,13 768,13 659,13 588,6 518,0 448,-9 378,-19 250,-19 Z"
           id="EBGaramond-Regular-6c"
           transform="scale(0.015625)" />
        <path
           d="M 1498,-90 Q 1139,-90 851,76 563,243 393,534 224,826 224,1197 q 0,269 105,525 106,256 298,467 192,211 448,336 256,125 551,125 371,0 668,-180 298,-179 474,-470 176,-291 176,-637 0,-371 -163,-704 Q 2618,326 2298,118 1978,-90 1498,-90 Z m 134,192 q 218,0 390,83 173,84 269,269 77,148 102,359 26,211 26,397 0,307 -112,591 -112,285 -314,467 -201,183 -476,183 -173,0 -311,-55 -137,-54 -252,-201 -128,-160 -167,-391 -38,-230 -38,-460 0,-314 115,-599 115,-284 313,-464 199,-179 455,-179 z"
           id="EBGaramond-Regular-6f"
           transform="scale(0.015625)" />
        <path
           d="m 922,-90 q -199,0 -372,61 -172,61 -294,170 -32,70 -48,236 -16,167 -22,276 0,57 83,57 25,0 47,-10 23,-9 30,-34 Q 429,352 611,217 794,83 979,83 q 186,0 317,125 131,125 131,310 0,173 -115,298 -115,125 -403,304 -218,134 -353,256 -134,122 -195,250 -60,128 -60,288 0,204 96,370 96,167 288,266 192,100 480,100 192,0 320,-39 128,-38 192,-83 51,-70 86,-221 35,-150 35,-285 0,-44 -64,-44 -38,0 -73,16 -35,16 -48,41 -83,211 -208,323 -125,112 -311,112 -160,0 -285,-96 -124,-96 -124,-281 0,-147 92,-263 93,-115 349,-262 372,-211 554,-394 182,-182 182,-483 0,-345 -262,-563 Q 1338,-90 922,-90 Z"
           id="EBGaramond-Regular-73"
           transform="scale(0.015625)" />
      </defs>
      <use
         xlink:href="#EBGaramond-Regular-30"
         id="use278"
         x="0"
         y="0"
         width="100%"
         height="100%" />
      <use
         x="47.999985"
         xlink:href="#EBGaramond-Regular-2d"
         id="use280"
         y="0"
         width="100%"
         height="100%" />
      <use
         x="75.399979"
         xlink:href="#EBGaramond-Regular-31"
         id="use282"
         y="0"
         width="100%"
         height="100%" />
      <use
         x="123.39996"
         xlink:href="#EBGaramond-Regular-20"
         id="use284"
         y="0"
         width="100%"
         height="100%" />
      <use
         x="143.39995"
         xlink:href="#EBGaramond-Regular-6c"
         id="use286"
         y="0"
         width="100%"
         height="100%" />
      <use
         x="167.39993"
         xlink:href="#EBGaramond-Regular-6f"
         id="use288"
         y="0"
         width="100%"
         height="100%" />
      <use
         x="216.89992"
         xlink:href="#EBGaramond-Regular-73"
         id="use290"
         y="0"
         width="100%"
         height="100%" />
      <use
         x="249.19991"
         xlink:href="#EBGaramond-Regular-73"
         id="use292"
         y="0"
         width="100%"
         height="100%" />
    </g>
    <path
       d="m 287.09812,82.647 h 30"
       style="fill:none;stroke:#2aa198;stroke-width:2"
       id="path297" />
    <g
       style="fill:#586e75"
       transform="matrix(0.15,0,0,-0.15,329.09812,87.897)"
       id="g318">
      <defs
         id="defs306">
        <path
           d="m 250,-19 q -128,0 -128,70 0,58 147,103 96,32 182,83 87,51 93,179 v 3206 q 0,173 -58,304 -57,132 -224,157 -57,13 -57,90 0,57 51,77 90,32 214,70 125,38 259,86 135,48 237,93 26,13 39,13 19,0 32,-13 13,-13 13,-32 0,-38 -16,-109 -16,-70 -29,-243 -13,-173 -13,-518 V 2483 q 0,-102 9,-147 10,-45 36,-90 102,77 252,170 151,93 336,163 186,71 385,71 313,0 521,-247 208,-246 208,-624 V 435 q 0,-128 83,-189 84,-60 180,-92 70,-20 108,-42 39,-22 39,-61 0,-70 -128,-70 -128,0 -196,10 -67,9 -128,15 -60,7 -175,7 -109,0 -173,-7 -64,-6 -132,-15 -67,-10 -195,-10 -128,0 -128,70 0,45 38,61 39,16 110,42 96,32 172,92 77,61 77,189 v 1306 q 0,160 -93,291 -92,131 -227,208 -134,77 -275,77 -122,0 -282,-36 -160,-35 -249,-105 -103,-83 -138,-173 -35,-89 -35,-288 V 416 q 6,-128 80,-179 74,-51 170,-83 70,-20 105,-42 35,-22 35,-61 0,-70 -128,-70 -128,0 -192,10 Q 998,0 940,6 883,13 768,13 659,13 592,6 525,0 451,-9 378,-19 250,-19 Z"
           id="EBGaramond-Regular-68"
           transform="scale(0.015625)" />
        <path
           d="m 282,-19 q -58,0 -93,16 -35,16 -35,54 0,51 48,70 48,20 99,33 134,32 204,80 71,48 71,163 v 1389 q 0,172 -61,306 -61,135 -227,161 -32,6 -48,25 -16,20 -16,58 0,70 58,77 256,57 422,156 166,100 250,164 57,45 89,45 39,0 39,-32 0,-52 -16,-202 -16,-150 -29,-333 -13,-182 -13,-329 V 397 q 0,-109 73,-160 74,-51 202,-83 51,-13 99,-33 48,-19 48,-70 0,-70 -128,-70 -121,0 -195,10 Q 1050,0 982,6 915,13 800,13 691,13 620,6 550,0 480,-9 410,-19 282,-19 Z m 512,3321 q -135,0 -228,93 -92,93 -92,227 0,141 92,234 93,93 228,93 140,0 233,-93 93,-93 93,-234 0,-134 -93,-227 -93,-93 -233,-93 z"
           id="EBGaramond-Regular-69"
           transform="scale(0.015625)" />
        <path
           d="m 282,-19 q -58,0 -93,16 -35,16 -35,54 0,51 38,67 38,16 109,36 96,25 185,70 90,45 90,173 v 1376 q 0,173 -35,294 -35,122 -202,167 -25,12 -45,28 -19,16 -19,55 0,70 58,77 224,57 364,140 141,84 276,186 19,13 35,22 16,10 35,10 13,0 22,-13 10,-13 10,-32 0,-45 -16,-183 -16,-137 -16,-226 0,-26 3,-49 4,-22 10,-28 224,211 477,320 253,109 553,109 314,0 519,-256 205,-256 205,-634 V 397 q 0,-128 89,-170 90,-41 186,-73 51,-20 99,-42 48,-22 48,-74 0,-38 -45,-47 -45,-10 -83,-10 -128,0 -199,10 -70,9 -134,15 -64,7 -179,7 -109,0 -180,-7 -70,-6 -144,-15 -73,-10 -201,-10 -32,0 -80,10 -48,9 -48,47 0,52 48,74 48,22 99,42 96,32 186,73 90,42 90,170 v 1344 q 0,281 -157,438 -157,157 -419,163 -231,0 -404,-74 -172,-73 -307,-182 -25,-25 -38,-67 -13,-41 -13,-80 V 397 q 0,-128 89,-173 90,-45 186,-70 147,-39 147,-103 0,-38 -32,-54 -32,-16 -96,-16 -128,0 -202,10 Q 1043,0 979,6 915,13 800,13 691,13 624,6 557,0 483,-9 410,-19 282,-19 Z"
           id="EBGaramond-Regular-6e"
           transform="scale(0.015625)" />
        <path
           d="m 1248,-1856 q -544,0 -861,208 -317,208 -317,560 0,166 51,282 52,115 161,198 89,77 239,196 151,118 311,246 l 269,-13 Q 794,-378 672,-557 550,-736 550,-992 q 0,-256 227,-432 228,-176 561,-176 377,0 608,173 160,121 249,317 90,195 90,412 0,141 -100,234 -99,93 -310,151 -211,57 -550,76 -602,45 -836,160 -233,115 -233,359 0,64 35,118 35,54 112,118 147,116 217,170 71,54 106,92 36,39 68,97 L 1011,768 Q 870,717 774,630 678,544 678,474 q 0,-90 96,-157 96,-67 282,-106 186,-38 454,-57 589,-32 877,-192 288,-160 288,-455 0,-249 -125,-489 -124,-240 -329,-438 -205,-199 -458,-317 -253,-119 -515,-119 z m 77,2758 q 243,0 403,246 160,247 160,612 0,186 -87,349 -86,163 -224,262 -137,99 -297,99 -147,0 -279,-106 -131,-105 -211,-272 -80,-166 -80,-364 0,-224 83,-413 84,-189 224,-301 141,-112 308,-112 z m -39,-224 q -262,0 -499,134 -237,135 -387,356 -150,221 -150,483 0,301 156,528 157,227 413,355 256,128 544,128 186,0 323,-48 138,-48 272,-86 154,-45 243,-55 90,-9 186,-9 77,0 192,9 115,10 160,10 83,0 83,-96 0,-57 -64,-121 -32,-32 -51,-32 h -173 q -172,0 -192,-52 -6,-25 -16,-73 -9,-48 -16,-106 -6,-57 -6,-115 0,-326 -141,-602 Q 2022,1011 1792,844 1562,678 1286,678 Z"
           id="EBGaramond-Regular-67"
           transform="scale(0.015625)" />
        <path
           d="M 1363,-96 Q 1011,-96 748,77 486,250 339,566 192,883 192,1299 q 0,371 169,675 170,304 451,490 282,186 615,186 256,0 454,-103 199,-102 311,-285 112,-182 112,-419 0,-198 -192,-198 H 762 q -90,0 -125,-48 -35,-48 -35,-189 0,-307 134,-560 134,-253 358,-404 224,-150 493,-150 192,0 349,74 157,74 278,214 26,32 39,42 13,10 32,10 51,0 51,-64 0,-122 -115,-269 Q 2125,179 1990,89 1856,0 1696,-48 1536,-96 1363,-96 Z M 774,1843 h 583 q 153,0 262,6 109,7 211,26 32,7 42,42 10,35 10,99 0,186 -164,317 -163,131 -387,131 -147,0 -294,-87 -147,-86 -243,-214 -96,-128 -96,-256 0,-64 76,-64 z"
           id="EBGaramond-Regular-65"
           transform="scale(0.015625)" />
      </defs>
      <use
         xlink:href="#EBGaramond-Regular-68"
         id="use308"
         x="0"
         y="0"
         width="100%"
         height="100%" />
      <use
         x="51.499985"
         xlink:href="#EBGaramond-Regular-69"
         id="use310"
         y="0"
         width="100%"
         height="100%" />
      <use
         x="75.999969"
         xlink:href="#EBGaramond-Regular-6e"
         id="use312"
         y="0"
         width="100%"
         height="100%" />
      <use
         x="128.79996"
         xlink:href="#EBGaramond-Regular-67"
         id="use314"
         y="0"
         width="100%"
         height="100%" />
      <use
         x="172.29994"
         xlink:href="#EBGaramond-Regular-65"
         id="use316"
         y="0"
         width="100%"
         height="100%" />
    </g>
    <path
       d="m 287.09812,105.072 h 30"
       style="fill:none;stroke:#859900;stroke-width:2;stroke-dasharray:7.4, 3.2;stroke-dashoffset:0"
       id="path321" />
    <g
       style="fill:#586e75"
       transform="matrix(0.15,0,0,-0.15,329.09812,110.322)"
       id="g355">
      <defs
         id="defs329">
        <path
           d="m 2118,-1824 q -32,0 -80,10 -48,9 -48,48 0,51 48,74 48,22 100,41 96,32 185,74 90,41 90,169 V 83 q 0,109 -10,150 -9,42 -29,42 -12,0 -28,0 -16,0 -29,-13 Q 2266,218 2138,131 2010,45 1843,-22 1677,-90 1504,-90 1171,-90 880,51 589,192 406,467 224,742 224,1139 q 0,455 198,794 199,339 557,528 359,189 826,189 217,0 396,-36 180,-35 295,-70 115,-35 128,-35 70,0 102,44 32,45 64,116 7,6 19,15 13,10 26,10 32,0 67,-19 36,-19 36,-45 0,-64 -39,-266 -38,-201 -38,-476 v -3296 q 0,-128 118,-169 119,-42 215,-74 51,-19 99,-41 48,-23 48,-74 0,-39 -45,-48 -45,-10 -83,-10 -192,0 -298,16 -105,16 -278,16 -109,0 -176,-6 -67,-7 -141,-16 -74,-10 -202,-10 z M 1741,250 q 211,0 403,86 192,86 275,176 0,90 0,269 0,179 0,384 0,205 -3,371 -3,166 -3,224 -7,288 -228,486 -220,199 -540,199 -231,0 -436,-132 -204,-131 -332,-381 -128,-249 -128,-620 0,-320 99,-528 99,-208 252,-323 154,-115 327,-163 173,-48 314,-48 z"
           id="EBGaramond-Regular-71"
           transform="scale(0.015625)" />
        <path
           d="m 2342,-122 q -44,0 -44,52 0,64 16,188 16,125 16,208 0,13 0,22 0,10 0,17 Q 2080,122 1827,16 1574,-90 1274,-90 1069,-90 902,-3 736,83 640,252 544,422 544,672 v 1299 q 0,141 -64,224 -64,83 -211,141 -32,13 -58,32 -25,19 -25,70 0,58 28,77 29,19 68,26 217,13 335,35 119,22 298,67 19,7 29,7 10,0 22,0 71,0 64,-90 -19,-147 -29,-247 -9,-99 -9,-246 V 819 q 0,-153 77,-285 77,-131 201,-214 125,-83 260,-83 166,0 291,19 125,19 246,109 71,51 179,166 109,115 109,314 v 1171 q 0,134 -80,201 -80,68 -183,93 -102,26 -166,26 -57,0 -96,22 -38,23 -38,87 0,57 41,76 42,20 93,20 199,6 330,15 131,10 236,32 106,23 222,55 12,7 31,10 20,3 33,3 83,0 83,-70 0,-7 -4,-23 -3,-16 -9,-35 -6,-19 -16,-109 -10,-89 -20,-185 -9,-96 -9,-148 V 608 q 0,-173 35,-247 36,-73 80,-73 52,0 151,9 99,10 144,10 32,0 64,-13 32,-12 32,-70 0,-51 -26,-67 -25,-16 -64,-23 -249,-32 -429,-96 -179,-64 -320,-121 -19,-7 -58,-23 -38,-16 -70,-16 z"
           id="EBGaramond-Regular-75"
           transform="scale(0.015625)" />
        <path
           d="M 749,-90 Q 634,-90 515,0 397,90 317,218 q -80,128 -80,243 0,205 108,320 109,115 346,211 l 653,269 q 128,51 150,89 23,39 29,167 l 13,409 q 6,167 -93,288 -99,122 -285,122 -96,0 -192,-32 -96,-32 -160,-83 -38,-26 -51,-77 -13,-51 -13,-109 0,-25 3,-57 4,-32 4,-58 0,-32 -80,-87 -80,-54 -180,-96 -99,-41 -163,-41 -32,0 -51,16 -19,16 -19,42 0,102 67,220 67,119 189,221 147,135 320,237 173,102 339,160 167,58 295,58 230,0 380,-164 151,-163 144,-406 L 1958,544 q -6,-134 61,-218 67,-83 170,-83 160,0 237,71 32,32 51,32 32,0 51,-20 19,-19 19,-51 0,-70 -70,-141 -103,-102 -221,-163 -118,-61 -221,-61 -294,0 -467,333 h -19 Q 1338,70 1146,-10 954,-90 749,-90 Z m 301,308 q 128,0 217,41 90,42 160,112 32,32 54,86 23,55 29,177 l 13,313 q 7,71 -6,103 -13,32 -51,32 -13,0 -45,-7 -32,-6 -83,-25 Q 998,928 867,797 736,666 736,557 q 0,-167 99,-253 99,-86 215,-86 z"
           id="EBGaramond-Regular-61"
           transform="scale(0.015625)" />
        <path
           d="m 314,-19 q -64,0 -96,16 -32,16 -32,54 0,51 38,67 38,16 109,36 121,32 182,92 61,61 61,151 v 1376 q 0,173 -51,301 -51,128 -211,160 -26,6 -45,31 -19,26 -19,52 0,64 57,77 167,51 349,150 182,99 285,163 38,26 60,35 23,10 36,10 32,0 32,-45 0,-19 -4,-96 -3,-77 -6,-179 -3,-102 -9,-205 0,-13 12,-13 103,128 227,224 125,96 256,154 132,58 253,58 135,0 221,-58 87,-58 87,-147 0,-64 -36,-141 -35,-77 -93,-135 -57,-57 -121,-57 -38,0 -83,16 -45,16 -96,42 -51,19 -103,38 -51,19 -102,19 -154,0 -298,-109 -144,-108 -144,-428 V 397 q 0,-83 90,-138 90,-54 250,-105 70,-20 108,-39 39,-19 39,-64 0,-70 -128,-70 -192,0 -292,16 Q 998,13 832,13 723,13 656,6 589,0 515,-9 442,-19 314,-19 Z"
           id="EBGaramond-Regular-72"
           transform="scale(0.015625)" />
      </defs>
      <use
         xlink:href="#EBGaramond-Regular-73"
         id="use331"
         x="0"
         y="0"
         width="100%"
         height="100%" />
      <use
         x="32.299988"
         xlink:href="#EBGaramond-Regular-71"
         id="use333"
         y="0"
         width="100%"
         height="100%" />
      <use
         x="84.499985"
         xlink:href="#EBGaramond-Regular-75"
         id="use335"
         y="0"
         width="100%"
         height="100%" />
      <use
         x="137.19998"
         xlink:href="#EBGaramond-Regular-61"
         id="use337"
         y="0"
         width="100%"
         height="100%" />
      <use
         x="177.09998"
         xlink:href="#EBGaramond-Regular-72"
         id="use339"
         y="0"
         width="100%"
         height="100%" />
      <use
         x="210.49997"
         xlink:href="#EBGaramond-Regular-65"
         id="use341"
         y="0"
         width="100%"
         height="100%" />
      <use
         x="249.49995"
         xlink:href="#EBGaramond-Regular-20"
         id="use343"
         y="0"
         width="100%"
         height="100%" />
      <use
         x="269.49994"
         xlink:href="#EBGaramond-Regular-68"
         id="use345"
         y="0"
         width="100%"
         height="100%" />
      <use
         x="320.99994"
         xlink:href="#EBGaramond-Regular-69"
         id="use347"
         y="0"
         width="100%"
         height="100%" />
      <use
         x="345.49991"
         xlink:href="#EBGaramond-Regular-6e"
         id="use349"
         y="0"
         width="100%"
         height="100%" />
      <use
         x="398.2999"
         xlink:href="#EBGaramond-Regular-67"
         id="use351"
         y="0"
         width="100%"
         height="100%" />
      <use
         x="441.7999"
         xlink:href="#EBGaramond-Regular-65"
         id="use353"
         y="0"
         width="100%"
         height="100%" />
    </g>
    <path
       d="m 287.09812,127.497 h 30"
       style="fill:none;stroke:#b58900;stroke-width:2;stroke-dasharray:2, 3.3;stroke-dashoffset:0"
       id="path358" />
    <g
       style="fill:#586e75"
       transform="matrix(0.15,0,0,-0.15,329.09812,132.747)"
       id="g372">
      <defs
         id="defs364">
        <path
           d="m 192,-26 q -38,0 -83,10 -45,10 -45,48 0,51 48,76 48,26 99,39 96,32 195,105 100,74 234,260 l 493,685 q 45,51 41,80 -3,29 -28,67 l -525,800 q -77,128 -138,185 -61,58 -157,84 -51,13 -99,38 -48,26 -48,77 0,51 61,54 61,4 86,4 128,0 176,-7 48,-6 112,-13 64,-6 218,-6 115,0 166,6 52,7 160,7 26,0 87,-4 61,-3 61,-54 0,-38 -36,-58 -35,-19 -80,-31 -44,-13 -89,-36 -45,-22 -45,-73 0,-32 22,-87 23,-54 61,-118 l 295,-442 q 25,-44 57,0 l 327,493 q 25,32 38,70 13,39 13,71 0,77 -83,102 -52,20 -100,45 -48,26 -48,71 0,51 61,54 61,3 87,3 51,0 147,-10 96,-9 173,-9 179,0 249,16 71,16 154,16 38,0 83,-10 45,-9 45,-48 0,-44 -48,-70 -48,-26 -99,-45 -96,-25 -231,-99 -134,-74 -224,-202 l -403,-608 q -6,-12 -10,-35 -3,-22 16,-48 L 2259,416 q 77,-122 147,-180 71,-57 167,-89 51,-13 99,-39 48,-25 48,-76 0,-38 -45,-48 -45,-10 -83,-10 -128,0 -186,7 -57,6 -125,13 -67,6 -227,6 -115,0 -237,-6 -121,-7 -230,-7 -147,0 -147,64 0,58 41,83 42,26 119,45 70,19 124,54 55,36 55,100 0,25 -10,54 -9,29 -28,61 l -378,614 q -19,20 -38,0 L 902,429 q -6,-13 -19,-48 -13,-35 -13,-74 0,-45 22,-87 23,-41 68,-54 51,-19 99,-42 48,-22 48,-73 Q 1107,6 1046,0 986,-6 960,-6 909,-6 803,0 698,6 621,6 442,6 362,-10 282,-26 192,-26 Z"
           id="EBGaramond-Regular-78"
           transform="scale(0.015625)" />
        <path
           d="m 256,-1824 q -32,0 -83,10 -51,9 -51,48 0,51 48,74 48,22 99,41 96,32 185,74 90,41 90,169 v 3245 q 0,51 -29,153 -29,103 -93,199 -64,96 -172,115 -26,6 -39,32 -13,26 -13,51 0,32 13,51 13,20 32,26 243,58 416,125 173,67 327,131 6,0 6,3 0,3 6,3 13,0 26,-19 13,-19 13,-38 0,-58 -16,-183 -16,-124 -16,-201 0,-51 6,-58 64,64 233,163 170,100 388,180 218,80 416,80 333,0 566,-176 234,-176 359,-455 125,-278 125,-579 0,-288 -109,-560 Q 2880,608 2681,390 2483,173 2220,41 1958,-90 1658,-90 q -90,0 -215,29 -125,29 -243,74 -118,45 -182,102 -7,0 -14,-74 -6,-73 -9,-153 -3,-80 -3,-99 v -1197 q 0,-83 67,-131 67,-48 153,-70 87,-23 151,-42 51,-19 99,-41 48,-23 48,-74 0,-39 -51,-48 -51,-10 -89,-10 -186,0 -311,16 -125,16 -291,16 -109,0 -176,-6 -67,-7 -138,-16 -70,-10 -198,-10 z M 1754,109 q 96,0 233,57 138,58 275,186 138,128 231,345 93,218 93,538 0,371 -96,595 -96,224 -237,339 -141,116 -288,154 -147,39 -250,39 -153,0 -317,-64 -163,-64 -275,-144 -112,-80 -112,-125 0,-141 -3,-285 -3,-144 -7,-279 -3,-134 -6,-240 -3,-105 -3,-163 0,-256 118,-474 119,-217 295,-348 176,-131 349,-131 z"
           id="EBGaramond-Regular-70"
           transform="scale(0.015625)" />
      </defs>
      <use
         xlink:href="#EBGaramond-Regular-65"
         id="use366"
         x="0"
         y="0"
         width="100%"
         height="100%" />
      <use
         x="38.999985"
         xlink:href="#EBGaramond-Regular-78"
         id="use368"
         y="0"
         width="100%"
         height="100%" />
      <use
         x="81.999969"
         xlink:href="#EBGaramond-Regular-70"
         id="use370"
         y="0"
         width="100%"
         height="100%" />
    </g>
    <path
       d="m 287.09812,149.847 h 30"
       style="fill:none;stroke:#cb4b16;stroke-width:2;stroke-dasharray:12.8, 3.2, 2, 3.2;stroke-dashoffset:0"
       id="path375" />
    <g
       style="fill:#586e75"
       transform="matrix(0.15,0,0,-0.15,329.09812,155.097)"
       id="g399">
      <defs
         id="defs381">
        <path
           d="M 1210,-90 Q 896,-90 720,102 544,294 544,672 v 1485 q 0,51 -39,73 -38,23 -166,23 h -38 q -32,0 -55,41 -22,42 -22,87 0,13 19,38 19,26 26,32 128,90 233,179 106,90 192,176 87,87 144,157 32,32 54,54 23,23 55,23 32,0 61,-13 29,-13 22,-57 l -32,-288 q -6,-71 32,-97 39,-25 122,-25 h 730 q 25,0 44,-42 20,-41 20,-99 0,-57 -20,-112 -19,-54 -44,-54 h -634 q -160,0 -208,-26 -48,-25 -48,-153 V 813 q 0,-256 109,-404 109,-147 313,-147 186,0 288,29 103,29 186,87 13,12 26,12 25,0 34,-29 10,-28 10,-60 0,-32 -106,-128 Q 1747,77 1577,-6 1408,-90 1210,-90 Z"
           id="EBGaramond-Regular-74"
           transform="scale(0.015625)" />
        <path
           d="M 1363,-96 Q 1043,-96 784,67 525,230 374,515 224,800 224,1152 q 0,416 182,755 183,339 490,541 307,202 678,202 416,0 730,-224 77,-58 77,-122 0,-51 -45,-115 -45,-64 -109,-106 -64,-41 -121,-41 -32,0 -64,22 -32,22 -71,48 -141,109 -314,205 -172,96 -287,96 -314,0 -509,-292 -195,-291 -195,-764 0,-301 131,-544 131,-243 352,-384 221,-141 489,-141 186,0 320,61 135,61 288,214 13,13 32,22 20,10 32,10 71,0 71,-89 0,-39 -23,-87 -22,-48 -73,-112 Q 2182,179 2041,86 1901,-6 1731,-51 1562,-96 1363,-96 Z"
           id="EBGaramond-Regular-63"
           transform="scale(0.015625)" />
      </defs>
      <use
         xlink:href="#EBGaramond-Regular-6c"
         id="use383"
         x="0"
         y="0"
         width="100%"
         height="100%" />
      <use
         x="23.999985"
         xlink:href="#EBGaramond-Regular-6f"
         id="use385"
         y="0"
         width="100%"
         height="100%" />
      <use
         x="73.499969"
         xlink:href="#EBGaramond-Regular-67"
         id="use387"
         y="0"
         width="100%"
         height="100%" />
      <use
         x="116.99995"
         xlink:href="#EBGaramond-Regular-69"
         id="use389"
         y="0"
         width="100%"
         height="100%" />
      <use
         x="141.49994"
         xlink:href="#EBGaramond-Regular-73"
         id="use391"
         y="0"
         width="100%"
         height="100%" />
      <use
         x="173.79993"
         xlink:href="#EBGaramond-Regular-74"
         id="use393"
         y="0"
         width="100%"
         height="100%" />
      <use
         x="205.19992"
         xlink:href="#EBGaramond-Regular-69"
         id="use395"
         y="0"
         width="100%"
         height="100%" />
      <use
         x="229.69991"
         xlink:href="#EBGaramond-Regular-63"
         id="use397"
         y="0"
         width="100%"
         height="100%" />
    </g>
  </g>
  <defs
     id="defs408">
    <clipPath
       id="pb9cd4d6276">
      <rect
         height="266.112"
         width="357.12"
         x="57.599998"
         y="41.472"
         id="rect405" />
    </clipPath>
  </defs>
</svg>
