<?xml version="1.0" encoding="utf-8" standalone="no"?>
<!DOCTYPE svg PUBLIC "-//W3C//DTD SVG 1.1//EN"
  "http://www.w3.org/Graphics/SVG/1.1/DTD/svg11.dtd">
<svg height="345.6pt" version="1.1" viewBox="0 0 460.8 345.6" width="460.8pt" xmlns="http://www.w3.org/2000/svg" xmlns:xlink="http://www.w3.org/1999/xlink">
 <metadata>
  <rdf:RDF xmlns:cc="http://creativecommons.org/ns#" xmlns:dc="http://purl.org/dc/elements/1.1/" xmlns:rdf="http://www.w3.org/1999/02/22-rdf-syntax-ns#">
   <cc:Work>
    <dc:type rdf:resource="http://purl.org/dc/dcmitype/StillImage"/>
    <dc:date>2021-10-21T10:49:55.387335</dc:date>
    <dc:format>image/svg+xml</dc:format>
    <dc:creator>
     <cc:Agent>
      <dc:title>Matplotlib v3.4.3, https://matplotlib.org/</dc:title>
     </cc:Agent>
    </dc:creator>
   </cc:Work>
  </rdf:RDF>
 </metadata>
 <defs>
  <style type="text/css">*{stroke-linecap:butt;stroke-linejoin:round;}</style>
 </defs>
 <g id="figure_1">
  <g id="patch_1">
   <path d="M 0 345.6 
L 460.8 345.6 
L 460.8 0 
L 0 0 
z
" style="fill:none;"/>
  </g>
  <g id="axes_1">
   <g id="patch_2">
    <path d="M 57.6 307.584 
L 414.72 307.584 
L 414.72 41.472 
L 57.6 41.472 
z
" style="fill:none;"/>
   </g>
   <g id="matplotlib.axis_1">
    <g id="xtick_1">
     <g id="line2d_1">
      <defs>
       <path d="M 0 0 
L 0 -3.5 
" id="maa5fd054d0" style="stroke:#586e75;stroke-width:0.8;"/>
      </defs>
      <g>
       <use style="fill:#586e75;stroke:#586e75;stroke-width:0.8;" x="106.363243" xlink:href="#maa5fd054d0" y="252.470681"/>
      </g>
     </g>
     <g id="text_1">
      <!-- −4 -->
      <g style="fill:#586e75;" transform="translate(98.992149 243.390993)scale(0.1 -0.1)">
       <defs>
        <path d="M 678 2272 
L 4684 2272 
L 4684 1741 
L 678 1741 
L 678 2272 
z
" id="DejaVuSans-2212" transform="scale(0.015625)"/>
        <path d="M 2419 4116 
L 825 1625 
L 2419 1625 
L 2419 4116 
z
M 2253 4666 
L 3047 4666 
L 3047 1625 
L 3713 1625 
L 3713 1100 
L 3047 1100 
L 3047 0 
L 2419 0 
L 2419 1100 
L 313 1100 
L 313 1709 
L 2253 4666 
z
" id="DejaVuSans-34" transform="scale(0.015625)"/>
       </defs>
       <use xlink:href="#DejaVuSans-2212"/>
       <use x="83.789062" xlink:href="#DejaVuSans-34"/>
      </g>
     </g>
    </g>
    <g id="xtick_2">
     <g id="line2d_2">
      <g>
       <use style="fill:#586e75;stroke:#586e75;stroke-width:0.8;" x="171.424274" xlink:href="#maa5fd054d0" y="252.470681"/>
      </g>
     </g>
     <g id="text_2">
      <!-- −2 -->
      <g style="fill:#586e75;" transform="translate(164.05318 243.390993)scale(0.1 -0.1)">
       <defs>
        <path d="M 1228 531 
L 3431 531 
L 3431 0 
L 469 0 
L 469 531 
Q 828 903 1448 1529 
Q 2069 2156 2228 2338 
Q 2531 2678 2651 2914 
Q 2772 3150 2772 3378 
Q 2772 3750 2511 3984 
Q 2250 4219 1831 4219 
Q 1534 4219 1204 4116 
Q 875 4013 500 3803 
L 500 4441 
Q 881 4594 1212 4672 
Q 1544 4750 1819 4750 
Q 2544 4750 2975 4387 
Q 3406 4025 3406 3419 
Q 3406 3131 3298 2873 
Q 3191 2616 2906 2266 
Q 2828 2175 2409 1742 
Q 1991 1309 1228 531 
z
" id="DejaVuSans-32" transform="scale(0.015625)"/>
       </defs>
       <use xlink:href="#DejaVuSans-2212"/>
       <use x="83.789062" xlink:href="#DejaVuSans-32"/>
      </g>
     </g>
    </g>
    <g id="xtick_3">
     <g id="line2d_3">
      <g>
       <use style="fill:#586e75;stroke:#586e75;stroke-width:0.8;" x="236.485305" xlink:href="#maa5fd054d0" y="252.470681"/>
      </g>
     </g>
     <g id="text_3">
      <!-- 0 -->
      <g style="fill:#586e75;" transform="translate(233.304055 243.390993)scale(0.1 -0.1)">
       <defs>
        <path d="M 2034 4250 
Q 1547 4250 1301 3770 
Q 1056 3291 1056 2328 
Q 1056 1369 1301 889 
Q 1547 409 2034 409 
Q 2525 409 2770 889 
Q 3016 1369 3016 2328 
Q 3016 3291 2770 3770 
Q 2525 4250 2034 4250 
z
M 2034 4750 
Q 2819 4750 3233 4129 
Q 3647 3509 3647 2328 
Q 3647 1150 3233 529 
Q 2819 -91 2034 -91 
Q 1250 -91 836 529 
Q 422 1150 422 2328 
Q 422 3509 836 4129 
Q 1250 4750 2034 4750 
z
" id="DejaVuSans-30" transform="scale(0.015625)"/>
       </defs>
       <use xlink:href="#DejaVuSans-30"/>
      </g>
     </g>
    </g>
    <g id="xtick_4">
     <g id="line2d_4">
      <g>
       <use style="fill:#586e75;stroke:#586e75;stroke-width:0.8;" x="301.546336" xlink:href="#maa5fd054d0" y="252.470681"/>
      </g>
     </g>
     <g id="text_4">
      <!-- 2 -->
      <g style="fill:#586e75;" transform="translate(298.365086 243.390993)scale(0.1 -0.1)">
       <use xlink:href="#DejaVuSans-32"/>
      </g>
     </g>
    </g>
    <g id="xtick_5">
     <g id="line2d_5">
      <g>
       <use style="fill:#586e75;stroke:#586e75;stroke-width:0.8;" x="366.607367" xlink:href="#maa5fd054d0" y="252.470681"/>
      </g>
     </g>
     <g id="text_5">
      <!-- 4 -->
      <g style="fill:#586e75;" transform="translate(363.426117 243.390993)scale(0.1 -0.1)">
       <use xlink:href="#DejaVuSans-34"/>
      </g>
     </g>
    </g>
   </g>
   <g id="matplotlib.axis_2">
    <g id="ytick_1">
     <g id="line2d_6">
      <defs>
       <path d="M 0 0 
L 3.5 0 
" id="m621049457e" style="stroke:#586e75;stroke-width:0.8;"/>
      </defs>
      <g>
       <use style="fill:#586e75;stroke:#586e75;stroke-width:0.8;" x="236.485305" xlink:href="#m621049457e" y="292.251217"/>
      </g>
     </g>
     <g id="text_6">
      <!-- −2 -->
      <g style="fill:#586e75;" transform="translate(243.485305 296.050436)scale(0.1 -0.1)">
       <use xlink:href="#DejaVuSans-2212"/>
       <use x="83.789062" xlink:href="#DejaVuSans-32"/>
      </g>
     </g>
    </g>
    <g id="ytick_2">
     <g id="line2d_7">
      <g>
       <use style="fill:#586e75;stroke:#586e75;stroke-width:0.8;" x="236.485305" xlink:href="#m621049457e" y="252.470681"/>
      </g>
     </g>
     <g id="text_7">
      <!-- 0 -->
      <g style="fill:#586e75;" transform="translate(243.485305 256.2699)scale(0.1 -0.1)">
       <use xlink:href="#DejaVuSans-30"/>
      </g>
     </g>
    </g>
    <g id="ytick_3">
     <g id="line2d_8">
      <g>
       <use style="fill:#586e75;stroke:#586e75;stroke-width:0.8;" x="236.485305" xlink:href="#m621049457e" y="212.690145"/>
      </g>
     </g>
     <g id="text_8">
      <!-- 2 -->
      <g style="fill:#586e75;" transform="translate(243.485305 216.489364)scale(0.1 -0.1)">
       <use xlink:href="#DejaVuSans-32"/>
      </g>
     </g>
    </g>
    <g id="ytick_4">
     <g id="line2d_9">
      <g>
       <use style="fill:#586e75;stroke:#586e75;stroke-width:0.8;" x="236.485305" xlink:href="#m621049457e" y="172.909609"/>
      </g>
     </g>
     <g id="text_9">
      <!-- 4 -->
      <g style="fill:#586e75;" transform="translate(243.485305 176.708827)scale(0.1 -0.1)">
       <use xlink:href="#DejaVuSans-34"/>
      </g>
     </g>
    </g>
    <g id="ytick_5">
     <g id="line2d_10">
      <g>
       <use style="fill:#586e75;stroke:#586e75;stroke-width:0.8;" x="236.485305" xlink:href="#m621049457e" y="133.129072"/>
      </g>
     </g>
     <g id="text_10">
      <!-- 6 -->
      <g style="fill:#586e75;" transform="translate(243.485305 136.928291)scale(0.1 -0.1)">
       <defs>
        <path d="M 2113 2584 
Q 1688 2584 1439 2293 
Q 1191 2003 1191 1497 
Q 1191 994 1439 701 
Q 1688 409 2113 409 
Q 2538 409 2786 701 
Q 3034 994 3034 1497 
Q 3034 2003 2786 2293 
Q 2538 2584 2113 2584 
z
M 3366 4563 
L 3366 3988 
Q 3128 4100 2886 4159 
Q 2644 4219 2406 4219 
Q 1781 4219 1451 3797 
Q 1122 3375 1075 2522 
Q 1259 2794 1537 2939 
Q 1816 3084 2150 3084 
Q 2853 3084 3261 2657 
Q 3669 2231 3669 1497 
Q 3669 778 3244 343 
Q 2819 -91 2113 -91 
Q 1303 -91 875 529 
Q 447 1150 447 2328 
Q 447 3434 972 4092 
Q 1497 4750 2381 4750 
Q 2619 4750 2861 4703 
Q 3103 4656 3366 4563 
z
" id="DejaVuSans-36" transform="scale(0.015625)"/>
       </defs>
       <use xlink:href="#DejaVuSans-36"/>
      </g>
     </g>
    </g>
    <g id="ytick_6">
     <g id="line2d_11">
      <g>
       <use style="fill:#586e75;stroke:#586e75;stroke-width:0.8;" x="236.485305" xlink:href="#m621049457e" y="93.348536"/>
      </g>
     </g>
     <g id="text_11">
      <!-- 8 -->
      <g style="fill:#586e75;" transform="translate(243.485305 97.147755)scale(0.1 -0.1)">
       <defs>
        <path d="M 2034 2216 
Q 1584 2216 1326 1975 
Q 1069 1734 1069 1313 
Q 1069 891 1326 650 
Q 1584 409 2034 409 
Q 2484 409 2743 651 
Q 3003 894 3003 1313 
Q 3003 1734 2745 1975 
Q 2488 2216 2034 2216 
z
M 1403 2484 
Q 997 2584 770 2862 
Q 544 3141 544 3541 
Q 544 4100 942 4425 
Q 1341 4750 2034 4750 
Q 2731 4750 3128 4425 
Q 3525 4100 3525 3541 
Q 3525 3141 3298 2862 
Q 3072 2584 2669 2484 
Q 3125 2378 3379 2068 
Q 3634 1759 3634 1313 
Q 3634 634 3220 271 
Q 2806 -91 2034 -91 
Q 1263 -91 848 271 
Q 434 634 434 1313 
Q 434 1759 690 2068 
Q 947 2378 1403 2484 
z
M 1172 3481 
Q 1172 3119 1398 2916 
Q 1625 2713 2034 2713 
Q 2441 2713 2670 2916 
Q 2900 3119 2900 3481 
Q 2900 3844 2670 4047 
Q 2441 4250 2034 4250 
Q 1625 4250 1398 4047 
Q 1172 3844 1172 3481 
z
" id="DejaVuSans-38" transform="scale(0.015625)"/>
       </defs>
       <use xlink:href="#DejaVuSans-38"/>
      </g>
     </g>
    </g>
    <g id="ytick_7">
     <g id="line2d_12">
      <g>
       <use style="fill:#586e75;stroke:#586e75;stroke-width:0.8;" x="236.485305" xlink:href="#m621049457e" y="53.568"/>
      </g>
     </g>
     <g id="text_12">
      <!-- 10 -->
      <g style="fill:#586e75;" transform="translate(243.485305 57.367219)scale(0.1 -0.1)">
       <defs>
        <path d="M 794 531 
L 1825 531 
L 1825 4091 
L 703 3866 
L 703 4441 
L 1819 4666 
L 2450 4666 
L 2450 531 
L 3481 531 
L 3481 0 
L 794 0 
L 794 531 
z
" id="DejaVuSans-31" transform="scale(0.015625)"/>
       </defs>
       <use xlink:href="#DejaVuSans-31"/>
       <use x="63.623047" xlink:href="#DejaVuSans-30"/>
      </g>
     </g>
    </g>
   </g>
   <g id="line2d_13">
    <path clip-path="url(#pda46004635)" d="M 73.832727 256.285333 
L 82.290661 256.665341 
L 90.097985 256.791422 
L 97.254698 256.69024 
L 104.411412 256.363666 
L 111.568125 255.801258 
L 118.724839 255.000184 
L 125.881552 253.965617 
L 133.038266 252.710852 
L 140.845589 251.116046 
L 149.303523 249.165225 
L 160.363899 246.363648 
L 190.291973 238.622407 
L 198.749907 236.750457 
L 205.906621 235.382865 
L 212.412724 234.346671 
L 218.918827 233.533083 
L 225.42493 232.961423 
L 231.280423 232.665169 
L 237.135915 232.581739 
L 242.991408 232.71275 
L 248.846901 233.055661 
L 254.702394 233.603831 
L 261.208497 234.440639 
L 267.7146 235.497827 
L 274.871314 236.885375 
L 282.678637 238.622407 
L 292.437792 241.035052 
L 309.35366 245.506282 
L 322.365866 248.848071 
L 331.474411 250.973573 
L 339.281734 252.586537 
L 347.089058 253.965617 
L 354.245772 255.000184 
L 361.402485 255.801258 
L 368.559198 256.363666 
L 375.715912 256.69024 
L 382.872625 256.791422 
L 390.679949 256.665341 
L 398.487273 256.322545 
L 398.487273 256.322545 
" style="fill:none;stroke:#b58900;stroke-linecap:square;stroke-width:2;"/>
   </g>
   <g id="line2d_14">
    <path clip-path="url(#pda46004635)" d="M 73.832727 252.997183 
L 77.085779 254.871142 
L 79.03761 255.771708 
L 80.989441 256.39631 
L 82.290661 256.627015 
L 83.591882 256.694536 
L 84.893103 256.593379 
L 86.194323 256.324689 
L 88.146154 255.626493 
L 90.097985 254.624021 
L 92.700426 252.959552 
L 97.905309 249.494506 
L 99.85714 248.508466 
L 101.15836 248.029819 
L 102.459581 247.72064 
L 103.760802 247.596625 
L 105.062022 247.666391 
L 106.363243 247.931 
L 107.664463 248.383765 
L 109.616294 249.382386 
L 111.568125 250.692393 
L 114.821177 253.263096 
L 118.074228 255.775705 
L 120.026059 256.988534 
L 121.32728 257.598226 
L 122.628501 258.015099 
L 123.929721 258.218017 
L 125.230942 258.193873 
L 126.532163 257.938292 
L 127.833383 257.456003 
L 129.134604 256.760863 
L 131.086435 255.370866 
L 133.038266 253.664463 
L 139.544369 247.645747 
L 140.845589 246.748868 
L 142.14681 246.058504 
L 143.448031 245.608038 
L 144.749251 245.422265 
L 146.050472 245.516188 
L 147.351692 245.894154 
L 148.652913 246.549389 
L 149.954134 247.463943 
L 151.255354 248.609073 
L 153.207185 250.671934 
L 156.460237 254.599035 
L 159.062678 257.636611 
L 161.014509 259.525113 
L 162.31573 260.490721 
L 163.61695 261.165372 
L 164.918171 261.511623 
L 166.219392 261.503591 
L 167.520612 261.128346 
L 168.821833 260.386878 
L 170.123053 259.294551 
L 171.424274 257.881044 
L 172.725495 256.189746 
L 174.677326 253.257405 
L 180.532818 243.978033 
L 181.834039 242.352704 
L 183.13526 241.061301 
L 184.43648 240.171555 
L 185.737701 239.739082 
L 186.388311 239.707739 
L 187.038921 239.804772 
L 187.689532 240.032634 
L 188.340142 240.39261 
L 189.641363 241.507996 
L 190.942583 243.136653 
L 192.243804 245.244176 
L 193.545025 247.776256 
L 195.496856 252.205258 
L 202.002959 268.087683 
L 203.304179 270.524311 
L 204.6054 272.410728 
L 205.25601 273.110245 
L 205.906621 273.628917 
L 206.557231 273.954138 
L 207.207841 274.074388 
L 207.858451 273.97934 
L 208.509062 273.659967 
L 209.159672 273.108628 
L 209.810282 272.319158 
L 210.460893 271.286937 
L 211.111503 270.008954 
L 212.412724 266.712009 
L 213.713944 262.43807 
L 215.015165 257.224627 
L 216.316385 251.136729 
L 218.268216 240.572459 
L 220.220047 228.663138 
L 224.77432 198.664874 
L 227.376761 182.467612 
L 229.328592 171.896348 
L 230.629812 165.911891 
L 231.931033 160.94452 
L 233.232254 157.111656 
L 233.882864 155.650241 
L 234.533474 154.504412 
L 235.184085 153.681025 
L 235.834695 153.18501 
L 236.485305 153.01934 
L 237.135915 153.18501 
L 237.786526 153.681025 
L 238.437136 154.504412 
L 239.087746 155.650241 
L 239.738357 157.111656 
L 241.039577 160.94452 
L 242.340798 165.911891 
L 243.642019 171.896348 
L 244.943239 178.757486 
L 246.89507 190.340097 
L 250.148122 211.591001 
L 253.401173 232.752488 
L 255.353004 244.265968 
L 257.304835 254.284864 
L 258.606056 259.945359 
L 259.907276 264.695473 
L 261.208497 268.483862 
L 262.509718 271.286937 
L 263.160328 272.319158 
L 263.810938 273.108628 
L 264.461549 273.659967 
L 265.112159 273.97934 
L 265.762769 274.074388 
L 266.413379 273.954138 
L 267.06399 273.628917 
L 267.7146 273.110245 
L 268.36521 272.410728 
L 269.666431 270.524311 
L 270.967652 268.087683 
L 272.919483 263.681451 
L 279.425586 247.776256 
L 280.726806 245.244176 
L 282.028027 243.136653 
L 283.329248 241.507996 
L 284.630468 240.39261 
L 285.281079 240.032634 
L 285.931689 239.804772 
L 286.582299 239.707739 
L 287.232909 239.739082 
L 287.88352 239.895231 
L 289.18474 240.562429 
L 290.485961 241.660778 
L 291.787182 243.128256 
L 293.088402 244.892155 
L 295.040233 247.91671 
L 299.594505 255.256965 
L 301.546336 257.881044 
L 302.847557 259.294551 
L 304.148778 260.386878 
L 305.449998 261.128346 
L 306.751219 261.503591 
L 308.052439 261.511623 
L 309.35366 261.165372 
L 310.654881 260.490721 
L 311.956101 259.525113 
L 313.257322 258.315766 
L 315.209153 256.166387 
L 321.064646 249.25636 
L 323.016477 247.463943 
L 324.317697 246.549389 
L 325.618918 245.894154 
L 326.920138 245.516188 
L 328.221359 245.422265 
L 329.52258 245.608038 
L 330.8238 246.058504 
L 332.125021 246.748868 
L 333.426242 247.645747 
L 335.378073 249.288247 
L 342.534786 255.87553 
L 344.486617 257.133823 
L 345.787837 257.724832 
L 347.089058 258.094932 
L 348.390279 258.234812 
L 349.691499 258.144319 
L 350.99272 257.832264 
L 352.293941 257.315873 
L 354.245772 256.214193 
L 356.197602 254.819493 
L 362.703706 249.789259 
L 364.655537 248.676519 
L 365.956757 248.134582 
L 367.257978 247.774576 
L 368.559198 247.607038 
L 369.860419 247.634776 
L 371.16164 247.852907 
L 372.46286 248.249197 
L 374.414691 249.134552 
L 376.366522 250.289047 
L 384.173846 255.322623 
L 386.125677 256.129714 
L 387.426897 256.479641 
L 388.728118 256.665129 
L 390.029339 256.68167 
L 391.330559 256.531465 
L 393.28239 256.014231 
L 395.234221 255.197074 
L 397.836662 253.780532 
L 398.487273 253.391887 
L 398.487273 253.391887 
" style="fill:none;stroke:#268bd2;stroke-linecap:square;stroke-width:2;"/>
   </g>
   <g id="line2d_15">
    <path clip-path="url(#pda46004635)" d="M 73.832727 253.514422 
L 75.133948 254.946693 
L 76.435169 256.008167 
L 77.085779 256.34219 
L 77.736389 256.523974 
L 78.386999 256.544996 
L 79.03761 256.403091 
L 79.68822 256.102585 
L 80.989441 255.074574 
L 82.290661 253.614645 
L 85.543713 249.631585 
L 86.844934 248.571374 
L 87.495544 248.259533 
L 88.146154 248.113578 
L 88.796764 248.140806 
L 89.447375 248.341657 
L 90.097985 248.709637 
L 91.399206 249.887782 
L 92.700426 251.498725 
L 95.302868 254.99108 
L 96.604088 256.318175 
L 97.254698 256.77162 
L 97.905309 257.057053 
L 98.555919 257.161472 
L 99.206529 257.078987 
L 99.85714 256.811124 
L 100.50775 256.366829 
L 101.808971 255.01985 
L 103.110191 253.240205 
L 105.712633 249.513066 
L 107.013853 248.158987 
L 107.664463 247.719054 
L 108.315074 247.465048 
L 108.965684 247.409027 
L 109.616294 247.555258 
L 110.266905 247.89997 
L 110.917515 248.431417 
L 112.218736 249.970314 
L 114.170567 252.994121 
L 116.122398 255.93018 
L 117.423618 257.311756 
L 118.074228 257.734609 
L 118.724839 257.951119 
L 119.375449 257.950333 
L 120.026059 257.729861 
L 120.67667 257.296068 
L 121.32728 256.663913 
L 122.628501 254.904015 
L 124.580332 251.563658 
L 125.881552 249.375506 
L 127.182773 247.629732 
L 127.833383 247.016879 
L 128.483993 246.615378 
L 129.134604 246.443858 
L 129.785214 246.511982 
L 130.435824 246.819953 
L 131.086435 247.358394 
L 131.737045 248.1086 
L 133.038266 250.127005 
L 136.941927 257.20509 
L 137.592538 258.031902 
L 138.243148 258.646489 
L 138.893758 259.021419 
L 139.544369 259.138472 
L 140.194979 258.989486 
L 140.845589 258.576821 
L 141.4962 257.913404 
L 142.14681 257.022355 
L 143.448031 254.695748 
L 146.701082 247.971033 
L 148.002303 246.04091 
L 148.652913 245.425283 
L 149.303523 245.083442 
L 149.954134 245.033181 
L 150.604744 245.280913 
L 151.255354 245.82125 
L 151.905965 246.63703 
L 153.207185 248.970922 
L 155.159016 253.523686 
L 156.460237 256.577266 
L 157.761457 259.072735 
L 158.412068 259.975763 
L 159.062678 260.592249 
L 159.713288 260.892659 
L 160.363899 260.859576 
L 161.014509 260.488602 
L 161.665119 259.788746 
L 162.31573 258.782306 
L 163.61695 256.00081 
L 165.568781 250.737247 
L 166.870002 247.290706 
L 168.171222 244.54625 
L 168.821833 243.588957 
L 169.472443 242.970599 
L 170.123053 242.722569 
L 170.773664 242.862101 
L 171.424274 243.391318 
L 172.074884 244.296848 
L 172.725495 245.550049 
L 174.026715 248.914105 
L 177.930377 260.769202 
L 178.580987 262.161065 
L 179.231598 263.193847 
L 179.882208 263.817958 
L 180.532818 263.998942 
L 181.183429 263.719183 
L 181.834039 262.978982 
L 182.484649 261.796965 
L 183.13526 260.209774 
L 184.43648 256.049727 
L 188.340142 241.87707 
L 188.990752 240.280519 
L 189.641363 239.132353 
L 190.291973 238.491091 
L 190.942583 238.396791 
L 191.593194 238.868971 
L 192.243804 239.90527 
L 192.894414 241.480924 
L 193.545025 243.549089 
L 194.846245 248.873187 
L 198.099297 264.16085 
L 198.749907 266.579544 
L 199.400517 268.510761 
L 200.051128 269.860063 
L 200.701738 270.552566 
L 201.352348 270.5365 
L 202.002959 269.786012 
L 202.653569 268.303076 
L 203.304179 266.118421 
L 203.95479 263.291407 
L 205.25601 256.082563 
L 208.509062 235.485384 
L 209.159672 232.234727 
L 209.810282 229.651921 
L 210.460893 227.87243 
L 211.111503 227.007482 
L 211.762113 227.138863 
L 212.412724 228.314539 
L 213.063334 230.545311 
L 213.713944 233.802624 
L 214.364555 238.017671 
L 215.665775 248.848501 
L 219.569437 286.263277 
L 220.220047 290.617203 
L 220.870658 293.749808 
L 221.521268 295.437595 
L 222.171878 295.488 
L 222.822489 293.746576 
L 223.473099 290.103192 
L 224.123709 284.497043 
L 224.77432 276.920265 
L 225.42493 267.420037 
L 226.72615 243.114298 
L 228.027371 213.034294 
L 232.581643 97.98312 
L 233.882864 74.115619 
L 234.533474 65.289178 
L 235.184085 58.8298 
L 235.834695 54.891368 
L 236.485305 53.568 
L 237.135915 54.891368 
L 237.786526 58.8298 
L 238.437136 65.289178 
L 239.087746 74.115619 
L 239.738357 85.099846 
L 241.039577 112.464543 
L 242.991408 162.039833 
L 245.59385 228.674238 
L 246.89507 256.099048 
L 248.196291 276.920265 
L 248.846901 284.497043 
L 249.497511 290.103192 
L 250.148122 293.746576 
L 250.798732 295.488 
L 251.449342 295.437595 
L 252.099953 293.749808 
L 252.750563 290.617203 
L 253.401173 286.263277 
L 254.702394 274.892221 
L 257.955445 243.081831 
L 259.256666 233.802624 
L 259.907276 230.545311 
L 260.557887 228.314539 
L 261.208497 227.138863 
L 261.859107 227.007482 
L 262.509718 227.87243 
L 263.160328 229.651921 
L 263.810938 232.234727 
L 265.112159 239.250045 
L 269.015821 263.291407 
L 269.666431 266.118421 
L 270.317041 268.303076 
L 270.967652 269.786012 
L 271.618262 270.5365 
L 272.268872 270.552566 
L 272.919483 269.860063 
L 273.570093 268.510761 
L 274.220703 266.579544 
L 275.521924 261.364497 
L 279.425586 243.549089 
L 280.076196 241.480924 
L 280.726806 239.90527 
L 281.377417 238.868971 
L 282.028027 238.396791 
L 282.678637 238.491091 
L 283.329248 239.132353 
L 283.979858 240.280519 
L 284.630468 241.87707 
L 285.931689 246.105812 
L 289.18474 258.271051 
L 289.835351 260.209774 
L 290.485961 261.796965 
L 291.136571 262.978982 
L 291.787182 263.719183 
L 292.437792 263.998942 
L 293.088402 263.817958 
L 293.739013 263.193847 
L 294.389623 262.161065 
L 295.040233 260.769202 
L 296.341454 257.168304 
L 299.594505 247.107836 
L 300.245116 245.550049 
L 300.895726 244.296848 
L 301.546336 243.391318 
L 302.196947 242.862101 
L 302.847557 242.722569 
L 303.498167 242.970599 
L 304.148778 243.588957 
L 304.799388 244.54625 
L 306.100608 247.290706 
L 308.052439 252.550706 
L 309.35366 256.00081 
L 310.654881 258.782306 
L 311.305491 259.788746 
L 311.956101 260.488602 
L 312.606712 260.859576 
L 313.257322 260.892659 
L 313.907932 260.592249 
L 314.558543 259.975763 
L 315.209153 259.072735 
L 316.510373 256.577266 
L 320.414035 247.69983 
L 321.064646 246.63703 
L 321.715256 245.82125 
L 322.365866 245.280913 
L 323.016477 245.033181 
L 323.667087 245.083442 
L 324.317697 245.425283 
L 324.968308 246.04091 
L 325.618918 246.902013 
L 326.920138 249.202767 
L 330.8238 257.022355 
L 331.474411 257.913404 
L 332.125021 258.576821 
L 332.775631 258.989486 
L 333.426242 259.138472 
L 334.076852 259.021419 
L 334.727462 258.646489 
L 335.378073 258.031902 
L 336.679293 256.201495 
L 338.631124 252.571563 
L 340.582955 249.043173 
L 341.884176 247.358394 
L 342.534786 246.819953 
L 343.185396 246.511982 
L 343.836007 246.443858 
L 344.486617 246.615378 
L 345.137227 247.016879 
L 345.787837 247.629732 
L 347.089058 249.375506 
L 349.040889 252.714814 
L 350.34211 254.904015 
L 351.64333 256.663913 
L 352.293941 257.296068 
L 352.944551 257.729861 
L 353.595161 257.950333 
L 354.245772 257.951119 
L 354.896382 257.734609 
L 355.546992 257.311756 
L 356.197602 256.701549 
L 357.498823 255.029927 
L 361.402485 249.130272 
L 362.053095 248.431417 
L 362.703706 247.89997 
L 363.354316 247.555258 
L 364.004926 247.409027 
L 364.655537 247.465048 
L 365.306147 247.719054 
L 365.956757 248.158987 
L 367.257978 249.513066 
L 368.559198 251.302804 
L 371.16164 255.01985 
L 372.46286 256.366829 
L 373.113471 256.811124 
L 373.764081 257.078987 
L 374.414691 257.161472 
L 375.065302 257.057053 
L 375.715912 256.77162 
L 376.366522 256.318175 
L 377.667743 254.99108 
L 379.619574 252.390659 
L 381.571405 249.887782 
L 382.872625 248.709637 
L 383.523236 248.341657 
L 384.173846 248.140806 
L 384.824456 248.113578 
L 385.475066 248.259533 
L 386.125677 248.571374 
L 387.426897 249.631585 
L 388.728118 251.118073 
L 391.330559 254.385852 
L 392.63178 255.654179 
L 393.28239 256.102585 
L 393.933001 256.403091 
L 394.583611 256.544996 
L 395.234221 256.523974 
L 395.884831 256.34219 
L 396.535442 256.008167 
L 397.836662 254.946693 
L 398.487273 254.263417 
L 398.487273 254.263417 
" style="fill:none;stroke:#dc322f;stroke-linecap:square;stroke-width:2;"/>
   </g>
   <g id="patch_3">
    <path d="M 236.485305 307.584 
L 236.485305 41.472 
" style="fill:none;stroke:#586e75;stroke-linecap:square;stroke-linejoin:miter;stroke-width:0.8;"/>
   </g>
   <g id="patch_4">
    <path d="M 236.485305 307.584 
L 236.485305 41.472 
" style="fill:none;stroke:#586e75;stroke-linecap:square;stroke-linejoin:miter;stroke-width:0.8;"/>
   </g>
   <g id="patch_5">
    <path d="M 57.6 252.470681 
L 414.72 252.470681 
" style="fill:none;stroke:#586e75;stroke-linecap:square;stroke-linejoin:miter;stroke-width:0.8;"/>
   </g>
   <g id="patch_6">
    <path d="M 57.6 252.470681 
L 414.72 252.470681 
" style="fill:none;stroke:#586e75;stroke-linecap:square;stroke-linejoin:miter;stroke-width:0.8;"/>
   </g>
   <g id="legend_1">
    <g id="patch_7">
     <path d="M 68.1 120.522 
L 191.25 120.522 
Q 194.25 120.522 194.25 117.522 
L 194.25 51.972 
Q 194.25 48.972 191.25 48.972 
L 68.1 48.972 
Q 65.1 48.972 65.1 51.972 
L 65.1 117.522 
Q 65.1 120.522 68.1 120.522 
z
" style="fill:#ffffff;opacity:0.8;stroke:#cccccc;stroke-linejoin:miter;"/>
    </g>
    <g id="line2d_16">
     <path d="M 71.1 60.297 
L 101.1 60.297 
" style="fill:none;stroke:#b58900;stroke-linecap:square;stroke-width:2;"/>
    </g>
    <g id="line2d_17"/>
    <g id="text_13">
     <!-- $\sin(x) / x$ -->
     <g style="fill:#586e75;" transform="translate(113.1 65.547)scale(0.15 -0.15)">
      <defs>
       <path d="M 2834 3397 
L 2834 2853 
Q 2591 2978 2328 3040 
Q 2066 3103 1784 3103 
Q 1356 3103 1142 2972 
Q 928 2841 928 2578 
Q 928 2378 1081 2264 
Q 1234 2150 1697 2047 
L 1894 2003 
Q 2506 1872 2764 1633 
Q 3022 1394 3022 966 
Q 3022 478 2636 193 
Q 2250 -91 1575 -91 
Q 1294 -91 989 -36 
Q 684 19 347 128 
L 347 722 
Q 666 556 975 473 
Q 1284 391 1588 391 
Q 1994 391 2212 530 
Q 2431 669 2431 922 
Q 2431 1156 2273 1281 
Q 2116 1406 1581 1522 
L 1381 1569 
Q 847 1681 609 1914 
Q 372 2147 372 2553 
Q 372 3047 722 3315 
Q 1072 3584 1716 3584 
Q 2034 3584 2315 3537 
Q 2597 3491 2834 3397 
z
" id="DejaVuSans-73" transform="scale(0.015625)"/>
       <path d="M 603 3500 
L 1178 3500 
L 1178 0 
L 603 0 
L 603 3500 
z
M 603 4863 
L 1178 4863 
L 1178 4134 
L 603 4134 
L 603 4863 
z
" id="DejaVuSans-69" transform="scale(0.015625)"/>
       <path d="M 3513 2113 
L 3513 0 
L 2938 0 
L 2938 2094 
Q 2938 2591 2744 2837 
Q 2550 3084 2163 3084 
Q 1697 3084 1428 2787 
Q 1159 2491 1159 1978 
L 1159 0 
L 581 0 
L 581 3500 
L 1159 3500 
L 1159 2956 
Q 1366 3272 1645 3428 
Q 1925 3584 2291 3584 
Q 2894 3584 3203 3211 
Q 3513 2838 3513 2113 
z
" id="DejaVuSans-6e" transform="scale(0.015625)"/>
       <path d="M 1984 4856 
Q 1566 4138 1362 3434 
Q 1159 2731 1159 2009 
Q 1159 1288 1364 580 
Q 1569 -128 1984 -844 
L 1484 -844 
Q 1016 -109 783 600 
Q 550 1309 550 2009 
Q 550 2706 781 3412 
Q 1013 4119 1484 4856 
L 1984 4856 
z
" id="DejaVuSans-28" transform="scale(0.015625)"/>
       <path d="M 3841 3500 
L 2234 1784 
L 3219 0 
L 2559 0 
L 1819 1388 
L 531 0 
L -166 0 
L 1556 1844 
L 641 3500 
L 1300 3500 
L 1972 2234 
L 3144 3500 
L 3841 3500 
z
" id="DejaVuSans-Oblique-78" transform="scale(0.015625)"/>
       <path d="M 513 4856 
L 1013 4856 
Q 1481 4119 1714 3412 
Q 1947 2706 1947 2009 
Q 1947 1309 1714 600 
Q 1481 -109 1013 -844 
L 513 -844 
Q 928 -128 1133 580 
Q 1338 1288 1338 2009 
Q 1338 2731 1133 3434 
Q 928 4138 513 4856 
z
" id="DejaVuSans-29" transform="scale(0.015625)"/>
       <path d="M 1625 4666 
L 2156 4666 
L 531 -594 
L 0 -594 
L 1625 4666 
z
" id="DejaVuSans-2f" transform="scale(0.015625)"/>
      </defs>
      <use transform="translate(0 0.015625)" xlink:href="#DejaVuSans-73"/>
      <use transform="translate(52.099609 0.015625)" xlink:href="#DejaVuSans-69"/>
      <use transform="translate(79.882812 0.015625)" xlink:href="#DejaVuSans-6e"/>
      <use transform="translate(143.261719 0.015625)" xlink:href="#DejaVuSans-28"/>
      <use transform="translate(182.275391 0.015625)" xlink:href="#DejaVuSans-Oblique-78"/>
      <use transform="translate(241.455078 0.015625)" xlink:href="#DejaVuSans-29"/>
      <use transform="translate(280.46875 0.015625)" xlink:href="#DejaVuSans-2f"/>
      <use transform="translate(314.160156 0.015625)" xlink:href="#DejaVuSans-Oblique-78"/>
     </g>
    </g>
    <g id="line2d_18">
     <path d="M 71.1 82.647 
L 101.1 82.647 
" style="fill:none;stroke:#268bd2;stroke-linecap:square;stroke-width:2;"/>
    </g>
    <g id="line2d_19"/>
    <g id="text_14">
     <!-- $\sin(5x) / x$ -->
     <g style="fill:#586e75;" transform="translate(113.1 87.897)scale(0.15 -0.15)">
      <defs>
       <path d="M 691 4666 
L 3169 4666 
L 3169 4134 
L 1269 4134 
L 1269 2991 
Q 1406 3038 1543 3061 
Q 1681 3084 1819 3084 
Q 2600 3084 3056 2656 
Q 3513 2228 3513 1497 
Q 3513 744 3044 326 
Q 2575 -91 1722 -91 
Q 1428 -91 1123 -41 
Q 819 9 494 109 
L 494 744 
Q 775 591 1075 516 
Q 1375 441 1709 441 
Q 2250 441 2565 725 
Q 2881 1009 2881 1497 
Q 2881 1984 2565 2268 
Q 2250 2553 1709 2553 
Q 1456 2553 1204 2497 
Q 953 2441 691 2322 
L 691 4666 
z
" id="DejaVuSans-35" transform="scale(0.015625)"/>
      </defs>
      <use transform="translate(0 0.015625)" xlink:href="#DejaVuSans-73"/>
      <use transform="translate(52.099609 0.015625)" xlink:href="#DejaVuSans-69"/>
      <use transform="translate(79.882812 0.015625)" xlink:href="#DejaVuSans-6e"/>
      <use transform="translate(143.261719 0.015625)" xlink:href="#DejaVuSans-28"/>
      <use transform="translate(182.275391 0.015625)" xlink:href="#DejaVuSans-35"/>
      <use transform="translate(245.898438 0.015625)" xlink:href="#DejaVuSans-Oblique-78"/>
      <use transform="translate(305.078125 0.015625)" xlink:href="#DejaVuSans-29"/>
      <use transform="translate(344.091797 0.015625)" xlink:href="#DejaVuSans-2f"/>
      <use transform="translate(377.783203 0.015625)" xlink:href="#DejaVuSans-Oblique-78"/>
     </g>
    </g>
    <g id="line2d_20">
     <path d="M 71.1 104.997 
L 101.1 104.997 
" style="fill:none;stroke:#dc322f;stroke-linecap:square;stroke-width:2;"/>
    </g>
    <g id="line2d_21"/>
    <g id="text_15">
     <!-- $\sin(10x) / x$ -->
     <g style="fill:#586e75;" transform="translate(113.1 110.247)scale(0.15 -0.15)">
      <use transform="translate(0 0.015625)" xlink:href="#DejaVuSans-73"/>
      <use transform="translate(52.099609 0.015625)" xlink:href="#DejaVuSans-69"/>
      <use transform="translate(79.882812 0.015625)" xlink:href="#DejaVuSans-6e"/>
      <use transform="translate(143.261719 0.015625)" xlink:href="#DejaVuSans-28"/>
      <use transform="translate(182.275391 0.015625)" xlink:href="#DejaVuSans-31"/>
      <use transform="translate(245.898438 0.015625)" xlink:href="#DejaVuSans-30"/>
      <use transform="translate(309.521484 0.015625)" xlink:href="#DejaVuSans-Oblique-78"/>
      <use transform="translate(368.701172 0.015625)" xlink:href="#DejaVuSans-29"/>
      <use transform="translate(407.714844 0.015625)" xlink:href="#DejaVuSans-2f"/>
      <use transform="translate(441.40625 0.015625)" xlink:href="#DejaVuSans-Oblique-78"/>
     </g>
    </g>
   </g>
  </g>
 </g>
 <defs>
  <clipPath id="pda46004635">
   <rect height="266.112" width="357.12" x="57.6" y="41.472"/>
  </clipPath>
 </defs>
</svg>
