<?xml version="1.0" encoding="UTF-8" standalone="no"?>
<!DOCTYPE svg PUBLIC "-//W3C//DTD SVG 1.1//EN"
 "http://www.w3.org/Graphics/SVG/1.1/DTD/svg11.dtd">
<!-- Generated by graphviz version 2.42.3 (0)
 -->
<!-- Title: g Pages: 1 -->
<svg width="755pt" height="962pt"
 viewBox="0.00 0.00 754.99 962.00" xmlns="http://www.w3.org/2000/svg" xmlns:xlink="http://www.w3.org/1999/xlink">
<g id="graph0" class="graph" transform="scale(1 1) rotate(0) translate(4 958)">
<title>g</title>
<polygon fill="white" stroke="transparent" points="-4,4 -4,-958 750.99,-958 750.99,4 -4,4"/>
<g id="clust1" class="cluster">
<title>cluster_input</title>
<polygon fill="none" stroke="white" points="0,-251 0,-702 80,-702 80,-251 0,-251"/>
<text text-anchor="middle" x="40" y="-686.8" font-family="Times,serif" font-size="14.00">Input Layer</text>
</g>
<g id="clust2" class="cluster">
<title>cluster_1</title>
<polygon fill="none" stroke="white" points="208,-8 208,-946 306,-946 306,-8 208,-8"/>
<text text-anchor="middle" x="257" y="-930.8" font-family="Times,serif" font-size="14.00">Hidden Layer1</text>
</g>
<g id="clust3" class="cluster">
<title>cluster_2</title>
<polygon fill="none" stroke="white" points="433,-196 433,-758 530.99,-758 530.99,-196 433,-196"/>
<text text-anchor="middle" x="481.99" y="-742.8" font-family="Times,serif" font-size="14.00">Hidden Layer2</text>
</g>
<g id="clust4" class="cluster">
<title>cluster_output</title>
<polygon fill="none" stroke="white" points="657.99,-438 657.99,-515 746.99,-515 746.99,-438 657.99,-438"/>
<text text-anchor="middle" x="702.49" y="-499.8" font-family="Times,serif" font-size="14.00">Output Layer</text>
</g>
<!-- 1 -->
<g id="node1" class="node">
<title>1</title>
<ellipse fill="#2ecc71" stroke="#2ecc71" cx="40" cy="-277" rx="18" ry="18"/>
<text text-anchor="middle" x="40" y="-273.3" font-family="Times,serif" font-size="14.00" fill="#2ecc71">1</text>
</g>
<!-- 6 -->
<g id="node6" class="node">
<title>6</title>
<ellipse fill="#3498db" stroke="#3498db" cx="256.5" cy="-128" rx="18" ry="18"/>
<text text-anchor="middle" x="256.5" y="-124.3" font-family="Times,serif" font-size="14.00" fill="#3498db">6</text>
</g>
<!-- 1&#45;&gt;6 -->
<g id="edge1" class="edge">
<title>1&#45;&gt;6</title>
<path fill="none" stroke="#707070" d="M55.41,-266.99C94.48,-239.85 202.15,-165.06 241.15,-137.96"/>
</g>
<!-- 7 -->
<g id="node7" class="node">
<title>7</title>
<ellipse fill="#3498db" stroke="#3498db" cx="256.5" cy="-34" rx="18" ry="18"/>
<text text-anchor="middle" x="256.5" y="-30.3" font-family="Times,serif" font-size="14.00" fill="#3498db">7</text>
</g>
<!-- 1&#45;&gt;7 -->
<g id="edge6" class="edge">
<title>1&#45;&gt;7</title>
<path fill="none" stroke="#707070" d="M52.53,-263.94C89.78,-221.74 206.58,-89.41 243.91,-47.13"/>
</g>
<!-- 8 -->
<g id="node8" class="node">
<title>8</title>
<ellipse fill="#3498db" stroke="#3498db" cx="256.5" cy="-897" rx="18" ry="18"/>
<text text-anchor="middle" x="256.5" y="-893.3" font-family="Times,serif" font-size="14.00" fill="#3498db">8</text>
</g>
<!-- 1&#45;&gt;8 -->
<g id="edge11" class="edge">
<title>1&#45;&gt;8</title>
<path fill="none" stroke="#707070" d="M46.85,-293.91C77.47,-382.4 219.05,-791.65 249.65,-880.11"/>
</g>
<!-- 9 -->
<g id="node9" class="node">
<title>9</title>
<ellipse fill="#3498db" stroke="#3498db" cx="256.5" cy="-803" rx="18" ry="18"/>
<text text-anchor="middle" x="256.5" y="-799.3" font-family="Times,serif" font-size="14.00" fill="#3498db">9</text>
</g>
<!-- 1&#45;&gt;9 -->
<g id="edge16" class="edge">
<title>1&#45;&gt;9</title>
<path fill="none" stroke="#707070" d="M47.65,-293.32C79.58,-371.61 216.83,-708.17 248.82,-786.61"/>
</g>
<!-- 10 -->
<g id="node10" class="node">
<title>10</title>
<ellipse fill="#3498db" stroke="#3498db" cx="256.5" cy="-708" rx="19.5" ry="19.5"/>
<text text-anchor="middle" x="256.5" y="-704.3" font-family="Times,serif" font-size="14.00" fill="#3498db">10</text>
</g>
<!-- 1&#45;&gt;10 -->
<g id="edge21" class="edge">
<title>1&#45;&gt;10</title>
<path fill="none" stroke="#707070" d="M48.89,-292.85C82.3,-359.98 212,-620.6 246.84,-690.61"/>
</g>
<!-- 11 -->
<g id="node11" class="node">
<title>11</title>
<ellipse fill="#3498db" stroke="#3498db" cx="256.5" cy="-611" rx="19.5" ry="19.5"/>
<text text-anchor="middle" x="256.5" y="-607.3" font-family="Times,serif" font-size="14.00" fill="#3498db">11</text>
</g>
<!-- 1&#45;&gt;11 -->
<g id="edge26" class="edge">
<title>1&#45;&gt;11</title>
<path fill="none" stroke="#707070" d="M50.49,-291.78C85.68,-346.57 208.52,-537.84 245.12,-594.85"/>
</g>
<!-- 12 -->
<g id="node12" class="node">
<title>12</title>
<ellipse fill="#3498db" stroke="#3498db" cx="256.5" cy="-514" rx="19.5" ry="19.5"/>
<text text-anchor="middle" x="256.5" y="-510.3" font-family="Times,serif" font-size="14.00" fill="#3498db">12</text>
</g>
<!-- 1&#45;&gt;12 -->
<g id="edge31" class="edge">
<title>1&#45;&gt;12</title>
<path fill="none" stroke="#707070" d="M52.84,-290.08C89.99,-331.13 204.08,-457.19 242.62,-499.78"/>
</g>
<!-- 13 -->
<g id="node13" class="node">
<title>13</title>
<ellipse fill="#3498db" stroke="#3498db" cx="256.5" cy="-417" rx="19.5" ry="19.5"/>
<text text-anchor="middle" x="256.5" y="-413.3" font-family="Times,serif" font-size="14.00" fill="#3498db">13</text>
</g>
<!-- 1&#45;&gt;13 -->
<g id="edge36" class="edge">
<title>1&#45;&gt;13</title>
<path fill="none" stroke="#707070" d="M55.41,-286.4C94.01,-311.6 199.57,-380.5 239.72,-406.7"/>
</g>
<!-- 14 -->
<g id="node14" class="node">
<title>14</title>
<ellipse fill="#3498db" stroke="#3498db" cx="256.5" cy="-320" rx="19.5" ry="19.5"/>
<text text-anchor="middle" x="256.5" y="-316.3" font-family="Times,serif" font-size="14.00" fill="#3498db">14</text>
</g>
<!-- 1&#45;&gt;14 -->
<g id="edge41" class="edge">
<title>1&#45;&gt;14</title>
<path fill="none" stroke="#707070" d="M57.83,-280.37C97.43,-288.31 196.25,-308.12 237.24,-316.34"/>
</g>
<!-- 15 -->
<g id="node15" class="node">
<title>15</title>
<ellipse fill="#3498db" stroke="#3498db" cx="256.5" cy="-223" rx="19.5" ry="19.5"/>
<text text-anchor="middle" x="256.5" y="-219.3" font-family="Times,serif" font-size="14.00" fill="#3498db">15</text>
</g>
<!-- 1&#45;&gt;15 -->
<g id="edge46" class="edge">
<title>1&#45;&gt;15</title>
<path fill="none" stroke="#707070" d="M57.83,-272.76C97.43,-262.79 196.25,-237.91 237.24,-227.6"/>
</g>
<!-- 2 -->
<g id="node2" class="node">
<title>2</title>
<ellipse fill="#2ecc71" stroke="#2ecc71" cx="40" cy="-653" rx="18" ry="18"/>
<text text-anchor="middle" x="40" y="-649.3" font-family="Times,serif" font-size="14.00" fill="#2ecc71">2</text>
</g>
<!-- 2&#45;&gt;6 -->
<g id="edge2" class="edge">
<title>2&#45;&gt;6</title>
<path fill="none" stroke="#707070" d="M47.77,-636.42C79.93,-557.73 216.91,-222.46 248.83,-144.32"/>
</g>
<!-- 2&#45;&gt;7 -->
<g id="edge7" class="edge">
<title>2&#45;&gt;7</title>
<path fill="none" stroke="#707070" d="M46.85,-636.12C77.47,-547.77 219.05,-139.18 249.65,-50.86"/>
</g>
<!-- 2&#45;&gt;8 -->
<g id="edge12" class="edge">
<title>2&#45;&gt;8</title>
<path fill="none" stroke="#707070" d="M52.53,-666.12C89.78,-708.48 206.58,-841.36 243.91,-883.82"/>
</g>
<!-- 2&#45;&gt;9 -->
<g id="edge17" class="edge">
<title>2&#45;&gt;9</title>
<path fill="none" stroke="#707070" d="M55.07,-662.84C93.94,-690.02 202.45,-765.9 241.37,-793.12"/>
</g>
<!-- 2&#45;&gt;10 -->
<g id="edge22" class="edge">
<title>2&#45;&gt;10</title>
<path fill="none" stroke="#707070" d="M57.83,-657.32C97.53,-667.5 196.75,-692.94 237.54,-703.4"/>
</g>
<!-- 2&#45;&gt;11 -->
<g id="edge27" class="edge">
<title>2&#45;&gt;11</title>
<path fill="none" stroke="#707070" d="M57.83,-649.7C97.43,-641.95 196.25,-622.6 237.24,-614.58"/>
</g>
<!-- 2&#45;&gt;12 -->
<g id="edge32" class="edge">
<title>2&#45;&gt;12</title>
<path fill="none" stroke="#707070" d="M55.41,-643.66C94.01,-618.65 199.57,-550.24 239.72,-524.23"/>
</g>
<!-- 2&#45;&gt;13 -->
<g id="edge37" class="edge">
<title>2&#45;&gt;13</title>
<path fill="none" stroke="#707070" d="M52.84,-639.98C89.99,-599.1 204.08,-473.57 242.62,-431.16"/>
</g>
<!-- 2&#45;&gt;14 -->
<g id="edge42" class="edge">
<title>2&#45;&gt;14</title>
<path fill="none" stroke="#707070" d="M50.49,-638.26C85.68,-583.63 208.52,-392.94 245.12,-336.11"/>
</g>
<!-- 2&#45;&gt;15 -->
<g id="edge47" class="edge">
<title>2&#45;&gt;15</title>
<path fill="none" stroke="#707070" d="M48.89,-637.19C82.3,-570.21 212,-310.2 246.84,-240.35"/>
</g>
<!-- 3 -->
<g id="node3" class="node">
<title>3</title>
<ellipse fill="#2ecc71" stroke="#2ecc71" cx="40" cy="-559" rx="18" ry="18"/>
<text text-anchor="middle" x="40" y="-555.3" font-family="Times,serif" font-size="14.00" fill="#2ecc71">3</text>
</g>
<!-- 3&#45;&gt;6 -->
<g id="edge3" class="edge">
<title>3&#45;&gt;6</title>
<path fill="none" stroke="#707070" d="M48.89,-543.15C82.52,-475.57 213.77,-211.86 247.54,-143.99"/>
</g>
<!-- 3&#45;&gt;7 -->
<g id="edge8" class="edge">
<title>3&#45;&gt;7</title>
<path fill="none" stroke="#707070" d="M47.77,-542.42C79.93,-463.73 216.91,-128.46 248.83,-50.32"/>
</g>
<!-- 3&#45;&gt;8 -->
<g id="edge13" class="edge">
<title>3&#45;&gt;8</title>
<path fill="none" stroke="#707070" d="M50.49,-573.96C86.01,-629.92 210.79,-826.54 246.11,-882.21"/>
</g>
<!-- 3&#45;&gt;9 -->
<g id="edge18" class="edge">
<title>3&#45;&gt;9</title>
<path fill="none" stroke="#707070" d="M52.53,-572.12C89.78,-614.48 206.58,-747.36 243.91,-789.82"/>
</g>
<!-- 3&#45;&gt;10 -->
<g id="edge23" class="edge">
<title>3&#45;&gt;10</title>
<path fill="none" stroke="#707070" d="M55.41,-569.01C94.11,-595.89 200.09,-669.51 240.01,-697.24"/>
</g>
<!-- 3&#45;&gt;11 -->
<g id="edge28" class="edge">
<title>3&#45;&gt;11</title>
<path fill="none" stroke="#707070" d="M57.83,-563.08C97.43,-572.68 196.25,-596.64 237.24,-606.57"/>
</g>
<!-- 3&#45;&gt;12 -->
<g id="edge33" class="edge">
<title>3&#45;&gt;12</title>
<path fill="none" stroke="#707070" d="M57.83,-555.47C97.43,-547.16 196.25,-526.43 237.24,-517.83"/>
</g>
<!-- 3&#45;&gt;13 -->
<g id="edge38" class="edge">
<title>3&#45;&gt;13</title>
<path fill="none" stroke="#707070" d="M55.41,-549.46C94.01,-523.9 199.57,-454.02 239.72,-427.45"/>
</g>
<!-- 3&#45;&gt;14 -->
<g id="edge43" class="edge">
<title>3&#45;&gt;14</title>
<path fill="none" stroke="#707070" d="M52.84,-545.81C90.08,-504.32 204.62,-376.69 242.9,-334.04"/>
</g>
<!-- 3&#45;&gt;15 -->
<g id="edge48" class="edge">
<title>3&#45;&gt;15</title>
<path fill="none" stroke="#707070" d="M50.49,-544.13C85.68,-489.01 208.52,-296.6 245.12,-239.25"/>
</g>
<!-- 4 -->
<g id="node4" class="node">
<title>4</title>
<ellipse fill="#2ecc71" stroke="#2ecc71" cx="40" cy="-465" rx="18" ry="18"/>
<text text-anchor="middle" x="40" y="-461.3" font-family="Times,serif" font-size="14.00" fill="#2ecc71">4</text>
</g>
<!-- 4&#45;&gt;6 -->
<g id="edge4" class="edge">
<title>4&#45;&gt;6</title>
<path fill="none" stroke="#707070" d="M50.49,-450.08C86.01,-394.29 210.79,-198.25 246.11,-142.74"/>
</g>
<!-- 4&#45;&gt;7 -->
<g id="edge9" class="edge">
<title>4&#45;&gt;7</title>
<path fill="none" stroke="#707070" d="M48.89,-449.15C82.52,-381.57 213.77,-117.86 247.54,-49.99"/>
</g>
<!-- 4&#45;&gt;8 -->
<g id="edge14" class="edge">
<title>4&#45;&gt;8</title>
<path fill="none" stroke="#707070" d="M48.89,-480.89C82.52,-548.63 213.77,-812.95 247.54,-880.97"/>
</g>
<!-- 4&#45;&gt;9 -->
<g id="edge19" class="edge">
<title>4&#45;&gt;9</title>
<path fill="none" stroke="#707070" d="M50.49,-479.96C86.01,-535.92 210.79,-732.54 246.11,-788.21"/>
</g>
<!-- 4&#45;&gt;10 -->
<g id="edge24" class="edge">
<title>4&#45;&gt;10</title>
<path fill="none" stroke="#707070" d="M52.53,-478.06C89.43,-519.86 204.41,-650.12 242.84,-693.66"/>
</g>
<!-- 4&#45;&gt;11 -->
<g id="edge29" class="edge">
<title>4&#45;&gt;11</title>
<path fill="none" stroke="#707070" d="M55.41,-474.81C94.11,-501.15 200.09,-573.28 240.01,-600.46"/>
</g>
<!-- 4&#45;&gt;12 -->
<g id="edge34" class="edge">
<title>4&#45;&gt;12</title>
<path fill="none" stroke="#707070" d="M57.83,-468.84C97.43,-477.89 196.25,-500.47 237.24,-509.83"/>
</g>
<!-- 4&#45;&gt;13 -->
<g id="edge39" class="edge">
<title>4&#45;&gt;13</title>
<path fill="none" stroke="#707070" d="M57.83,-461.23C97.43,-452.37 196.25,-430.26 237.24,-421.09"/>
</g>
<!-- 4&#45;&gt;14 -->
<g id="edge44" class="edge">
<title>4&#45;&gt;14</title>
<path fill="none" stroke="#707070" d="M55.41,-455.26C94.11,-429.1 200.09,-357.46 240.01,-330.47"/>
</g>
<!-- 4&#45;&gt;15 -->
<g id="edge49" class="edge">
<title>4&#45;&gt;15</title>
<path fill="none" stroke="#707070" d="M52.53,-451.99C89.43,-410.36 204.41,-280.64 242.84,-237.28"/>
</g>
<!-- 5 -->
<g id="node5" class="node">
<title>5</title>
<ellipse fill="#2ecc71" stroke="#2ecc71" cx="40" cy="-371" rx="18" ry="18"/>
<text text-anchor="middle" x="40" y="-367.3" font-family="Times,serif" font-size="14.00" fill="#2ecc71">5</text>
</g>
<!-- 5&#45;&gt;6 -->
<g id="edge5" class="edge">
<title>5&#45;&gt;6</title>
<path fill="none" stroke="#707070" d="M52.53,-357.94C89.78,-315.74 206.58,-183.41 243.91,-141.13"/>
</g>
<!-- 5&#45;&gt;7 -->
<g id="edge10" class="edge">
<title>5&#45;&gt;7</title>
<path fill="none" stroke="#707070" d="M50.49,-356.08C86.01,-300.29 210.79,-104.25 246.11,-48.74"/>
</g>
<!-- 5&#45;&gt;8 -->
<g id="edge15" class="edge">
<title>5&#45;&gt;8</title>
<path fill="none" stroke="#707070" d="M47.65,-387.32C79.58,-465.61 216.83,-802.17 248.82,-880.61"/>
</g>
<!-- 5&#45;&gt;9 -->
<g id="edge20" class="edge">
<title>5&#45;&gt;9</title>
<path fill="none" stroke="#707070" d="M48.89,-386.89C82.52,-454.63 213.77,-718.95 247.54,-786.97"/>
</g>
<!-- 5&#45;&gt;10 -->
<g id="edge25" class="edge">
<title>5&#45;&gt;10</title>
<path fill="none" stroke="#707070" d="M50.49,-385.92C85.68,-441.2 208.52,-634.18 245.12,-691.7"/>
</g>
<!-- 5&#45;&gt;11 -->
<g id="edge30" class="edge">
<title>5&#45;&gt;11</title>
<path fill="none" stroke="#707070" d="M52.84,-384.25C90.08,-425.91 204.62,-554.07 242.9,-596.9"/>
</g>
<!-- 5&#45;&gt;12 -->
<g id="edge35" class="edge">
<title>5&#45;&gt;12</title>
<path fill="none" stroke="#707070" d="M55.41,-380.6C94.01,-406.34 199.57,-476.72 239.72,-503.48"/>
</g>
<!-- 5&#45;&gt;13 -->
<g id="edge40" class="edge">
<title>5&#45;&gt;13</title>
<path fill="none" stroke="#707070" d="M57.83,-374.61C97.43,-383.1 196.25,-404.29 237.24,-413.08"/>
</g>
<!-- 5&#45;&gt;14 -->
<g id="edge45" class="edge">
<title>5&#45;&gt;14</title>
<path fill="none" stroke="#707070" d="M57.83,-367C97.43,-357.58 196.25,-334.09 237.24,-324.34"/>
</g>
<!-- 5&#45;&gt;15 -->
<g id="edge50" class="edge">
<title>5&#45;&gt;15</title>
<path fill="none" stroke="#707070" d="M55.41,-361.06C94.11,-334.36 200.09,-261.23 240.01,-233.69"/>
</g>
<!-- 16 -->
<g id="node16" class="node">
<title>16</title>
<ellipse fill="#3498db" stroke="#3498db" cx="481.49" cy="-514" rx="19.5" ry="19.5"/>
<text text-anchor="middle" x="481.49" y="-510.3" font-family="Times,serif" font-size="14.00" fill="#3498db">16</text>
</g>
<!-- 6&#45;&gt;16 -->
<g id="edge51" class="edge">
<title>6&#45;&gt;16</title>
<path fill="none" stroke="#707070" d="M266.52,-143.61C302.29,-205.53 434.03,-433.57 470.87,-497.33"/>
</g>
<!-- 17 -->
<g id="node17" class="node">
<title>17</title>
<ellipse fill="#3498db" stroke="#3498db" cx="481.49" cy="-417" rx="19.5" ry="19.5"/>
<text text-anchor="middle" x="481.49" y="-413.3" font-family="Times,serif" font-size="14.00" fill="#3498db">17</text>
</g>
<!-- 6&#45;&gt;17 -->
<g id="edge61" class="edge">
<title>6&#45;&gt;17</title>
<path fill="none" stroke="#707070" d="M268.25,-141.94C305.66,-190.42 429.94,-351.48 468.79,-401.82"/>
</g>
<!-- 18 -->
<g id="node18" class="node">
<title>18</title>
<ellipse fill="#3498db" stroke="#3498db" cx="481.49" cy="-320" rx="19.5" ry="19.5"/>
<text text-anchor="middle" x="481.49" y="-316.3" font-family="Times,serif" font-size="14.00" fill="#3498db">18</text>
</g>
<!-- 6&#45;&gt;18 -->
<g id="edge71" class="edge">
<title>6&#45;&gt;18</title>
<path fill="none" stroke="#707070" d="M270.78,-139.44C310.07,-173.26 425.5,-272.65 466.14,-307.64"/>
</g>
<!-- 19 -->
<g id="node19" class="node">
<title>19</title>
<ellipse fill="#3498db" stroke="#3498db" cx="481.49" cy="-223" rx="19.5" ry="19.5"/>
<text text-anchor="middle" x="481.49" y="-219.3" font-family="Times,serif" font-size="14.00" fill="#3498db">19</text>
</g>
<!-- 6&#45;&gt;19 -->
<g id="edge81" class="edge">
<title>6&#45;&gt;19</title>
<path fill="none" stroke="#707070" d="M273.54,-134.83C314.28,-152.19 421.51,-197.87 463.39,-215.71"/>
</g>
<!-- 20 -->
<g id="node20" class="node">
<title>20</title>
<ellipse fill="#3498db" stroke="#3498db" cx="481.49" cy="-708" rx="19.5" ry="19.5"/>
<text text-anchor="middle" x="481.49" y="-704.3" font-family="Times,serif" font-size="14.00" fill="#3498db">20</text>
</g>
<!-- 6&#45;&gt;20 -->
<g id="edge91" class="edge">
<title>6&#45;&gt;20</title>
<path fill="none" stroke="#707070" d="M263.93,-144.73C296.21,-228.69 440.28,-603.4 473.6,-690.07"/>
</g>
<!-- 21 -->
<g id="node21" class="node">
<title>21</title>
<ellipse fill="#3498db" stroke="#3498db" cx="481.49" cy="-611" rx="19.5" ry="19.5"/>
<text text-anchor="middle" x="481.49" y="-607.3" font-family="Times,serif" font-size="14.00" fill="#3498db">21</text>
</g>
<!-- 6&#45;&gt;21 -->
<g id="edge101" class="edge">
<title>6&#45;&gt;21</title>
<path fill="none" stroke="#707070" d="M264.92,-144.07C298.66,-217.16 437.5,-517.87 472.47,-593.62"/>
</g>
<!-- 7&#45;&gt;16 -->
<g id="edge52" class="edge">
<title>7&#45;&gt;16</title>
<path fill="none" stroke="#707070" d="M264.92,-49.97C298.62,-122.52 437.19,-420.78 472.35,-496.47"/>
</g>
<!-- 7&#45;&gt;17 -->
<g id="edge62" class="edge">
<title>7&#45;&gt;17</title>
<path fill="none" stroke="#707070" d="M266.52,-49.49C302.29,-110.93 434.03,-337.19 470.87,-400.46"/>
</g>
<!-- 7&#45;&gt;18 -->
<g id="edge72" class="edge">
<title>7&#45;&gt;18</title>
<path fill="none" stroke="#707070" d="M268.25,-47.79C305.66,-95.77 429.94,-255.16 468.79,-304.98"/>
</g>
<!-- 7&#45;&gt;19 -->
<g id="edge82" class="edge">
<title>7&#45;&gt;19</title>
<path fill="none" stroke="#707070" d="M270.78,-45.26C310.07,-78.55 425.5,-176.39 466.14,-210.83"/>
</g>
<!-- 7&#45;&gt;20 -->
<g id="edge92" class="edge">
<title>7&#45;&gt;20</title>
<path fill="none" stroke="#707070" d="M263.12,-51C293.99,-144.3 442.62,-593.51 474.47,-689.8"/>
</g>
<!-- 7&#45;&gt;21 -->
<g id="edge102" class="edge">
<title>7&#45;&gt;21</title>
<path fill="none" stroke="#707070" d="M263.93,-50.65C296.21,-134.16 440.28,-506.94 473.6,-593.16"/>
</g>
<!-- 8&#45;&gt;16 -->
<g id="edge53" class="edge">
<title>8&#45;&gt;16</title>
<path fill="none" stroke="#707070" d="M266.52,-881.51C302.29,-820.07 434.03,-593.81 470.87,-530.54"/>
</g>
<!-- 8&#45;&gt;17 -->
<g id="edge63" class="edge">
<title>8&#45;&gt;17</title>
<path fill="none" stroke="#707070" d="M264.92,-881.03C298.62,-808.48 437.19,-510.22 472.35,-434.53"/>
</g>
<!-- 8&#45;&gt;18 -->
<g id="edge73" class="edge">
<title>8&#45;&gt;18</title>
<path fill="none" stroke="#707070" d="M263.93,-880.35C296.21,-796.84 440.28,-424.06 473.6,-337.84"/>
</g>
<!-- 8&#45;&gt;19 -->
<g id="edge83" class="edge">
<title>8&#45;&gt;19</title>
<path fill="none" stroke="#707070" d="M263.12,-880C293.99,-786.7 442.62,-337.49 474.47,-241.2"/>
</g>
<!-- 8&#45;&gt;20 -->
<g id="edge93" class="edge">
<title>8&#45;&gt;20</title>
<path fill="none" stroke="#707070" d="M270.78,-885.74C310.07,-852.45 425.5,-754.61 466.14,-720.17"/>
</g>
<!-- 8&#45;&gt;21 -->
<g id="edge103" class="edge">
<title>8&#45;&gt;21</title>
<path fill="none" stroke="#707070" d="M268.25,-883.21C305.66,-835.23 429.94,-675.84 468.79,-626.02"/>
</g>
<!-- 9&#45;&gt;16 -->
<g id="edge54" class="edge">
<title>9&#45;&gt;16</title>
<path fill="none" stroke="#707070" d="M268.25,-789.06C305.66,-740.58 429.94,-579.52 468.79,-529.18"/>
</g>
<!-- 9&#45;&gt;17 -->
<g id="edge64" class="edge">
<title>9&#45;&gt;17</title>
<path fill="none" stroke="#707070" d="M266.52,-787.39C302.29,-725.47 434.03,-497.43 470.87,-433.67"/>
</g>
<!-- 9&#45;&gt;18 -->
<g id="edge74" class="edge">
<title>9&#45;&gt;18</title>
<path fill="none" stroke="#707070" d="M264.92,-786.93C298.66,-713.84 437.5,-413.13 472.47,-337.38"/>
</g>
<!-- 9&#45;&gt;19 -->
<g id="edge84" class="edge">
<title>9&#45;&gt;19</title>
<path fill="none" stroke="#707070" d="M263.93,-786.27C296.21,-702.31 440.28,-327.6 473.6,-240.93"/>
</g>
<!-- 9&#45;&gt;20 -->
<g id="edge94" class="edge">
<title>9&#45;&gt;20</title>
<path fill="none" stroke="#707070" d="M273.54,-796.17C314.28,-778.81 421.51,-733.13 463.39,-715.29"/>
</g>
<!-- 9&#45;&gt;21 -->
<g id="edge104" class="edge">
<title>9&#45;&gt;21</title>
<path fill="none" stroke="#707070" d="M270.78,-791.56C310.07,-757.74 425.5,-658.35 466.14,-623.36"/>
</g>
<!-- 10&#45;&gt;16 -->
<g id="edge55" class="edge">
<title>10&#45;&gt;16</title>
<path fill="none" stroke="#707070" d="M271.79,-695.57C312.06,-660.53 426.19,-561.24 466.33,-526.33"/>
</g>
<!-- 10&#45;&gt;17 -->
<g id="edge65" class="edge">
<title>10&#45;&gt;17</title>
<path fill="none" stroke="#707070" d="M269.17,-692.76C307.71,-642.48 430.57,-482.15 468.94,-432.08"/>
</g>
<!-- 10&#45;&gt;18 -->
<g id="edge75" class="edge">
<title>10&#45;&gt;18</title>
<path fill="none" stroke="#707070" d="M267.08,-691.33C303.68,-627.65 434.41,-400.18 470.95,-336.61"/>
</g>
<!-- 10&#45;&gt;19 -->
<g id="edge85" class="edge">
<title>10&#45;&gt;19</title>
<path fill="none" stroke="#707070" d="M265.57,-690.45C300.39,-614.71 437.63,-316.22 472.44,-240.52"/>
</g>
<!-- 10&#45;&gt;20 -->
<g id="edge95" class="edge">
<title>10&#45;&gt;20</title>
<path fill="none" stroke="#707070" d="M276.13,-708C318.1,-708 419.69,-708 461.76,-708"/>
</g>
<!-- 10&#45;&gt;21 -->
<g id="edge105" class="edge">
<title>10&#45;&gt;21</title>
<path fill="none" stroke="#707070" d="M274.63,-700.55C316.13,-682.49 421.74,-636.56 463.31,-618.48"/>
</g>
<!-- 11&#45;&gt;16 -->
<g id="edge56" class="edge">
<title>11&#45;&gt;16</title>
<path fill="none" stroke="#707070" d="M274.63,-603.55C316.13,-585.49 421.74,-539.56 463.31,-521.48"/>
</g>
<!-- 11&#45;&gt;17 -->
<g id="edge66" class="edge">
<title>11&#45;&gt;17</title>
<path fill="none" stroke="#707070" d="M271.79,-598.57C312.06,-563.53 426.19,-464.24 466.33,-429.33"/>
</g>
<!-- 11&#45;&gt;18 -->
<g id="edge76" class="edge">
<title>11&#45;&gt;18</title>
<path fill="none" stroke="#707070" d="M269.17,-595.76C307.71,-545.48 430.57,-385.15 468.94,-335.08"/>
</g>
<!-- 11&#45;&gt;19 -->
<g id="edge86" class="edge">
<title>11&#45;&gt;19</title>
<path fill="none" stroke="#707070" d="M267.08,-594.33C303.68,-530.65 434.41,-303.18 470.95,-239.61"/>
</g>
<!-- 11&#45;&gt;20 -->
<g id="edge96" class="edge">
<title>11&#45;&gt;20</title>
<path fill="none" stroke="#707070" d="M274.63,-618.45C316.13,-636.51 421.74,-682.44 463.31,-700.52"/>
</g>
<!-- 11&#45;&gt;21 -->
<g id="edge106" class="edge">
<title>11&#45;&gt;21</title>
<path fill="none" stroke="#707070" d="M276.13,-611C318.1,-611 419.69,-611 461.76,-611"/>
</g>
<!-- 12&#45;&gt;16 -->
<g id="edge57" class="edge">
<title>12&#45;&gt;16</title>
<path fill="none" stroke="#707070" d="M276.13,-514C318.1,-514 419.69,-514 461.76,-514"/>
</g>
<!-- 12&#45;&gt;17 -->
<g id="edge67" class="edge">
<title>12&#45;&gt;17</title>
<path fill="none" stroke="#707070" d="M274.63,-506.55C316.13,-488.49 421.74,-442.56 463.31,-424.48"/>
</g>
<!-- 12&#45;&gt;18 -->
<g id="edge77" class="edge">
<title>12&#45;&gt;18</title>
<path fill="none" stroke="#707070" d="M271.79,-501.57C312.06,-466.53 426.19,-367.24 466.33,-332.33"/>
</g>
<!-- 12&#45;&gt;19 -->
<g id="edge87" class="edge">
<title>12&#45;&gt;19</title>
<path fill="none" stroke="#707070" d="M269.17,-498.76C307.71,-448.48 430.57,-288.15 468.94,-238.08"/>
</g>
<!-- 12&#45;&gt;20 -->
<g id="edge97" class="edge">
<title>12&#45;&gt;20</title>
<path fill="none" stroke="#707070" d="M271.79,-526.43C312.06,-561.47 426.19,-660.76 466.33,-695.67"/>
</g>
<!-- 12&#45;&gt;21 -->
<g id="edge107" class="edge">
<title>12&#45;&gt;21</title>
<path fill="none" stroke="#707070" d="M274.63,-521.45C316.13,-539.51 421.74,-585.44 463.31,-603.52"/>
</g>
<!-- 13&#45;&gt;16 -->
<g id="edge58" class="edge">
<title>13&#45;&gt;16</title>
<path fill="none" stroke="#707070" d="M274.63,-424.45C316.13,-442.51 421.74,-488.44 463.31,-506.52"/>
</g>
<!-- 13&#45;&gt;17 -->
<g id="edge68" class="edge">
<title>13&#45;&gt;17</title>
<path fill="none" stroke="#707070" d="M276.13,-417C318.1,-417 419.69,-417 461.76,-417"/>
</g>
<!-- 13&#45;&gt;18 -->
<g id="edge78" class="edge">
<title>13&#45;&gt;18</title>
<path fill="none" stroke="#707070" d="M274.63,-409.55C316.13,-391.49 421.74,-345.56 463.31,-327.48"/>
</g>
<!-- 13&#45;&gt;19 -->
<g id="edge88" class="edge">
<title>13&#45;&gt;19</title>
<path fill="none" stroke="#707070" d="M271.79,-404.57C312.06,-369.53 426.19,-270.24 466.33,-235.33"/>
</g>
<!-- 13&#45;&gt;20 -->
<g id="edge98" class="edge">
<title>13&#45;&gt;20</title>
<path fill="none" stroke="#707070" d="M269.17,-432.24C307.71,-482.52 430.57,-642.85 468.94,-692.92"/>
</g>
<!-- 13&#45;&gt;21 -->
<g id="edge108" class="edge">
<title>13&#45;&gt;21</title>
<path fill="none" stroke="#707070" d="M271.79,-429.43C312.06,-464.47 426.19,-563.76 466.33,-598.67"/>
</g>
<!-- 14&#45;&gt;16 -->
<g id="edge59" class="edge">
<title>14&#45;&gt;16</title>
<path fill="none" stroke="#707070" d="M271.79,-332.43C312.06,-367.47 426.19,-466.76 466.33,-501.67"/>
</g>
<!-- 14&#45;&gt;17 -->
<g id="edge69" class="edge">
<title>14&#45;&gt;17</title>
<path fill="none" stroke="#707070" d="M274.63,-327.45C316.13,-345.51 421.74,-391.44 463.31,-409.52"/>
</g>
<!-- 14&#45;&gt;18 -->
<g id="edge79" class="edge">
<title>14&#45;&gt;18</title>
<path fill="none" stroke="#707070" d="M276.13,-320C318.1,-320 419.69,-320 461.76,-320"/>
</g>
<!-- 14&#45;&gt;19 -->
<g id="edge89" class="edge">
<title>14&#45;&gt;19</title>
<path fill="none" stroke="#707070" d="M274.63,-312.55C316.13,-294.49 421.74,-248.56 463.31,-230.48"/>
</g>
<!-- 14&#45;&gt;20 -->
<g id="edge99" class="edge">
<title>14&#45;&gt;20</title>
<path fill="none" stroke="#707070" d="M267.08,-336.67C303.68,-400.35 434.41,-627.82 470.95,-691.39"/>
</g>
<!-- 14&#45;&gt;21 -->
<g id="edge109" class="edge">
<title>14&#45;&gt;21</title>
<path fill="none" stroke="#707070" d="M269.17,-335.24C307.71,-385.52 430.57,-545.85 468.94,-595.92"/>
</g>
<!-- 15&#45;&gt;16 -->
<g id="edge60" class="edge">
<title>15&#45;&gt;16</title>
<path fill="none" stroke="#707070" d="M269.17,-238.24C307.71,-288.52 430.57,-448.85 468.94,-498.92"/>
</g>
<!-- 15&#45;&gt;17 -->
<g id="edge70" class="edge">
<title>15&#45;&gt;17</title>
<path fill="none" stroke="#707070" d="M271.79,-235.43C312.06,-270.47 426.19,-369.76 466.33,-404.67"/>
</g>
<!-- 15&#45;&gt;18 -->
<g id="edge80" class="edge">
<title>15&#45;&gt;18</title>
<path fill="none" stroke="#707070" d="M274.63,-230.45C316.13,-248.51 421.74,-294.44 463.31,-312.52"/>
</g>
<!-- 15&#45;&gt;19 -->
<g id="edge90" class="edge">
<title>15&#45;&gt;19</title>
<path fill="none" stroke="#707070" d="M276.13,-223C318.1,-223 419.69,-223 461.76,-223"/>
</g>
<!-- 15&#45;&gt;20 -->
<g id="edge100" class="edge">
<title>15&#45;&gt;20</title>
<path fill="none" stroke="#707070" d="M265.57,-240.55C300.39,-316.29 437.63,-614.78 472.44,-690.48"/>
</g>
<!-- 15&#45;&gt;21 -->
<g id="edge110" class="edge">
<title>15&#45;&gt;21</title>
<path fill="none" stroke="#707070" d="M267.08,-239.67C303.68,-303.35 434.41,-530.82 470.95,-594.39"/>
</g>
<!-- 22 -->
<g id="node22" class="node">
<title>22</title>
<ellipse fill="#e74c3c" stroke="#e74c3c" cx="702.49" cy="-465" rx="19.5" ry="19.5"/>
<text text-anchor="middle" x="702.49" y="-461.3" font-family="Times,serif" font-size="14.00" fill="#e74c3c">22</text>
</g>
<!-- 16&#45;&gt;22 -->
<g id="edge111" class="edge">
<title>16&#45;&gt;22</title>
<path fill="none" stroke="#707070" d="M500.79,-509.91C542.12,-500.66 642.27,-478.25 683.4,-469.05"/>
</g>
<!-- 17&#45;&gt;22 -->
<g id="edge112" class="edge">
<title>17&#45;&gt;22</title>
<path fill="none" stroke="#707070" d="M500.79,-421.01C542.01,-430.05 641.78,-451.91 683.09,-460.97"/>
</g>
<!-- 18&#45;&gt;22 -->
<g id="edge113" class="edge">
<title>18&#45;&gt;22</title>
<path fill="none" stroke="#707070" d="M498.24,-330.43C538.65,-357.18 645.64,-428.02 685.88,-454.67"/>
</g>
<!-- 19&#45;&gt;22 -->
<g id="edge114" class="edge">
<title>19&#45;&gt;22</title>
<path fill="none" stroke="#707070" d="M495.22,-237.06C533.92,-279.83 649.98,-408.08 688.74,-450.9"/>
</g>
<!-- 20&#45;&gt;22 -->
<g id="edge115" class="edge">
<title>20&#45;&gt;22</title>
<path fill="none" stroke="#707070" d="M495.22,-693.88C533.92,-650.94 649.98,-522.15 688.74,-479.15"/>
</g>
<!-- 21&#45;&gt;22 -->
<g id="edge116" class="edge">
<title>21&#45;&gt;22</title>
<path fill="none" stroke="#707070" d="M498.24,-600.5C538.65,-573.56 645.64,-502.24 685.88,-475.4"/>
</g>
</g>
</svg>
